<svg width="42" height="42" viewBox="0 0 42 42" fill="none" xmlns="http://www.w3.org/2000/svg">
<path d="M34.7076 22.5714C34.7076 23.5089 33.9308 24.2857 32.9933 24.2857H24.4219V32.8571C24.4219 33.7946 23.6451 34.5714 22.7076 34.5714H19.279C18.3415 34.5714 17.5647 33.7946 17.5647 32.8571V24.2857H8.9933C8.0558 24.2857 7.27902 23.5089 7.27902 22.5714V19.1429C7.27902 18.2054 8.0558 17.4286 8.9933 17.4286H17.5647V8.85714C17.5647 7.91964 18.3415 7.14285 19.279 7.14285H22.7076C23.6451 7.14285 24.4219 7.91964 24.4219 8.85714V17.4286H32.9933C33.9308 17.4286 34.7076 18.2054 34.7076 19.1429V22.5714ZM41.5647 8C41.5647 3.74107 38.1094 0.285712 33.8504 0.285712H8.13616C3.87723 0.285712 0.421875 3.74107 0.421875 8V33.7143C0.421875 37.9732 3.87723 41.4286 8.13616 41.4286H33.8504C38.1094 41.4286 41.5647 37.9732 41.5647 33.7143V8Z" fill="#F53248"/>
</svg>
