<svg width="31" height="35" viewBox="0 0 31 35" fill="none" xmlns="http://www.w3.org/2000/svg">
<path d="M18.5446 28.4375H20.2054C20.6205 28.4375 21.0357 28.0957 21.0357 27.6172V12.8516C21.0357 12.4414 20.6205 12.0312 20.2054 12.0312H18.5446C18.0603 12.0312 17.7143 12.4414 17.7143 12.8516V27.6172C17.7143 28.0957 18.0603 28.4375 18.5446 28.4375ZM29.8929 5.46875H24.1496L21.7969 1.64062C21.2433 0.751953 19.9978 0 18.9598 0H11.971C10.933 0 9.6875 0.751953 9.13393 1.64062L6.78125 5.46875H1.10714C0.484375 5.46875 0 6.01562 0 6.5625V7.65625C0 8.27148 0.484375 8.75 1.10714 8.75H2.21429V31.7188C2.21429 33.5645 3.66741 35 5.53571 35H25.4643C27.2634 35 28.7857 33.5645 28.7857 31.7188V8.75H29.8929C30.4464 8.75 31 8.27148 31 7.65625V6.5625C31 6.01562 30.4464 5.46875 29.8929 5.46875ZM11.8326 3.48633C11.9018 3.41797 12.1094 3.28125 12.1786 3.28125H12.2478H18.7522C18.8214 3.28125 19.029 3.41797 19.0982 3.48633L20.2746 5.46875H10.6562L11.8326 3.48633ZM25.4643 31.7188H5.53571V8.75H25.4643V31.7188ZM10.7946 28.4375H12.4554C12.8705 28.4375 13.2857 28.0957 13.2857 27.6172V12.8516C13.2857 12.4414 12.8705 12.0312 12.4554 12.0312H10.7946C10.3103 12.0312 9.96429 12.4414 9.96429 12.8516V27.6172C9.96429 28.0957 10.3103 28.4375 10.7946 28.4375Z" fill="#F53248"/>
</svg>
