<svg width="43" height="34" viewBox="0 0 43 34" fill="none" xmlns="http://www.w3.org/2000/svg">
<path d="M21.4066 25.5H20.0566V23.1818H17.7424V21.8295L20.5388 19.0284L24.2029 22.6989L21.4066 25.5ZM32.0135 8.11364C32.2304 8.33097 32.2063 8.69318 31.9894 8.91051L23.5521 17.3622C23.3351 17.5795 22.9735 17.6037 22.7566 17.3864C22.5396 17.169 22.5637 16.8068 22.7807 16.5895L31.2179 8.13779C31.4349 7.92045 31.7965 7.89631 32.0135 8.11364ZM33.942 22.4574C33.942 22.1435 33.7491 21.8778 33.4598 21.7571C33.1706 21.6364 32.8572 21.6847 32.6161 21.9261L31.0733 23.4716C30.9287 23.6165 30.8563 23.8097 30.8563 24.0028V27.0455C30.8563 29.1705 29.1207 30.9091 26.9993 30.9091H6.94268C4.8213 30.9091 3.08563 29.1705 3.08563 27.0455V6.95455C3.08563 4.82955 4.8213 3.09091 6.94268 3.09091H26.9993C27.3609 3.09091 27.7225 3.1392 28.0841 3.23579C28.3493 3.33239 28.6385 3.25994 28.8555 3.04261L30.0367 1.85938C30.2296 1.66619 30.3019 1.42472 30.2537 1.15909C30.2055 0.917614 30.0367 0.700283 29.8198 0.603693C28.9278 0.193181 27.9636 0 26.9993 0H6.94268C3.10974 0 0 3.11506 0 6.95455V27.0455C0 30.8849 3.10974 34 6.94268 34H26.9993C30.8322 34 33.942 30.8849 33.942 27.0455V22.4574ZM31.6277 4.63636L15.4282 20.8636V27.8182H22.3708L38.5704 11.5909L31.6277 4.63636ZM42.331 7.82386C43.223 6.9304 43.223 5.43324 42.331 4.53977L38.6669 0.869317C37.7749 -0.024147 36.2803 -0.024147 35.3884 0.869317L33.1706 3.09091L40.1132 10.0455L42.331 7.82386Z" fill="#F53248"/>
</svg>
