<svg width="520" height="117" viewBox="0 0 520 117" fill="none" xmlns="http://www.w3.org/2000/svg">
<path d="M196.699 35.9033C196.699 42.5307 191.327 47.9033 184.699 47.9033C178.072 47.9033 172.699 42.5307 172.699 35.9033C172.699 29.2759 178.072 23.9033 184.699 23.9033C191.327 23.9033 196.699 29.2759 196.699 35.9033Z" fill="#FABC14"/>
<path d="M19.35 52.9037V37.9537L9.3 52.9037H0L12.5 35.6037L0.7 19.5537H9.5L19.35 33.8537V19.5537H27.05V33.8537L36.9 19.5537H45.7L33.9 35.6037L46.45 52.9037H37.15L27.05 37.9537V52.9037H19.35Z" fill="black"/>
<path d="M56.1703 19.5537H63.8703V41.3537L79.3203 19.1537H86.1203V52.9037H78.4203V31.0537L62.9703 53.3037H56.1703V19.5537Z" fill="black"/>
<path d="M118.126 26.0537H110.826V52.9037H103.126V26.0537H95.9262V19.5537H118.126V26.0537Z" fill="black"/>
<path d="M131.224 19.5537H155.474V52.9037H147.774V26.0537H138.724V37.5037C138.724 44.0037 137.608 48.387 135.374 50.6537C133.608 52.4204 131.108 53.3037 127.874 53.3037C126.808 53.3037 125.774 53.1704 124.774 52.9037V46.0037C125.308 46.2037 125.941 46.3037 126.674 46.3037C127.974 46.3037 128.991 45.937 129.724 45.2037C130.724 44.2037 131.224 41.8704 131.224 38.2037V19.5537Z" fill="black"/>
<path d="M185.188 18.8037C190.454 18.8037 194.754 20.4204 198.087 23.6537C201.554 27.0204 203.287 31.2204 203.287 36.2537C203.287 41.2204 201.554 45.387 198.087 48.7537C194.721 52.0204 190.421 53.6537 185.188 53.6537C179.921 53.6537 175.587 52.0204 172.188 48.7537C170.554 47.2204 169.271 45.387 168.337 43.2537C167.437 41.087 166.988 38.787 166.988 36.3537C166.988 34.0204 167.454 31.7204 168.387 29.4537C169.354 27.1537 170.604 25.237 172.137 23.7037C175.404 20.437 179.754 18.8037 185.188 18.8037ZM185.137 25.9037C182.171 25.9037 179.737 26.8537 177.837 28.7537C175.871 30.6537 174.887 33.1704 174.887 36.3037C174.887 39.3037 175.904 41.8037 177.938 43.8037C179.871 45.637 182.254 46.5537 185.087 46.5537C188.121 46.5537 190.588 45.6037 192.488 43.7037C194.421 41.837 195.387 39.3537 195.387 36.2537C195.387 33.187 194.421 30.687 192.488 28.7537C190.521 26.8537 188.071 25.9037 185.137 25.9037Z" fill="black"/>
<path d="M239.886 19.5537V32.2537H253.186V19.5537H260.886V52.9037H253.186V38.7537H239.886V52.9037H232.186V19.5537H239.886Z" fill="black"/>
<path d="M296.022 52.9037L293.522 46.6037H280.922L278.372 52.9037H270.372L283.822 19.5537H290.872L304.022 52.9037H296.022ZM283.172 40.7037H291.422L287.322 29.5037L283.172 40.7037Z" fill="black"/>
<path d="M353.73 19.5537V52.9037H346.03V40.7537H345.03L337.18 52.9037H328.28L337.88 39.8537C335.98 39.5204 334.397 38.737 333.13 37.5037C331.263 35.7704 330.33 33.3037 330.33 30.1037C330.33 27.137 331.23 24.7037 333.03 22.8037C335.13 20.637 338.213 19.5537 342.28 19.5537H353.73ZM346.03 34.8537V25.8537H344.23C342.163 25.8537 340.647 26.2537 339.68 27.0537C338.713 27.9204 338.23 29.037 338.23 30.4037C338.23 31.737 338.663 32.8037 339.53 33.6037C340.463 34.437 342.03 34.8537 344.23 34.8537H346.03Z" fill="black"/>
<path d="M374.458 19.5537V33.4537L385.858 19.5537H395.258L381.758 35.3537L396.308 52.9037H386.408L374.458 38.1037V52.9037H366.758V19.5537H374.458Z" fill="black"/>
<path d="M424.854 19.5537V26.0537H413.704V32.5037H424.304V39.0037H413.704V46.4037H424.854V52.9037H406.004V19.5537H424.854Z" fill="black"/>
<path d="M454.272 19.5537H464.472C468.339 19.5537 471.172 20.4037 472.972 22.1037C474.572 23.637 475.372 25.737 475.372 28.4037C475.372 30.0704 475.005 31.487 474.272 32.6537C473.605 33.7537 472.672 34.5704 471.472 35.1037C473.339 35.4037 474.872 36.1537 476.072 37.3537C477.505 38.787 478.222 40.7704 478.222 43.3037C478.222 46.0704 477.355 48.3204 475.622 50.0537C473.655 51.9537 470.722 52.9037 466.822 52.9037H454.272V19.5537ZM461.872 25.5537V33.1037H463.122C464.855 33.1037 466.155 32.787 467.022 32.1537C467.922 31.5204 468.372 30.537 468.372 29.2037C468.372 28.0037 467.939 27.0704 467.072 26.4037C466.339 25.837 465.005 25.5537 463.072 25.5537H461.872ZM461.872 38.8037V46.9037H463.722C466.555 46.9037 468.455 46.4537 469.422 45.5537C470.155 44.887 470.522 43.9537 470.522 42.7537C470.522 41.587 470.172 40.687 469.472 40.0537C468.572 39.2204 466.739 38.8037 463.972 38.8037H461.872Z" fill="black"/>
<path d="M489.709 19.5537H497.409V41.3537L512.859 19.1537H519.659V52.9037H511.959V31.0537L496.509 53.3037H489.709V19.5537Z" fill="black"/>
<path d="M6.1 91.4537L2.7 85.5537C4.03333 84.4537 5.55 83.6037 7.25 83.0037C9.35 82.2037 11.5167 81.8037 13.75 81.8037C17.65 81.8037 20.6333 82.8204 22.7 84.8537C24.4 86.5204 25.25 88.7037 25.25 91.4037C25.25 93.0704 24.8167 94.5204 23.95 95.7537C23.1833 96.8537 22.1167 97.6704 20.75 98.2037C22.45 98.7037 23.8167 99.487 24.85 100.554C26.35 102.054 27.1 104.037 27.1 106.504C27.1 109.104 26.2 111.337 24.4 113.204C22.1333 115.504 18.7833 116.654 14.35 116.654C11.15 116.654 8.48333 116.17 6.35 115.204C4.61667 114.47 2.9 113.304 1.2 111.704L5.5 106.054C6.5 107.22 7.63333 108.137 8.9 108.804C10.2667 109.504 11.7833 109.854 13.45 109.854C15.05 109.854 16.3333 109.52 17.3 108.854C18.3667 108.087 18.9 107.054 18.9 105.754C18.9 104.654 18.5 103.77 17.7 103.104C16.6333 102.27 14.5167 101.854 11.35 101.854H10.1V95.6537H11.25C13.9833 95.6537 15.8167 95.2204 16.75 94.3537C17.3833 93.787 17.7 93.037 17.7 92.1037C17.7 91.037 17.25 90.1704 16.35 89.5037C15.55 88.9037 14.3833 88.6037 12.85 88.6037C11.55 88.6037 10.3 88.887 9.1 89.4537C8.1 89.887 7.1 90.5537 6.1 91.4537Z" fill="black"/>
<path d="M60.6922 115.904L58.1922 109.604H45.5922L43.0422 115.904H35.0422L48.4922 82.5537H55.5422L68.6922 115.904H60.6922ZM47.8422 103.704H56.0922L51.9922 92.5037L47.8422 103.704Z" fill="black"/>
<path d="M102.231 106.004V114.854C99.8646 116.054 97.4146 116.654 94.8812 116.654C89.4479 116.654 85.0812 115.037 81.7812 111.804C78.3146 108.437 76.5812 104.22 76.5812 99.1537C76.5812 94.1537 78.3146 89.9704 81.7812 86.6037C85.0812 83.4037 89.2312 81.8037 94.2312 81.8037C96.6979 81.8037 99.3646 82.4204 102.231 83.6537V92.5537C99.9979 90.187 97.3979 89.0037 94.4313 89.0037C91.6979 89.0037 89.4312 89.8704 87.6312 91.6037C85.5312 93.637 84.4812 96.2037 84.4812 99.3037C84.4812 102.337 85.4479 104.787 87.3812 106.654C89.2479 108.52 91.6479 109.454 94.5812 109.454C97.3479 109.454 99.8979 108.304 102.231 106.004Z" fill="black"/>
<path d="M117.455 82.5537H141.705V115.904H134.005V89.0537H124.955V100.504C124.955 107.004 123.838 111.387 121.605 113.654C119.838 115.42 117.338 116.304 114.105 116.304C113.038 116.304 112.005 116.17 111.005 115.904V109.004C111.538 109.204 112.171 109.304 112.905 109.304C114.205 109.304 115.221 108.937 115.955 108.204C116.955 107.204 117.455 104.87 117.455 101.204V82.5537Z" fill="black"/>
<path d="M151.318 82.5537H159.918L166.918 97.9537L173.618 82.5537H181.918L166.668 115.904H158.368L163.218 106.304L151.318 82.5537Z" fill="black"/>
<path d="M210.321 82.5537V89.0537H199.321V115.904H191.621V82.5537H210.321Z" fill="black"/>
<path d="M234.578 81.8037C239.845 81.8037 244.145 83.4204 247.478 86.6537C250.945 90.0204 252.678 94.2204 252.678 99.2537C252.678 104.22 250.945 108.387 247.478 111.754C244.111 115.02 239.811 116.654 234.578 116.654C229.311 116.654 224.978 115.02 221.578 111.754C219.945 110.22 218.661 108.387 217.728 106.254C216.828 104.087 216.378 101.787 216.378 99.3537C216.378 97.0204 216.845 94.7204 217.778 92.4537C218.745 90.1537 219.995 88.237 221.528 86.7037C224.795 83.437 229.145 81.8037 234.578 81.8037ZM234.528 88.9037C231.561 88.9037 229.128 89.8537 227.228 91.7537C225.261 93.6537 224.278 96.1704 224.278 99.3037C224.278 102.304 225.295 104.804 227.328 106.804C229.261 108.637 231.645 109.554 234.478 109.554C237.511 109.554 239.978 108.604 241.878 106.704C243.811 104.837 244.778 102.354 244.778 99.2537C244.778 96.187 243.811 93.687 241.878 91.7537C239.911 89.8537 237.461 88.9037 234.528 88.9037Z" fill="black"/>
<path d="M264.157 82.5537H274.357C278.223 82.5537 281.057 83.4037 282.857 85.1037C284.457 86.637 285.257 88.737 285.257 91.4037C285.257 93.0704 284.89 94.4871 284.157 95.6537C283.49 96.7537 282.557 97.5704 281.357 98.1037C283.223 98.4037 284.757 99.1537 285.957 100.354C287.39 101.787 288.107 103.77 288.107 106.304C288.107 109.07 287.24 111.32 285.507 113.054C283.54 114.954 280.607 115.904 276.707 115.904H264.157V82.5537ZM271.757 88.5537V96.1037H273.007C274.74 96.1037 276.04 95.7871 276.907 95.1537C277.807 94.5204 278.257 93.537 278.257 92.2037C278.257 91.0037 277.823 90.0704 276.957 89.4037C276.223 88.837 274.89 88.5537 272.957 88.5537H271.757ZM271.757 101.804V109.904H273.607C276.44 109.904 278.34 109.454 279.307 108.554C280.04 107.887 280.407 106.954 280.407 105.754C280.407 104.587 280.057 103.687 279.357 103.054C278.457 102.22 276.623 101.804 273.857 101.804H271.757Z" fill="black"/>
<path d="M295.07 82.5537H303.67L310.67 97.9537L317.37 82.5537H325.67L310.42 115.904H302.12L306.97 106.304L295.07 82.5537Z" fill="black"/>
<path d="M359.299 106.204V114.304C356.633 115.87 353.333 116.654 349.399 116.654C347.033 116.654 344.883 116.354 342.949 115.754C341.016 115.154 339.199 113.987 337.499 112.254C334.333 109.02 332.749 104.654 332.749 99.1537C332.749 93.6871 334.349 89.387 337.549 86.2537C340.549 83.287 344.616 81.8037 349.749 81.8037C353.049 81.8037 356.233 82.6037 359.299 84.2037V92.4037C358.066 91.3371 356.916 90.5537 355.849 90.0537C354.183 89.2204 352.349 88.8037 350.349 88.8037C347.549 88.8037 345.333 89.537 343.699 91.0037C342.299 92.237 341.399 93.887 340.999 95.9537H353.799V102.154H340.949C341.249 104.454 342.266 106.304 343.999 107.704C345.599 109.004 347.783 109.654 350.549 109.654C352.616 109.654 354.399 109.287 355.899 108.554C357.033 108.02 358.166 107.237 359.299 106.204Z" fill="black"/>
<path d="M391.226 89.0537H383.926V115.904H376.226V89.0537H369.026V82.5537H391.226V89.0537Z" fill="black"/>
<path d="M419.874 82.5537V89.0537H408.724V95.5037H419.324V102.004H408.724V109.404H419.874V115.904H401.024V82.5537H419.874Z" fill="black"/>
<path d="M194.427 4.12234C195.186 2.34453 197.242 1.51848 199.02 2.27733V2.27733C200.798 3.03617 201.624 5.09254 200.865 6.87036L198.509 12.3887C197.751 14.1665 195.694 14.9925 193.916 14.2337V14.2337C192.139 13.4749 191.312 11.4185 192.071 9.64067L194.427 4.12234Z" fill="#FABC14"/>
<path d="M212.411 16.299C214.184 15.5282 216.246 16.3403 217.017 18.113V18.113C217.788 19.8857 216.975 21.9476 215.203 22.7184L209.7 25.1109C207.928 25.8817 205.866 25.0695 205.095 23.2969V23.2969C204.324 21.5242 205.136 19.4623 206.909 18.6915L212.411 16.299Z" fill="#FABC14"/>
<path d="M218.686 36.3627C220.553 36.863 221.661 38.7822 221.161 40.6493V40.6493C220.66 42.5164 218.741 43.6245 216.874 43.1242L211.078 41.5713C209.211 41.071 208.103 39.1518 208.604 37.2846V37.2846C209.104 35.4175 211.023 34.3095 212.89 34.8098L218.686 36.3627Z" fill="#FABC14"/>
<path d="M174.147 5.39139C173.583 3.54265 174.624 1.58634 176.472 1.02186V1.02186C178.321 0.457386 180.277 1.49848 180.842 3.34722L182.594 9.08569C183.159 10.9344 182.117 12.8907 180.269 13.4552V13.4552C178.42 14.0197 176.464 12.9786 175.899 11.1299L174.147 5.39139Z" fill="#FABC14"/>
</svg>
