<svg width="331" height="78" xmlns="http://www.w3.org/2000/svg">

 <g>
  <title>background</title>
  <rect fill="none" id="canvas_background" height="402" width="582" y="-1" x="-1"/>
 </g>
 <g>
  <title>Layer 1</title>
  <path id="svg_1" fill="#FABC14" d="m127.418719,25.671233c0,4.9705 -3.806,9 -8.5,9c-4.694,0 -8.5,-4.0295 -8.5,-9c0,-4.9706 3.806,-9 8.5,-9c4.694,0 8.5,4.0294 8.5,9z"/>
  <path id="svg_2" fill="black" d="m12.3251,36.955l0,-9.6254l-6.40141,9.6254l-5.92369,0l7.96195,-11.1384l-7.51608,-10.3337l5.60521,0l6.27402,9.2069l0,-9.2069l4.9046,0l0,9.2069l6.274,-9.2069l5.6052,0l-7.5161,10.3337l7.9938,11.1384l-5.9237,0l-6.4332,-9.6254l0,9.6254l-4.9046,0z"/>
  <path id="svg_3" fill="black" d="m35.778,15.4829l4.9046,0l0,14.0358l9.8409,-14.2934l4.3313,0l0,21.7297l-4.9045,0l0,-14.0679l-9.841,14.3255l-4.3313,0l0,-21.7297z"/>
  <path id="svg_4" fill="black" d="m75.2411,19.6679l-4.6497,0l0,17.2871l-4.9046,0l0,-17.2871l-4.5861,0l0,-4.185l14.1404,0l0,4.185z"/>
  <path id="svg_5" fill="black" d="m83.584,15.4829l15.4462,0l0,21.4721l-4.9046,0l0,-17.2871l-5.7644,0l0,7.372c0,4.1849 -0.7113,7.0071 -2.1338,8.4665c-1.1253,1.1374 -2.7177,1.7062 -4.7772,1.7062c-0.6794,0 -1.3376,-0.0859 -1.9745,-0.2576l0,-4.4425c0.3397,0.1288 0.7431,0.1932 1.2102,0.1932c0.828,0 1.4756,-0.2361 1.9427,-0.7083c0.6369,-0.6438 0.9554,-2.1461 0.9554,-4.5069l0,-12.0076z"/>
  <path id="svg_6" fill="black" d="m117.956,15c3.355,0 6.094,1.0409 8.217,3.1226c2.208,2.1676 3.312,4.8718 3.312,8.1125c0,3.1977 -1.104,5.8804 -3.312,8.048c-2.144,2.1032 -4.883,3.1548 -8.217,3.1548c-3.354,0 -6.115,-1.0516 -8.28,-3.1548c-1.041,-0.9872 -1.858,-2.1676 -2.452,-3.5411c-0.574,-1.395 -0.86,-2.8759 -0.86,-4.4426c0,-1.5023 0.297,-2.9831 0.891,-4.4425c0.616,-1.4808 1.412,-2.7148 2.389,-3.7021c2.081,-2.1032 4.851,-3.1548 8.312,-3.1548zm-0.032,4.5713c-1.889,0 -3.439,0.6116 -4.649,1.8349c-1.253,1.2233 -1.879,2.8437 -1.879,4.861c0,1.9316 0.647,3.5412 1.942,4.8289c1.232,1.1803 2.75,1.7705 4.555,1.7705c1.932,0 3.503,-0.6116 4.713,-1.8349c1.231,-1.2019 1.847,-2.8007 1.847,-4.7966c0,-1.9745 -0.616,-3.5841 -1.847,-4.8289c-1.253,-1.2233 -2.813,-1.8349 -4.682,-1.8349z"/>
  <path id="svg_7" fill="black" d="m152.797,15.4829l0,8.1768l8.471,0l0,-8.1768l4.905,0l0,21.4721l-4.905,0l0,-9.1103l-8.471,0l0,9.1103l-4.905,0l0,-21.4721l4.905,0z"/>
  <path id="svg_8" fill="black" d="m188.553,36.955l-1.592,-4.0562l-8.026,0l-1.624,4.0562l-5.096,0l8.567,-21.4721l4.491,0l8.376,21.4721l-5.096,0zm-8.185,-7.8548l5.255,0l-2.611,-7.2111l-2.644,7.2111z"/>
  <path id="svg_9" fill="black" d="m225.31,15.4829l0,21.4721l-4.904,0l0,-7.8227l-0.637,0l-5,7.8227l-5.669,0l6.115,-8.4021c-1.211,-0.2146 -2.219,-0.719 -3.026,-1.513c-1.189,-1.116 -1.783,-2.7042 -1.783,-4.7645c0,-1.91 0.573,-3.4767 1.719,-4.7c1.338,-1.395 3.302,-2.0925 5.892,-2.0925l7.293,0zm-4.904,9.8508l0,-5.7946l-1.147,0c-1.316,0 -2.282,0.2575 -2.898,0.7726c-0.616,0.558 -0.923,1.277 -0.923,2.1569c0,0.8584 0.276,1.5452 0.828,2.0603c0.594,0.5365 1.592,0.8048 2.993,0.8048l1.147,0z"/>
  <path id="svg_10" fill="black" d="m238.513,15.4829l0,8.9494l7.262,-8.9494l5.987,0l-8.599,10.1727l9.268,11.2994l-6.306,0l-7.612,-9.5288l0,9.5288l-4.904,0l0,-21.4721l4.904,0z"/>
  <path id="svg_11" fill="black" d="m270.613,15.4829l0,4.185l-7.102,0l0,4.1527l6.752,0l0,4.185l-6.752,0l0,4.7645l7.102,0l0,4.1849l-12.006,0l0,-21.4721l12.006,0z"/>
  <path id="svg_12" fill="black" d="m289.351,15.4829l6.497,0c2.463,0 4.268,0.5472 5.414,1.6418c1.019,0.9872 1.529,2.3393 1.529,4.0562c0,1.0731 -0.234,1.9852 -0.701,2.7363c-0.424,0.7082 -1.019,1.2341 -1.783,1.5774c1.189,0.1932 2.165,0.6761 2.93,1.4487c0.913,0.9228 1.369,2.1998 1.369,3.8308c0,1.7813 -0.552,3.23 -1.656,4.346c-1.253,1.2233 -3.121,1.8349 -5.605,1.8349l-7.994,0l0,-21.4721zm4.841,3.863l0,4.861l0.796,0c1.104,0 1.932,-0.2038 2.484,-0.6116c0.574,-0.4078 0.86,-1.0409 0.86,-1.8993c0,-0.7726 -0.276,-1.3736 -0.828,-1.8028c-0.467,-0.3648 -1.316,-0.5473 -2.548,-0.5473l-0.764,0zm0,8.531l0,5.2151l1.178,0c1.805,0 3.015,-0.2898 3.631,-0.8692c0.467,-0.4292 0.701,-1.0302 0.701,-1.8028c0,-0.7511 -0.223,-1.3306 -0.669,-1.7383c-0.573,-0.5366 -1.741,-0.8048 -3.503,-0.8048l-1.338,0z"/>
  <path id="svg_13" fill="black" d="m311.923,15.4829l4.905,0l0,14.0358l9.841,-14.2934l4.331,0l0,21.7297l-4.905,0l0,-14.0679l-9.84,14.3255l-4.332,0l0,-21.7297z"/>
  <path id="svg_14" fill="black" d="m36.0019,61.7752l-2.1656,-3.7987c0.8493,-0.7082 1.8153,-1.2555 2.8981,-1.6418c1.3376,-0.5151 2.7177,-0.7726 4.1402,-0.7726c2.4842,0 4.3844,0.6546 5.7008,1.9637c1.0828,1.0731 1.6242,2.4788 1.6242,4.2172c0,1.073 -0.276,2.0066 -0.828,2.8007c-0.4883,0.7082 -1.1678,1.234 -2.0383,1.5774c1.0829,0.3219 1.9534,0.8263 2.6116,1.513c0.9554,0.9658 1.4331,2.2427 1.4331,3.8309c0,1.674 -0.5733,3.1119 -1.7198,4.3137c-1.4437,1.4809 -3.5775,2.2213 -6.4014,2.2213c-2.0382,0 -3.7368,-0.3112 -5.0956,-0.9336c-1.1041,-0.4721 -2.1975,-1.2233 -3.2803,-2.2534l2.7389,-3.6377c0.6369,0.7511 1.3588,1.3413 2.1656,1.7705c0.8705,0.4507 1.8366,0.6761 2.8982,0.6761c1.0191,0 1.8365,-0.2146 2.4522,-0.6439c0.6795,-0.4936 1.0192,-1.1589 1.0192,-1.9959c0,-0.7082 -0.2548,-1.2769 -0.7644,-1.7062c-0.6794,-0.5365 -2.0276,-0.8048 -4.0446,-0.8048l-0.7962,0l0,-3.9918l0.7325,0c1.741,0 2.9087,-0.279 3.5032,-0.837c0.4034,-0.3648 0.6051,-0.8477 0.6051,-1.4486c0,-0.6868 -0.2866,-1.2448 -0.8599,-1.674c-0.5095,-0.3863 -1.2527,-0.5795 -2.2293,-0.5795c-0.8281,0 -1.6243,0.1824 -2.3886,0.5473c-0.637,0.279 -1.2739,0.7082 -1.9109,1.2877z"/>
  <path id="svg_15" fill="black" d="m70.7747,77.5171l-1.5923,-4.0562l-8.0257,0l-1.6242,4.0562l-5.0957,0l8.5671,-21.4721l4.4905,0l8.376,21.4721l-5.0957,0zm-8.1848,-7.8549l5.2548,0l-2.6115,-7.211l-2.6433,7.211z"/>
  <path id="svg_16" fill="black" d="m97.2333,71.1431l0,5.698c-1.5075,0.7726 -3.068,1.1589 -4.6816,1.1589c-3.4608,0 -6.2422,-1.0409 -8.3442,-3.1226c-2.2081,-2.1676 -3.3121,-4.8825 -3.3121,-8.1446c0,-3.2193 1.104,-5.9127 3.3121,-8.0803c2.102,-2.0603 4.7454,-3.0904 7.9301,-3.0904c1.5712,0 3.2697,0.397 5.0957,1.1911l0,5.7302c-1.4226,-1.5238 -3.0786,-2.2857 -4.9683,-2.2857c-1.741,0 -3.1848,0.558 -4.3313,1.674c-1.3376,1.3092 -2.0064,2.9617 -2.0064,4.9576c0,1.953 0.6157,3.5304 1.8472,4.7323c1.189,1.2018 2.7177,1.8027 4.5861,1.8027c1.7622,0 3.3865,-0.7404 4.8727,-2.2212z"/>
  <path id="svg_17" fill="black" d="m106.93,56.045l15.446,0l0,21.4721l-4.904,0l0,-17.2872l-5.765,0l0,7.372c0,4.185 -0.711,7.0072 -2.134,8.4666c-1.125,1.1374 -2.717,1.7062 -4.777,1.7062c-0.679,0 -1.337,-0.0859 -1.974,-0.2576l0,-4.4425c0.339,0.1288 0.743,0.1932 1.21,0.1932c0.828,0 1.475,-0.2361 1.943,-0.7083c0.636,-0.6438 0.955,-2.1461 0.955,-4.5069l0,-12.0076z"/>
  <path id="svg_18" fill="black" d="m128.499,56.045l5.478,0l4.459,9.9151l4.267,-9.9151l5.287,0l-9.713,21.4721l-5.287,0l3.089,-6.1809l-7.58,-15.2912z"/>
  <path id="svg_19" fill="black" d="m166.082,56.045l0,4.1849l-7.007,0l0,17.2872l-4.904,0l0,-21.4721l11.911,0z"/>
  <path id="svg_20" fill="black" d="m181.532,55.5621c3.355,0 6.094,1.0409 8.217,3.1226c2.208,2.1676 3.312,4.8718 3.312,8.1124c0,3.1978 -1.104,5.8805 -3.312,8.0481c-2.144,2.1032 -4.883,3.1548 -8.217,3.1548c-3.354,0 -6.114,-1.0516 -8.28,-3.1548c-1.04,-0.9873 -1.858,-2.1676 -2.452,-3.5412c-0.574,-1.395 -0.86,-2.8758 -0.86,-4.4425c0,-1.5023 0.297,-2.9831 0.892,-4.4425c0.615,-1.4808 1.411,-2.7149 2.388,-3.7021c2.081,-2.1032 4.852,-3.1548 8.312,-3.1548zm-0.031,4.5713c-1.89,0 -3.44,0.6116 -4.65,1.8349c-1.253,1.2233 -1.879,2.8437 -1.879,4.861c0,1.9316 0.647,3.5412 1.942,4.8288c1.232,1.1804 2.75,1.7706 4.555,1.7706c1.932,0 3.503,-0.6116 4.713,-1.8349c1.232,-1.2019 1.847,-2.8008 1.847,-4.7967c0,-1.9744 -0.615,-3.584 -1.847,-4.8288c-1.253,-1.2233 -2.813,-1.8349 -4.681,-1.8349z"/>
  <path id="svg_21" fill="black" d="m200.373,56.045l6.497,0c2.462,0 4.267,0.5472 5.414,1.6418c1.019,0.9872 1.528,2.3393 1.528,4.0562c0,1.073 -0.233,1.9852 -0.7,2.7363c-0.425,0.7082 -1.019,1.234 -1.784,1.5774c1.189,0.1932 2.166,0.6761 2.93,1.4487c0.913,0.9228 1.37,2.1998 1.37,3.8308c0,1.7813 -0.552,3.23 -1.656,4.346c-1.253,1.2233 -3.121,1.8349 -5.606,1.8349l-7.993,0l0,-21.4721zm4.84,3.863l0,4.861l0.797,0c1.104,0 1.932,-0.2038 2.484,-0.6116c0.573,-0.4078 0.86,-1.0409 0.86,-1.8994c0,-0.7726 -0.276,-1.3735 -0.828,-1.8027c-0.467,-0.3649 -1.317,-0.5473 -2.548,-0.5473l-0.765,0zm0,8.5309l0,5.2152l1.179,0c1.805,0 3.015,-0.2898 3.63,-0.8692c0.468,-0.4293 0.701,-1.0302 0.701,-1.8028c0,-0.7511 -0.223,-1.3306 -0.669,-1.7384c-0.573,-0.5365 -1.741,-0.8048 -3.503,-0.8048l-1.338,0z"/>
  <path id="svg_22" fill="black" d="m220.063,56.045l5.478,0l4.458,9.9151l4.268,-9.9151l5.287,0l-9.714,21.4721l-5.286,0l3.089,-6.1809l-7.58,-15.2912z"/>
  <path id="svg_23" fill="black" d="m260.974,71.2718l0,5.2152c-1.698,1.0087 -3.8,1.513 -6.306,1.513c-1.507,0 -2.877,-0.1932 -4.108,-0.5795c-1.231,-0.3863 -2.389,-1.1374 -3.471,-2.2534c-2.017,-2.0818 -3.026,-4.8932 -3.026,-8.4343c0,-3.5197 1.019,-6.2882 3.057,-8.3056c1.911,-1.9101 4.502,-2.8651 7.771,-2.8651c2.102,0 4.13,0.5151 6.083,1.5452l0,5.2795c-0.785,-0.6867 -1.518,-1.1911 -2.197,-1.513c-1.062,-0.5366 -2.23,-0.8048 -3.504,-0.8048c-1.783,0 -3.195,0.4721 -4.235,1.4164c-0.892,0.7941 -1.465,1.8564 -1.72,3.1871l8.153,0l0,3.9918l-8.185,0c0.191,1.4808 0.839,2.6719 1.943,3.5733c1.019,0.837 2.41,1.2555 4.172,1.2555c1.316,0 2.452,-0.2361 3.408,-0.7082c0.721,-0.3434 1.443,-0.8477 2.165,-1.5131z"/>
  <path id="svg_24" fill="black" d="m281.31,60.2299l-4.65,0l0,17.2872l-4.904,0l0,-17.2872l-4.586,0l0,-4.1849l14.14,0l0,4.1849z"/>
  <path id="svg_25" fill="black" d="m299.558,56.045l0,4.1849l-7.102,0l0,4.1528l6.751,0l0,4.185l-6.751,0l0,4.7644l7.102,0l0,4.185l-12.007,0l0,-21.4721l12.007,0z"/>
  <path id="svg_26" fill="#FABC14" d="m124.484887,6.269006c0.519,-1.21698 1.927,-1.78244 3.144,-1.26298c1.217,0.51945 1.782,1.92712 1.263,3.1441l-1.612,3.7775c-0.52,1.21698 -1.928,1.78245 -3.145,1.26298c-1.217,-0.51945 -1.782,-1.92712 -1.263,-3.1441l1.613,-3.7775z"/>
  <path id="svg_27" fill="#FABC14" d="m135.715348,13.619654c1.213,-0.5277 2.625,0.0283 3.152,1.2417c0.528,1.2135 -0.028,2.6249 -1.242,3.1526l-3.766,1.6378c-1.214,0.5276 -2.625,-0.0284 -3.153,-1.2418c-0.527,-1.2135 0.029,-2.6249 1.242,-3.1526l3.767,-1.6377z"/>
  <path id="svg_28" fill="#FABC14" d="m138.491461,25.386211c1.278,0.3424 2.036,1.6562 1.694,2.9343c-0.343,1.2781 -1.656,2.0366 -2.934,1.6942l-3.968,-1.0631c-1.278,-0.3424 -2.036,-1.6562 -1.694,-2.9343c0.343,-1.2781 1.656,-2.0366 2.935,-1.6942l3.967,1.0631z"/>
  <path id="svg_29" fill="#FABC14" d="m110.120092,8.123387c-0.387,-1.26554 0.326,-2.6047 1.591,-2.99111c1.266,-0.3864 2.605,0.32627 2.992,1.5918l1.199,3.9282c0.386,1.26553 -0.326,2.60469 -1.592,2.9911c-1.265,0.38641 -2.605,-0.32627 -2.991,-1.5918l-1.199,-3.92819z"/>
 </g>
</svg>