<svg width="78" height="75" viewBox="0 0 78 75" fill="none" xmlns="http://www.w3.org/2000/svg">
<path d="M69.7301 11.8663C76.7698 20.4689 79.0014 31.5091 76.9078 42.5696C74.8143 53.63 68.3727 64.6703 57.4451 70.3718C46.5174 76.0732 31.0576 76.4359 18.9106 71.1776C6.78666 65.9194 1.23683e-05 58.4519 0 46.6392C2.09351 38.2582 6.70406 20.7308 15.0551 11.8663C23.3831 3.02198 33.4622 0.000212166 43.1586 0C52.855 -1.99059e-05 62.7134 3.28388 69.7301 11.8663Z" fill="#E4EBE4"/>
<g clip-path="url(#clip0)">
<path d="M60.332 45.334H21.668C21.3 45.334 21.0013 45.632 21.0013 46.0006C21.0013 53.7194 27.2809 59.9997 35.0004 59.9997H46.9996C54.7184 59.9997 60.9986 53.7194 60.9986 46.0006C60.9986 45.632 60.7006 45.334 60.332 45.334ZM46.9996 58.6664H35.0004C28.2402 58.6664 22.6999 53.3427 22.3519 46.6672H59.648C59.3001 53.3427 53.7598 58.6664 46.9996 58.6664Z" fill="#4DDC4D"/>
<path d="M55.0017 29.3393C55.0017 29.2907 55.001 29.242 54.9964 29.168C54.8938 28.0628 54.1338 27.1548 53.1306 26.8142L53.8852 26.0596C55.1938 24.7777 55.3251 22.7272 54.1798 21.2793C52.9532 19.7887 50.7427 19.5767 49.2527 20.8026C49.1681 20.8726 49.0861 20.9466 49.0041 21.0287L48.1842 21.8606C47.8402 20.8626 46.9303 20.108 45.809 20.004C44.3324 19.9234 43.0825 21.0566 43.0032 22.5245C43.0006 22.5732 42.9999 22.6219 42.9999 22.6698V23.6918C42.6079 23.4644 42.1539 23.3338 41.6693 23.3331C41.6214 23.3331 41.572 23.3344 41.498 23.3384C40.0728 23.4711 38.9762 24.6957 39.0002 26.1155V27.0222C38.6002 26.7908 38.1443 26.6668 37.6696 26.6661C37.6217 26.6661 37.573 26.6675 37.499 26.6715C36.0731 26.8041 34.9765 28.0287 35.0005 29.4486V39.3346C35.0005 39.7033 35.2992 40.0013 35.6671 40.0013H46.9997C48.4702 40.0013 49.6662 38.8053 49.6655 37.3361C49.6655 36.8508 49.5355 36.3955 49.3075 36.0029H50.2081C51.64 36.0422 52.8646 34.9296 52.9986 33.4784C53.0273 32.9357 52.8913 32.4225 52.634 31.9865C53.2326 31.9199 53.7866 31.6552 54.2185 31.2246C54.7223 30.7219 55.001 30.0526 55.0017 29.3393ZM53.2771 30.2806C53.0252 30.5312 52.6912 30.6693 52.3345 30.6693C52.3338 30.6693 52.3332 30.6693 52.3325 30.6693H50.3327C49.964 30.6693 49.666 30.9679 49.666 31.3359C49.666 31.7039 49.964 32.0025 50.3327 32.0025L50.406 32.0046C51.1406 32.0439 51.7059 32.6732 51.6686 33.3811C51.6006 34.1157 50.9774 34.6844 50.2194 34.669H46.9996C46.631 34.669 46.333 34.9677 46.333 35.3357C46.333 35.7036 46.631 36.0023 46.9996 36.0023C47.7349 36.0023 48.3329 36.6003 48.3329 37.3356C48.3329 38.0709 47.7349 38.6689 46.9996 38.6689H36.3336V29.4373C36.321 28.6993 36.8876 28.0681 37.5962 28.0014L37.6689 27.9993C38.4028 28 38.9994 28.5973 39.0001 29.3306V29.3353C39.0001 29.7032 39.2981 30.0019 39.666 30.0019C39.6667 30.0019 39.6667 30.0019 39.6667 30.0019C40.0347 30.0019 40.3327 29.704 40.3334 29.336V29.3354V26.1042C40.3207 25.3662 40.8874 24.735 41.596 24.6683L41.668 24.6662C42.4026 24.6676 42.9992 25.2648 42.9999 25.9988V26.0028C42.9999 26.3708 43.2979 26.6694 43.6659 26.6694C43.6666 26.6694 43.6666 26.6694 43.6666 26.6694C44.0346 26.6694 44.3325 26.3715 44.3332 26.0035V26.0028V22.6697L44.3353 22.5958C44.3739 21.8618 44.9885 21.2965 45.7112 21.3332C46.4471 21.4019 47.0131 22.0331 46.9991 22.7837V23.337C46.9991 23.607 47.1624 23.851 47.4131 23.9537C47.6617 24.0563 47.951 23.9976 48.1403 23.8044L49.9488 21.9691C49.9981 21.9205 50.0488 21.8744 50.1015 21.8312C51.0241 21.0726 52.3913 21.2045 53.1433 22.1165C53.8552 23.0177 53.7732 24.3029 52.948 25.1116L51.1948 26.8648C51.0042 27.0554 50.9468 27.3421 51.0501 27.5915C51.1527 27.8401 51.3967 28.0028 51.666 28.0028H52.2193C52.2333 28.0028 52.2433 28.0028 52.2546 28.0028C52.9826 28.0028 53.6012 28.5641 53.6665 29.2654L53.6685 29.3387C53.6677 29.6947 53.5291 30.0293 53.2771 30.2806Z" fill="#4DDC4D"/>
<path d="M49.8619 24.1963L31.1969 42.8613L32.1396 43.804L50.8046 25.139L49.8619 24.1963Z" fill="#4DDC4D"/>
<path d="M46.9983 25.3398H45.665V28.673H46.9983V25.3398Z" fill="#4DDC4D"/>
<path d="M42.9986 28.6738H41.6653V32.6736H42.9986V28.6738Z" fill="#4DDC4D"/>
<path d="M38.9988 32H37.6655V36.6663H38.9988V32Z" fill="#4DDC4D"/>
<path d="M49.6647 28.0059H46.3315V29.3391H49.6647V28.0059Z" fill="#4DDC4D"/>
<path d="M46.3317 32H42.3319V33.3332H46.3317V32Z" fill="#4DDC4D"/>
<path d="M42.9985 35.998H38.3322V37.3313H42.9985V35.998Z" fill="#4DDC4D"/>
<path d="M33.4438 23.0845C33.4432 23.0832 33.4417 23.0818 33.4411 23.0805C32.5005 21.6719 30.5886 21.2893 29.1807 22.2299C29.1368 22.2586 29.0934 22.2892 29.0441 22.3259L28.8041 22.5086L28.5735 22.3425C27.3536 21.2046 25.4357 21.2507 24.2744 22.4559C23.7058 23.0452 23.4005 23.8211 23.4158 24.6404C23.4311 25.4597 23.7638 26.2236 24.3525 26.7916C24.5238 26.9569 24.7144 27.1022 24.9197 27.2235L25.4811 27.6622V28.0035C25.4811 29.8414 26.9763 31.3367 28.8142 31.3367C30.6521 31.3367 32.1473 29.8407 32.1466 28.0029V27.6616L32.7366 27.201C34.0131 26.2323 34.3231 24.4238 33.4438 23.0845ZM31.9232 26.145L31.07 26.8116C30.9086 26.9376 30.8139 27.1316 30.8139 27.3369V28.0035C30.8139 29.1061 29.9167 30.0034 28.8141 30.0034C27.7115 30.0034 26.8143 29.1061 26.8143 28.0035V27.3369C26.8143 27.1316 26.7203 26.9376 26.5582 26.8116L25.705 26.145C25.6797 26.125 25.6523 26.107 25.6243 26.091C25.499 26.0196 25.383 25.933 25.279 25.8323C24.9458 25.511 24.7577 25.079 24.749 24.6164C24.7404 24.1537 24.913 23.7151 25.2343 23.3818C25.5736 23.0298 26.0276 22.8525 26.4822 22.8525C26.9155 22.8525 27.3495 23.0131 27.6855 23.3378C27.7082 23.3591 27.7322 23.3798 27.7582 23.3984L28.4248 23.8784C28.6622 24.0497 28.9841 24.0457 29.2175 23.8684L29.9201 23.3398C30.3068 23.0811 30.77 22.9905 31.2261 23.0805C31.6807 23.1711 32.0733 23.4332 32.3313 23.8185C32.8259 24.5744 32.6499 25.593 31.9232 26.145Z" fill="#4DDC4D"/>
<path d="M36.9989 20.666H35.6656V21.9992H36.9989V20.666Z" fill="#4DDC4D"/>
<path d="M40.9986 41.998H39.6654V43.3312H40.9986V41.998Z" fill="#4DDC4D"/>
<path d="M56.9989 24.0039V25.3372C57.7342 25.3372 58.3322 25.9352 58.3322 26.6704C58.3322 27.4056 57.7342 28.0037 56.9989 28.0037V29.3369C58.4694 29.3369 59.6654 28.1409 59.6654 26.6704C59.6654 25.1998 58.4694 24.0039 56.9989 24.0039Z" fill="#4DDC4D"/>
<path d="M23.6665 30.0059H22.3333V31.3391H23.6665V30.0059Z" fill="#4DDC4D"/>
<path d="M22.3345 27.3398H21.0013V28.6731H22.3345V27.3398Z" fill="#4DDC4D"/>
<path d="M46.9995 41.3359C45.5289 41.3359 44.333 42.5319 44.333 44.0024H45.6663C45.6663 43.2671 46.2643 42.6691 46.9995 42.6691C47.7348 42.6691 48.3328 43.2671 48.3328 44.0024H49.666C49.666 42.5319 48.47 41.3359 46.9995 41.3359Z" fill="#4DDC4D"/>
<path d="M29.0009 35.3358H28.9169C28.6196 34.1872 27.575 33.3359 26.3344 33.3359C25.0939 33.3359 24.0486 34.1872 23.7519 35.3358H23.6679C22.1974 35.3358 21.0015 36.5317 21.0015 38.0023C21.0015 39.4728 22.1974 40.6687 23.6679 40.6687H29.0009C30.4714 40.6687 31.6674 39.4728 31.6674 38.0023C31.6674 36.5317 30.4714 35.3358 29.0009 35.3358ZM29.0009 39.3362H23.6679C22.9326 39.3362 22.3346 38.7382 22.3346 38.003C22.3346 37.2676 22.9326 36.6697 23.6679 36.6697H24.3345C24.7025 36.6697 25.0011 36.371 25.0011 36.003C25.0011 35.2677 25.5991 34.6698 26.3344 34.6698C27.0697 34.6698 27.6677 35.2678 27.6677 36.003C27.6677 36.371 27.9664 36.6697 28.3343 36.6697H29.001C29.7363 36.6697 30.3343 37.2676 30.3343 38.003C30.3341 38.7383 29.7361 39.3362 29.0009 39.3362Z" fill="#4DDC4D"/>
<path d="M27.6676 39.3359H25.0011C24.6331 39.3359 24.3345 39.6346 24.3345 40.0026V42.669C24.3345 43.0377 24.6331 43.3357 25.0011 43.3357H27.6676C28.0356 43.3357 28.3342 43.0377 28.3342 42.669V40.0026C28.3342 39.6346 28.0356 39.3359 27.6676 39.3359ZM27.001 42.0024H25.6678V40.6692H27.001V42.0024H27.001Z" fill="#4DDC4D"/>
<path d="M56.3322 37.3359C55.2297 37.3359 54.3324 38.2332 54.3324 39.3358C54.3324 40.4384 55.2297 41.3356 56.3322 41.3356C57.4348 41.3356 58.3321 40.4384 58.3321 39.3358C58.3321 38.2332 57.4348 37.3359 56.3322 37.3359ZM56.3322 40.003C55.9643 40.003 55.6656 39.7037 55.6656 39.3364C55.6656 38.9691 55.9643 38.6698 56.3322 38.6698C56.7002 38.6698 56.9989 38.9684 56.9989 39.3364C56.9989 39.7045 56.7002 40.003 56.3322 40.003Z" fill="#4DDC4D"/>
<path d="M56.3322 34.668C53.7597 34.668 51.6659 36.7612 51.6659 39.3343C51.6659 41.9074 53.7597 44.0006 56.3322 44.0006C58.9047 44.0006 60.9985 41.9074 60.9985 39.3343C60.9985 36.7612 58.9047 34.668 56.3322 34.668ZM56.3322 42.668C54.4943 42.668 52.9991 41.1722 52.9991 39.3349C52.9991 37.497 54.4943 36.0018 56.3322 36.0018C58.1701 36.0018 59.6653 37.497 59.6653 39.3349C59.6653 41.1728 58.1701 42.668 56.3322 42.668Z" fill="#4DDC4D"/>
</g>
<defs>
<clipPath id="clip0">
<rect width="40" height="40" fill="white" transform="translate(21 20)"/>
</clipPath>
</defs>
</svg>
