<svg width="78" height="75" viewBox="0 0 78 75" fill="none" xmlns="http://www.w3.org/2000/svg">
<path d="M69.7301 11.8663C76.7698 20.4689 79.0013 31.5091 76.9078 42.5696C74.8143 53.63 68.3727 64.6703 57.4451 70.3718C46.5174 76.0732 31.0576 76.4359 18.9106 71.1776C6.78666 65.9194 1.23683e-05 58.4519 0 46.6392C2.09351 38.2582 6.70406 20.7308 15.0551 11.8663C23.3831 3.02198 33.4622 0.000212166 43.1586 0C52.855 -1.99059e-05 62.7134 3.28388 69.7301 11.8663Z" fill="#F9E6DE"/>
<g clip-path="url(#clip0)">
<path d="M57.6524 43.1246C57.6138 43.0599 57.5731 42.998 57.5324 42.9433C57.1285 42.3786 56.5278 42.0053 55.8424 41.8926C55.1604 41.7799 54.4691 41.9405 53.9064 42.3446L46.4531 47.6666H38.6664C38.2991 47.6666 37.9998 47.368 37.9998 47C37.9998 46.632 38.2991 46.3333 38.6664 46.3333H42.9998C44.2864 46.3333 45.3331 45.2867 45.3331 44C45.3331 43.9926 45.3324 43.9313 45.3318 43.9247C45.2905 42.6387 44.2058 41.636 42.9465 41.6667H34.2738C33.5052 41.6733 32.7565 41.9487 32.1665 42.4407L28.9065 45.154C28.7545 45.2814 28.6665 45.4687 28.6665 45.6667V53.6667C28.6665 54.0354 28.9652 54.3333 29.3331 54.3333H45.8738C46.9565 54.332 48.0112 53.9507 48.8445 53.2607L56.9266 46.5827C58.0245 45.8005 58.3431 44.2819 57.6524 43.1246ZM56.1158 45.5259L47.9951 52.2333C47.3991 52.7266 46.6451 52.9986 45.8731 52.9999H29.9998V45.9792L33.0204 43.4645C33.3751 43.1692 33.8238 43.0038 34.2798 42.9998L42.9678 42.9992C43.5204 42.9985 43.9817 43.4165 43.9998 43.9999C43.9998 44.5512 43.5511 44.9999 42.9998 44.9999H38.6664C37.5638 44.9999 36.6664 45.8973 36.6664 46.9999C36.6664 48.1026 37.5638 48.9999 38.6664 48.9999H46.6664C46.8051 48.9999 46.9404 48.9565 47.0551 48.8759L54.6831 43.4286C54.9578 43.2312 55.2917 43.1546 55.6264 43.2079C55.9604 43.2632 56.2524 43.4445 56.4531 43.7245C56.4731 43.7519 56.491 43.7798 56.5084 43.8085C56.8458 44.3733 56.6891 45.1152 56.1158 45.5259Z" fill="#F16225"/>
<path d="M29.3134 44.3335H22V45.6669H28.6466V55.6669H22V57.0001H29.3134C29.6813 57.0001 29.98 56.7022 29.98 56.3335V45.0001C29.98 44.6315 29.6813 44.3335 29.3134 44.3335Z" fill="#F16225"/>
<path d="M25.3335 50.3335C24.2308 50.3335 23.3335 51.2308 23.3335 52.3335C23.3335 53.4362 24.2308 54.3335 25.3335 54.3335C26.4362 54.3335 27.3335 53.4362 27.3335 52.3335C27.3335 51.2308 26.4362 50.3335 25.3335 50.3335ZM25.3335 53.0001C24.9662 53.0001 24.6669 52.7015 24.6669 52.3335C24.6669 51.9655 24.9662 51.6669 25.3335 51.6669C25.7008 51.6669 26.0001 51.9655 26.0001 52.3335C26.0001 52.7015 25.7008 53.0001 25.3335 53.0001Z" fill="#F16225"/>
<path d="M61.3334 37.6665H22.6666C22.2987 37.6665 22 37.9645 22 38.3331C22 40.9058 24.0934 42.9998 26.6666 42.9998H57.3333C59.9059 42.9998 61.9999 40.9058 61.9999 38.3331C62 37.9646 61.702 37.6665 61.3334 37.6665ZM57.3334 41.6665H26.6666C25.0566 41.6665 23.71 40.5192 23.4006 38.9999H60.5993C60.29 40.5192 58.9434 41.6665 57.3334 41.6665Z" fill="#F16225"/>
<path d="M41.9999 20.3335C32.4425 20.3335 24.6665 28.1095 24.6665 37.6669V38.3335C24.6665 38.7022 24.9652 39.0001 25.3331 39.0001H58.6665C59.0352 39.0001 59.3331 38.7022 59.3331 38.3335V37.6669C59.3332 28.1094 51.5578 20.3335 41.9999 20.3335ZM25.9999 37.6668C25.9999 28.8447 33.1778 21.6668 41.9999 21.6668C50.8219 21.6668 57.9999 28.8447 57.9999 37.6668H25.9999Z" fill="#F16225"/>
<path d="M31.0345 27.938C30.5685 28.462 30.1365 29.0227 29.7505 29.6053L30.8618 30.342C31.2138 29.8113 31.6071 29.2999 32.0311 28.8233L31.0345 27.938Z" fill="#F16225"/>
<path d="M42 23C38.256 23.002 34.6913 24.4166 31.9634 26.9813L32.8767 27.9527C35.3567 25.6206 38.5974 24.3353 42.0007 24.3334L42 23Z" fill="#F16225"/>
<path d="M44 17H40V18.3334H44V17Z" fill="#F16225"/>
<path d="M42.6668 17.6665H41.3335V20.9999H42.6668V17.6665Z" fill="#F16225"/>
</g>
<defs>
<clipPath id="clip0">
<rect width="40" height="40" fill="white" transform="translate(22 17)"/>
</clipPath>
</defs>
</svg>
