<svg width="78" height="75" viewBox="0 0 78 75" fill="none" xmlns="http://www.w3.org/2000/svg">
<path d="M69.7301 11.8663C76.7698 20.4689 79.0014 31.5091 76.9078 42.5696C74.8143 53.63 68.3727 64.6703 57.4451 70.3718C46.5174 76.0732 31.0576 76.4359 18.9106 71.1776C6.78666 65.9194 1.23683e-05 58.4519 0 46.6392C2.09351 38.2582 6.70406 20.7308 15.0551 11.8663C23.3831 3.02198 33.4622 0.000212166 43.1586 0C52.855 -1.99059e-05 62.7134 3.28388 69.7301 11.8663Z" fill="#ECEDF5"/>
<path d="M52.0712 34.1313C52.0712 32.5772 50.8069 31.313 49.2528 31.313H44.0731C45.3315 29.8985 46.154 28.2878 46.3129 26.8427C46.4099 25.9602 46.1372 25.0841 45.5645 24.4391C45.0411 23.8495 44.3254 23.521 43.5491 23.5138C43.5401 23.5137 43.5311 23.5137 43.5222 23.5137C42.7713 23.5137 42.0666 23.8028 41.5348 24.3298C41.0028 24.8569 40.7085 25.559 40.705 26.3083C40.6777 26.4724 40.3891 27.038 39.6829 27.7095C39.1048 28.2595 38.1061 29.0155 36.6315 29.4942C36.0534 29.682 35.525 30.0276 35.0611 30.5216C34.8176 30.7807 34.4531 31.1385 34.0018 31.4977C33.7803 31.3803 33.5284 31.3132 33.2608 31.3132H28.3415C27.4655 31.3132 26.7529 32.0258 26.7529 32.9017V46.02C26.7529 46.8959 27.4655 47.6085 28.3415 47.6085H33.2608C33.858 47.6085 34.3787 47.2769 34.65 46.7886H47.203C48.5311 46.7886 49.6115 45.7082 49.6115 44.3802C49.6115 43.9337 49.4894 43.5153 49.2767 43.1563C49.9687 42.7327 50.4313 41.9697 50.4313 41.1006C50.4313 40.6541 50.3093 40.2357 50.0966 39.8767C50.7886 39.4531 51.2512 38.6901 51.2512 37.821C51.2512 37.3184 51.0965 36.8513 50.8321 36.4647C51.5793 35.9572 52.0712 35.1006 52.0712 34.1313ZM49.2528 35.4124H48.8428C48.4183 35.4124 48.0741 35.7565 48.0741 36.1811C48.0741 36.6055 48.4182 36.9497 48.8428 36.9497C49.3231 36.9497 49.714 37.3405 49.714 37.8209C49.714 38.3013 49.3231 38.6921 48.8428 38.6921H48.0229C47.5984 38.6921 47.2542 39.0362 47.2542 39.4607C47.2542 39.8852 47.5983 40.2294 48.0229 40.2294C48.5033 40.2294 48.8941 40.6202 48.8941 41.1006C48.8941 41.581 48.5033 41.9718 48.0229 41.9718H47.203C46.7786 41.9718 46.4344 42.3159 46.4344 42.7404C46.4344 43.1649 46.7785 43.5091 47.203 43.5091C47.6834 43.5091 48.0742 43.8999 48.0742 44.3803C48.0742 44.8607 47.6834 45.2515 47.203 45.2515H34.8494V37.8212C34.8494 37.3967 34.5053 37.0525 34.0807 37.0525C33.6561 37.0525 33.312 37.3966 33.312 37.8212V46.02C33.312 46.0483 33.2891 46.0712 33.2608 46.0712H28.3415C28.3132 46.0712 28.2903 46.0483 28.2903 46.02V32.9015C28.2903 32.8732 28.3132 32.8503 28.3415 32.8503H33.2608C33.2891 32.8503 33.312 32.8732 33.312 32.9015V34.5413C33.312 34.9658 33.6561 35.31 34.0807 35.31C34.5053 35.31 34.8494 34.9659 34.8494 34.5413V32.9015C34.8494 32.8642 34.8463 32.8276 34.8437 32.791C35.4201 32.3449 35.881 31.8938 36.1816 31.5738C36.4661 31.2707 36.7772 31.063 37.1061 30.9563C38.9154 30.369 40.133 29.4232 40.8357 28.7332C41.7165 27.8685 42.2422 26.967 42.2422 26.3216C42.2422 25.9807 42.3752 25.6611 42.6167 25.4218C42.8612 25.1795 43.185 25.0515 43.5348 25.051C43.9657 25.0551 44.2511 25.2755 44.4147 25.4598C44.6953 25.7757 44.8333 26.23 44.7845 26.6748C44.6166 28.202 43.3952 30.0899 41.6728 31.4842C41.4198 31.6891 41.3232 32.0312 41.4319 32.3382C41.5405 32.6451 41.8308 32.8503 42.1565 32.8503H49.2526C49.959 32.8503 50.5336 33.4249 50.5336 34.1313C50.5336 34.8378 49.9591 35.4124 49.2528 35.4124Z" fill="#6773CD"/>
<path d="M30.8011 42.7812C30.3767 42.7812 30.0284 43.1295 30.0284 43.554C30.0284 43.9784 30.3767 44.3267 30.8011 44.3267C31.2256 44.3267 31.5738 43.9784 31.5738 43.554C31.5739 43.1296 31.2257 42.7812 30.8011 42.7812Z" fill="#6773CD"/>
<path d="M53.4428 23.7283C53.2516 23.52 53.0532 23.3129 52.8529 23.1127C52.6526 22.9125 52.4456 22.714 52.2373 22.5227C51.9247 22.2357 51.4385 22.2564 51.1513 22.5692C50.8642 22.8818 50.8849 23.3681 51.1977 23.6552C51.3897 23.8316 51.5809 24.0148 51.7658 24.1996C51.9505 24.3844 52.1338 24.5757 52.3103 24.7678C52.4619 24.9329 52.669 25.0166 52.8768 25.0166C53.0625 25.0166 53.2488 24.9497 53.3963 24.8142C53.7091 24.5272 53.7299 24.0409 53.4428 23.7283Z" fill="#6773CD"/>
<path d="M49.5078 20.4231C45.801 18.0616 41.3382 17.0121 36.9418 17.4672C32.4809 17.9294 28.2746 19.9335 25.0975 23.1105C21.601 26.6069 19.5653 31.2518 19.3653 36.1894C19.1665 41.0979 20.7923 45.8635 23.9432 49.6082C24.0952 49.7889 24.3126 49.882 24.5318 49.882C24.7065 49.882 24.8822 49.8227 25.0263 49.7015C25.351 49.4282 25.3928 48.9433 25.1196 48.6186C22.2162 45.1679 20.7182 40.776 20.9013 36.2517C21.0856 31.701 22.9618 27.4201 26.1844 24.1976C29.1126 21.2693 32.9893 19.4221 37.1001 18.9963C41.1534 18.5764 45.2663 19.5437 48.6817 21.7196C49.0398 21.9477 49.5148 21.8424 49.7429 21.4844C49.9711 21.1263 49.8657 20.6512 49.5078 20.4231Z" fill="#6773CD"/>
<path d="M55.5405 26.4573C55.3124 26.0992 54.837 25.994 54.4792 26.2221C54.1211 26.4502 54.0159 26.9253 54.244 27.2833C56.4199 30.6987 57.3871 34.8118 56.9673 38.8649C56.5415 42.9757 54.6944 46.8522 51.7662 49.7806C48.5435 53.0032 44.2626 54.8794 39.7121 55.0637C35.1885 55.2476 30.7957 53.7489 27.3452 50.8456C27.0204 50.5723 26.5356 50.6141 26.2622 50.9389C25.9888 51.2637 26.0306 51.7486 26.3555 52.0219C29.8955 55.0004 34.3472 56.6162 38.9701 56.6161C39.2375 56.6161 39.506 56.6107 39.7745 56.5998C44.712 56.3999 49.3568 54.3642 52.8534 50.8677C56.0305 47.6906 58.0347 43.4842 58.4966 39.0234C58.9519 34.6267 57.9021 30.164 55.5405 26.4573Z" fill="#6773CD"/>
</svg>
