<svg width="78" height="75" viewBox="0 0 78 75" fill="none" xmlns="http://www.w3.org/2000/svg">
<path d="M69.7301 11.8663C76.7698 20.4689 79.0014 31.5091 76.9078 42.5696C74.8143 53.63 68.3727 64.6703 57.4451 70.3718C46.5174 76.0732 31.0576 76.4359 18.9106 71.1776C6.78666 65.9194 1.23683e-05 58.4519 0 46.6392C2.09351 38.2582 6.70406 20.7308 15.0551 11.8663C23.3831 3.02198 33.4622 0.000212166 43.1586 0C52.855 -1.99059e-05 62.7134 3.28388 69.7301 11.8663Z" fill="#F9E6DE"/>
<g clip-path="url(#clip0)">
<path d="M34.3173 28.0159C33.9714 28.0159 33.691 28.2963 33.691 28.6423C33.691 29.402 33.0729 30.0202 32.3131 30.0202C31.5533 30.0202 30.9352 29.402 30.9352 28.6423C30.9352 27.8825 31.5533 27.2644 32.3131 27.2644C32.6589 27.2644 32.9394 26.984 32.9394 26.638C32.9394 26.2921 32.659 26.0117 32.3131 26.0117C30.8626 26.0117 29.6826 27.1918 29.6826 28.6422C29.6826 30.0926 30.8627 31.2727 32.3131 31.2727C33.7635 31.2727 34.9436 30.0926 34.9436 28.6422C34.9436 28.2963 34.6632 28.0159 34.3173 28.0159Z" fill="#F16225"/>
<path d="M34.3173 35.3655C33.9714 35.3655 33.691 35.6459 33.691 35.9919C33.691 36.7516 33.0729 37.3698 32.3131 37.3698C31.5533 37.3698 30.9352 36.7516 30.9352 35.9919C30.9352 35.2321 31.5533 34.614 32.3131 34.614C32.6589 34.614 32.9394 34.3336 32.9394 33.9877C32.9394 33.6417 32.659 33.3613 32.3131 33.3613C30.8626 33.3613 29.6826 34.5414 29.6826 35.9918C29.6826 37.4422 30.8627 38.6223 32.3131 38.6223C33.7635 38.6223 34.9436 37.4422 34.9436 35.9918C34.9436 35.646 34.6632 35.3655 34.3173 35.3655Z" fill="#F16225"/>
<path d="M41.6659 36.7012H36.9895C36.6436 36.7012 36.3632 36.9816 36.3632 37.3275C36.3632 37.6734 36.6435 37.9538 36.9895 37.9538H41.6659C42.0118 37.9538 42.2922 37.6734 42.2922 37.3275C42.2922 36.9816 42.0118 36.7012 41.6659 36.7012Z" fill="#F16225"/>
<path d="M41.6659 34.0293H36.9895C36.6436 34.0293 36.3632 34.3097 36.3632 34.6556C36.3632 35.0016 36.6435 35.282 36.9895 35.282H41.6659C42.0118 35.282 42.2922 35.0016 42.2922 34.6556C42.2922 34.3097 42.0118 34.0293 41.6659 34.0293Z" fill="#F16225"/>
<path d="M40.3298 44.0488H36.9895C36.6436 44.0488 36.3632 44.3292 36.3632 44.6752C36.3632 45.0211 36.6435 45.3015 36.9895 45.3015H40.3298C40.6757 45.3015 40.9561 45.0211 40.9561 44.6752C40.9561 44.3292 40.6757 44.0488 40.3298 44.0488Z" fill="#F16225"/>
<path d="M41.6659 41.3789H36.9895C36.6436 41.3789 36.3632 41.6593 36.3632 42.0052C36.3632 42.3512 36.6435 42.6316 36.9895 42.6316H41.6659C42.0118 42.6316 42.2922 42.3512 42.2922 42.0052C42.2922 41.6593 42.0118 41.3789 41.6659 41.3789Z" fill="#F16225"/>
<path d="M47.6785 29.3516H36.9895C36.6436 29.3516 36.3632 29.632 36.3632 29.9779C36.3632 30.3238 36.6435 30.6042 36.9895 30.6042H47.6784C48.0243 30.6042 48.3047 30.3238 48.3047 29.9779C48.3047 29.632 48.0243 29.3516 47.6785 29.3516Z" fill="#F16225"/>
<path d="M45.0062 26.6797H36.9895C36.6436 26.6797 36.3632 26.9601 36.3632 27.306C36.3632 27.652 36.6435 27.9323 36.9895 27.9323H45.0062C45.3521 27.9323 45.6325 27.652 45.6325 27.306C45.6325 26.9601 45.3521 26.6797 45.0062 26.6797Z" fill="#F16225"/>
<path d="M34.3173 42.7132C33.9714 42.7132 33.691 42.9936 33.691 43.3395C33.691 44.0993 33.0729 44.7174 32.3131 44.7174C31.5533 44.7174 30.9352 44.0993 30.9352 43.3395C30.9352 42.5798 31.5533 41.9616 32.3131 41.9616C32.6589 41.9616 32.9394 41.6813 32.9394 41.3353C32.9394 40.9894 32.659 40.709 32.3131 40.709C30.8626 40.709 29.6826 41.8891 29.6826 43.3395C29.6826 44.7898 30.8627 45.9699 32.3131 45.9699C33.7635 45.9699 34.9436 44.7898 34.9436 43.3395C34.9436 42.9936 34.6632 42.7132 34.3173 42.7132Z" fill="#F16225"/>
<path d="M50.3507 20H27.6367C26.5547 20 25.6743 20.8803 25.6743 21.9624V50.0209C25.6743 51.103 26.5546 51.9833 27.6367 51.9833H38.9938C39.3396 51.9833 39.6201 51.7029 39.6201 51.3569C39.6201 51.0111 39.3397 50.7306 38.9938 50.7306H27.6367C27.2453 50.7306 26.9269 50.4122 26.9269 50.0208V21.9624C26.9269 21.571 27.2453 21.2526 27.6367 21.2526H50.3507C50.7421 21.2526 51.0606 21.571 51.0606 21.9624V42.6723C51.0606 43.0182 51.341 43.2987 51.6869 43.2987C52.0328 43.2987 52.3132 43.0183 52.3132 42.6723V21.9624C52.3131 20.8803 51.4328 20 50.3507 20Z" fill="#F16225"/>
<path d="M56.2639 45.3977C55.6818 45.3397 55.1 45.5047 54.6395 45.8543C54.2727 45.2388 53.6473 44.8022 52.9236 44.7297C52.3413 44.6717 51.7596 44.8367 51.2992 45.1862C50.9324 44.5708 50.307 44.1341 49.5833 44.0616C49.1388 44.0173 48.6948 44.1029 48.3048 44.3014V36.3255C48.3048 35.6779 48.0293 35.0571 47.5487 34.6223C47.0687 34.188 46.4217 33.9759 45.7737 34.0408C44.6175 34.1566 43.7119 35.2019 43.7119 36.4208V44.4169L41.8708 46.258C40.8924 47.2363 40.4975 48.6244 40.8145 49.9713L42.2122 55.9117C42.7785 58.3188 44.9011 59.9999 47.3739 59.9999H53.0229C55.9468 59.9999 58.3256 57.6212 58.3256 54.6972V47.7779C58.3257 46.5589 57.4201 45.5135 56.2639 45.3977ZM57.073 54.697C57.073 56.9302 55.2562 58.7471 53.023 58.7471H47.374C45.4853 58.7471 43.8641 57.4631 43.4315 55.6246L42.0338 49.6842C41.8169 48.7627 42.0871 47.8129 42.7565 47.1435L43.7119 46.1881V48.3505C43.7119 48.6963 43.9923 48.9768 44.3382 48.9768C44.6841 48.9768 44.9645 48.6964 44.9645 48.3505V36.4207C44.9645 35.8375 45.3748 35.3395 45.8986 35.2872C46.1995 35.2569 46.4872 35.3509 46.7084 35.5512C46.927 35.7489 47.0523 36.0312 47.0523 36.3255V47.3485C47.0523 47.6944 47.3327 47.9748 47.6786 47.9748C48.0245 47.9748 48.3049 47.6944 48.3049 47.3485V46.3464C48.3049 46.052 48.4302 45.7698 48.6488 45.572C48.8702 45.3717 49.1577 45.2777 49.4586 45.308C49.9823 45.3605 50.3927 45.8584 50.3927 46.4416V48.0164C50.3927 48.3623 50.673 48.6427 51.019 48.6427C51.3648 48.6427 51.6453 48.3623 51.6453 48.0164V47.0143C51.6453 46.7199 51.7705 46.4377 51.9891 46.2399C52.2105 46.0396 52.4982 45.9457 52.799 45.9759C53.3227 46.0284 53.733 46.5263 53.733 47.1095V48.6844C53.733 49.0302 54.0134 49.3107 54.3594 49.3107C54.7052 49.3107 54.9857 49.0303 54.9857 48.6844V47.6823C54.9857 47.3879 55.1109 47.1056 55.3295 46.9079C55.5509 46.7077 55.8384 46.6136 56.1394 46.644C56.6631 46.6963 57.0734 47.1943 57.0734 47.7775V54.697H57.073Z" fill="#F16225"/>
</g>
<defs>
<clipPath id="clip0">
<rect width="40" height="40" fill="white" transform="translate(22 20)"/>
</clipPath>
</defs>
</svg>
