<svg width="78" height="75" viewBox="0 0 78 75" fill="none" xmlns="http://www.w3.org/2000/svg">
<path d="M69.7301 11.8663C76.7698 20.4689 79.0014 31.5091 76.9078 42.5696C74.8143 53.63 68.3727 64.6703 57.4451 70.3718C46.5174 76.0732 31.0576 76.4359 18.9106 71.1776C6.78666 65.9194 1.23683e-05 58.4519 0 46.6392C2.09351 38.2582 6.70406 20.7308 15.0551 11.8663C23.3831 3.02198 33.4622 0.000212166 43.1586 0C52.855 -1.99059e-05 62.7134 3.28388 69.7301 11.8663Z" fill="#F4ECD7"/>
<mask id="path-2-inside-1" fill="white">
<path d="M28.4284 47.9651C28.11 48.2834 27.5921 48.2847 27.2901 47.9509C25.0027 45.4226 23.5651 42.2398 23.1804 38.8522C23.1296 38.4048 23.473 38.0171 23.9224 37.9887C24.3717 37.9603 24.7567 38.3021 24.81 38.7492C25.1665 41.7408 26.4358 44.551 28.4446 46.7964C28.7449 47.1319 28.7468 47.6467 28.4284 47.9651Z"/>
</mask>
<path d="M28.4284 47.9651C28.11 48.2834 27.5921 48.2847 27.2901 47.9509C25.0027 45.4226 23.5651 42.2398 23.1804 38.8522C23.1296 38.4048 23.473 38.0171 23.9224 37.9887C24.3717 37.9603 24.7567 38.3021 24.81 38.7492C25.1665 41.7408 26.4358 44.551 28.4446 46.7964C28.7449 47.1319 28.7468 47.6467 28.4284 47.9651Z" stroke="#DAB451" stroke-width="4" stroke-linecap="round" stroke-linejoin="round" mask="url(#path-2-inside-1)"/>
<path d="M38.8718 29.8781V39.0497H52.1197M38.8718 26.3113V23.7637" stroke="#DAB451" stroke-width="1.7" stroke-linecap="round"/>
<path d="M53.7439 23.4856C53.549 23.2733 53.3468 23.0623 53.1427 22.8583C52.9386 22.6543 52.7277 22.452 52.5154 22.2571C52.1968 21.9645 51.7013 21.9856 51.4087 22.3044C51.1161 22.623 51.1373 23.1186 51.456 23.4111C51.6517 23.5909 51.8465 23.7775 52.0349 23.9659C52.2232 24.1542 52.4099 24.3491 52.5898 24.5449C52.7443 24.7132 52.9553 24.7985 53.1671 24.7985C53.3563 24.7985 53.5462 24.7303 53.6965 24.5922C54.0153 24.2998 54.0365 23.8042 53.7439 23.4856Z" fill="#DAB451"/>
<path d="M49.7338 20.1182C45.9564 17.7116 41.4085 16.6421 36.9282 17.1059C32.3823 17.5769 28.0958 19.6192 24.8581 22.8568C21.295 26.4199 19.2204 31.1533 19.0166 36.185C18.814 41.1872 20.4708 46.0437 23.6818 49.8598C23.8367 50.0439 24.0583 50.1388 24.2816 50.1388C24.4597 50.1388 24.6387 50.0784 24.7855 49.9549C25.1165 49.6763 25.1591 49.1822 24.8806 48.8512C21.9219 45.3348 20.3953 40.8591 20.5819 36.2486C20.7697 31.6111 22.6817 27.2486 25.9658 23.9646C28.9498 20.9805 32.9004 19.0981 37.0895 18.6642C41.2202 18.2362 45.4115 19.222 48.892 21.4394C49.2569 21.6719 49.741 21.5646 49.9734 21.1997C50.206 20.8348 50.0986 20.3506 49.7338 20.1182Z" fill="#DAB451"/>
<path d="M55.8816 26.2669C55.6492 25.9019 55.1648 25.7946 54.8001 26.0271C54.4352 26.2595 54.328 26.7438 54.5604 27.1085C56.7778 30.5891 57.7634 34.7806 57.3356 38.911C56.9017 43.1002 55.0194 47.0506 52.0353 50.0348C48.7512 53.3188 44.3887 55.2309 39.7514 55.4187C35.1416 55.6061 30.665 54.0788 27.1487 51.1202C26.8177 50.8416 26.3236 50.8842 26.0451 51.2153C25.7665 51.5462 25.8091 52.0403 26.1401 52.3189C29.7476 55.3542 34.2843 57.0008 38.9953 57.0007C39.2678 57.0007 39.5414 56.9951 39.815 56.9841C44.8467 56.7804 49.58 54.7058 53.1433 51.1427C56.3809 47.905 58.4233 43.6184 58.8941 39.0725C59.358 34.592 58.2882 30.0442 55.8816 26.2669Z" fill="#DAB451"/>
</svg>
