<svg width="12" height="12" viewBox="0 0 12 12" fill="none" xmlns="http://www.w3.org/2000/svg">
<path fill-rule="evenodd" clip-rule="evenodd" d="M12 0H0V12H12V0ZM8.21631 2.30615C8.62427 1.89795 9.28589 1.89795 9.69385 2.30615C10.1018 2.71387 10.1018 3.37549 9.69385 3.78369L7.47754 6L9.69409 8.21631C10.1021 8.62451 10.1021 9.28613 9.69409 9.69385C9.28613 10.1021 8.62451 10.1021 8.21655 9.69385L6 7.47754L3.78369 9.69385C3.52759 9.94971 3.17163 10.0449 2.84131 9.97949C2.64526 9.94092 2.45801 9.8457 2.30591 9.69385C1.89795 9.28564 1.89795 8.62402 2.30591 8.21631L4.52246 6L2.30615 3.78369C1.89819 3.37598 1.89819 2.71436 2.30615 2.30615C2.46973 2.14258 2.67407 2.04492 2.88647 2.01221C3.20386 1.96387 3.53931 2.06201 3.78369 2.30615L6 4.52246L8.21631 2.30615Z" fill="white"/>
</svg>
