<svg width="26" height="26" viewBox="0 0 26 26" fill="none" xmlns="http://www.w3.org/2000/svg">
<path d="M24.5261 6.03408C23.9485 3.35414 23.0531 1.47731 23.0153 1.39876C22.8599 1.07576 22.4857 0.921034 22.1467 1.03987C22.0804 1.06294 20.5025 1.62123 18.5145 2.80464C16.874 3.78151 14.6691 5.36758 13.0003 7.58078C12.6294 7.08786 12.2187 6.60739 11.7693 6.1412C10.7656 5.10042 9.56714 4.12832 8.20686 3.25161C5.89921 1.76405 3.93605 1.0688 3.85346 1.03987C3.51467 0.921034 3.14046 1.07576 2.98484 1.39876C2.94703 1.47731 2.05161 3.35414 1.47406 6.03408C1.1338 7.61355 0.975236 9.14651 1.00313 10.5905C1.03837 12.4159 1.37312 14.1043 1.99765 15.6087C2.62237 17.1133 3.58239 18.5433 4.8511 19.8589C5.85462 20.8995 7.05322 21.8718 8.41332 22.7485C10.721 24.2361 12.6841 24.9315 12.7667 24.9604C12.8421 24.9868 12.9211 25 13 25C13.0789 25 13.1578 24.9868 13.2334 24.9604C13.3158 24.9315 15.2792 24.2361 17.5868 22.7485C18.9469 21.8718 20.1453 20.8995 21.149 19.8589C22.4178 18.5433 23.3778 17.1133 24.0023 15.6087C24.627 14.1043 24.9616 12.4159 24.9968 10.5905C25.0249 9.14651 24.8663 7.61355 24.5261 6.03408V6.03408ZM3.29995 15.0707C2.03583 12.026 2.35479 8.65524 2.84481 6.36349C3.20066 4.69906 3.69655 3.34426 3.99569 2.60872C5.59621 3.28548 9.96246 5.39797 12.3954 9.17435C12.4024 9.18607 12.4099 9.19778 12.4177 9.20914C12.7627 9.74857 13.0681 10.3217 13.3204 10.9294C15.0755 15.1571 13.8363 20.0091 12.9879 22.4299L6.72232 7.33816C6.57348 6.97946 6.1611 6.80899 5.80158 6.95767C5.44205 7.10635 5.27119 7.5176 5.42021 7.87649L11.6856 22.9679C10.9788 22.6286 10.09 22.1571 9.14907 21.5486C7.17838 20.2739 4.56389 18.1152 3.29995 15.0707V15.0707ZM22.7002 15.0707C21.4363 18.1152 18.8218 20.2739 16.8511 21.5486C15.9101 22.1573 15.0217 22.6284 14.3148 22.9677L21.2979 6.14706C21.4469 5.78835 21.276 5.37691 20.9165 5.22842C20.5568 5.07992 20.1446 5.25021 19.9958 5.60891L15.6169 16.1565C15.6694 14.0442 15.3374 12.1132 14.6225 10.3913C14.4019 9.86008 14.1395 9.33786 13.8365 8.82699C15.3847 6.59585 17.591 4.99532 19.2088 4.02907C20.3663 3.33766 21.3891 2.86745 22.0043 2.60817C22.3034 3.34352 22.7993 4.69869 23.1553 6.36349C23.6454 8.65524 23.9643 12.026 22.7002 15.0707V15.0707Z" fill="#3EC290" stroke="#3EC290" stroke-width="0.999997"/>
</svg>
