<svg width="128" height="43" viewBox="0 0 128 43" fill="none" xmlns="http://www.w3.org/2000/svg">
<path d="M14.292 27.5042C10.5 27.5042 7.36799 26.2442 4.89599 23.7242C2.42399 21.2042 1.18799 18.0962 1.18799 14.4002C1.18799 10.6802 2.42399 7.57222 4.89599 5.07621C7.36799 2.55621 10.5 1.29621 14.292 1.29621C16.572 1.29621 18.672 1.83621 20.592 2.91621C22.536 3.97221 24.048 5.41222 25.128 7.23621L20.844 9.72021C20.22 8.59222 19.332 7.71622 18.18 7.09221C17.028 6.44421 15.732 6.12021 14.292 6.12021C11.844 6.12021 9.86399 6.88821 8.35199 8.42421C6.86399 9.96021 6.11999 11.9522 6.11999 14.4002C6.11999 16.8242 6.86399 18.8042 8.35199 20.3402C9.86399 21.8762 11.844 22.6442 14.292 22.6442C15.732 22.6442 17.028 22.3322 18.18 21.7082C19.356 21.0602 20.244 20.1842 20.844 19.0802L25.128 21.5642C24.048 23.3882 22.548 24.8402 20.628 25.9202C18.708 26.9762 16.596 27.5042 14.292 27.5042Z" fill="#FE9F49"/>
<path d="M28.2451 27.0002V0.720215H32.8891V27.0002H28.2451Z" fill="#FE9F49"/>
<path d="M49.0196 9.00022H53.6636V27.0002H49.0196V24.9842C47.8916 26.6642 46.1036 27.5042 43.6556 27.5042C41.6876 27.5042 40.0556 26.8442 38.7596 25.5242C37.4876 24.2042 36.8516 22.3802 36.8516 20.0522V9.00022H41.4956V19.4762C41.4956 20.6762 41.8196 21.6002 42.4676 22.2482C43.1156 22.8722 43.9796 23.1842 45.0596 23.1842C46.2596 23.1842 47.2196 22.8122 47.9396 22.0682C48.6596 21.3242 49.0196 20.2082 49.0196 18.7202V9.00022Z" fill="#FE9F49"/>
<path d="M68.393 8.49622C70.817 8.49622 72.881 9.42022 74.585 11.2682C76.313 13.0922 77.177 15.3362 77.177 18.0002C77.177 20.6642 76.313 22.9202 74.585 24.7682C72.881 26.5922 70.817 27.5042 68.393 27.5042C65.873 27.5042 63.929 26.6282 62.561 24.8762V27.0002H57.917V1.80021H62.561V11.1242C63.929 9.37221 65.873 8.49622 68.393 8.49622ZM63.965 21.6722C64.901 22.6082 66.089 23.0762 67.529 23.0762C68.969 23.0762 70.157 22.6082 71.093 21.6722C72.053 20.7122 72.533 19.4882 72.533 18.0002C72.533 16.5122 72.053 15.3002 71.093 14.3642C70.157 13.4042 68.969 12.9242 67.529 12.9242C66.089 12.9242 64.901 13.4042 63.965 14.3642C63.029 15.3002 62.561 16.5122 62.561 18.0002C62.561 19.4882 63.029 20.7122 63.965 21.6722Z" fill="#FE9F49"/>
<path d="M99.0641 1.80021C101.488 1.80021 103.528 2.61621 105.184 4.24821C106.84 5.88022 107.668 7.88421 107.668 10.2602C107.668 12.6362 106.84 14.6402 105.184 16.2722C103.528 17.9042 101.488 18.7202 99.0641 18.7202H94.6361V27.0002H89.6681V1.80021H99.0641ZM99.0641 14.0762C100.12 14.0762 100.996 13.7162 101.692 12.9962C102.388 12.2522 102.736 11.3402 102.736 10.2602C102.736 9.15621 102.388 8.24422 101.692 7.52422C100.996 6.80421 100.12 6.44421 99.0641 6.44421H94.6361V14.0762H99.0641Z" fill="#FE9F49"/>
<path d="M120.694 8.49622C122.662 8.49622 124.282 9.15622 125.554 10.4762C126.85 11.7962 127.498 13.6202 127.498 15.9482V27.0002H122.854V16.5242C122.854 15.3242 122.53 14.4122 121.882 13.7882C121.234 13.1402 120.37 12.8162 119.29 12.8162C118.09 12.8162 117.13 13.1882 116.41 13.9322C115.69 14.6762 115.33 15.7922 115.33 17.2802V27.0002H110.686V1.80021H115.33V11.0162C116.458 9.33622 118.246 8.49622 120.694 8.49622Z" fill="#FE9F49"/>
<path d="M5.79603 35.1841H2.43603V37.1761H5.70003V38.7601H2.43603V42.0001H0.780029V33.6001H5.79603V35.1841Z" fill="#FE9F49"/>
<path d="M17.2507 40.9081C16.4027 41.7481 15.3707 42.1681 14.1547 42.1681C12.9387 42.1681 11.9067 41.7481 11.0587 40.9081C10.2187 40.0601 9.79869 39.0241 9.79869 37.8001C9.79869 36.5761 10.2187 35.5441 11.0587 34.7041C11.9067 33.8561 12.9387 33.4321 14.1547 33.4321C15.3707 33.4321 16.4027 33.8561 17.2507 34.7041C18.0987 35.5441 18.5227 36.5761 18.5227 37.8001C18.5227 39.0241 18.0987 40.0601 17.2507 40.9081ZM12.2227 39.7801C12.7427 40.2921 13.3867 40.5481 14.1547 40.5481C14.9227 40.5481 15.5667 40.2921 16.0867 39.7801C16.6067 39.2601 16.8667 38.6001 16.8667 37.8001C16.8667 37.0001 16.6067 36.3401 16.0867 35.8201C15.5667 35.3001 14.9227 35.0401 14.1547 35.0401C13.3867 35.0401 12.7427 35.3001 12.2227 35.8201C11.7027 36.3401 11.4427 37.0001 11.4427 37.8001C11.4427 38.6001 11.7027 39.2601 12.2227 39.7801Z" fill="#FE9F49"/>
<path d="M29.9346 40.9081C29.0866 41.7481 28.0546 42.1681 26.8386 42.1681C25.6226 42.1681 24.5906 41.7481 23.7426 40.9081C22.9026 40.0601 22.4826 39.0241 22.4826 37.8001C22.4826 36.5761 22.9026 35.5441 23.7426 34.7041C24.5906 33.8561 25.6226 33.4321 26.8386 33.4321C28.0546 33.4321 29.0866 33.8561 29.9346 34.7041C30.7826 35.5441 31.2066 36.5761 31.2066 37.8001C31.2066 39.0241 30.7826 40.0601 29.9346 40.9081ZM24.9066 39.7801C25.4266 40.2921 26.0706 40.5481 26.8386 40.5481C27.6066 40.5481 28.2506 40.2921 28.7706 39.7801C29.2906 39.2601 29.5506 38.6001 29.5506 37.8001C29.5506 37.0001 29.2906 36.3401 28.7706 35.8201C28.2506 35.3001 27.6066 35.0401 26.8386 35.0401C26.0706 35.0401 25.4266 35.3001 24.9066 35.8201C24.3866 36.3401 24.1266 37.0001 24.1266 37.8001C24.1266 38.6001 24.3866 39.2601 24.9066 39.7801Z" fill="#FE9F49"/>
<path d="M38.8865 33.6001C40.0385 33.6001 40.9985 34.0041 41.7665 34.8121C42.5425 35.6201 42.9305 36.6161 42.9305 37.8001C42.9305 38.9841 42.5425 39.9801 41.7665 40.7881C40.9985 41.5961 40.0385 42.0001 38.8865 42.0001H35.5505V33.6001H38.8865ZM38.8865 40.4161C39.6145 40.4161 40.2065 40.1761 40.6625 39.6961C41.1185 39.2081 41.3465 38.5761 41.3465 37.8001C41.3465 37.0241 41.1185 36.3961 40.6625 35.9161C40.2065 35.4281 39.6145 35.1841 38.8865 35.1841H37.2065V40.4161H38.8865Z" fill="#FE9F49"/>
<path d="M56.8012 33.6001C57.9532 33.6001 58.9132 34.0041 59.6812 34.8121C60.4572 35.6201 60.8452 36.6161 60.8452 37.8001C60.8452 38.9841 60.4572 39.9801 59.6812 40.7881C58.9132 41.5961 57.9532 42.0001 56.8012 42.0001H53.4652V33.6001H56.8012ZM56.8012 40.4161C57.5292 40.4161 58.1212 40.1761 58.5772 39.6961C59.0332 39.2081 59.2612 38.5761 59.2612 37.8001C59.2612 37.0241 59.0332 36.3961 58.5772 35.9161C58.1212 35.4281 57.5292 35.1841 56.8012 35.1841H55.1212V40.4161H56.8012Z" fill="#FE9F49"/>
<path d="M66.8559 40.4161H70.3959V42.0001H65.1999V33.6001H70.3359V35.1841H66.8559V36.9721H70.0359V38.5321H66.8559V40.4161Z" fill="#FE9F49"/>
<path d="M76.3992 40.4161H79.6032V42.0001H74.7432V33.6001H76.3992V40.4161Z" fill="#FE9F49"/>
<path d="M83.7239 33.6001H85.3799V42.0001H83.7239V33.6001Z" fill="#FE9F49"/>
<path d="M92.1909 42.0001L89.3709 33.6001H91.1709L93.2229 40.0561L95.2629 33.6001H97.0749L94.2429 42.0001H92.1909Z" fill="#FE9F49"/>
<path d="M102.72 40.4161H106.26V42.0001H101.064V33.6001H106.2V35.1841H102.72V36.9721H105.9V38.5321H102.72V40.4161Z" fill="#FE9F49"/>
<path d="M115.216 42.0001L113.524 39.0841H112.264V42.0001H110.608V33.6001H113.968C114.744 33.6001 115.404 33.8721 115.948 34.4161C116.492 34.9601 116.764 35.6161 116.764 36.3841C116.764 36.9041 116.616 37.3881 116.32 37.8361C116.024 38.2761 115.632 38.6081 115.144 38.8321L117.004 42.0001H115.216ZM112.264 35.1481V37.6321H113.968C114.28 37.6321 114.548 37.5121 114.772 37.2721C114.996 37.0241 115.108 36.7281 115.108 36.3841C115.108 36.0401 114.996 35.7481 114.772 35.5081C114.548 35.2681 114.28 35.1481 113.968 35.1481H112.264Z" fill="#FE9F49"/>
<path d="M127.572 33.6001L124.692 38.7241V42.0001H123.048V38.7241L120.18 33.6001H122.052L123.876 37.1041L125.7 33.6001H127.572Z" fill="#FE9F49"/>
</svg>
