<svg width="127" height="28" viewBox="0 0 127 28" fill="none" xmlns="http://www.w3.org/2000/svg">
<path d="M13.292 27.504C9.5 27.504 6.368 26.244 3.896 23.724C1.424 21.204 0.188 18.096 0.188 14.4C0.188 10.68 1.424 7.572 3.896 5.076C6.368 2.556 9.5 1.296 13.292 1.296C15.572 1.296 17.672 1.836 19.592 2.916C21.536 3.972 23.048 5.412 24.128 7.236L19.844 9.72C19.22 8.592 18.332 7.716 17.18 7.092C16.028 6.444 14.732 6.12 13.292 6.12C10.844 6.12 8.864 6.888 7.352 8.424C5.864 9.96 5.12 11.952 5.12 14.4C5.12 16.824 5.864 18.804 7.352 20.34C8.864 21.876 10.844 22.644 13.292 22.644C14.732 22.644 16.028 22.332 17.18 21.708C18.356 21.06 19.244 20.184 19.844 19.08L24.128 21.564C23.048 23.388 21.548 24.84 19.628 25.92C17.708 26.976 15.596 27.504 13.292 27.504ZM27.2451 27V0.719999H31.8891V27H27.2451ZM48.0196 9H52.6636V27H48.0196V24.984C46.8916 26.664 45.1036 27.504 42.6556 27.504C40.6876 27.504 39.0556 26.844 37.7596 25.524C36.4876 24.204 35.8516 22.38 35.8516 20.052V9H40.4956V19.476C40.4956 20.676 40.8196 21.6 41.4676 22.248C42.1156 22.872 42.9796 23.184 44.0596 23.184C45.2596 23.184 46.2196 22.812 46.9396 22.068C47.6596 21.324 48.0196 20.208 48.0196 18.72V9ZM67.393 8.496C69.817 8.496 71.881 9.42 73.585 11.268C75.313 13.092 76.177 15.336 76.177 18C76.177 20.664 75.313 22.92 73.585 24.768C71.881 26.592 69.817 27.504 67.393 27.504C64.873 27.504 62.929 26.628 61.561 24.876V27H56.917V1.8H61.561V11.124C62.929 9.372 64.873 8.496 67.393 8.496ZM62.965 21.672C63.901 22.608 65.089 23.076 66.529 23.076C67.969 23.076 69.157 22.608 70.093 21.672C71.053 20.712 71.533 19.488 71.533 18C71.533 16.512 71.053 15.3 70.093 14.364C69.157 13.404 67.969 12.924 66.529 12.924C65.089 12.924 63.901 13.404 62.965 14.364C62.029 15.3 61.561 16.512 61.561 18C61.561 19.488 62.029 20.712 62.965 21.672ZM98.0641 1.8C100.488 1.8 102.528 2.616 104.184 4.248C105.84 5.88 106.668 7.884 106.668 10.26C106.668 12.636 105.84 14.64 104.184 16.272C102.528 17.904 100.488 18.72 98.0641 18.72H93.6361V27H88.6681V1.8H98.0641ZM98.0641 14.076C99.1201 14.076 99.9961 13.716 100.692 12.996C101.388 12.252 101.736 11.34 101.736 10.26C101.736 9.156 101.388 8.244 100.692 7.524C99.9961 6.804 99.1201 6.444 98.0641 6.444H93.6361V14.076H98.0641ZM119.695 8.496C121.663 8.496 123.283 9.156 124.555 10.476C125.851 11.796 126.499 13.62 126.499 15.948V27H121.855V16.524C121.855 15.324 121.531 14.412 120.883 13.788C120.235 13.14 119.371 12.816 118.291 12.816C117.091 12.816 116.131 13.188 115.411 13.932C114.691 14.676 114.331 15.792 114.331 17.28V27H109.687V1.8H114.331V11.016C115.459 9.336 117.247 8.496 119.695 8.496Z" fill="#FE9F49"/>
</svg>
