<svg width="21" height="21" viewBox="0 0 21 21" fill="none" xmlns="http://www.w3.org/2000/svg">
<path d="M6.16741 8.06679C6.15882 8.05122 6.15027 8.03573 6.14178 8.02032C6.09045 7.92725 6.04079 7.83721 5.99167 7.75109L7.08825 6.65365L6.16741 8.06679ZM6.16741 8.06679L6.17067 8.07266M6.16741 8.06679L6.17067 8.07266M6.73408 6.30071L6.73456 6.30023L7.27321 5.7597L7.27338 5.75953C7.76012 5.27156 7.75503 4.51566 7.31671 4.07581L4.07383 0.824863C4.07381 0.824839 4.07379 0.824815 4.07376 0.824791C3.63707 0.387273 2.88466 0.381901 2.39801 0.869335C2.39786 0.86948 2.39772 0.869625 2.39757 0.869771L1.71496 1.55786L1.54841 1.77086C1.27367 2.12221 1.04159 2.53062 0.867999 2.97395C0.70621 3.40183 0.607948 3.80324 0.563119 4.20095L0.562697 4.20469C0.162732 7.52788 1.64536 10.633 6.01704 15.0147C11.932 20.9426 16.6503 20.5033 16.8092 20.487C17.2262 20.4368 17.6256 20.337 18.0346 20.1779C18.4728 20.0062 18.8805 19.7739 19.2315 19.4986L19.3993 19.367L20.1335 18.6464C20.6173 18.1586 20.6126 17.4035 20.1752 16.9631L6.73408 6.30071ZM6.73408 6.30071L5.63798 7.39767L5.36837 7.66749L5.55735 7.99882C5.60454 8.08155 5.65224 8.16803 5.70368 8.26129C5.71223 8.27681 5.72089 8.29251 5.72967 8.30842L5.73008 8.30915L5.73639 8.32054C6.31278 9.36066 7.12451 10.8254 8.66152 12.3658C10.1994 13.9083 11.6634 14.7215 12.7017 15.2981C12.8147 15.3616 12.9222 15.4216 13.0263 15.479L13.3559 15.6611L13.6219 15.3946L15.2558 13.7573L15.2559 13.7572C15.7411 13.2708 16.4938 13.275 16.9327 13.7128C16.9327 13.7129 16.9328 13.713 16.9329 13.713L20.1747 16.9626L6.73408 6.30071ZM9.01561 12.0128C10.5016 13.5033 11.9138 14.2886 12.9456 14.8616L9.01561 12.0128ZM9.01561 12.0128C7.52799 10.522 6.74383 9.10694 6.17067 8.07266M9.01561 12.0128L6.17067 8.07266" stroke="#161616"/>
</svg>
