<svg xmlns="http://www.w3.org/2000/svg" viewBox="0 0 382.18 86.52"><defs><style>.cls-1{fill:#c20000;}.cls-2{fill:#888;}</style></defs><title>Ресурс 1</title><g id="Шар_2" data-name="Шар 2"><g id="Шар_1-2" data-name="Шар 1"><polygon class="cls-1" points="127.28 78.74 113.14 78.74 106.07 71.67 113.14 64.59 127.28 78.74"/><polygon class="cls-1" points="49.5 71.67 42.43 78.74 28.28 78.74 42.43 64.59 49.5 71.67"/><polygon class="cls-1" points="77.78 57.52 63.64 43.38 56.57 50.45 49.5 57.52 56.57 64.59 63.64 57.52 70.71 64.59 56.57 78.74 70.71 78.74 77.78 71.67 84.85 78.74 99 78.74 84.85 64.59 91.92 57.52 99 64.59 106.07 57.52 99 50.45 91.92 43.38 77.78 57.52"/><path d="M70.71,8,0,78.74H14.14l49.5-49.5,7.07,7.07h0l7.07,7.07,7.07-7.07,7.07-7.07,49.5,49.5h14.14L77.78,1ZM84.85,22.17l-7.07,7.07-7.07-7.07,7.07-7.07Z"/><polygon class="cls-2" points="120.21 43.38 127.28 50.45 141.42 36.31 183.85 78.74 197.99 78.74 148.49 29.24 141.42 22.17 120.21 43.38"/><path d="M232.12,29.37c0,1.44-.6,2.17-1.79,2.17s-1.79-.73-1.79-2.17v-2c0-2,1-3.05,2.85-3.11a34.11,34.11,0,0,0,1.84-6.12q1-4.27,1.62-9.26A71.86,71.86,0,0,0,235.49,0h14.87V24.29c1.71.09,2.56,1.11,2.56,3.07v2c0,1.44-.6,2.17-1.79,2.17s-1.79-.73-1.79-2.17V27.62H232.12Zm7.24-25.79a71.15,71.15,0,0,1-1.42,11A50.82,50.82,0,0,1,235.32,24h11.46V3.58Z"/><path d="M275.89,8.76c.74.87,1.11,2.36,1.11,4.49V25.87c0,1.36-.6,2.05-1.79,2.05s-1.79-.73-1.79-2.18q-2.57,1.88-7.42,1.88h-4a4.91,4.91,0,0,1-3.8-1.6,6,6,0,0,1-1.44-4.16,8.3,8.3,0,0,1,1.08-4.53,6.18,6.18,0,0,1,3.5-2.45,21.57,21.57,0,0,1,6.45-.77h5.59V12.57a1.73,1.73,0,0,0-.32-1.23,2.08,2.08,0,0,0-1.34-.3h-6a18.8,18.8,0,0,0-4.39.34c-.66.2-1,.55-1,1.07,0,1.44-.6,2.17-1.79,2.17s-1.79-.73-1.79-2.17a4.06,4.06,0,0,1,2.06-3.8q2.07-1.19,6.59-1.19h6.6C273.87,7.46,275.15,7.89,275.89,8.76Zm-4,13.55a6.84,6.84,0,0,0,1.49-4.62h-5.59A25.71,25.71,0,0,0,263,18a2.94,2.94,0,0,0-2,1.21,5.77,5.77,0,0,0-.53,2.86,2,2,0,0,0,.53,1.34A1.51,1.51,0,0,0,262,24h4C269,24,270.93,23.46,271.93,22.31Z"/><path d="M306,19.78a8.78,8.78,0,0,1-1.05,4.64,5.78,5.78,0,0,1-3.38,2.45,22,22,0,0,1-6.44.75h-8.82V33.2c0,1.45-.63,2.18-1.88,2.18s-1.7-.73-1.7-2.18v-24c0-1.37.59-2.05,1.79-2.05s1.79.72,1.79,2.17a13,13,0,0,1,7.46-1.87H295a22.69,22.69,0,0,1,6.5.74,6,6,0,0,1,3.43,2.46A8.68,8.68,0,0,1,306,15.3Zm-3.58-4.35a5.89,5.89,0,0,0-.53-2.86,3,3,0,0,0-2.05-1.21A26.24,26.24,0,0,0,295,11h-1.23q-3.84,0-5.65,1.55a6.1,6.1,0,0,0-1.81,4.88V24h8.82a25.12,25.12,0,0,0,4.75-.32,2.94,2.94,0,0,0,2-1.22,5.82,5.82,0,0,0,.53-2.85Z"/><path d="M332.87,7.46V25.83c0,1.39-.59,2.09-1.79,2.09s-1.79-.74-1.79-2.22V12.53L314.67,27.62h-3.36V9.25c0-1.39.59-2.09,1.79-2.09s1.79.74,1.79,2.22V22.72L329.63,7.46Z"/><path d="M235.14,67.68V77.1a2,2,0,0,1-.51,1.41,1.71,1.71,0,0,1-1.32.55,1.64,1.64,0,0,1-1.28-.53,2.11,2.11,0,0,1-.47-1.43V54.21a2.32,2.32,0,0,1,.49-1.49,1.59,1.59,0,0,1,1.3-.59c1.2,0,1.79.69,1.79,2.08V64.1h3.41c.35,0,.83-.35,1.45-1.06A23.79,23.79,0,0,0,242.18,60c1-1.68,1.94-3,2.66-4a12.78,12.78,0,0,1,2.54-2.6,5.74,5.74,0,0,1,3.36-1.28,2.5,2.5,0,0,1,1.62.49,1.6,1.6,0,0,1,.6,1.3c0,1.2-.74,1.79-2.22,1.79q-1.4,0-3.53,3.8a25,25,0,0,1-4.69,6.39,22.45,22.45,0,0,1,2.58,2.83A33,33,0,0,1,247.38,72a13.07,13.07,0,0,0,1.89,2.57,2.47,2.47,0,0,0,1.52.92,2.38,2.38,0,0,1,1.57.49,1.6,1.6,0,0,1,.6,1.3c0,1.19-.68,1.79-2.05,1.79A6.13,6.13,0,0,1,247.59,78a11.71,11.71,0,0,1-3.11-3.07c-.88-1.2-1.65-2.32-2.3-3.37q-2.56-3.89-3.75-3.88Z"/><path d="M275.93,59.9Q277,61.21,277,64.4V77c0,1.37-.6,2-1.79,2s-1.79-.72-1.79-2.17c-1.7,1.25-4.18,1.87-7.42,1.87h-4a4.85,4.85,0,0,1-3.79-1.6A5.92,5.92,0,0,1,256.84,73a8.33,8.33,0,0,1,1.08-4.54,6.22,6.22,0,0,1,3.5-2.45,22,22,0,0,1,6.46-.77h5.58V63.72a1.74,1.74,0,0,0-.32-1.24,2.06,2.06,0,0,0-1.34-.3h-6a19.44,19.44,0,0,0-4.39.34c-.65.2-1,.56-1,1.07,0,1.45-.6,2.17-1.79,2.17s-1.79-.72-1.79-2.17a4,4,0,0,1,2.07-3.79c1.37-.8,3.57-1.2,6.58-1.2h6.61A4.84,4.84,0,0,1,275.93,59.9Zm-4,13.56a6.87,6.87,0,0,0,1.49-4.63h-5.58a26.52,26.52,0,0,0-4.88.32A3,3,0,0,0,261,70.37a5.85,5.85,0,0,0-.53,2.85,2,2,0,0,0,.53,1.34,1.49,1.49,0,0,0,1.13.62h4C269,75.18,271,74.61,272,73.46Z"/><path d="M306,70.92a9,9,0,0,1-1,4.65A5.92,5.92,0,0,1,301.59,78a22.33,22.33,0,0,1-6.44.74h-8.82v5.59c0,1.44-.62,2.17-1.87,2.17s-1.71-.73-1.71-2.17v-24c0-1.36.6-2.05,1.79-2.05s1.79.73,1.79,2.18a13,13,0,0,1,7.46-1.88H295a22.38,22.38,0,0,1,6.5.75A6,6,0,0,1,305,61.8,8.73,8.73,0,0,1,306,66.45Zm-3.58-4.35a5.85,5.85,0,0,0-.53-2.85,3,3,0,0,0-2.05-1.22,26.19,26.19,0,0,0-4.83-.32h-1.24q-3.84,0-5.65,1.56c-1.21,1-1.81,2.66-1.81,4.88v6.56h8.82a24.41,24.41,0,0,0,4.76-.32,2.88,2.88,0,0,0,2-1.21,5.89,5.89,0,0,0,.53-2.86Z"/><path d="M311.35,58.6h21.57V77c0,1.37-.6,2-1.79,2s-1.79-.68-1.79-2V62.18H314.93V77c0,1.37-.6,2-1.79,2s-1.79-.68-1.79-2Z"/><path d="M357.34,59.9c.74.87,1.1,2.37,1.1,4.5V77c0,1.37-.59,2-1.79,2s-1.79-.72-1.79-2.17q-2.55,1.88-7.41,1.87h-4a4.87,4.87,0,0,1-3.8-1.6A6,6,0,0,1,338.24,73a8.24,8.24,0,0,1,1.09-4.54A6.2,6.2,0,0,1,342.82,66a22,22,0,0,1,6.46-.77h5.58V63.72a1.75,1.75,0,0,0-.31-1.24,2.12,2.12,0,0,0-1.35-.3h-6a19.5,19.5,0,0,0-4.39.34c-.65.2-1,.56-1,1.07,0,1.45-.59,2.17-1.79,2.17s-1.79-.72-1.79-2.17a4,4,0,0,1,2.07-3.79q2.07-1.2,6.58-1.2h6.61C355.32,58.6,356.6,59,357.34,59.9Zm-4,13.56a6.82,6.82,0,0,0,1.49-4.63h-5.58a26.59,26.59,0,0,0-4.88.32,2.92,2.92,0,0,0-2,1.22,5.71,5.71,0,0,0-.54,2.85,2,2,0,0,0,.54,1.34,1.47,1.47,0,0,0,1.13.62h4C350.4,75.18,352.38,74.61,353.37,73.46Z"/><path d="M380.1,58.6c1.39,0,2.08.6,2.08,1.79s-.69,1.79-2.08,1.79H374v15a1.85,1.85,0,0,1-.55,1.39,2.09,2.09,0,0,1-1.49.53,1.71,1.71,0,0,1-2-1.92v-15h-6.14c-1.4,0-2.09-.59-2.09-1.79s.69-1.79,2.09-1.79Z"/></g></g></svg>