<?xml version="1.0" encoding="UTF-8"?> <svg xmlns="http://www.w3.org/2000/svg" xmlns:xlink="http://www.w3.org/1999/xlink" width="398" height="404" viewBox="0 0 398 404"> <defs> <style> .a { opacity: 0.5; } .b { fill: url(#a); } .c { opacity: 0.93; } .d { opacity: 0.68; fill: url(#b); } .e { fill: url(#c); } </style> <linearGradient id="a" data-name="Безымянный градиент 97" x1="54.05" y1="207.82" x2="379.63" y2="207.82" gradientUnits="userSpaceOnUse"> <stop offset="0" stop-color="#6c01dd"></stop> <stop offset="0.99" stop-color="#5b3bdd"></stop> </linearGradient> <linearGradient id="b" data-name="Безымянный градиент 69" x1="19.03" y1="197.49" x2="349.06" y2="197.49" gradientUnits="userSpaceOnUse"> <stop offset="0" stop-color="#6c01dd"></stop> <stop offset="1" stop-color="#60a6dd"></stop> </linearGradient> <linearGradient id="c" data-name="Безымянный градиент 57" x1="17.05" y1="202.18" x2="368.07" y2="202.18" gradientUnits="userSpaceOnUse"> <stop offset="0" stop-color="#6c01dd"></stop> <stop offset="1" stop-color="#6280dd"></stop> </linearGradient> </defs> <title>Фигура слива </title> <g class="a"> <path class="b" d="M353,232c-12.55,2.53-25.63-25.31-32-22.14-4.57,2.28-1.42,18.52,1.85,35.42,4.11,21.21,6.71,21.74,6,29.42-.79,8.19-4.66,13.59-26.85,39.3-12.48,14.46-18.72,21.68-21,24-35.8,36.31-114.26,57.31-157,42-8.49-3-27-9.68-39.37-27.82a66.49,66.49,0,0,1-3.79-6.35C67.44,320.74,66.3,292.05,66,281c-1-37.26,6.33-60.71,2-62-3.45-1-8.65,13.67-11,13-6.93-2-7.59-143.47,67-187,57.27-33.42,141.47,1.07,141,6-.45,4.76-81.92,2.1-82,0,0-1.15,24.11-3.67,49-3a213.07,213.07,0,0,1,33,3c7.27,1.27,25.37,4.89,50,16,35.16,15.87,52.74,23.8,61,40,6.72,13.19,3.43,33.69-4.34,74.46C363,227.17,356.83,231.23,353,232Z"></path> </g> <g class="c"> <path class="d" d="M334,115c3.32,11.12,6.06,15.49,10,31,4.72,18.62,7,28.05,3,34-8.6,12.8-34.63,4-38,13-2.23,6,8.55,11.54,20,31a125.58,125.58,0,0,1,12,28,140.73,140.73,0,0,1,6,50c-1.21,19.22-3.1,49.35-23,67-12.55,11.13-33.54,11.57-75,12-49.51.51-74.86.5-104.14-12.65-19.87-8.92-33.45-20-42.53-27.41-24-19.53-37.88-39-49.55-55.62-14.79-21.05-21.89-31.78-27-47.39C23.91,232.23,6.21,175.44,37,134c19.33-26,52.13-38.4,59-41,13.64-5.15,26.44-7.44,44-19,11.31-7.45,12.84-11,25-21,11.73-9.64,30.84-25.35,56-33,12.75-3.88,38.46-11.69,64,0,1.41.65,31.83,14.53,42,45C332.92,82.73,326,88,334,115Z"></path> </g> <path class="e" d="M45.51,164.84C57.08,145,67.3,130.66,71,125.52c5-6.92,9.85-13.23,14.54-19,7-8.64,19-23.55,34.74-38.6,18.11-17.35,28.44-27.25,45.56-35.57,8.44-4.1,28.52-13.59,54.84-12.69C250,20.63,270.38,33.9,287,44.8c11.21,7.34,43.05,28.76,62.89,70.21,12.57,26.26,14.89,49.21,16.87,68.79,3.17,31.38-.4,54.76-1.25,60-2.46,15.31-5.85,35.33-18.27,58.24a166.73,166.73,0,0,1-43.36,50.55c-10.31,8.07-28.21,22.09-54.65,28.69-36.71,9.15-68.15-1.23-104.18-13.69-22.84-7.9-38.42-16.07-52.29-23.35C67,330.75,53.87,323.7,41.33,308.91a99.09,99.09,0,0,1-21.52-40.74c-6.59-26.52.16-48.41,4.23-61.05C28,194.85,33.84,184.85,45.51,164.84Z"></path> </svg> 