<?xml version="1.0" encoding="UTF-8"?> <svg xmlns="http://www.w3.org/2000/svg" xmlns:xlink="http://www.w3.org/1999/xlink" width="421" height="390" viewBox="0 0 421 390"> <defs> <style> .a { opacity: 0.93; } .b { opacity: 0.5; } .c { fill: url(#a); } .d { opacity: 0.68; fill: url(#b); } .e { fill: url(#c); } </style> <linearGradient id="a" data-name="Безымянный градиент 97" x1="53.34" y1="192.85" x2="378.93" y2="192.85" gradientTransform="translate(74.43 416.45) rotate(-101.37)" gradientUnits="userSpaceOnUse"> <stop offset="0" stop-color="#6c01dd"></stop> <stop offset="0.99" stop-color="#5b3bdd"></stop> </linearGradient> <linearGradient id="b" data-name="Безымянный градиент 69" x1="-12.17" y1="156.09" x2="317.86" y2="156.09" gradientTransform="translate(426.4 93.4) rotate(110.9)" gradientUnits="userSpaceOnUse"> <stop offset="0" stop-color="#6c01dd"></stop> <stop offset="1" stop-color="#60a6dd"></stop> </linearGradient> <linearGradient id="c" data-name="Безымянный градиент 57" x1="-19.07" y1="172.73" x2="331.95" y2="172.73" gradientTransform="translate(308.85 411.77) rotate(-163.52)" gradientUnits="userSpaceOnUse"> <stop offset="0" stop-color="#6c01dd"></stop> <stop offset="1" stop-color="#6280dd"></stop> </linearGradient> </defs> <title>Фигура слива </title> <g class="b"> <path class="c" d="M217.76,28.29C222.71,40.1,198,58.41,202.35,64c3.14,4,18.44-2.26,34.36-8.8,20-8.21,20-10.86,27.67-11.65,8.18-.84,14.25,1.89,43.82,18.58C324.84,71.51,333.15,76.2,335.87,78c42.66,28,78.71,100.73,72.12,145.65-1.31,8.92-4.16,28.39-19.51,44.08a68.22,68.22,0,0,1-5.48,5c-22,18.08-49.86,24.85-60.64,27.32-36.33,8.33-60.76,5.76-61.17,10.26-.33,3.59,15.11,5.79,14.91,8.22-.58,7.19-139.16,35.72-196.54-28.83C35.51,240.1,52.73,150.75,57.65,150.24c4.76-.5,18.21,79.9,16.17,80.39-1.12.27-8.35-22.92-12.6-47.45a214.5,214.5,0,0,1-3.57-32.94c-.18-7.38-.21-25.84,5.84-52.18,8.62-37.6,12.94-56.4,27.19-67.68,11.6-9.19,32.35-10,73.86-10.42C211.06,19.49,216.25,24.69,217.76,28.29Z"></path> </g> <g class="a"> <path class="d" d="M249.61,350c-11.58-.87-16.63.14-32.53-1.72-19.08-2.23-28.7-3.46-32.83-9.32-8.89-12.61,8.65-33.77,1.41-40.14-4.79-4.22-13.83,3.87-36.09,7.62a125.25,125.25,0,0,1-30.44,1.22,140.8,140.8,0,0,1-48.85-12.23c-17.53-8-45-20.5-54.39-45.39C10,234.36,17.05,214.59,31.44,175.7c17.18-46.43,26.24-70.11,49-92.77C95.84,67.55,111,58.82,121.19,53c26.8-15.43,50-21.46,69.64-26.44,24.94-6.31,37.5-9.11,53.9-8.32,6,.29,65.36,4,93.09,47.57,17.41,27.34,17.28,62.4,17.25,69.74-.05,14.58-2.48,27.35,2.06,47.89,2.92,13.22,5.69,15.91,10.69,30.84,4.82,14.4,12.68,37.86,10.85,64.09-.93,13.29-2.8,40.1-22.83,59.79-1.11,1.09-24.93,24.55-57,23.18C280.14,360.51,277.7,352.13,249.61,350Z"></path> </g> <path class="e" d="M338.26,279.27c-16.71,15.72-30.59,26.6-35.61,30.47-6.77,5.22-13.21,9.89-19.34,14.12C274.15,330.17,258.37,341,239,351c-22.29,11.5-35,18.06-53.78,21.18-9.26,1.54-31.2,4.94-56.19-3.39-27.82-9.27-43.59-27.78-56.45-42.95C64,315.64,39.5,286.05,32.24,240.68c-4.61-28.75-.32-51.41,3.34-70.75,5.87-31,15.93-52.4,18.23-57.2,6.7-14,15.64-32.21,34-50.66a167,167,0,0,1,55.93-36.16c12.17-4.82,33.32-13.19,60.54-12,37.8,1.64,65,20.52,96,42.69C320,70.65,332.62,82.9,343.86,93.82c20.87,20.26,31.46,30.76,39.3,48.5a99,99,0,0,1,9.07,45.16c-1.2,27.3-13.89,46.38-21.38,57.35C363.57,255.47,355.14,263.4,338.26,279.27Z"></path> </svg> 