<svg xmlns="http://www.w3.org/2000/svg" viewBox="0 0 486 55.99"><defs><style>.cls-1{fill:#231f20;}</style></defs><title>Ресурс 7</title><g id="Шар_2" data-name="Шар 2"><g id="Шар_1-2" data-name="Шар 1"><path class="cls-1" d="M166.86,4.28h15.72V51.71H166.86Z"/><path class="cls-1" d="M240.11,51.71,240,30.09l-10.3,17.35h-7l-10.3-16.6V51.71H197.76V4.28H210.9l15.45,25.27,15-25.27h13.15l.14,47.43Z"/><path class="cls-1" d="M316.54,4.28V51.71h-16V34.23H285.78V51.71h-16V4.28h16v16.8h14.77V4.28Z"/><path class="cls-1" d="M364.2,43.44h-18L343,51.71H326.72L347.46,4.28h15.72l20.74,47.43H367.38Zm-4.41-11.52L355.18,20l-4.6,11.92Z"/><path class="cls-1" d="M428.11,16.68H414.22v35H398.5v-35H384.61V4.28h43.5Z"/><path class="cls-1" d="M466.28,43.44h-18l-3.18,8.27H428.8L449.54,4.28h15.72L486,51.71H469.46Zm-4.41-11.52L457.26,20l-4.6,11.92Z"/><polyline points="146.32 55.99 146.32 0 129.69 27.19 146.24 55.99 124.97 55.99 114.25 35.75 108.97 35.75 108.97 55.99"/><polygon points="114.73 20.87 126.65 0 108.97 0 108.97 20.87 114.73 20.87"/><rect class="cls-1" y="0.01" width="90.56" height="55.97"/></g></g></svg>