<svg width="48" height="48" viewBox="0 0 48 48" fill="none" xmlns="http://www.w3.org/2000/svg">
<circle cx="24" cy="24" r="23" stroke="url(#paint0_linear)" stroke-width="2"/>
<path d="M9 24C9 15.7157 15.7157 9 24 9C32.2843 9 39 15.7157 39 24C39 32.2843 32.2843 39 24 39C15.7157 39 9 32.2843 9 24Z" stroke="url(#paint1_linear)" stroke-width="2"/>
<path d="M19.2929 23.2929C18.9024 23.6834 18.9024 24.3166 19.2929 24.7071L25.6569 31.0711C26.0474 31.4616 26.6805 31.4616 27.0711 31.0711C27.4616 30.6805 27.4616 30.0474 27.0711 29.6569L21.4142 24L27.0711 18.3431C27.4616 17.9526 27.4616 17.3195 27.0711 16.9289C26.6805 16.5384 26.0474 16.5384 25.6569 16.9289L19.2929 23.2929ZM21 23H20V25H21V23Z" fill="white"/>
<defs>
<linearGradient id="paint0_linear" x1="24" y1="0" x2="24" y2="48" gradientUnits="userSpaceOnUse">
<stop stop-color="#0EF1F2"/>
<stop offset="1" stop-color="#0DFFFF" stop-opacity="0"/>
</linearGradient>
<linearGradient id="paint1_linear" x1="24" y1="40" x2="24" y2="8" gradientUnits="userSpaceOnUse">
<stop stop-color="#0EF1F2"/>
<stop offset="1" stop-color="#0DFFFF" stop-opacity="0"/>
</linearGradient>
</defs>
</svg>
