<svg width="183" height="40" viewBox="0 0 183 40" fill="none" xmlns="http://www.w3.org/2000/svg">
<rect width="183" height="40" rx="20" fill="#2455BE"/>
<path d="M56.7402 20.9355C56.7402 23.0319 56.4342 24.6009 55.8223 25.6426C55.2103 26.6777 54.25 27.1953 52.9414 27.1953C51.6719 27.1953 50.7246 26.6973 50.0996 25.7012C49.4746 24.7051 49.1491 23.2077 49.123 21.209V18.7676C49.123 16.6908 49.429 15.1413 50.041 14.1191C50.6595 13.097 51.6198 12.5859 52.9219 12.5859C54.2044 12.5859 55.1517 13.071 55.7637 14.041C56.3822 15.0111 56.7077 16.4792 56.7402 18.4453V20.9355ZM55.0117 18.4648C55.0117 16.9609 54.8457 15.8542 54.5137 15.1445C54.1816 14.4284 53.651 14.0703 52.9219 14.0703C52.2122 14.0703 51.6914 14.4219 51.3594 15.125C51.0273 15.8216 50.8548 16.8763 50.8418 18.2891V21.2188C50.8418 22.7161 51.0143 23.8424 51.3594 24.5977C51.7044 25.3464 52.2318 25.7207 52.9414 25.7207C53.6445 25.7207 54.1621 25.3659 54.4941 24.6562C54.8262 23.9466 54.9987 22.8626 55.0117 21.4043V18.4648ZM65.041 12.7715V14.3047H64.7578C63.6055 14.3307 62.7038 14.7214 62.0527 15.4766C61.4017 16.2253 61.0273 17.3548 60.9297 18.8652C61.5612 18.071 62.3685 17.6738 63.3516 17.6738C64.3997 17.6738 65.2298 18.1068 65.8418 18.9727C66.4603 19.832 66.7695 20.9616 66.7695 22.3613C66.7695 23.8522 66.4277 25.0306 65.7441 25.8965C65.0671 26.7624 64.1556 27.1953 63.0098 27.1953C61.8574 27.1953 60.9297 26.6842 60.2266 25.6621C59.5234 24.64 59.1719 23.2826 59.1719 21.5898V20.8965C59.1719 18.9434 59.3835 17.3874 59.8066 16.2285C60.2298 15.0697 60.8516 14.2103 61.6719 13.6504C62.4987 13.084 63.5241 12.791 64.748 12.7715H65.041ZM63.0586 19.1777C62.5898 19.1777 62.1569 19.3568 61.7598 19.7148C61.3626 20.0729 61.0762 20.5286 60.9004 21.082V21.7949C60.9004 22.9473 61.1022 23.888 61.5059 24.6172C61.916 25.3398 62.4173 25.7012 63.0098 25.7012C63.6543 25.7012 64.1589 25.4049 64.5234 24.8125C64.888 24.2135 65.0703 23.4258 65.0703 22.4492C65.0703 21.4857 64.888 20.7012 64.5234 20.0957C64.1589 19.4837 63.6706 19.1777 63.0586 19.1777ZM76.2227 16.4922C76.2227 17.2018 76.0632 17.8333 75.7441 18.3867C75.4316 18.9401 75.0085 19.373 74.4746 19.6855C75.1061 20.0111 75.6009 20.4798 75.959 21.0918C76.3171 21.6973 76.4961 22.3874 76.4961 23.1621C76.4961 24.3861 76.1478 25.3659 75.4512 26.1016C74.7611 26.8307 73.8431 27.1953 72.6973 27.1953C71.5514 27.1953 70.6302 26.8307 69.9336 26.1016C69.2435 25.3659 68.8984 24.3861 68.8984 23.1621C68.8984 22.3809 69.0742 21.6842 69.4258 21.0723C69.7839 20.4538 70.2689 19.9883 70.8809 19.6758C70.347 19.3633 69.9271 18.9336 69.6211 18.3867C69.3151 17.8333 69.1621 17.2018 69.1621 16.4922C69.1621 15.2943 69.4844 14.3438 70.1289 13.6406C70.7799 12.9375 71.6361 12.5859 72.6973 12.5859C73.752 12.5859 74.6016 12.9342 75.2461 13.6309C75.8971 14.3275 76.2227 15.2812 76.2227 16.4922ZM74.7676 23.123C74.7676 22.3092 74.5755 21.6582 74.1914 21.1699C73.8073 20.6751 73.3027 20.4277 72.6777 20.4277C72.0397 20.4277 71.5352 20.6751 71.1641 21.1699C70.7995 21.6647 70.6172 22.3158 70.6172 23.123C70.6172 23.9434 70.7962 24.5814 71.1543 25.0371C71.5189 25.4928 72.0332 25.7207 72.6973 25.7207C73.3613 25.7207 73.8724 25.4928 74.2305 25.0371C74.5885 24.5814 74.7676 23.9434 74.7676 23.123ZM74.5039 16.5215C74.5039 15.7988 74.3346 15.2096 73.9961 14.7539C73.6576 14.2982 73.2246 14.0703 72.6973 14.0703C72.1439 14.0703 71.7044 14.2949 71.3789 14.7441C71.0534 15.1934 70.8906 15.7858 70.8906 16.5215C70.8906 17.2637 71.0566 17.8529 71.3887 18.2891C71.7207 18.7253 72.1569 18.9434 72.6973 18.9434C73.2507 18.9434 73.6901 18.722 74.0156 18.2793C74.3411 17.8366 74.5039 17.2507 74.5039 16.5215ZM89.3965 12.7715V14.3047H89.1133C87.9609 14.3307 87.0592 14.7214 86.4082 15.4766C85.7572 16.2253 85.3828 17.3548 85.2852 18.8652C85.9167 18.071 86.724 17.6738 87.707 17.6738C88.7552 17.6738 89.5853 18.1068 90.1973 18.9727C90.8158 19.832 91.125 20.9616 91.125 22.3613C91.125 23.8522 90.7832 25.0306 90.0996 25.8965C89.4225 26.7624 88.5111 27.1953 87.3652 27.1953C86.2129 27.1953 85.2852 26.6842 84.582 25.6621C83.8789 24.64 83.5273 23.2826 83.5273 21.5898V20.8965C83.5273 18.9434 83.7389 17.3874 84.1621 16.2285C84.5853 15.0697 85.207 14.2103 86.0273 13.6504C86.8542 13.084 87.8796 12.791 89.1035 12.7715H89.3965ZM87.4141 19.1777C86.9453 19.1777 86.5124 19.3568 86.1152 19.7148C85.7181 20.0729 85.4316 20.5286 85.2559 21.082V21.7949C85.2559 22.9473 85.4577 23.888 85.8613 24.6172C86.2715 25.3398 86.7728 25.7012 87.3652 25.7012C88.0098 25.7012 88.5143 25.4049 88.8789 24.8125C89.2435 24.2135 89.4258 23.4258 89.4258 22.4492C89.4258 21.4857 89.2435 20.7012 88.8789 20.0957C88.5143 19.4837 88.026 19.1777 87.4141 19.1777ZM99.8066 22.2246H101.389V23.6992H99.8066V27H98.0781V23.6992H92.707V22.6348L97.9902 12.7812H99.8066V22.2246ZM94.6211 22.2246H98.0781V15.4668L94.6211 22.2246ZM105.354 19.0117H106.457C107.167 19.0117 107.714 18.7936 108.098 18.3574C108.482 17.9212 108.674 17.3255 108.674 16.5703C108.674 14.9036 108.029 14.0703 106.74 14.0703C106.122 14.0703 105.637 14.2949 105.285 14.7441C104.934 15.1934 104.758 15.7826 104.758 16.5117H103.039C103.039 15.3724 103.384 14.4349 104.074 13.6992C104.771 12.957 105.66 12.5859 106.74 12.5859C107.86 12.5859 108.749 12.9375 109.406 13.6406C110.064 14.3372 110.393 15.3268 110.393 16.6094C110.393 17.2669 110.22 17.8822 109.875 18.4551C109.536 19.0215 109.094 19.4382 108.547 19.7051C109.888 20.1999 110.559 21.3099 110.559 23.0352C110.559 24.3047 110.204 25.3171 109.494 26.0723C108.791 26.821 107.87 27.1953 106.73 27.1953C105.604 27.1953 104.693 26.8405 103.996 26.1309C103.306 25.4147 102.961 24.4544 102.961 23.25H104.689C104.689 24.0052 104.872 24.6074 105.236 25.0566C105.601 25.4993 106.099 25.7207 106.73 25.7207C107.375 25.7207 107.886 25.5026 108.264 25.0664C108.648 24.6302 108.84 23.9661 108.84 23.0742C108.84 21.349 108.023 20.4863 106.389 20.4863H105.354V19.0117ZM125.217 20.9355C125.217 23.0319 124.911 24.6009 124.299 25.6426C123.687 26.6777 122.727 27.1953 121.418 27.1953C120.148 27.1953 119.201 26.6973 118.576 25.7012C117.951 24.7051 117.626 23.2077 117.6 21.209V18.7676C117.6 16.6908 117.906 15.1413 118.518 14.1191C119.136 13.097 120.096 12.5859 121.398 12.5859C122.681 12.5859 123.628 13.071 124.24 14.041C124.859 15.0111 125.184 16.4792 125.217 18.4453V20.9355ZM123.488 18.4648C123.488 16.9609 123.322 15.8542 122.99 15.1445C122.658 14.4284 122.128 14.0703 121.398 14.0703C120.689 14.0703 120.168 14.4219 119.836 15.125C119.504 15.8216 119.331 16.8763 119.318 18.2891V21.2188C119.318 22.7161 119.491 23.8424 119.836 24.5977C120.181 25.3464 120.708 25.7207 121.418 25.7207C122.121 25.7207 122.639 25.3659 122.971 24.6562C123.303 23.9466 123.475 22.8626 123.488 21.4043V18.4648ZM135.451 27H127.502V25.7012L131.555 20.3301C132.167 19.5033 132.59 18.8262 132.824 18.2988C133.065 17.765 133.186 17.2018 133.186 16.6094C133.186 15.8542 133.01 15.2422 132.658 14.7734C132.307 14.3047 131.844 14.0703 131.271 14.0703C130.549 14.0703 129.989 14.321 129.592 14.8223C129.201 15.3171 129.006 16.0332 129.006 16.9707H127.277C127.277 15.6621 127.635 14.6042 128.352 13.7969C129.068 12.9896 130.041 12.5859 131.271 12.5859C132.404 12.5859 133.296 12.9342 133.947 13.6309C134.598 14.321 134.924 15.2422 134.924 16.3945C134.924 17.8008 134.191 19.4642 132.727 21.3848L129.562 25.5254H135.451V27ZM149.572 20.9355C149.572 23.0319 149.266 24.6009 148.654 25.6426C148.042 26.6777 147.082 27.1953 145.773 27.1953C144.504 27.1953 143.557 26.6973 142.932 25.7012C142.307 24.7051 141.981 23.2077 141.955 21.209V18.7676C141.955 16.6908 142.261 15.1413 142.873 14.1191C143.492 13.097 144.452 12.5859 145.754 12.5859C147.036 12.5859 147.984 13.071 148.596 14.041C149.214 15.0111 149.54 16.4792 149.572 18.4453V20.9355ZM147.844 18.4648C147.844 16.9609 147.678 15.8542 147.346 15.1445C147.014 14.4284 146.483 14.0703 145.754 14.0703C145.044 14.0703 144.523 14.4219 144.191 15.125C143.859 15.8216 143.687 16.8763 143.674 18.2891V21.2188C143.674 22.7161 143.846 23.8424 144.191 24.5977C144.536 25.3464 145.064 25.7207 145.773 25.7207C146.477 25.7207 146.994 25.3659 147.326 24.6562C147.658 23.9466 147.831 22.8626 147.844 21.4043V18.4648ZM159.807 27H151.857V25.7012L155.91 20.3301C156.522 19.5033 156.945 18.8262 157.18 18.2988C157.421 17.765 157.541 17.2018 157.541 16.6094C157.541 15.8542 157.365 15.2422 157.014 14.7734C156.662 14.3047 156.2 14.0703 155.627 14.0703C154.904 14.0703 154.344 14.321 153.947 14.8223C153.557 15.3171 153.361 16.0332 153.361 16.9707H151.633C151.633 15.6621 151.991 14.6042 152.707 13.7969C153.423 12.9896 154.396 12.5859 155.627 12.5859C156.76 12.5859 157.652 12.9342 158.303 13.6309C158.954 14.321 159.279 15.2422 159.279 16.3945C159.279 17.8008 158.547 19.4642 157.082 21.3848L153.918 25.5254H159.807V27Z" fill="white"/>
<circle cx="20" cy="20" r="20" fill="white"/>
<path d="M15.2178 18.9244C16.4978 21.44 18.56 23.4933 21.0756 24.7822L23.0311 22.8267C23.2711 22.5867 23.6267 22.5067 23.9378 22.6133C24.9333 22.9422 26.0089 23.12 27.1111 23.12C27.6 23.12 28 23.52 28 24.0089V27.1111C28 27.6 27.6 28 27.1111 28C18.7644 28 12 21.2356 12 12.8889C12 12.4 12.4 12 12.8889 12H16C16.4889 12 16.8889 12.4 16.8889 12.8889C16.8889 14 17.0667 15.0667 17.3956 16.0622C17.4933 16.3733 17.4222 16.72 17.1733 16.9689L15.2178 18.9244Z" fill="#0D3EA7"/>
</svg>
