<svg width="224" height="224" viewBox="0 0 224 224" fill="none" xmlns="http://www.w3.org/2000/svg">
<rect x="1" y="1" width="30" height="30" stroke="#3F71DA" stroke-width="2"/>
<rect x="65" y="1" width="30" height="30" stroke="#3F71DA" stroke-width="2"/>
<rect x="129" y="1" width="30" height="30" stroke="#3F71DA" stroke-width="2"/>
<rect x="193" y="1" width="30" height="30" stroke="#3F71DA" stroke-width="2"/>
<rect x="129" y="65" width="30" height="30" stroke="#3F71DA" stroke-width="2"/>
<rect x="193" y="65" width="30" height="30" stroke="#3F71DA" stroke-width="2"/>
<rect x="1" y="65" width="30" height="30" stroke="#3F71DA" stroke-width="2"/>
<rect x="65" y="65" width="30" height="30" stroke="#3F71DA" stroke-width="2"/>
<rect x="1" y="129" width="30" height="30" stroke="#3F71DA" stroke-width="2"/>
<rect x="65" y="129" width="30" height="30" stroke="#3F71DA" stroke-width="2"/>
<rect x="129" y="129" width="30" height="30" stroke="#3F71DA" stroke-width="2"/>
<rect x="193" y="129" width="30" height="30" stroke="#3F71DA" stroke-width="2"/>
<rect x="129" y="193" width="30" height="30" stroke="#3F71DA" stroke-width="2"/>
<rect x="193" y="193" width="30" height="30" stroke="#3F71DA" stroke-width="2"/>
<rect x="1" y="193" width="30" height="30" stroke="#3F71DA" stroke-width="2"/>
<rect x="65" y="193" width="30" height="30" stroke="#3F71DA" stroke-width="2"/>
</svg>
