<svg xmlns="http://www.w3.org/2000/svg" xmlns:xlink="http://www.w3.org/1999/xlink" viewBox="0 0 217.08 39.61">
    <defs>
        <style>
            .cls-1{fill:url(#grad);}
            .cls-2{fill:#2e2e2e;}
        </style>
        <radialGradient id="grad" cx="19.72" cy="19.72" r="19.72" gradientUnits="userSpaceOnUse">     
            <stop offset="0" stop-color="#f50700"/>
            <stop offset="0.32" stop-color="#f60d00"/>
            <stop offset="0.55" stop-color="#f92300"/>
            <stop offset="0.76" stop-color="#fb3300"/>
            <stop offset="0.96" stop-color="#fd3d00"/>
            <stop offset="1" stop-color="#fd4000"/>
        </radialGradient>
    </defs>
    <title>Ресурс 14</title>
    <g id="Шар_2" data-name="Шар 2">
        <g id="Шар_1-2" data-name="Шар 1">
            <path class="cls-1" d="M15.7,19.47,32,3.21a1.52,1.52,0,0,0,.45-1.08A1.56,1.56,0,0,0,31.31.67l-.08,0A12.78,12.78,0,0,0,27.31,0H19.72A19.72,19.72,0,0,0,0,19.72V31.85a7.6,7.6,0,0,0,7.6,7.6H19.72A19.72,19.72,0,0,0,39.45,19.72V11.59a3,3,0,0,0-5.17-2.14L23.61,20.11a1.49,1.49,0,0,0-.43,1.06,2.29,2.29,0,0,0,.08.48,4.55,4.55,0,1,1-7.56-2.18"/>
            <path class="cls-2" d="M99.66,17.19a6.43,6.43,0,0,0-6.43,6.43v9H87.49v-9A12.17,12.17,0,0,1,99.65,11.45h0v5.74"/>
            <path class="cls-2" d="M117.29,11.45v1.08a10.57,10.57,0,1,0,0,19v1.08H123V11.45ZM112.61,26.9A4.88,4.88,0,1,1,117.49,22,4.88,4.88,0,0,1,112.61,26.9Z"/>
            <path class="cls-2" d="M78.72,19.22l4.66-3.28h0a10.57,10.57,0,1,0,0,12.09l-4.69-3.24h0a4.88,4.88,0,1,1,0-5.5"/>
            <polyline class="cls-2" points="130.42 39.61 134.14 30.34 134.15 30.35 126.03 11.45 132.03 11.45 137.04 23.1 137.04 23.11 141.72 11.45 147.72 11.45 136.42 39.61 136.41 39.61 130.41 39.61"/>
            <path class="cls-2" d="M157.28,11.47A5.72,5.72,0,0,1,163,5.75h0V0a11.47,11.47,0,0,0-11.47,11.47V32.59h5.74l0-15.4H163V11.45h-5.73"/>
            <rect class="cls-2" x="166.89" y="11.45" width="5.74" height="21.14"/>
            <rect class="cls-2" x="166.89" width="5.74" height="5.74"/>
            <path class="cls-2" d="M185,19.15a1,1,0,0,1,0-2h7.76V11.45H185a6.72,6.72,0,0,0,0,13.44h1.59a1,1,0,0,1,0,2h-8.66v5.74h8.66a6.72,6.72,0,1,0,0-13.44Z"/>
            <path class="cls-2" d="M203.81,12.22A9.51,9.51,0,0,1,217.08,21V32.59h-5.74V21a3.77,3.77,0,0,0-7.53,0V32.59h-5.74V0h5.74V12.23"/>
        </g>
    </g>
</svg>