<svg xmlns="http://www.w3.org/2000/svg" viewBox="0 0 173.63 31.69"><defs><style>.cls-1{fill:#ef4623;}.cls-2{fill:#fff;}</style></defs><title>Ресурс 4</title><g id="Шар_2" data-name="Шар 2"><g id="Шар_1-2" data-name="Шар 1"><path class="cls-1" d="M12.56,15.57l13-13a1.21,1.21,0,0,0,.36-.86A1.25,1.25,0,0,0,25,.54L25,.52A10.23,10.23,0,0,0,21.84,0H15.78A15.77,15.77,0,0,0,0,15.78v9.69a6.08,6.08,0,0,0,6.08,6.08h9.7A15.77,15.77,0,0,0,31.55,15.78V9.27a2.43,2.43,0,0,0-4.14-1.71l-8.52,8.53a1.15,1.15,0,0,0-.34.84,1.67,1.67,0,0,0,.06.39,3.57,3.57,0,0,1,.1.87,3.64,3.64,0,1,1-6.15-2.62"/><path class="cls-2" d="M79.71,13.75a5.14,5.14,0,0,0-5.14,5.14v7.18H70V18.89a9.73,9.73,0,0,1,9.73-9.73h0v4.59"/><path class="cls-2" d="M93.81,9.16V10a8.46,8.46,0,1,0-3.73,16.05,8.35,8.35,0,0,0,3.73-.87v.87H98.4V9.16ZM90.07,21.52A3.91,3.91,0,1,1,94,17.61,3.9,3.9,0,0,1,90.07,21.52Z"/><path class="cls-2" d="M63,15.37l3.73-2.62h0a8.46,8.46,0,1,0,0,9.67L63,19.83h0a3.9,3.9,0,1,1,0-4.4"/><polyline class="cls-2" points="104.32 31.68 107.29 24.27 107.3 24.27 100.81 9.16 105.61 9.16 109.61 18.48 109.61 18.48 113.35 9.16 118.15 9.16 109.12 31.68 109.11 31.68 104.31 31.68"/><path class="cls-2" d="M125.8,9.17a4.57,4.57,0,0,1,4.58-4.57h0V0a9.18,9.18,0,0,0-9.18,9.17h0V26.07h4.59V13.75h4.59V9.16H125.8"/><rect class="cls-2" x="133.49" y="9.16" width="4.59" height="16.91"/><rect class="cls-2" x="133.49" width="4.59" height="4.59"/><path class="cls-2" d="M148,15.32a.79.79,0,0,1,0-1.57h6.21V9.16H148a5.38,5.38,0,0,0,0,10.75h1.27a.79.79,0,0,1,0,1.57h-6.93v4.59h6.93a5.38,5.38,0,0,0,0-10.75Z"/><path class="cls-2" d="M163,9.78a7.6,7.6,0,0,1,10.61,7v9.31H169V16.76a3,3,0,1,0-6,0v9.31h-4.59V0H163V9.78"/></g></g></svg>