<svg xmlns="http://www.w3.org/2000/svg" viewBox="0 0 122.31 31.69"><defs><style>.cls-1{fill:#fff;}</style></defs><title>Ресурс 3</title><g id="Шар_2" data-name="Шар 2"><g id="Шар_1-2" data-name="Шар 1"><path class="cls-1" d="M28.39,13.75a5.14,5.14,0,0,0-5.14,5.14v7.18H18.65V18.89a9.73,9.73,0,0,1,9.73-9.73h0v4.59"/><path class="cls-1" d="M42.49,9.16V10a8.46,8.46,0,1,0,0,15.18v.87h4.59V9.16ZM38.75,21.52a3.9,3.9,0,1,1,3.9-3.9A3.9,3.9,0,0,1,38.75,21.52Z"/><path class="cls-1" d="M11.64,15.37l3.73-2.62h0a8.46,8.46,0,1,0,0,9.67l-3.75-2.59h0a3.9,3.9,0,1,1,0-4.4"/><polyline class="cls-1" points="52.99 31.68 55.97 24.27 55.98 24.27 49.48 9.16 54.28 9.16 58.29 18.48 58.29 18.48 62.03 9.16 66.83 9.16 57.79 31.68 57.78 31.68 52.98 31.68"/><path class="cls-1" d="M74.48,9.17A4.58,4.58,0,0,1,79.05,4.6h0V0a9.17,9.17,0,0,0-9.17,9.17h0V26.07h4.59l0-12.32h4.59V9.16H74.47"/><rect class="cls-1" x="82.17" y="9.16" width="4.59" height="16.91"/><rect class="cls-1" x="82.17" width="4.59" height="4.59"/><path class="cls-1" d="M96.65,15.32a.79.79,0,1,1,0-1.57h6.21V9.16H96.65a5.38,5.38,0,1,0,0,10.75h1.27a.79.79,0,1,1,0,1.57H91v4.59h6.93a5.38,5.38,0,1,0,0-10.75Z"/><path class="cls-1" d="M111.69,9.78a7.61,7.61,0,0,1,10.61,7v9.31h-4.59V16.76a3,3,0,0,0-6,0v9.31H107.1V0h4.59V9.78"/></g></g></svg>