<svg xmlns="http://www.w3.org/2000/svg" viewBox="0 0 464.78 105.35"><defs><style>.cls-1{fill:#2d2d2d;}.cls-2{fill:#efefef;}.cls-3{fill:#512a00;}.cls-4{fill:#ffce01;}</style></defs><title>Ресурс 11</title><g id="Шар_2" data-name="Шар 2"><g id="Шар_1-2" data-name="Шар 1"><path class="cls-1" d="M197.66,98a14.23,14.23,0,0,1-5.57-5.28,15.44,15.44,0,0,1,0-15.27,14.23,14.23,0,0,1,5.57-5.28,16.51,16.51,0,0,1,8-1.9,16.73,16.73,0,0,1,6.73,1.31,13.46,13.46,0,0,1,5.06,3.77l-4.26,3.93a9.15,9.15,0,0,0-7.2-3.36,9.53,9.53,0,0,0-4.75,1.17A8.2,8.2,0,0,0,198,80.34a10.23,10.23,0,0,0,0,9.5,8.26,8.26,0,0,0,3.25,3.25A9.53,9.53,0,0,0,206,94.26a9.13,9.13,0,0,0,7.2-3.4l4.26,3.93a13.44,13.44,0,0,1-5.08,3.81,16.9,16.9,0,0,1-6.75,1.31A16.45,16.45,0,0,1,197.66,98Z"/><path class="cls-1" d="M247.86,70.76V99.41h-6.59V76.16H228.34V99.41h-6.59V70.76Z"/><path class="cls-1" d="M274.39,93.28H261.08l-2.53,6.13h-6.8l12.77-28.65h6.55l12.81,28.65h-6.95Zm-2.09-5-4.54-11-4.55,11Z"/><path class="cls-1" d="M317.49,94v11.34h-6.14V99.41H291.13v5.94H285L285,94h1.15c1.72-.05,2.93-1.31,3.64-3.76a45.81,45.81,0,0,0,1.31-10.52l.33-9h22V94Zm-21.37-5.09a11.31,11.31,0,0,1-2,5.09h12.81V76.16h-9.82L297,80.34A58.84,58.84,0,0,1,296.12,88.92Z"/><path class="cls-1" d="M359.78,70.76V99.41H322V70.76h6.59V94h9V70.76h6.59V94h9V70.76ZM363.66,94v11.34h-6.14V99.41h-4.46V94Z"/><path class="cls-1" d="M368.21,70.76h6.59V89.43l13.67-18.67h6.22V99.41h-6.55V80.79L374.47,99.41h-6.26Z"/><path class="cls-1" d="M428.09,70.76V99.41h-6.63V87.67h-13V99.41h-6.63V70.76h6.63v11.3h13V70.76Z"/><path class="cls-1" d="M454.66,93.28H441.35l-2.53,6.13H432l12.77-28.65h6.55l12.81,28.65H457.2Zm-2.09-5-4.54-11-4.55,11Z"/><path class="cls-1" d="M195.3,50.33a10.69,10.69,0,0,1-4.17-3.94,11.39,11.39,0,0,1,0-11.3,10.62,10.62,0,0,1,4.17-3.94,13.14,13.14,0,0,1,12,0,10.87,10.87,0,0,1,0,19.18,13.22,13.22,0,0,1-12,0Zm9.4-3.64a6.25,6.25,0,0,0,2.39-2.42,7.6,7.6,0,0,0,0-7.06,6.27,6.27,0,0,0-2.39-2.43,7.19,7.19,0,0,0-6.82,0,6.21,6.21,0,0,0-2.39,2.43,7.6,7.6,0,0,0,0,7.06,6.18,6.18,0,0,0,2.39,2.42,7.12,7.12,0,0,0,6.82,0Z"/><path class="cls-1" d="M242.15,47.38V55.9h-4.53V51.4H219.8V30.08h4.9v17.3h9.51V30.08h4.9v17.3Z"/><path class="cls-1" d="M248.46,30.08h4.9V44l10.17-13.89h4.63V51.4h-4.87V37.54L253.12,51.4h-4.66Z"/><path class="cls-1" d="M298.87,47.33c-1.92,1.61-4.67,2.51-8.27,2.7v2.31h-4.54V50c-3.61-.21-6.38-1.12-8.29-2.73a8.15,8.15,0,0,1-2.88-6.59,8.13,8.13,0,0,1,2.88-6.6c1.91-1.59,4.68-2.5,8.29-2.72V29.17h4.54v2.16c3.6.2,6.35,1.11,8.27,2.74a8.2,8.2,0,0,1,2.88,6.61A8.22,8.22,0,0,1,298.87,47.33Zm-12.81-1.17V35.23a8.56,8.56,0,0,0-4.82,1.63,4.7,4.7,0,0,0-1.57,3.82C279.67,43.89,281.8,45.71,286.06,46.16Zm9.35-1.66A4.78,4.78,0,0,0,297,40.65q0-4.87-6.4-5.42V46.16A8.53,8.53,0,0,0,295.41,44.5Z"/><path class="cls-1" d="M322.62,31a7.64,7.64,0,0,1,3.21,10.89,7.15,7.15,0,0,1-3.21,2.68,12,12,0,0,1-4.92.93h-4.29V51.4h-4.93V30.08h9.22A12,12,0,0,1,322.62,31Zm-1.81,9.52A3.35,3.35,0,0,0,322,37.82a3.39,3.39,0,0,0-1.16-2.76,5.18,5.18,0,0,0-3.38-1h-4v7.4h4A5.18,5.18,0,0,0,320.81,40.54Z"/><path class="cls-1" d="M337.76,50.33a10.65,10.65,0,0,1-4.18-3.94,11.39,11.39,0,0,1,0-11.3,10.58,10.58,0,0,1,4.18-3.94,13.12,13.12,0,0,1,11.95,0,10.87,10.87,0,0,1,0,19.18,13.2,13.2,0,0,1-11.95,0Zm9.39-3.64a6.25,6.25,0,0,0,2.39-2.42,7.6,7.6,0,0,0,0-7.06,6.27,6.27,0,0,0-2.39-2.43,7.19,7.19,0,0,0-6.82,0,6.21,6.21,0,0,0-2.39,2.43,7.6,7.6,0,0,0,0,7.06,6.18,6.18,0,0,0,2.39,2.42,7.12,7.12,0,0,0,6.82,0Z"/><path class="cls-1" d="M380,42.17a5,5,0,0,1,1,3.23,5.17,5.17,0,0,1-2.14,4.41,10.2,10.2,0,0,1-6.14,1.59H362.25V30.08h9.93A10.11,10.11,0,0,1,378,31.51,4.68,4.68,0,0,1,380,35.59a5,5,0,0,1-.79,2.79,5.42,5.42,0,0,1-2.23,1.9A5.82,5.82,0,0,1,380,42.17Zm-12.85-3.26h4.59a3.9,3.9,0,0,0,2.44-.65,2.67,2.67,0,0,0,0-3.86,3.86,3.86,0,0,0-2.43-.67h-4.59ZM376.05,45c0-1.76-1.16-2.65-3.47-2.65h-5.42v5.39h5.42Q376,47.74,376.05,45Z"/><path class="cls-1" d="M402.42,46.83h-9.9l-1.89,4.57h-5.05l9.5-21.32H400l9.53,21.32h-5.17Zm-1.55-3.75-3.38-8.16-3.38,8.16Z"/><path class="cls-1" d="M434.91,30.08V51.4H430V42.66h-9.69V51.4h-4.93V30.08h4.93v8.41H430V30.08Z"/><path class="cls-1" d="M457.72,46.83h-9.9l-1.89,4.57h-5.05l9.5-21.32h4.87l9.53,21.32h-5.17Zm-1.56-3.75-3.38-8.16-3.38,8.16Z"/><rect class="cls-2" x="44.8" y="49.78" width="69.7" height="9.96"/><rect class="cls-2" x="84.55" y="69.7" width="49.87" height="9.96"/><path class="cls-3" d="M34.85,89.61a24.89,24.89,0,0,1,0-49.78H144.37a5,5,0,0,0,0-10H34.85a34.85,34.85,0,0,0,0,69.7H144.37a5,5,0,0,0,0-10Z"/><rect class="cls-4" x="29.87" y="69.7" width="59.74" height="9.96" rx="4.98" ry="4.98"/><path class="cls-4" d="M29.87,10H139.39a0,0,0,0,1,0,0v0a10,10,0,0,1-10,10H39.83a10,10,0,0,1-10-10v0A0,0,0,0,1,29.87,10Z"/><rect class="cls-4" x="99.57" y="69.7" width="19.91" height="9.96" rx="4.98" ry="4.98"/><rect class="cls-4" x="129.44" y="69.7" width="9.96" height="9.96" rx="4.98" ry="4.98"/><path class="cls-4" d="M34.85,0h0a5,5,0,0,1,5,5v5a0,0,0,0,1,0,0h-10a0,0,0,0,1,0,0V5A5,5,0,0,1,34.85,0Z"/><path class="cls-4" d="M54.76,0h0a5,5,0,0,1,5,5v5a0,0,0,0,1,0,0h-10a0,0,0,0,1,0,0V5A5,5,0,0,1,54.76,0Z"/><path class="cls-4" d="M74.67,0h0a5,5,0,0,1,5,5v5a0,0,0,0,1,0,0h-10a0,0,0,0,1,0,0V5A5,5,0,0,1,74.67,0Z"/><path class="cls-4" d="M94.59,0h0a5,5,0,0,1,5,5v5a0,0,0,0,1,0,0h-10a0,0,0,0,1,0,0V5a5,5,0,0,1,5-5Z"/><path class="cls-4" d="M114.5,0h0a5,5,0,0,1,5,5v5a0,0,0,0,1,0,0h-10a0,0,0,0,1,0,0V5a5,5,0,0,1,5-5Z"/><path class="cls-4" d="M134.41,0h0a5,5,0,0,1,5,5v5a0,0,0,0,1,0,0h-10a0,0,0,0,1,0,0V5A5,5,0,0,1,134.41,0Z"/><rect class="cls-4" x="29.87" y="49.78" width="19.91" height="9.96" rx="4.98" ry="4.98"/><rect class="cls-4" x="59.74" y="49.78" width="39.83" height="9.96" rx="4.98" ry="4.98"/><rect class="cls-4" x="109.52" y="49.78" width="29.87" height="9.96" rx="4.98" ry="4.98"/></g></g></svg>