<svg width="51" height="44" viewBox="0 0 51 44" fill="none" xmlns="http://www.w3.org/2000/svg">
<path d="M24.7168 3.89782C17.8442 3.89782 8.59784 6.03454 4.47226 12.1083C2.22067 15.4232 -0.190392 20.3418 1.65493 24.2631C5.0115 31.3958 11.7429 37.7907 18.7601 41.2677C26.9203 45.311 35.8572 41.4175 41.4598 34.9287C46.9087 28.6178 46.717 20.0209 43.3514 12.7925C39.8495 5.27145 31.7894 1 23.6301 1" stroke="#FFDD8C" stroke-width="2" stroke-linecap="round" stroke-linejoin="round"/>
<path d="M16.166 18.5551C16.3673 21.7758 18.1842 25.0977 19.5974 27.9241C20.0964 28.9222 20.6052 30.083 21.2721 30.9925C21.5401 31.3579 22.0229 30.4528 22.2793 30.079C25.8367 24.8922 29.1652 19.6772 33.4284 15.0066C37.1373 10.9433 41.2438 7.12667 46.0648 4.41969C46.9799 3.90582 48.7967 3.43555 49.4727 2.53418" stroke="#FFDD8C" stroke-width="2" stroke-linecap="round" stroke-linejoin="round"/>
</svg>
