<svg width="54" height="54" viewBox="0 0 54 54" fill="none" xmlns="http://www.w3.org/2000/svg">
<path d="M2.65753 15.1575V2.65747H14.4996" stroke="#0DFFFF" stroke-width="5"/>
<path d="M51.3425 15.1575V2.65747H39.5004" stroke="#0DFFFF" stroke-width="5"/>
<path d="M51.3425 38.8425V51.3425H39.5004" stroke="#0DFFFF" stroke-width="5"/>
<path d="M2.65753 38.8425V51.3425H14.4996" stroke="#0DFFFF" stroke-width="5"/>
<rect x="27" y="2" width="1.31579" height="50" fill="#0DFFFF"/>
<rect x="52" y="25.6841" width="1.31579" height="50" transform="rotate(90 52 25.6841)" fill="#0DFFFF"/>
<path d="M28.24 23.24H29.78C31.1053 23.24 32.1787 23.6413 33 24.444C33.84 25.228 34.26 26.2267 34.26 27.44V30.8C34.26 32.0133 33.84 33.0213 33 33.824C32.1787 34.608 31.1053 35 29.78 35H19.98V31.36H28.24C28.52 31.36 28.7533 31.2667 28.94 31.08C29.1267 30.8933 29.22 30.66 29.22 30.38V27.86C29.22 27.58 29.1267 27.3467 28.94 27.16C28.7533 26.9733 28.52 26.88 28.24 26.88H22.78V23.52L27.82 19.32V19.04H20.82L19.7 17.78V15.4H33.7V18.76L28.24 22.96V23.24Z" fill="#0DFFFF" fill-opacity="0.9586"/>
</svg>
