<svg width="385" height="58" viewBox="0 0 385 58" fill="none" xmlns="http://www.w3.org/2000/svg">
<circle cx="213.396" cy="52.6462" r="1.20564" transform="rotate(-90 213.396 52.6462)" fill="#262728"/>
<circle cx="213.396" cy="52.6462" r="4.17067" transform="rotate(-90 213.396 52.6462)" stroke="#262728" stroke-width="0.5"/>
<circle cx="234.295" cy="52.6462" r="1.20564" transform="rotate(-90 234.295 52.6462)" fill="#262728"/>
<circle cx="234.295" cy="52.6462" r="4.17067" transform="rotate(-90 234.295 52.6462)" stroke="#262728" stroke-width="0.5"/>
<circle cx="255.192" cy="52.6462" r="1.20564" transform="rotate(-90 255.192 52.6462)" fill="#262728"/>
<circle cx="255.193" cy="52.6462" r="4.17067" transform="rotate(-90 255.193 52.6462)" stroke="#262728" stroke-width="0.5"/>
<circle cx="276.091" cy="52.6462" r="1.20564" transform="rotate(-90 276.091 52.6462)" fill="#262728"/>
<circle cx="276.09" cy="52.6462" r="4.17067" transform="rotate(-90 276.09 52.6462)" stroke="#262728" stroke-width="0.5"/>
<circle cx="296.988" cy="52.6462" r="1.20564" transform="rotate(-90 296.988 52.6462)" fill="#262728"/>
<circle cx="296.988" cy="52.6462" r="4.17067" transform="rotate(-90 296.988 52.6462)" stroke="#262728" stroke-width="0.5"/>
<circle cx="317.885" cy="52.6462" r="1.20564" transform="rotate(-90 317.885 52.6462)" fill="#262728"/>
<circle cx="317.885" cy="52.6462" r="4.17067" transform="rotate(-90 317.885 52.6462)" stroke="#262728" stroke-width="0.5"/>
<circle cx="338.783" cy="52.6462" r="1.20564" transform="rotate(-90 338.783 52.6462)" fill="#262728"/>
<circle cx="338.783" cy="52.6462" r="4.17067" transform="rotate(-90 338.783 52.6462)" stroke="#262728" stroke-width="0.5"/>
<circle cx="359.68" cy="52.6462" r="1.20564" transform="rotate(-90 359.68 52.6462)" fill="#262728"/>
<circle cx="359.681" cy="52.6462" r="4.17067" transform="rotate(-90 359.681 52.6462)" stroke="#262728" stroke-width="0.5"/>
<circle cx="234.295" cy="28.5336" r="1.20564" transform="rotate(-90 234.295 28.5336)" fill="#262728"/>
<circle cx="234.295" cy="28.5336" r="4.17067" transform="rotate(-90 234.295 28.5336)" stroke="#262728" stroke-width="0.5"/>
<circle cx="255.192" cy="28.5336" r="1.20564" transform="rotate(-90 255.192 28.5336)" fill="#262728"/>
<circle cx="255.193" cy="28.5336" r="4.17067" transform="rotate(-90 255.193 28.5336)" stroke="#262728" stroke-width="0.5"/>
<circle cx="276.091" cy="28.5336" r="1.20564" transform="rotate(-90 276.091 28.5336)" fill="#262728"/>
<circle cx="276.09" cy="28.5336" r="4.17067" transform="rotate(-90 276.09 28.5336)" stroke="#262728" stroke-width="0.5"/>
<circle cx="296.988" cy="28.5336" r="1.20564" transform="rotate(-90 296.988 28.5336)" fill="#262728"/>
<circle cx="296.988" cy="28.5336" r="4.17067" transform="rotate(-90 296.988 28.5336)" stroke="#262728" stroke-width="0.5"/>
<circle cx="317.885" cy="28.5335" r="1.20564" transform="rotate(-90 317.885 28.5335)" fill="#262728"/>
<circle cx="317.885" cy="28.5336" r="4.17067" transform="rotate(-90 317.885 28.5336)" stroke="#262728" stroke-width="0.5"/>
<circle cx="338.783" cy="28.5336" r="1.20564" transform="rotate(-90 338.783 28.5336)" fill="#262728"/>
<circle cx="338.783" cy="28.5336" r="4.17067" transform="rotate(-90 338.783 28.5336)" stroke="#262728" stroke-width="0.5"/>
<circle cx="359.68" cy="28.5336" r="1.20564" transform="rotate(-90 359.68 28.5336)" fill="#262728"/>
<circle cx="359.681" cy="28.5336" r="4.17067" transform="rotate(-90 359.681 28.5336)" stroke="#262728" stroke-width="0.5"/>
<circle cx="380.577" cy="28.5335" r="1.20564" transform="rotate(-90 380.577 28.5335)" fill="#262728"/>
<circle cx="380.577" cy="28.5336" r="4.17067" transform="rotate(-90 380.577 28.5336)" stroke="#262728" stroke-width="0.5"/>
<circle cx="192.499" cy="4.42083" r="1.20564" transform="rotate(-90 192.499 4.42083)" fill="#262728"/>
<circle cx="192.5" cy="4.42076" r="4.17067" transform="rotate(-90 192.5 4.42076)" stroke="#262728" stroke-width="0.5"/>
<circle cx="213.396" cy="4.42083" r="1.20564" transform="rotate(-90 213.396 4.42083)" fill="#262728"/>
<circle cx="213.396" cy="4.42089" r="4.17067" transform="rotate(-90 213.396 4.42089)" stroke="#262728" stroke-width="0.5"/>
<circle cx="234.295" cy="4.42083" r="1.20564" transform="rotate(-90 234.295 4.42083)" fill="#262728"/>
<circle cx="234.295" cy="4.42076" r="4.17067" transform="rotate(-90 234.295 4.42076)" stroke="#262728" stroke-width="0.5"/>
<circle cx="255.192" cy="4.42083" r="1.20564" transform="rotate(-90 255.192 4.42083)" fill="#262728"/>
<circle cx="255.193" cy="4.42076" r="4.17067" transform="rotate(-90 255.193 4.42076)" stroke="#262728" stroke-width="0.5"/>
<circle cx="276.091" cy="4.42083" r="1.20564" transform="rotate(-90 276.091 4.42083)" fill="#262728"/>
<circle cx="276.09" cy="4.42076" r="4.17067" transform="rotate(-90 276.09 4.42076)" stroke="#262728" stroke-width="0.5"/>
<circle cx="296.988" cy="4.42083" r="1.20564" transform="rotate(-90 296.988 4.42083)" fill="#262728"/>
<circle cx="296.988" cy="4.42076" r="4.17067" transform="rotate(-90 296.988 4.42076)" stroke="#262728" stroke-width="0.5"/>
<circle cx="317.885" cy="4.42083" r="1.20564" transform="rotate(-90 317.885 4.42083)" fill="#262728"/>
<circle cx="317.885" cy="4.42089" r="4.17067" transform="rotate(-90 317.885 4.42089)" stroke="#262728" stroke-width="0.5"/>
<circle cx="338.783" cy="4.42083" r="1.20564" transform="rotate(-90 338.783 4.42083)" fill="#262728"/>
<circle cx="338.783" cy="4.42076" r="4.17067" transform="rotate(-90 338.783 4.42076)" stroke="#262728" stroke-width="0.5"/>
<circle cx="25.3179" cy="52.6462" r="1.20564" transform="rotate(-90 25.3179 52.6462)" fill="#262728"/>
<circle cx="25.3187" cy="52.6462" r="4.17067" transform="rotate(-90 25.3187 52.6462)" stroke="#262728" stroke-width="0.5"/>
<circle cx="46.2169" cy="52.6462" r="1.20564" transform="rotate(-90 46.2169 52.6462)" fill="#262728"/>
<circle cx="46.2164" cy="52.6462" r="4.17067" transform="rotate(-90 46.2164 52.6462)" stroke="#262728" stroke-width="0.5"/>
<circle cx="67.1138" cy="52.6462" r="1.20564" transform="rotate(-90 67.1138 52.6462)" fill="#262728"/>
<circle cx="67.1141" cy="52.6462" r="4.17067" transform="rotate(-90 67.1141 52.6462)" stroke="#262728" stroke-width="0.5"/>
<circle cx="88.0128" cy="52.6462" r="1.20564" transform="rotate(-90 88.0128 52.6462)" fill="#262728"/>
<circle cx="88.0118" cy="52.6462" r="4.17067" transform="rotate(-90 88.0118 52.6462)" stroke="#262728" stroke-width="0.5"/>
<circle cx="108.91" cy="52.6462" r="1.20564" transform="rotate(-90 108.91 52.6462)" fill="#262728"/>
<circle cx="108.91" cy="52.6462" r="4.17067" transform="rotate(-90 108.91 52.6462)" stroke="#262728" stroke-width="0.5"/>
<circle cx="129.807" cy="52.6462" r="1.20564" transform="rotate(-90 129.807 52.6462)" fill="#262728"/>
<circle cx="129.807" cy="52.6462" r="4.17067" transform="rotate(-90 129.807 52.6462)" stroke="#262728" stroke-width="0.5"/>
<circle cx="150.706" cy="52.6462" r="1.20564" transform="rotate(-90 150.706 52.6462)" fill="#262728"/>
<circle cx="150.705" cy="52.6462" r="4.17067" transform="rotate(-90 150.705 52.6462)" stroke="#262728" stroke-width="0.5"/>
<circle cx="171.603" cy="52.6462" r="1.20564" transform="rotate(-90 171.603 52.6462)" fill="#262728"/>
<circle cx="171.603" cy="52.6462" r="4.17067" transform="rotate(-90 171.603 52.6462)" stroke="#262728" stroke-width="0.5"/>
<circle cx="46.2169" cy="28.5336" r="1.20564" transform="rotate(-90 46.2169 28.5336)" fill="#262728"/>
<circle cx="46.2164" cy="28.5336" r="4.17067" transform="rotate(-90 46.2164 28.5336)" stroke="#262728" stroke-width="0.5"/>
<circle cx="67.1138" cy="28.5336" r="1.20564" transform="rotate(-90 67.1138 28.5336)" fill="#262728"/>
<circle cx="67.1141" cy="28.5336" r="4.17067" transform="rotate(-90 67.1141 28.5336)" stroke="#262728" stroke-width="0.5"/>
<circle cx="88.0128" cy="28.5336" r="1.20564" transform="rotate(-90 88.0128 28.5336)" fill="#262728"/>
<circle cx="88.0118" cy="28.5336" r="4.17067" transform="rotate(-90 88.0118 28.5336)" stroke="#262728" stroke-width="0.5"/>
<circle cx="108.91" cy="28.5336" r="1.20564" transform="rotate(-90 108.91 28.5336)" fill="#262728"/>
<circle cx="108.91" cy="28.5336" r="4.17067" transform="rotate(-90 108.91 28.5336)" stroke="#262728" stroke-width="0.5"/>
<circle cx="129.807" cy="28.5336" r="1.20564" transform="rotate(-90 129.807 28.5336)" fill="#262728"/>
<circle cx="129.807" cy="28.5336" r="4.17067" transform="rotate(-90 129.807 28.5336)" stroke="#262728" stroke-width="0.5"/>
<circle cx="150.706" cy="28.5336" r="1.20564" transform="rotate(-90 150.706 28.5336)" fill="#262728"/>
<circle cx="150.705" cy="28.5336" r="4.17067" transform="rotate(-90 150.705 28.5336)" stroke="#262728" stroke-width="0.5"/>
<circle cx="171.603" cy="28.5336" r="1.20564" transform="rotate(-90 171.603 28.5336)" fill="#262728"/>
<circle cx="171.603" cy="28.5336" r="4.17067" transform="rotate(-90 171.603 28.5336)" stroke="#262728" stroke-width="0.5"/>
<circle cx="192.5" cy="28.5336" r="1.20564" transform="rotate(-90 192.5 28.5336)" fill="#262728"/>
<circle cx="192.5" cy="28.5336" r="4.17067" transform="rotate(-90 192.5 28.5336)" stroke="#262728" stroke-width="0.5"/>
<circle cx="4.42097" cy="4.42083" r="1.20564" transform="rotate(-90 4.42097 4.42083)" fill="#262728"/>
<circle cx="4.42097" cy="4.42076" r="4.17067" transform="rotate(-90 4.42097 4.42076)" stroke="#262728" stroke-width="0.5"/>
<circle cx="25.3179" cy="4.42083" r="1.20564" transform="rotate(-90 25.3179 4.42083)" fill="#262728"/>
<circle cx="25.3187" cy="4.42076" r="4.17067" transform="rotate(-90 25.3187 4.42076)" stroke="#262728" stroke-width="0.5"/>
<circle cx="46.2169" cy="4.42083" r="1.20564" transform="rotate(-90 46.2169 4.42083)" fill="#262728"/>
<circle cx="46.2164" cy="4.42076" r="4.17067" transform="rotate(-90 46.2164 4.42076)" stroke="#262728" stroke-width="0.5"/>
<circle cx="67.1138" cy="4.42083" r="1.20564" transform="rotate(-90 67.1138 4.42083)" fill="#262728"/>
<circle cx="67.1141" cy="4.42076" r="4.17067" transform="rotate(-90 67.1141 4.42076)" stroke="#262728" stroke-width="0.5"/>
<circle cx="88.0128" cy="4.42083" r="1.20564" transform="rotate(-90 88.0128 4.42083)" fill="#262728"/>
<circle cx="88.0118" cy="4.42076" r="4.17067" transform="rotate(-90 88.0118 4.42076)" stroke="#262728" stroke-width="0.5"/>
<circle cx="108.91" cy="4.42083" r="1.20564" transform="rotate(-90 108.91 4.42083)" fill="#262728"/>
<circle cx="108.91" cy="4.42076" r="4.17067" transform="rotate(-90 108.91 4.42076)" stroke="#262728" stroke-width="0.5"/>
<circle cx="129.807" cy="4.42083" r="1.20564" transform="rotate(-90 129.807 4.42083)" fill="#262728"/>
<circle cx="129.807" cy="4.42076" r="4.17067" transform="rotate(-90 129.807 4.42076)" stroke="#262728" stroke-width="0.5"/>
<circle cx="150.706" cy="4.42083" r="1.20564" transform="rotate(-90 150.706 4.42083)" fill="#262728"/>
<circle cx="150.705" cy="4.42076" r="4.17067" transform="rotate(-90 150.705 4.42076)" stroke="#262728" stroke-width="0.5"/>
</svg>
