<svg width="184" height="183" viewBox="0 0 184 183" fill="none" xmlns="http://www.w3.org/2000/svg">
<path d="M86.8601 10.2601V1.62012C64.7025 2.93324 43.8063 12.3675 28.1674 28.119C12.5285 43.8704 3.24431 64.8337 2.09009 87.0001H10.7301C11.8816 67.1207 20.2624 48.3485 34.2939 34.2193C48.3255 20.0902 67.0392 11.5794 86.9101 10.2901" stroke="#0DFFFF" stroke-opacity="0.9586" stroke-width="2" stroke-miterlimit="10"/>
<path d="M10.63 95H2C2.88474 117.378 12.0606 138.626 27.7431 154.614C43.4256 170.601 64.4936 180.185 86.85 181.5V172.86C66.7836 171.556 47.9057 162.887 33.8388 148.517C19.7719 134.148 11.507 115.09 10.63 95" stroke="#0DFFFF" stroke-opacity="0.9586" stroke-width="2" stroke-miterlimit="10"/>
<path d="M94.9 173V181.63C117.691 180.882 139.353 171.531 155.529 155.459C171.705 139.387 181.195 117.785 182.09 95H173.46C172.576 115.494 164.003 134.902 149.449 149.358C134.895 163.813 115.429 172.255 94.9301 173" stroke="#0DFFFF" stroke-opacity="0.9586" stroke-width="2" stroke-miterlimit="10"/>
<path d="M179.35 14.6C174.58 13.6 167.35 13.83 162.13 14.75C148.256 17.1439 135.033 22.3986 123.3 30.18C115.96 35.11 109.83 41.27 103.91 47.66L94.4499 46.85C96.8999 43.51 98.88 40.12 99.55 37.27C91.8 37.89 78.9499 47.08 73.9499 50.94C72.2544 52.2377 70.7023 53.7127 69.3199 55.34L58.5099 68.21C58.0399 70.49 60.51 73.35 62.83 73.21L73.52 66.67C75.88 67.03 80.21 67.59 84.52 68.13L76.52 76.27L82.3899 83.1L79.22 85.83L78.9399 85.5L74.47 87.5L73.22 86.06C73.1308 85.9557 73.004 85.8909 72.8673 85.8796C72.7306 85.8684 72.595 85.9117 72.49 86L71.93 86.48C71.8265 86.5723 71.7633 86.7014 71.754 86.8398C71.7446 86.9781 71.7898 87.1146 71.8799 87.22L90.2599 108.58C90.3491 108.684 90.4759 108.749 90.6126 108.76C90.7493 108.772 90.885 108.728 90.99 108.64L91.55 108.16C91.6549 108.069 91.72 107.941 91.7312 107.802C91.7424 107.664 91.6989 107.527 91.61 107.42L90.54 106.19L93.1899 102.07L92.72 101.53L95.9 98.8L100.15 103.74L103.01 107.06L103.1 107.17L108.1 103.37L113.29 99.62C113.16 104.52 113.04 109.87 113.04 112.62L104.97 122.22C104.5 124.5 106.97 127.36 109.29 127.22L123.63 118.45C125.431 117.328 127.107 116.017 128.63 114.54C133.19 110.17 144.2 98.84 145.97 91.27C143.05 91.5 139.41 92.95 135.73 94.87L136.47 83.48C143.28 78.81 149.87 73.87 155.53 67.68C164.974 57.2427 172.146 44.9561 176.59 31.6C178.32 26.56 179.66 19.47 179.35 14.6Z" stroke="#0DFFFF" stroke-opacity="0.9586" stroke-width="2" stroke-miterlimit="10"/>
<path d="M62.8199 97.39C63.8179 96.7346 64.9015 96.2197 66.04 95.86C69.62 94.73 73.5799 95.08 76.3799 97.31L76.53 97.42C78.9219 99.181 80.73 101.62 81.72 104.42C81.9464 104.993 82.1074 105.591 82.2 106.2C82.42 107.282 82.514 108.386 82.48 109.49C82.4565 110.732 82.1951 111.957 81.71 113.1C81.1628 114.241 80.437 115.288 79.5599 116.2C76.5857 119.283 73.0262 121.741 69.09 123.43C67.24 124.28 65.38 125.02 63.54 125.72C62.62 126.07 61.69 126.38 60.8 126.72C60.46 126.86 58.73 127.44 58.66 127.72C59.0485 126.016 59.3291 124.289 59.4999 122.55C55.824 124.301 52.0072 125.739 48.09 126.85C48.09 126.85 51.09 120.99 53.8 116.69C50.9541 117.24 48.163 118.043 45.46 119.09C45.72 119 46.1099 118.09 46.2599 117.89C48.5099 114.56 50.89 111.14 53.47 107.66C56.05 104.18 58.7799 100 62.8199 97.39Z" stroke="#0DFFFF" stroke-opacity="0.9586" stroke-width="2" stroke-miterlimit="10"/>
<path d="M128.09 36.72C130.47 34.674 133.404 33.3798 136.52 33.001C139.636 32.6222 142.794 33.1759 145.595 34.592C148.396 36.0081 150.715 38.2231 152.257 40.9568C153.799 43.6905 154.496 46.8202 154.26 49.95C154.024 53.0799 152.864 56.0694 150.929 58.5405C148.994 61.0116 146.369 62.8533 143.387 63.8327C140.405 64.8121 137.199 64.8852 134.176 64.0428C131.152 63.2004 128.446 61.4803 126.4 59.1C123.659 55.9071 122.297 51.7566 122.614 47.5603C122.931 43.3641 124.901 39.4652 128.09 36.72V36.72Z" stroke="#0DFFFF" stroke-opacity="0.9586" stroke-width="2" stroke-miterlimit="10"/>
</svg>
