<svg width="183" height="183" viewBox="0 0 183 183" fill="none" xmlns="http://www.w3.org/2000/svg">
<path d="M65.34 74.67C67.3827 74.668 69.3789 74.0605 71.0763 72.9242C72.7738 71.788 74.0962 70.1739 74.8765 68.2862C75.6569 66.3985 75.86 64.3218 75.4603 62.3186C75.0606 60.3155 74.076 58.4758 72.6309 57.0321C71.1858 55.5884 69.3452 54.6056 67.3416 54.2078C65.3381 53.81 63.2616 54.0151 61.3746 54.7973C59.4876 55.5794 57.8749 56.9035 56.7402 58.602C55.6056 60.3005 55 62.2974 55 64.34C54.9987 65.6978 55.2653 67.0425 55.7846 68.297C56.3039 69.5516 57.0656 70.6913 58.0262 71.6509C58.9867 72.6105 60.1272 73.3712 61.3823 73.8892C62.6373 74.4073 63.9822 74.6727 65.34 74.67V74.67Z" stroke="#0DFFFF" stroke-opacity="0.9586" stroke-width="2" stroke-miterlimit="10"/>
<path d="M93.7001 86.0799C95.7456 86.0819 97.7457 85.4771 99.4474 84.3422C101.149 83.2072 102.476 81.593 103.26 79.7038C104.044 77.8146 104.251 75.7352 103.853 73.7288C103.455 71.7224 102.471 69.879 101.025 68.432C99.5795 66.9849 97.7371 65.9991 95.731 65.5993C93.725 65.1995 91.6455 65.4037 89.7555 66.186C87.8655 66.9683 86.2501 68.2936 85.1134 69.9943C83.9768 71.6949 83.3701 73.6944 83.3701 75.7399C83.3701 78.4805 84.4581 81.109 86.3951 83.0478C88.3321 84.9867 90.9595 86.0772 93.7001 86.0799V86.0799Z" stroke="#0DFFFF" stroke-opacity="0.9586" stroke-width="2" stroke-miterlimit="10"/>
<path d="M121.33 75.0799C123.375 75.0819 125.376 74.4771 127.077 73.3422C128.779 72.2072 130.106 70.593 130.89 68.7038C131.674 66.8146 131.88 64.7352 131.483 62.7288C131.085 60.7224 130.101 58.879 128.655 57.432C127.209 55.9849 125.367 54.9991 123.361 54.5993C121.355 54.1995 119.275 54.4037 117.385 55.186C115.495 55.9683 113.88 57.2936 112.743 58.9943C111.607 60.6949 111 62.6944 111 64.7399C111 67.4805 112.088 70.109 114.025 72.0478C115.962 73.9867 118.589 75.0772 121.33 75.0799V75.0799Z" stroke="#0DFFFF" stroke-opacity="0.9586" stroke-width="2" stroke-miterlimit="10"/>
<path d="M138.63 98.8301C138.631 94.4774 136.99 90.2846 134.035 87.0887C131.08 83.8928 127.028 81.929 122.689 81.5894C118.35 81.2498 114.042 82.5593 110.626 85.2566C107.209 87.9538 104.936 91.8403 104.26 96.1401C101.24 93.8031 97.5288 92.5351 93.71 92.5351C89.8911 92.5351 86.1803 93.8031 83.16 96.1401C82.5657 91.8 80.3471 87.847 76.9519 85.0788C73.5568 82.3107 69.238 80.9336 64.8671 81.2255C60.4963 81.5174 56.3989 83.4565 53.402 86.6515C50.4051 89.8466 48.7319 94.0595 48.72 98.4401V117.34H76.39V128.75H111V117.75H138.63V98.8301Z" stroke="#0DFFFF" stroke-opacity="0.9586" stroke-width="2" stroke-miterlimit="10"/>
<path d="M173.28 86.7801H181.91C180.73 64.2277 171.131 42.939 155.01 27.1238C138.889 11.3085 117.421 2.11819 94.8501 1.37012V10.0001C115.135 10.7382 134.415 19.0166 148.92 33.2162C163.425 47.4159 172.111 66.5156 173.28 86.7801" stroke="#0DFFFF" stroke-opacity="0.9586" stroke-width="2" stroke-miterlimit="10"/>
<path d="M86.78 10.11V1.46997C64.6324 2.77265 43.7421 12.1929 28.1033 27.9294C12.4645 43.666 3.17462 64.6147 2.01001 86.77H10.65C11.7972 66.9024 20.1713 48.1404 34.1944 34.0197C48.2174 19.8991 66.9208 11.395 86.78 10.11" stroke="#0DFFFF" stroke-opacity="0.9586" stroke-width="2" stroke-miterlimit="10"/>
<path d="M10.62 94.8201H2C2.88426 117.181 12.052 138.414 27.721 154.392C43.3899 170.37 64.4404 179.95 86.78 181.27V172.63C66.7225 171.333 47.8512 162.672 33.789 148.311C19.7269 133.95 11.4652 114.9 10.59 94.8201" stroke="#0DFFFF" stroke-opacity="0.9586" stroke-width="2" stroke-miterlimit="10"/>
<path d="M94.8501 172.75V181.37C117.617 180.615 139.255 171.27 155.415 155.215C171.574 139.159 181.058 117.582 181.96 94.8201H173.33C172.436 115.295 163.865 134.683 149.322 149.125C134.779 163.566 115.331 172 94.8501 172.75" stroke="#0DFFFF" stroke-opacity="0.9586" stroke-width="2" stroke-miterlimit="10"/>
</svg>
