<svg width="184" height="184" viewBox="0 0 184 184" fill="none" xmlns="http://www.w3.org/2000/svg">
<path d="M77 58.3099C77 55.3288 77.8848 52.4147 79.5423 49.9368C81.1998 47.4589 83.5554 45.5287 86.3107 44.3906C89.0661 43.2525 92.0972 42.9578 95.0202 43.5438C97.9432 44.1298 100.626 45.5701 102.73 47.6823C104.834 49.7944 106.264 52.4835 106.838 55.4088C107.412 58.3341 107.105 61.364 105.956 64.1148C104.807 66.8656 102.868 69.2135 100.383 70.861C97.8987 72.5086 94.9811 73.3818 92 73.3699C88.0162 73.354 84.2011 71.7603 81.3897 68.9378C78.5784 66.1152 77 62.2937 77 58.3099" stroke="#0DFFFF" stroke-opacity="0.9586" stroke-width="2" stroke-miterlimit="10"/>
<path d="M117.23 108C117.297 104.646 116.694 101.313 115.457 98.1956C114.22 95.0779 112.373 92.2383 110.025 89.843C107.677 87.4478 104.875 85.5449 101.782 84.2459C98.6896 82.9469 95.3691 82.2778 92.0149 82.2778C88.6607 82.2778 85.3402 82.9469 82.2478 84.2459C79.1553 85.5449 76.3531 87.4478 74.005 89.843C71.657 92.2383 69.8103 95.0779 68.5731 98.1956C67.336 101.313 66.7331 104.646 66.7999 108V135.54H117.23V108Z" stroke="#0DFFFF" stroke-opacity="0.9586" stroke-width="2" stroke-miterlimit="10"/>
<path d="M173.32 87.44H182C180.827 64.874 171.224 43.571 155.092 27.7482C138.96 11.9255 117.475 2.73635 94.8901 2V10.66C115.175 11.3981 134.455 19.6764 148.96 33.8761C163.465 48.0757 172.151 67.1754 173.32 87.44Z" stroke="#0DFFFF" stroke-opacity="0.9586" stroke-width="2" stroke-miterlimit="10"/>
<path d="M86.8501 10.7699V2.12988C64.7025 3.43256 43.8121 12.8528 28.1733 28.5894C12.5345 44.3259 3.24469 65.2746 2.08008 87.4299H10.7201C11.8673 67.5623 20.2414 48.8003 34.2645 34.6796C48.2875 20.559 66.9909 12.0549 86.8501 10.7699" stroke="#0DFFFF" stroke-opacity="0.9586" stroke-width="2" stroke-miterlimit="10"/>
<path d="M10.66 95.48H2C2.88246 117.845 12.0523 139.082 27.7259 155.061C43.3995 171.039 64.4561 180.617 86.8 181.93V173.3C66.7513 171.986 47.8932 163.318 33.8421 148.956C19.791 134.595 11.536 115.553 10.66 95.48" stroke="#0DFFFF" stroke-opacity="0.9586" stroke-width="2" stroke-miterlimit="10"/>
<path d="M94.8901 173.41V182C117.654 181.25 139.29 171.911 155.45 155.861C171.61 139.81 181.095 118.238 182 95.48H173.38C172.489 115.956 163.918 135.345 149.375 149.787C134.831 164.228 115.382 172.663 94.9001 173.41" stroke="#0DFFFF" stroke-opacity="0.9586" stroke-width="2" stroke-miterlimit="10"/>
</svg>
