<?xml version="1.0" encoding="utf-8"?>
<!-- Generator: Adobe Illustrator 23.0.1, SVG Export Plug-In . SVG Version: 6.00 Build 0)  -->
<svg version="1.1" id="Шар_1" xmlns="http://www.w3.org/2000/svg" xmlns:xlink="http://www.w3.org/1999/xlink" x="0px" y="0px"
	 viewBox="0 0 542 577" style="enable-background:new 0 0 542 577;" xml:space="preserve">
<style type="text/css">
	.st0{fill:none;}
	.st1{fill-rule:evenodd;clip-rule:evenodd;fill:#4AB552;}
	.st2{fill:#FEF572;}
	.st3{fill-rule:evenodd;clip-rule:evenodd;fill:#FFFFFF;}
	.st4{fill-rule:evenodd;clip-rule:evenodd;fill:#BA68A6;}
	.st5{fill-rule:evenodd;clip-rule:evenodd;fill:#FEF572;}
	.st6{fill:none;stroke:#0DEEF0;stroke-width:2;}
	.st7{fill:#6592D6;}
	.st8{fill:none;stroke:#6592D6;stroke-width:2;}
</style>
<g>
	<g>
		<title>background</title>
		<rect id="canvas_background" x="-51.9" y="188.6" class="st0" width="582" height="402"/>
	</g>
	<g>
		<title>Layer 1</title>
		<rect id="svg_1" x="137.5" y="157.3" class="st0" width="275" height="247"/>
		<path id="svg_2" class="st1" d="M350.5,433.4c2.2-1.2,4.3-2.5,6.5-3.8l14.6,23.2c-2.5,1.6-5,3.1-7.6,4.5L350.5,433.4z
			 M338.8,439.4c1.1-0.5,2.3-1.1,3.4-1.6l12,24.6c-1.3,0.6-2.6,1.3-4,1.9c-1.3,0.6-2.7,1.2-4,1.8l-10.9-25.2
			C336.5,440.4,337.7,439.9,338.8,439.4z M364.8,424.3c2-1.5,4.1-3,6-4.5l16.9,21.6c-2.3,1.8-4.7,3.6-7.1,5.3L364.8,424.3
			L364.8,424.3z M319.5,446.8c2.4-0.8,4.8-1.6,7.1-2.4l9.4,25.8c-2.8,1-5.5,2-8.3,2.8L319.5,446.8L319.5,446.8z M378.1,413.8
			c1.9-1.7,3.7-3.4,5.5-5.1l19.1,19.7c-2.1,2-4.3,4-6.5,6L378.1,413.8L378.1,413.8z M303.1,451c2.5-0.5,4.9-1.1,7.3-1.7l6.6,26.6
			c-2.8,0.7-5.7,1.4-8.6,1.9L303.1,451z M390.2,402c0.8-0.9,1.7-1.9,2.5-2.8c0.8-0.9,1.6-1.9,2.5-2.9l21.1,17.6
			c-0.9,1.1-1.9,2.2-2.9,3.3s-2,2.2-2.9,3.3L390.2,402L390.2,402z M286.4,453.5c2.5-0.2,5-0.5,7.5-0.9l3.8,27.2
			c-2.9,0.4-5.8,0.8-8.7,1L286.4,453.5z M401,388.9c1.5-2,2.9-4.1,4.4-6.1l22.7,15.3c-1.6,2.4-3.3,4.8-5.1,7.2L401,388.9z
			 M273.3,454.2c1.3,0,2.5,0,3.8-0.1l0.9,27.4c-1.5,0.1-2.9,0.1-4.4,0.1s-2.9,0-4.4,0l0.3-27.5C270.7,454.2,272,454.2,273.3,454.2z
			 M410.4,374.8c1.3-2.2,2.5-4.3,3.7-6.6l24.3,12.8c-1.4,2.6-2.8,5.1-4.3,7.7L410.4,374.8z M252.6,453.2c2.5,0.3,5,0.5,7.5,0.7
			l-1.9,27.4c-2.9-0.2-5.9-0.5-8.8-0.8L252.6,453.2L252.6,453.2z M418.2,359.9c1-2.3,2-4.6,3-6.9l25.5,10.2
			c-1.1,2.7-2.3,5.4-3.5,8.1L418.2,359.9L418.2,359.9z M424.5,344.1c0.4-1.2,0.8-2.4,1.2-3.6c0.4-1.2,0.7-2.4,1.1-3.6l26.4,7.5
			c-0.4,1.4-0.8,2.8-1.3,4.2c-0.4,1.4-0.9,2.8-1.4,4.2L424.5,344.1L424.5,344.1z M429.1,327.9c0.6-2.4,1-4.9,1.5-7.4l27.1,4.7
			c-0.5,2.9-1.1,5.8-1.7,8.6L429.1,327.9L429.1,327.9z M431.9,311.2c0.3-2.5,0.5-5,0.7-7.5l27.5,1.8c-0.2,2.9-0.5,5.8-0.8,8.8
			L431.9,311.2L431.9,311.2z M433,294.3c0-2.5,0-5-0.1-7.5l27.5-1c0.1,2.9,0.1,5.9,0.1,8.8L433,294.3z M432.3,277.4
			c-0.1-1.2-0.2-2.5-0.4-3.7s-0.3-2.5-0.5-3.7l27.2-3.9c0.2,1.5,0.4,2.9,0.6,4.4c0.2,1.5,0.3,2.9,0.5,4.4L432.3,277.4L432.3,277.4z
			 M429.9,260.6c-0.5-2.5-1-4.9-1.6-7.3l26.7-6.7c0.7,2.8,1.3,5.7,1.9,8.6L429.9,260.6z M425.7,244.2c-0.7-2.4-1.5-4.8-2.4-7.1
			l25.9-9.4c1,2.8,1.9,5.5,2.8,8.3C452,236,425.7,244.2,425.7,244.2z M419.9,228.4c-1-2.3-2-4.6-3.1-6.8l24.8-12
			c1.3,2.6,2.5,5.3,3.7,8L419.9,228.4z M412.4,213.2c-0.6-1.1-1.2-2.2-1.9-3.3c-0.6-1.1-1.3-2.2-2-3.2l23.4-14.5
			c0.8,1.2,1.5,2.5,2.3,3.8c0.7,1.3,1.5,2.5,2.2,3.8L412.4,213.2L412.4,213.2z M403.4,198.9c-1.4-2-2.9-4.1-4.5-6l21.7-16.9
			c1.8,2.3,3.5,4.7,5.2,7.1L403.4,198.9z M392.9,185.6c-1.7-1.9-3.4-3.7-5.1-5.5l19.9-19.1c2,2.1,4,4.3,6,6.5L392.9,185.6z
			 M381.1,173.5c-1.8-1.7-3.7-3.4-5.6-5l17.8-21c2.2,1.9,4.4,3.8,6.6,5.8L381.1,173.5z M368.1,162.7c-1-0.8-2-1.5-3-2.2
			s-2.1-1.4-3.1-2.1l15.4-22.8c1.2,0.8,2.4,1.7,3.6,2.5c1.2,0.9,2.4,1.7,3.6,2.6L368.1,162.7z M354,153.3c-2.2-1.3-4.3-2.5-6.5-3.7
			l13-24.2c2.6,1.4,5.1,2.8,7.7,4.3L354,153.3L354,153.3z M339.1,145.4c-2.3-1.1-4.6-2-6.9-3l10.4-25.4c2.7,1.1,5.4,2.3,8.1,3.5
			L339.1,145.4z M323.3,139.1c-2.4-0.8-4.8-1.6-7.2-2.3l7.7-26.4c2.8,0.8,5.6,1.7,8.4,2.6L323.3,139.1L323.3,139.1z"/>
		<path id="svg_3" class="st2" d="M199.4,468.4l8,3.3l9.4-25.3l-7.4-2.9C209.4,443.5,199.4,468.4,199.4,468.4z"/>
		<path id="svg_4" class="st2" d="M217.3,474.9l8.2,2.6l7.2-26.1l-7.6-2.2L217.3,474.9L217.3,474.9z"/>
		<path id="svg_5" class="st3" d="M288.2,103.7c2.5,0.2,5.1,0.5,7.6,0.9l-3.8,27.2c-2.2-0.3-4.3-0.5-6.5-0.7L288.2,103.7z
			 M271,102.9c2.6,0,5.1,0.1,7.7,0.2l-1.3,27.4c-2.2-0.1-4.4-0.1-6.6-0.1L271,102.9z M111,190.2c1.4-2.2,2.8-4.3,4.3-6.4l22.5,15.6
			c-1.3,1.8-2.5,3.6-3.6,5.5L111,190.2L111,190.2z M253.7,103.7c2.5-0.2,5.1-0.4,7.7-0.5l1.3,27.4c-2.2,0.1-4.4,0.3-6.5,0.4
			L253.7,103.7z M121,176.1c1.6-2,3.2-4,4.8-6l21,17.6c-1.4,1.7-2.8,3.4-4.1,5.1L121,176.1L121,176.1z M236.6,106
			c2.5-0.5,5-0.9,7.6-1.2L248,132c-2.2,0.3-4.3,0.7-6.5,1L236.6,106z M132.2,162.9c1.7-1.9,3.5-3.7,5.4-5.5l19.3,19.5
			c-1.6,1.5-3.1,3.1-4.6,4.7L132.2,162.9L132.2,162.9z M219.8,109.8c2.5-0.7,4.9-1.3,7.4-1.9l6.2,26.7c-2.1,0.5-4.2,1-6.4,1.6
			L219.8,109.8L219.8,109.8z M144.6,150.9c1.9-1.7,3.9-3.4,5.8-5l17.4,21.2c-1.7,1.4-3.4,2.8-5,4.3L144.6,150.9L144.6,150.9z
			 M203.3,115.2c2.4-0.9,4.8-1.8,7.2-2.6l8.6,26c-2.1,0.7-4.1,1.4-6.2,2.2L203.3,115.2z M158,140c2.1-1.5,4.1-3,6.3-4.4l15.4,22.7
			c-1.8,1.2-3.6,2.5-5.4,3.8L158,140z M190.9,120.4c1.2-0.5,2.3-1.1,3.5-1.6l11,25.1c-1,0.4-2,0.9-3,1.3c-1,0.5-2,0.9-3,1.4
			l-12-24.6C188.6,121.5,189.8,121,190.9,120.4L190.9,120.4z M172.3,130.4c2.2-1.3,4.4-2.6,6.6-3.8l13.2,24
			c-1.9,1.1-3.8,2.2-5.7,3.3L172.3,130.4z"/>
		<path id="svg_6" class="st4" d="M92.2,356.7c-0.9-2.5-1.7-4.9-2.5-7.4l26.2-8c0.7,2.1,1.4,4.2,2.1,6.3L92.2,356.7L92.2,356.7z
			 M87.1,340c-0.6-2.5-1.2-5-1.8-7.6l26.9-5.5c0.5,2.2,1,4.3,1.5,6.5L87.1,340L87.1,340z M83.6,322.8c-0.4-2.6-0.8-5.1-1.1-7.7
			l27.3-3c0.3,2.2,0.6,4.4,0.9,6.6L83.6,322.8L83.6,322.8z M81.6,305.4c-0.2-2.6-0.3-5.2-0.4-7.8l27.5-0.5c0.1,2.2,0.2,4.4,0.3,6.6
			L81.6,305.4L81.6,305.4z M81.2,287.9c0-1.3,0.1-2.6,0.1-3.9c0.1-1.3,0.1-2.6,0.2-3.9l27.4,2c-0.1,1.1-0.1,2.2-0.2,3.3
			c0,1.1-0.1,2.2-0.1,3.3L81.2,287.9z M82.4,270.5c0.3-2.6,0.6-5.1,1.1-7.7l27.1,4.5c-0.3,2.2-0.6,4.4-0.9,6.6L82.4,270.5
			L82.4,270.5z M85.2,253.3c0.5-2.5,1.1-5,1.8-7.6l26.6,7c-0.5,2.1-1,4.3-1.5,6.5L85.2,253.3z M89.6,236.4c0.8-2.5,1.6-4.9,2.4-7.4
			l25.9,9.4c-0.7,2.1-1.4,4.2-2.1,6.3L89.6,236.4L89.6,236.4z M95.5,220c1-2.4,2-4.7,3.1-7.1l24.9,11.8c-0.9,2-1.8,4-2.6,6.1
			L95.5,220z"/>
		<path id="svg_7" class="st5" d="M194.2,435.8c2.2,1.1,4.4,2.2,6.6,3.3L189.2,464c-2.6-1.2-5.2-2.5-7.8-3.8L194.2,435.8
			L194.2,435.8z M179.8,427.4c2.1,1.4,4.1,2.7,6.3,3.9L172,454.9c-2.5-1.5-4.9-3-7.3-4.6L179.8,427.4z M166.4,417.5
			c1.9,1.6,3.9,3.1,5.8,4.6l-16.4,22c-2.3-1.7-4.6-3.5-6.8-5.3L166.4,417.5z M156.8,408.9c0.9,0.9,1.8,1.7,2.7,2.5l-18.6,20.2
			c-1.1-1-2.1-2-3.1-3s-2.1-2-3.1-3l19.4-19.3C155,407.2,155.9,408.1,156.8,408.9z M143,393.9c1.5,1.9,3.1,3.8,4.8,5.6l-20.6,18.2
			c-1.9-2.2-3.8-4.4-5.6-6.6L143,393.9L143,393.9z M133.2,380.5c1.3,2.1,2.7,4.1,4.2,6.1l-22.3,16c-1.7-2.3-3.3-4.7-4.9-7.1
			L133.2,380.5L133.2,380.5z M124.9,366.1c1.1,2.2,2.3,4.4,3.5,6.5l-23.8,13.7c-1.4-2.5-2.8-5-4.1-7.6L124.9,366.1L124.9,366.1z"/>
		<path id="svg_8" class="st6" d="M126.1,292.6c0-79.8,64.5-144.5,144-144.5s144,64.7,144,144.5s-64.5,144.5-144,144.5
			S126.1,372.4,126.1,292.6z"/>
		
			<ellipse id="svg_9" transform="matrix(0.202 -0.9794 0.9794 0.202 -231.2886 583.7782)" class="st7" cx="242.6" cy="433.8" rx="4.6" ry="4.4"/>
		<line id="svg_10" class="st8" x1="211.1" y1="588.9" x2="242.8" y2="432.7"/>
		
			<ellipse id="svg_11" transform="matrix(0.936 -0.3519 0.3519 0.936 -112.692 70.476)" class="st7" cx="137.5" cy="345.2" rx="4.6" ry="4.4"/>
		<line id="svg_12" class="st8" x1="-12.2" y1="409.3" x2="138.6" y2="344.9"/>
		
			<ellipse id="svg_13" transform="matrix(0.502 -0.8649 0.8649 0.502 -117.9085 234.227)" class="st7" cx="144.4" cy="219.5" rx="4.4" ry="4.6"/>
		<line id="svg_14" class="st8" x1="47.5" y1="171.8" x2="145.4" y2="220.1"/>
		
			<ellipse id="svg_15" transform="matrix(0.202 -0.9794 0.9794 0.202 91.0182 411.5266)" class="st7" cx="298" cy="149.9" rx="4.6" ry="4.4"/>
		<line id="svg_16" class="st8" x1="323.1" y1="13.2" x2="297.8" y2="151"/>
	</g>
</g>
</svg>
