<svg width="548" height="548" viewBox="0 0 548 548" fill="none" xmlns="http://www.w3.org/2000/svg">
<g clip-path="url(#clip0)">
<path d="M134 274.5C134 196.909 196.708 134 274 134C351.292 134 414 196.909 414 274.5C414 352.091 351.292 415 274 415C196.708 415 134 352.091 134 274.5Z" stroke="#0DEEF0" stroke-width="2"/>
<line x1="376.687" y1="6.04317" x2="326.247" y2="141.987" stroke="#6592D6" stroke-width="2"/>
<circle cx="325.899" cy="142.926" r="3" transform="rotate(20.3565 325.899 142.926)" fill="#6592D6"/>
<line x1="177.363" y1="543.259" x2="227.803" y2="407.314" stroke="#6592D6" stroke-width="2"/>
<circle cx="228.15" cy="406.376" r="3" transform="rotate(-159.643 228.15 406.376)" fill="#6592D6"/>
<line x1="-6.49735" y1="321.552" x2="136.454" y2="297.262" stroke="#6592D6" stroke-width="2"/>
<circle cx="137.439" cy="297.095" r="3" transform="rotate(-99.6435 137.439 297.095)" fill="#6592D6"/>
<line x1="94.1248" y1="53.2898" x2="185.771" y2="165.655" stroke="#6592D6" stroke-width="2"/>
<circle cx="186.403" cy="166.43" r="3" transform="rotate(-39.201 186.403 166.43)" fill="#6592D6"/>
<path fill-rule="evenodd" clip-rule="evenodd" d="M354.523 102.791C357.728 104.297 360.884 105.891 363.987 107.568L346.869 139.238C344.357 137.88 341.803 136.591 339.208 135.371L354.523 102.791ZM233.786 458.482C230.34 457.729 226.909 456.879 223.496 455.93L233.139 421.246C235.901 422.013 238.679 422.702 241.469 423.311L233.786 458.482ZM373.168 112.869C376.182 114.723 379.139 116.66 382.038 118.676L361.481 148.23C359.134 146.598 356.74 145.03 354.301 143.529L373.168 112.869ZM254.714 461.836C251.202 461.474 247.697 461.013 244.203 460.453L249.9 424.907C252.728 425.36 255.566 425.733 258.409 426.026L254.714 461.836ZM390.568 124.972C393.352 127.15 396.074 129.406 398.731 131.735L374.994 158.802C372.844 156.916 370.64 155.09 368.386 153.326L390.568 124.972ZM275.885 462.826C272.352 462.859 268.818 462.793 265.286 462.628L266.967 426.667C269.826 426.801 272.688 426.854 275.548 426.828L275.885 462.826ZM406.502 138.946C409.023 141.421 411.476 143.966 413.857 146.58L387.24 170.82C385.313 168.704 383.327 166.643 381.286 164.639L406.502 138.946ZM297.033 461.44C293.524 461.869 290.004 462.199 286.479 462.43L284.124 426.507C286.978 426.32 289.828 426.053 292.669 425.705L297.033 461.44ZM317.895 457.695C314.452 458.514 310.992 459.236 307.516 459.86L301.155 424.427C303.968 423.922 306.77 423.337 309.557 422.674L317.895 457.695ZM420.772 154.616C422.999 157.355 425.152 160.16 427.227 163.027L398.063 184.133C396.384 181.813 394.641 179.542 392.838 177.325L420.772 154.616ZM433.199 171.786C435.103 174.755 436.928 177.783 438.67 180.866L407.326 198.574C405.916 196.078 404.439 193.627 402.897 191.223L433.199 171.786ZM338.205 451.637C334.874 452.838 331.516 453.943 328.135 454.951L317.845 420.453C320.582 419.637 323.3 418.742 325.997 417.77L338.205 451.637ZM443.624 190.24C444.404 191.823 445.164 193.418 445.902 195.027C446.639 196.635 447.354 198.252 448.044 199.876L414.915 213.964C414.356 212.649 413.778 211.34 413.18 210.038C412.583 208.735 411.968 207.443 411.336 206.162L443.624 190.24ZM352.923 445.62C351.315 446.358 349.698 447.072 348.074 447.763L333.986 414.634C335.301 414.075 336.61 413.497 337.912 412.899C339.215 412.302 340.507 411.687 341.788 411.055L357.71 443.342C356.127 444.123 354.532 444.882 352.923 445.62ZM451.918 209.745C453.119 213.076 454.224 216.434 455.232 219.815L420.734 230.105C419.918 227.368 419.024 224.65 418.051 221.953L451.918 209.745ZM376.164 432.917C373.195 434.822 370.167 436.647 367.084 438.389L349.377 407.045C351.873 405.634 354.323 404.157 356.727 402.616L376.164 432.917ZM393.334 420.491C390.595 422.718 387.79 424.87 384.923 426.945L363.817 397.782C366.137 396.102 368.408 394.36 370.625 392.557L393.334 420.491ZM457.976 230.055C458.796 233.498 459.518 236.958 460.141 240.434L424.708 246.795C424.203 243.982 423.619 241.18 422.955 238.394L457.976 230.055ZM409.004 406.221C406.53 408.742 403.984 411.195 401.37 413.575L377.13 386.959C379.246 385.031 381.307 383.046 383.311 381.004L409.004 406.221ZM461.721 250.917C462.15 254.426 462.48 257.946 462.711 261.471L426.788 263.826C426.601 260.972 426.334 258.122 425.987 255.281L461.721 250.917ZM422.978 390.286C420.8 393.071 418.544 395.793 416.215 398.449L389.148 374.713C391.034 372.562 392.86 370.359 394.624 368.104L422.978 390.286ZM463.107 272.065C463.141 275.598 463.075 279.132 462.91 282.664L426.949 280.983C427.082 278.124 427.136 275.262 427.109 272.402L463.107 272.065ZM435.081 372.887C433.227 375.9 431.29 378.858 429.274 381.756L399.72 361.199C401.352 358.853 402.92 356.459 404.421 354.019L435.081 372.887ZM462.118 293.236C461.755 296.748 461.294 300.253 460.734 303.747L425.188 298.05C425.641 295.222 426.014 292.384 426.308 289.541L462.118 293.236ZM458.763 314.164C458.011 317.61 457.16 321.042 456.211 324.454L421.527 314.811C422.295 312.049 422.983 309.271 423.593 306.482L458.763 314.164ZM445.159 354.241C443.653 357.446 442.059 360.602 440.382 363.706L408.712 346.588C410.07 344.076 411.36 341.521 412.579 338.927L445.159 354.241ZM451.312 339.58C450.696 341.239 450.058 342.887 449.398 344.524L416.011 331.06C416.545 329.735 417.062 328.4 417.56 327.057C418.059 325.714 418.538 324.365 418.997 323.012L453.086 334.584C452.519 336.256 451.928 337.921 451.312 339.58Z" fill="#4AB552"/>
<path fill-rule="evenodd" clip-rule="evenodd" d="M354.523 102.791C357.728 104.297 360.884 105.891 363.987 107.568L346.869 139.238C344.357 137.88 341.803 136.591 339.208 135.371L354.523 102.791ZM233.786 458.482C230.34 457.729 226.909 456.879 223.496 455.93L233.139 421.246C235.901 422.013 238.679 422.702 241.469 423.311L233.786 458.482ZM373.168 112.869C376.182 114.723 379.139 116.66 382.038 118.676L361.481 148.23C359.134 146.598 356.74 145.03 354.301 143.529L373.168 112.869ZM254.714 461.836C251.202 461.474 247.697 461.013 244.203 460.453L249.9 424.907C252.728 425.36 255.566 425.733 258.409 426.026L254.714 461.836ZM390.568 124.972C393.352 127.15 396.074 129.406 398.731 131.735L374.994 158.802C372.844 156.916 370.64 155.09 368.386 153.326L390.568 124.972ZM275.885 462.826C272.352 462.859 268.818 462.793 265.286 462.628L266.967 426.667C269.826 426.801 272.688 426.854 275.548 426.828L275.885 462.826ZM406.502 138.946C409.023 141.421 411.476 143.966 413.857 146.58L387.24 170.82C385.313 168.704 383.327 166.643 381.286 164.639L406.502 138.946ZM297.033 461.44C293.524 461.869 290.004 462.199 286.479 462.43L284.124 426.507C286.978 426.32 289.828 426.053 292.669 425.705L297.033 461.44ZM317.895 457.695C314.452 458.514 310.992 459.236 307.516 459.86L301.155 424.427C303.968 423.922 306.77 423.337 309.557 422.674L317.895 457.695ZM420.772 154.616C422.999 157.355 425.152 160.16 427.227 163.027L398.063 184.133C396.384 181.813 394.641 179.542 392.838 177.325L420.772 154.616ZM433.199 171.786C435.103 174.755 436.928 177.783 438.67 180.866L407.326 198.574C405.916 196.078 404.439 193.627 402.897 191.223L433.199 171.786ZM338.205 451.637C334.874 452.838 331.516 453.943 328.135 454.951L317.845 420.453C320.582 419.637 323.3 418.742 325.997 417.77L338.205 451.637ZM443.624 190.24C444.404 191.823 445.164 193.418 445.902 195.027C446.639 196.635 447.354 198.252 448.044 199.876L414.915 213.964C414.356 212.649 413.778 211.34 413.18 210.038C412.583 208.735 411.968 207.443 411.336 206.162L443.624 190.24ZM352.923 445.62C351.315 446.358 349.698 447.072 348.074 447.763L333.986 414.634C335.301 414.075 336.61 413.497 337.912 412.899C339.215 412.302 340.507 411.687 341.788 411.055L357.71 443.342C356.127 444.123 354.532 444.882 352.923 445.62ZM451.918 209.745C453.119 213.076 454.224 216.434 455.232 219.815L420.734 230.105C419.918 227.368 419.024 224.65 418.051 221.953L451.918 209.745ZM376.164 432.917C373.195 434.822 370.167 436.647 367.084 438.389L349.377 407.045C351.873 405.634 354.323 404.157 356.727 402.616L376.164 432.917ZM393.334 420.491C390.595 422.718 387.79 424.87 384.923 426.945L363.817 397.782C366.137 396.102 368.408 394.36 370.625 392.557L393.334 420.491ZM457.976 230.055C458.796 233.498 459.518 236.958 460.141 240.434L424.708 246.795C424.203 243.982 423.619 241.18 422.955 238.394L457.976 230.055ZM409.004 406.221C406.53 408.742 403.984 411.195 401.37 413.575L377.13 386.959C379.246 385.031 381.307 383.046 383.311 381.004L409.004 406.221ZM461.721 250.917C462.15 254.426 462.48 257.946 462.711 261.471L426.788 263.826C426.601 260.972 426.334 258.122 425.987 255.281L461.721 250.917ZM422.978 390.286C420.8 393.071 418.544 395.793 416.215 398.449L389.148 374.713C391.034 372.562 392.86 370.359 394.624 368.104L422.978 390.286ZM463.107 272.065C463.141 275.598 463.075 279.132 462.91 282.664L426.949 280.983C427.082 278.124 427.136 275.262 427.109 272.402L463.107 272.065ZM435.081 372.887C433.227 375.9 431.29 378.858 429.274 381.756L399.72 361.199C401.352 358.853 402.92 356.459 404.421 354.019L435.081 372.887ZM462.118 293.236C461.755 296.748 461.294 300.253 460.734 303.747L425.188 298.05C425.641 295.222 426.014 292.384 426.308 289.541L462.118 293.236ZM458.763 314.164C458.011 317.61 457.16 321.042 456.211 324.454L421.527 314.811C422.295 312.049 422.983 309.271 423.593 306.482L458.763 314.164ZM445.159 354.241C443.653 357.446 442.059 360.602 440.382 363.706L408.712 346.588C410.07 344.076 411.36 341.521 412.579 338.927L445.159 354.241ZM451.312 339.58C450.696 341.239 450.058 342.887 449.398 344.524L416.011 331.06C416.545 329.735 417.062 328.4 417.56 327.057C418.059 325.714 418.538 324.365 418.997 323.012L453.086 334.584C452.519 336.256 451.928 337.921 451.312 339.58Z" fill="#4AB552"/>
<path fill-rule="evenodd" clip-rule="evenodd" d="M354.523 102.791C357.728 104.297 360.884 105.891 363.987 107.568L346.869 139.238C344.357 137.88 341.803 136.591 339.208 135.371L354.523 102.791ZM233.786 458.482C230.34 457.729 226.909 456.879 223.496 455.93L233.139 421.246C235.901 422.013 238.679 422.702 241.469 423.311L233.786 458.482ZM373.168 112.869C376.182 114.723 379.139 116.66 382.038 118.676L361.481 148.23C359.134 146.598 356.74 145.03 354.301 143.529L373.168 112.869ZM254.714 461.836C251.202 461.474 247.697 461.013 244.203 460.453L249.9 424.907C252.728 425.36 255.566 425.733 258.409 426.026L254.714 461.836ZM390.568 124.972C393.352 127.15 396.074 129.406 398.731 131.735L374.994 158.802C372.844 156.916 370.64 155.09 368.386 153.326L390.568 124.972ZM275.885 462.826C272.352 462.859 268.818 462.793 265.286 462.628L266.967 426.667C269.826 426.801 272.688 426.854 275.548 426.828L275.885 462.826ZM406.502 138.946C409.023 141.421 411.476 143.966 413.857 146.58L387.24 170.82C385.313 168.704 383.327 166.643 381.286 164.639L406.502 138.946ZM297.033 461.44C293.524 461.869 290.004 462.199 286.479 462.43L284.124 426.507C286.978 426.32 289.828 426.053 292.669 425.705L297.033 461.44ZM317.895 457.695C314.452 458.514 310.992 459.236 307.516 459.86L301.155 424.427C303.968 423.922 306.77 423.337 309.557 422.674L317.895 457.695ZM420.772 154.616C422.999 157.355 425.152 160.16 427.227 163.027L398.063 184.133C396.384 181.813 394.641 179.542 392.838 177.325L420.772 154.616ZM433.199 171.786C435.103 174.755 436.928 177.783 438.67 180.866L407.326 198.574C405.916 196.078 404.439 193.627 402.897 191.223L433.199 171.786ZM338.205 451.637C334.874 452.838 331.516 453.943 328.135 454.951L317.845 420.453C320.582 419.637 323.3 418.742 325.997 417.77L338.205 451.637ZM443.624 190.24C444.404 191.823 445.164 193.418 445.902 195.027C446.639 196.635 447.354 198.252 448.044 199.876L414.915 213.964C414.356 212.649 413.778 211.34 413.18 210.038C412.583 208.735 411.968 207.443 411.336 206.162L443.624 190.24ZM352.923 445.62C351.315 446.358 349.698 447.072 348.074 447.763L333.986 414.634C335.301 414.075 336.61 413.497 337.912 412.899C339.215 412.302 340.507 411.687 341.788 411.055L357.71 443.342C356.127 444.123 354.532 444.882 352.923 445.62ZM451.918 209.745C453.119 213.076 454.224 216.434 455.232 219.815L420.734 230.105C419.918 227.368 419.024 224.65 418.051 221.953L451.918 209.745ZM376.164 432.917C373.195 434.822 370.167 436.647 367.084 438.389L349.377 407.045C351.873 405.634 354.323 404.157 356.727 402.616L376.164 432.917ZM393.334 420.491C390.595 422.718 387.79 424.87 384.923 426.945L363.817 397.782C366.137 396.102 368.408 394.36 370.625 392.557L393.334 420.491ZM457.976 230.055C458.796 233.498 459.518 236.958 460.141 240.434L424.708 246.795C424.203 243.982 423.619 241.18 422.955 238.394L457.976 230.055ZM409.004 406.221C406.53 408.742 403.984 411.195 401.37 413.575L377.13 386.959C379.246 385.031 381.307 383.046 383.311 381.004L409.004 406.221ZM461.721 250.917C462.15 254.426 462.48 257.946 462.711 261.471L426.788 263.826C426.601 260.972 426.334 258.122 425.987 255.281L461.721 250.917ZM422.978 390.286C420.8 393.071 418.544 395.793 416.215 398.449L389.148 374.713C391.034 372.562 392.86 370.359 394.624 368.104L422.978 390.286ZM463.107 272.065C463.141 275.598 463.075 279.132 462.91 282.664L426.949 280.983C427.082 278.124 427.136 275.262 427.109 272.402L463.107 272.065ZM435.081 372.887C433.227 375.9 431.29 378.858 429.274 381.756L399.72 361.199C401.352 358.853 402.92 356.459 404.421 354.019L435.081 372.887ZM462.118 293.236C461.755 296.748 461.294 300.253 460.734 303.747L425.188 298.05C425.641 295.222 426.014 292.384 426.308 289.541L462.118 293.236ZM458.763 314.164C458.011 317.61 457.16 321.042 456.211 324.454L421.527 314.811C422.295 312.049 422.983 309.271 423.593 306.482L458.763 314.164ZM445.159 354.241C443.653 357.446 442.059 360.602 440.382 363.706L408.712 346.588C410.07 344.076 411.36 341.521 412.579 338.927L445.159 354.241ZM451.312 339.58C450.696 341.239 450.058 342.887 449.398 344.524L416.011 331.06C416.545 329.735 417.062 328.4 417.56 327.057C418.059 325.714 418.538 324.365 418.997 323.012L453.086 334.584C452.519 336.256 451.928 337.921 451.312 339.58Z" fill="#4AB552"/>
<path fill-rule="evenodd" clip-rule="evenodd" d="M126.653 314.624C127.541 317.833 128.532 321.009 129.625 324.147L95.6268 335.986C94.277 332.11 93.0523 328.186 91.9557 324.222L126.653 314.624ZM133.211 333.457C134.507 336.521 135.903 339.541 137.396 342.513L105.227 358.673C103.382 355.001 101.658 351.27 100.057 347.486L133.211 333.457ZM142.162 351.277C143.844 354.143 145.621 356.956 147.49 359.712L117.696 379.919C115.387 376.514 113.192 373.039 111.115 369.499L142.162 351.277ZM153.356 367.782C154.376 369.093 155.418 370.389 156.483 371.669C157.548 372.949 158.632 374.21 159.735 375.452L132.822 399.362C131.459 397.828 130.12 396.27 128.805 394.689C127.49 393.108 126.202 391.507 124.942 389.887L153.356 367.782ZM166.601 382.691C168.97 385.03 171.412 387.29 173.924 389.466L150.349 416.673C147.247 413.985 144.23 411.194 141.303 408.304L166.601 382.691ZM181.672 395.75C184.323 397.759 187.038 399.682 189.814 401.515L169.979 431.557C166.55 429.293 163.195 426.918 159.921 424.436L181.672 395.75ZM198.315 406.738C201.201 408.384 204.143 409.937 207.137 411.395L191.377 443.762C187.679 441.962 184.045 440.042 180.479 438.009L198.315 406.738Z" fill="#FEF572"/>
<path fill-rule="evenodd" clip-rule="evenodd" d="M132.439 216.07C131.812 217.608 131.209 219.158 130.631 220.719C130.053 222.281 129.501 223.85 128.976 225.426L94.8253 214.035C95.4747 212.088 96.1563 210.15 96.8702 208.222C97.5841 206.293 98.3287 204.378 99.1036 202.478L132.439 216.07ZM141.156 198.133C139.512 201.021 137.96 203.964 136.505 206.959L104.126 191.224C105.924 187.524 107.84 183.888 109.871 180.321L141.156 198.133ZM126.129 234.987C125.284 238.208 124.545 241.452 123.912 244.714L88.5704 237.863C89.3517 233.833 90.2648 229.825 91.3092 225.847L126.129 234.987ZM152.131 181.483C150.124 184.135 148.203 186.852 146.372 189.629L116.315 169.816C118.576 166.385 120.949 163.029 123.429 159.753L152.131 181.483ZM122.334 254.565C121.915 257.865 121.604 261.178 121.401 264.498L85.4679 262.301C85.7187 258.2 86.1031 254.107 86.6206 250.031L122.334 254.565ZM165.179 166.402C162.841 168.773 160.583 171.217 158.409 173.729L131.184 150.175C133.87 147.071 136.659 144.052 139.547 141.123L165.179 166.402ZM121.117 274.47C121.131 277.793 121.253 281.118 121.484 284.44L85.5701 286.935C85.285 282.832 85.1343 278.724 85.1172 274.62L121.117 274.47Z" fill="#BA68A6"/>
<path fill-rule="evenodd" clip-rule="evenodd" d="M196.983 141.698C194.113 143.373 191.296 145.143 188.536 147.005L168.4 117.164C171.809 114.863 175.29 112.676 178.835 110.607L196.983 141.698ZM214.825 132.788C211.758 134.077 208.734 135.466 205.758 136.952L189.675 104.745C193.351 102.909 197.086 101.193 200.874 99.6011L214.825 132.788ZM233.673 126.275C230.462 127.155 227.283 128.139 224.143 129.224L212.384 95.1983C216.264 93.8577 220.19 92.6423 224.157 91.555L233.673 126.275ZM248.278 123.03C246.637 123.311 245.003 123.619 243.375 123.953L236.143 88.6868C238.153 88.2745 240.172 87.8946 242.199 87.5473C244.226 87.2 246.257 86.8862 248.29 86.6058L253.209 122.268C251.563 122.495 249.919 122.749 248.278 123.03ZM273.099 120.836C269.777 120.858 266.452 120.989 263.131 121.228L260.546 85.3207C264.649 85.0254 268.756 84.8645 272.861 84.8372L273.099 120.836ZM293.008 122.004C289.707 121.593 286.393 121.29 283.073 121.096L285.18 85.1573C289.282 85.3979 293.375 85.7722 297.453 86.2796L293.008 122.004ZM312.595 125.751C309.372 124.914 306.126 124.182 302.862 123.558L309.626 88.1992C313.658 88.9705 317.668 89.8736 321.649 90.9082L312.595 125.751Z" fill="white"/>
</g>
<defs>
<clipPath id="clip0">
<rect width="548" height="548" fill="white"/>
</clipPath>
</defs>
</svg>
