<svg width="266" height="268" viewBox="0 0 266 268" fill="none" xmlns="http://www.w3.org/2000/svg">
<mask id="path-1-inside-1" fill="white">
<path d="M266 134C266 169.142 252.298 202.878 227.846 227.939C203.394 252.999 170.149 267.379 135.275 267.98C100.4 268.581 66.6866 255.355 41.3982 231.152C16.1099 206.948 1.27071 173.704 0.0778054 138.583C-1.1151 103.461 11.4338 69.2732 35.0207 43.3846C58.6077 17.4959 91.3448 1.97872 126.179 0.176357C161.013 -1.62601 195.155 10.4307 221.25 33.7487C247.345 57.0668 263.304 89.7798 265.689 124.84L254.22 125.631C252.042 93.602 237.462 63.7165 213.622 42.4139C189.783 21.1113 158.591 10.0968 126.768 11.7434C94.9452 13.3899 65.0378 27.5659 43.4895 51.2169C21.9413 74.8679 10.4771 106.101 11.5669 138.187C12.6567 170.273 26.2133 200.643 49.3158 222.754C72.4184 244.866 103.218 256.949 135.078 256.4C166.938 255.851 197.31 242.714 219.648 219.819C241.986 196.924 254.504 166.105 254.504 134H266Z"/>
</mask>
<path d="M266 134C266 169.142 252.298 202.878 227.846 227.939C203.394 252.999 170.149 267.379 135.275 267.98C100.4 268.581 66.6866 255.355 41.3982 231.152C16.1099 206.948 1.27071 173.704 0.0778054 138.583C-1.1151 103.461 11.4338 69.2732 35.0207 43.3846C58.6077 17.4959 91.3448 1.97872 126.179 0.176357C161.013 -1.62601 195.155 10.4307 221.25 33.7487C247.345 57.0668 263.304 89.7798 265.689 124.84L254.22 125.631C252.042 93.602 237.462 63.7165 213.622 42.4139C189.783 21.1113 158.591 10.0968 126.768 11.7434C94.9452 13.3899 65.0378 27.5659 43.4895 51.2169C21.9413 74.8679 10.4771 106.101 11.5669 138.187C12.6567 170.273 26.2133 200.643 49.3158 222.754C72.4184 244.866 103.218 256.949 135.078 256.4C166.938 255.851 197.31 242.714 219.648 219.819C241.986 196.924 254.504 166.105 254.504 134H266Z" stroke="#0DEEF0" stroke-width="4" stroke-dasharray="8 5" mask="url(#path-1-inside-1)"/>
</svg>
