<svg xmlns="http://www.w3.org/2000/svg" viewBox="0 0 582 582.18"><defs><style>.cls-1,.cls-7,.cls-9{fill:none;}.cls-2{fill:#4ab552;}.cls-2,.cls-4,.cls-5,.cls-6{fill-rule:evenodd;}.cls-3,.cls-6{fill:#fef572;}.cls-4{fill:#fff;}.cls-5{fill:#ba68a6;}.cls-7{stroke:#0deef0;}.cls-7,.cls-9{stroke-width:2px;}.cls-8{fill:#6592d6;}.cls-9{stroke:#6592d6;}</style></defs><title>Ресурс 1</title><g id="Шар_2" data-name="Шар 2"><g id="Шар_1-2" data-name="Шар 1"><rect id="canvas_background" data-name="canvas background" class="cls-1" width="582" height="405.2"/><rect id="svg_1" data-name="svg 1" class="cls-1" x="117.6" y="187.78" width="275" height="248.97"/><path id="svg_2" data-name="svg 2" class="cls-2" d="M179.6,158.45c-2.2,1.21-4.3,2.52-6.5,3.83L158.5,138.9c2.5-1.61,5-3.13,7.6-4.54Zm11.7-6c-1.1.51-2.3,1.11-3.4,1.62l-12-24.8c1.3-.6,2.6-1.31,4-1.91s2.7-1.21,4-1.82l10.9,25.4C193.6,151.4,192.4,151.9,191.3,152.4Zm-26,15.22c-2,1.52-4.1,3-6,4.54l-16.9-21.77c2.3-1.82,4.7-3.63,7.1-5.34l15.8,22.57ZM210.6,145c-2.4.8-4.8,1.61-7.1,2.41l-9.4-26c2.8-1,5.5-2,8.3-2.82L210.6,145ZM152,178.21c-1.9,1.71-3.7,3.43-5.5,5.14l-19.1-19.86c2.1-2,4.3-4,6.5-6.05L152,178.21Zm75-37.5c-2.5.51-4.9,1.11-7.3,1.72l-6.6-26.82c2.8-.7,5.7-1.41,8.6-1.91ZM139.9,190.1l-2.5,2.82c-.8.91-1.6,1.92-2.5,2.93l-21.1-17.74c.9-1.11,1.9-2.22,2.9-3.33s2-2.22,2.9-3.32l20.3,18.64Zm103.8-51.91c-2.5.2-5,.51-7.5.91l-3.8-27.42c2.9-.4,5.8-.8,8.7-1ZM129.1,203.31c-1.5,2-2.9,4.13-4.4,6.15L102,194q2.4-3.63,5.1-7.25Zm127.7-65.82c-1.3,0-2.5,0-3.8.1L252.1,110c1.5-.1,2.9-.1,4.4-.1h4.4l-.3,27.72C259.4,137.49,258.1,137.49,256.8,137.49Zm-137.1,80c-1.3,2.22-2.5,4.33-3.7,6.65l-24.3-12.9c1.4-2.62,2.8-5.14,4.3-7.76Zm157.8-79c-2.5-.3-5-.5-7.5-.7l1.9-27.62c2.9.2,5.9.5,8.8.81l-3.2,27.51Zm-165.6,94-3,7L83.4,229.21c1.1-2.72,2.3-5.44,3.5-8.16l25,11.49Zm-6.3,15.92-1.2,3.63c-.4,1.21-.7,2.42-1.1,3.63l-26.4-7.56c.4-1.41.8-2.82,1.3-4.23s.9-2.82,1.4-4.24l26,8.77ZM101,264.79c-.6,2.42-1,4.94-1.5,7.46l-27.1-4.74c.5-2.92,1.1-5.84,1.7-8.66l26.9,5.94Zm-2.8,16.84c-.3,2.52-.5,5-.7,7.56L70,287.37c.2-2.92.5-5.84.8-8.87l27.4,3.13Zm-1.1,17c0,2.52,0,5,.1,7.56l-27.5,1c-.1-2.92-.1-6-.1-8.87Zm.7,17c.1,1.2.2,2.52.4,3.72s.3,2.52.5,3.73l-27.2,3.94c-.2-1.52-.4-2.93-.6-4.44s-.3-2.92-.5-4.43l27.4-2.52Zm2.4,16.93c.5,2.52,1,4.94,1.6,7.36l-26.7,6.75c-.7-2.82-1.3-5.74-1.9-8.67Zm4.2,16.53c.7,2.42,1.5,4.84,2.4,7.16l-25.9,9.47c-1-2.82-1.9-5.54-2.8-8.36Zm5.8,15.93c1,2.31,2,4.63,3.1,6.85L88.5,384c-1.3-2.63-2.5-5.35-3.7-8.07Zm7.5,15.32c.6,1.11,1.2,2.21,1.9,3.32a35,35,0,0,0,2,3.23L98.2,401.57c-.8-1.21-1.5-2.52-2.3-3.83s-1.5-2.52-2.2-3.83l24-13.5Zm9,14.41c1.4,2,2.9,4.13,4.5,6.05l-21.7,17c-1.8-2.32-3.5-4.73-5.2-7.15Zm10.5,13.41c1.7,1.91,3.4,3.73,5.1,5.54L122.4,433c-2-2.11-4-4.33-6-6.55ZM149,420.42c1.8,1.72,3.7,3.43,5.6,5l-17.8,21.17c-2.2-1.92-4.4-3.83-6.6-5.85Zm13,10.89c1,.81,2,1.51,3,2.22s2.1,1.41,3.1,2.11l-15.4,23c-1.2-.8-2.4-1.71-3.6-2.52s-2.4-1.71-3.6-2.62Zm14.1,9.47c2.2,1.31,4.3,2.52,6.5,3.73l-13,24.4c-2.6-1.42-5.1-2.83-7.7-4.34l14.2-23.79Zm14.9,8c2.3,1.11,4.6,2,6.9,3l-10.4,25.6c-2.7-1.11-5.4-2.32-8.1-3.52Zm15.8,6.35c2.4.8,4.8,1.61,7.2,2.32L206.3,484c-2.8-.81-5.6-1.72-8.4-2.63l8.9-26.3Z"/><path id="svg_3" data-name="svg 3" class="cls-3" d="M330.7,123.17l-8-3.32-9.4,25.5,7.4,2.92Z"/><path id="svg_4" data-name="svg 4" class="cls-3" d="M312.8,116.62,304.6,114l-7.2,26.31,7.6,2.22,7.8-25.91Z"/><path id="svg_5" data-name="svg 5" class="cls-4" d="M241.9,490.78c-2.5-.2-5.1-.51-7.6-.91l3.8-27.41c2.2.3,4.3.5,6.5.7Zm17.2.81c-2.6,0-5.1-.11-7.7-.21l1.3-27.61c2.2.1,4.4.1,6.6.1Zm160-88c-1.4,2.22-2.8,4.33-4.3,6.45l-22.5-15.72a65.69,65.69,0,0,0,3.6-5.55l23.2,14.82ZM276.4,490.78c-2.5.2-5.1.4-7.7.5l-1.3-27.62c2.2-.1,4.4-.3,6.5-.4Zm132.7-73-4.8,6.05-21-17.74c1.4-1.71,2.8-3.43,4.1-5.14l21.7,16.83ZM293.5,488.46c-2.5.5-5,.91-7.6,1.21l-3.8-27.42c2.2-.3,4.3-.7,6.5-1Zm104.4-57.35c-1.7,1.91-3.5,3.73-5.4,5.54L373.2,417c1.6-1.52,3.1-3.13,4.6-4.74l20.1,18.85Zm-87.6,53.52c-2.5.71-4.9,1.31-7.4,1.92l-6.2-26.92c2.1-.5,4.2-1,6.4-1.61l7.2,26.61Zm75.2-41.43c-1.9,1.72-3.9,3.43-5.8,5l-17.4-21.37c1.7-1.41,3.4-2.82,5-4.33l18.2,20.66Zm-58.7,36c-2.4.9-4.8,1.81-7.2,2.62L311,455.6c2.1-.7,4.1-1.41,6.2-2.22Zm45.3-25c-2.1,1.51-4.1,3-6.3,4.43l-15.4-22.88c1.8-1.21,3.6-2.52,5.4-3.83ZM339.2,474c-1.2.5-2.3,1.1-3.5,1.61l-11-25.3c1-.4,2-.91,3-1.31s2-.91,3-1.41l12,24.79a37.37,37.37,0,0,0-3.5,1.62Zm18.6-10.08c-2.2,1.31-4.4,2.62-6.6,3.83L338,443.51l5.7-3.33Z"/><path id="svg_6" data-name="svg 6" class="cls-5" d="M437.9,235.76c.9,2.52,1.7,4.94,2.5,7.46l-26.2,8.07-2.1-6.35,25.8-9.18ZM443,252.6c.6,2.52,1.2,5,1.8,7.66l-26.9,5.54c-.5-2.22-1-4.33-1.5-6.55L443,252.6Zm3.5,17.33c.4,2.62.8,5.14,1.1,7.76l-27.3,3-.9-6.65,27.1-4.14Zm2,17.54c.2,2.62.3,5.24.4,7.86l-27.5.51-.3-6.65,27.4-1.72Zm.4,17.64c0,1.31-.1,2.62-.1,3.93s-.1,2.62-.2,3.93l-27.4-2c.1-1.11.1-2.22.2-3.33s.1-2.22.1-3.32Zm-1.2,17.54c-.3,2.62-.6,5.14-1.1,7.76l-27.1-4.53.9-6.66,27.3,3.43ZM444.9,340c-.5,2.52-1.1,5-1.8,7.66l-26.6-7.06c.5-2.11,1-4.33,1.5-6.55Zm-4.4,17c-.8,2.52-1.6,4.94-2.4,7.46L412.2,355l2.1-6.35L440.5,357Zm-5.9,16.53c-1,2.42-2,4.74-3.1,7.16l-24.9-11.89c.9-2,1.8-4,2.6-6.15Z"/><path id="svg_7" data-name="svg 7" class="cls-6" d="M335.9,156l-6.6-3.32,11.6-25.1c2.6,1.21,5.2,2.52,7.8,3.83L335.9,156Zm14.4,8.47c-2.1-1.41-4.1-2.72-6.3-3.93l14.1-23.79c2.5,1.51,4.9,3,7.3,4.64Zm13.4,10c-1.9-1.61-3.9-3.13-5.8-4.64l16.4-22.17c2.3,1.71,4.6,3.52,6.8,5.34Zm9.6,8.67c-.9-.91-1.8-1.72-2.7-2.52l18.6-20.36c1.1,1,2.1,2,3.1,3s2.1,2,3.1,3L376,185.77C375.1,184.86,374.2,184,373.3,183.15Zm13.8,15.12c-1.5-1.92-3.1-3.83-4.8-5.65l20.6-18.34c1.9,2.21,3.8,4.43,5.6,6.65l-21.4,17.34Zm9.8,13.5c-1.3-2.11-2.7-4.13-4.2-6.14L415,189.5c1.7,2.32,3.3,4.74,4.9,7.15l-23,15.12Zm8.3,14.52c-1.1-2.22-2.3-4.44-3.5-6.55l23.8-13.81c1.4,2.52,2.8,5,4.1,7.66l-24.4,12.7Z"/><path id="svg_8" data-name="svg 8" class="cls-7" d="M404,300.37C404,380.81,339.5,446,260,446S116,380.81,116,300.37s64.5-145.65,144-145.65S404,219.94,404,300.37Z"/><ellipse id="svg_9" data-name="svg 9" class="cls-8" cx="287.51" cy="158.03" rx="4.64" ry="4.4" transform="translate(82.33 414.03) rotate(-80.08)"/><line id="svg_10" data-name="svg 10" class="cls-9" x1="319" y1="1.71" x2="287.3" y2="159.16"/><ellipse id="svg_11" data-name="svg 11" class="cls-8" cx="392.59" cy="247.33" rx="4.61" ry="4.43" transform="translate(-67.19 184.87) rotate(-24.47)"/><line id="svg_12" data-name="svg 12" class="cls-9" x1="542.3" y1="182.74" x2="391.5" y2="247.66"/><ellipse id="svg_13" data-name="svg 13" class="cls-8" cx="385.67" cy="374.06" rx="4.43" ry="4.61" transform="translate(-141.88 475.8) rotate(-55.04)"/><line id="svg_14" data-name="svg 14" class="cls-9" x1="482.6" y1="422.14" x2="384.7" y2="373.45"/><ellipse id="svg_15" data-name="svg 15" class="cls-8" cx="232.06" cy="444.2" rx="4.64" ry="4.4" transform="translate(-245.47 596.3) rotate(-80.08)"/><line id="svg_16" data-name="svg 16" class="cls-9" x1="207" y1="582" x2="232.3" y2="443.1"/></g></g></svg>