<svg width="51" height="36" viewBox="0 0 51 36" fill="none" xmlns="http://www.w3.org/2000/svg">
<rect x="10" y="0.599609" width="31.6667" height="5.06667" fill="white"/>
<rect x="10" y="30" width="31.6667" height="5.06667" fill="white"/>
<path d="M9.9 14.98V22H6.84V14.98C6.84 14.848 6.78 14.728 6.66 14.62C6.552 14.5 6.432 14.44 6.3 14.44H5.04C4.776 14.44 4.56 14.548 4.392 14.764C4.32 14.848 4.266 14.95 4.23 15.07V22H1.17V12.46H3.15L3.6 13.63H3.69C3.798 13.342 3.918 13.12 4.05 12.964C4.41 12.508 4.89 12.28 5.49 12.28H7.2C7.8 12.28 8.28 12.508 8.64 12.964C8.772 13.12 8.892 13.342 9 13.63H9.09C9.198 13.342 9.318 13.12 9.45 12.964C9.81 12.508 10.29 12.28 10.89 12.28H12.87C13.674 12.28 14.322 12.52 14.814 13C15.318 13.468 15.57 14.068 15.57 14.8V22H12.51V14.98C12.51 14.848 12.45 14.728 12.33 14.62C12.222 14.5 12.102 14.44 11.97 14.44H10.44C10.308 14.44 10.182 14.5 10.062 14.62C9.954 14.728 9.9 14.848 9.9 14.98ZM21.3244 19.84H26.0944V22H20.4244C19.6204 22 18.9664 21.766 18.4624 21.298C17.9704 20.818 17.7244 20.212 17.7244 19.48V14.8C17.7244 14.068 17.9704 13.468 18.4624 13C18.9664 12.52 19.6204 12.28 20.4244 12.28H23.8444C24.6484 12.28 25.2964 12.52 25.7884 13C26.2924 13.468 26.5444 14.068 26.5444 14.8V18.31H20.7844V19.3C20.7844 19.432 20.8384 19.558 20.9464 19.678C21.0664 19.786 21.1924 19.84 21.3244 19.84ZM20.7844 14.98V16.24H23.4844V14.98C23.4844 14.848 23.4244 14.728 23.3044 14.62C23.1964 14.5 23.0764 14.44 22.9444 14.44H21.3244C21.1924 14.44 21.0664 14.5 20.9464 14.62C20.8384 14.728 20.7844 14.848 20.7844 14.98ZM33.0173 12.28H35.0873C35.8913 12.28 36.5393 12.52 37.0313 13C37.5353 13.468 37.7873 14.068 37.7873 14.8V22H34.7273V14.98C34.7273 14.848 34.6673 14.728 34.5473 14.62C34.4393 14.5 34.3193 14.44 34.1873 14.44H32.5673C32.3033 14.44 32.0873 14.548 31.9193 14.764C31.8473 14.848 31.7933 14.95 31.7573 15.07V22H28.6973V12.46H30.6773L31.1273 13.63H31.2173C31.3253 13.342 31.4453 13.12 31.5773 12.964C31.9373 12.508 32.4173 12.28 33.0173 12.28ZM44.8931 22.18H42.8231C42.0191 22.18 41.3651 21.946 40.8611 21.478C40.3691 20.998 40.1231 20.392 40.1231 19.66V12.46H43.1831V19.48C43.1831 19.612 43.2371 19.738 43.3451 19.858C43.4651 19.966 43.5911 20.02 43.7231 20.02H45.3431C45.6191 20.02 45.8351 19.918 45.9911 19.714C46.0631 19.63 46.1171 19.522 46.1531 19.39V12.46H49.2131V22H47.2331L46.7831 20.83H46.6931C46.5851 21.118 46.4651 21.346 46.3331 21.514C45.9851 21.958 45.5051 22.18 44.8931 22.18Z" fill="white"/>
</svg>
