<svg width="39" height="39" viewBox="0 0 39 39" fill="none" xmlns="http://www.w3.org/2000/svg">
<path d="M20.5 2.88675L33.3875 10.3274C34.0063 10.6846 34.3875 11.3449 34.3875 12.0594V26.9406C34.3875 27.6551 34.0063 28.3154 33.3875 28.6726L20.5 36.1133C19.8812 36.4705 19.1188 36.4705 18.5 36.1132L5.6125 28.6726C4.9937 28.3154 4.6125 27.6551 4.6125 26.9406V12.0594C4.6125 11.3449 4.9937 10.6846 5.6125 10.3274L18.5 2.88675C19.1188 2.52949 19.8812 2.52949 20.5 2.88675Z" stroke="#0AA9CC" stroke-width="4"/>
<path d="M27 15V25H12V15H15.5619V22.3857H17.7267V15H21.2886V22.3857H23.4381V15H27Z" fill="#0AA9CC"/>
</svg>
