<svg width="124" height="53" viewBox="0 0 124 53" fill="none" xmlns="http://www.w3.org/2000/svg">
<g filter="url(#filter0_d)">
<path d="M49.96 20.8H52.84V29.92H55.64V20.8H58.52V32H44.28V20.8H47.16V29.92H49.96V20.8ZM63.9569 32H61.0769V20.8H63.9569V25.36H65.3169L67.0769 20.8H69.9569V21.92L67.7169 26.32L70.1969 30.88V32H67.3169L65.3169 27.44H63.9569V32ZM75.1519 30.08H77.2319C77.3919 30.08 77.5252 30.0267 77.6319 29.92C77.7385 29.8133 77.7919 29.68 77.7919 29.52V23.28C77.7919 23.12 77.7385 22.9867 77.6319 22.88C77.5252 22.7733 77.3919 22.72 77.2319 22.72H75.1519C74.9919 22.72 74.8585 22.7733 74.7519 22.88C74.6452 22.9867 74.5919 23.12 74.5919 23.28V29.52C74.5919 29.68 74.6452 29.8133 74.7519 29.92C74.8585 30.0267 74.9919 30.08 75.1519 30.08ZM78.1119 32.16H74.2719C73.5145 32.16 72.8959 31.936 72.4159 31.488C71.9465 31.0293 71.7119 30.4533 71.7119 29.76V23.04C71.7119 22.3467 71.9465 21.776 72.4159 21.328C72.8959 20.8693 73.5145 20.64 74.2719 20.64H78.1119C78.8905 20.64 79.5092 20.8747 79.9679 21.344C80.4372 21.8133 80.6719 22.3787 80.6719 23.04V29.76C80.6719 30.4533 80.4319 31.0293 79.9519 31.488C79.4825 31.936 78.8692 32.16 78.1119 32.16ZM81.8788 30.08H82.5988C82.7588 30.08 82.8974 30.016 83.0148 29.888C83.1428 29.76 83.2174 29.6107 83.2388 29.44L84.0388 20.8H91.8788V32H88.9988V22.88H86.5988L86.0388 29.44C85.9641 30.3467 85.6548 31.0293 85.1108 31.488C84.5668 31.936 83.7294 32.16 82.5988 32.16H81.8788V30.08ZM100.916 32L100.356 29.6H96.9963L96.4363 32H93.5563V30.88L96.7563 20.8H100.596L103.796 30.88V32H100.916ZM99.7963 27.52L98.7563 23.36H98.5963L97.5563 27.52H99.7963Z" fill="white"/>
</g>
<path d="M18.5 9.88675C19.1188 9.52949 19.8812 9.52949 20.5 9.88675L33.3875 17.3274C34.0063 17.6846 34.3875 18.3449 34.3875 19.0594V33.9406C34.3875 34.6551 34.0063 35.3154 33.3875 35.6727L20.5 43.1132C19.8812 43.4705 19.1188 43.4705 18.5 43.1132L5.6125 35.6726C4.9937 35.3154 4.6125 34.6551 4.6125 33.9406V19.0594C4.6125 18.3449 4.9937 17.6846 5.6125 17.3274L18.5 9.88675Z" stroke="#0AA9CC" stroke-width="4"/>
<path d="M27 22V32H12V22H15.5619V29.3857H17.7267V22H21.2886V29.3857H23.4381V22H27Z" fill="#0AA9CC"/>
<defs>
<filter id="filter0_d" x="24.28" y="0.640015" width="99.5163" height="51.52" filterUnits="userSpaceOnUse" color-interpolation-filters="sRGB">
<feFlood flood-opacity="0" result="BackgroundImageFix"/>
<feColorMatrix in="SourceAlpha" type="matrix" values="0 0 0 0 0 0 0 0 0 0 0 0 0 0 0 0 0 0 127 0"/>
<feOffset/>
<feGaussianBlur stdDeviation="10"/>
<feColorMatrix type="matrix" values="0 0 0 0 0 0 0 0 0 0 0 0 0 0 0 0 0 0 0.3 0"/>
<feBlend mode="normal" in2="BackgroundImageFix" result="effect1_dropShadow"/>
<feBlend mode="normal" in="SourceGraphic" in2="effect1_dropShadow" result="shape"/>
</filter>
</defs>
</svg>
