<svg width="28" height="28" viewBox="0 0 28 28" fill="none" xmlns="http://www.w3.org/2000/svg">
<path d="M13.9994 0C6.26781 0 0 6.26828 0 13.9995C0 21.7308 6.26781 27.9996 13.9994 27.9996C21.7309 27.9996 27.9995 21.7312 27.9995 13.9995C27.9995 6.26791 21.7309 0 13.9994 0ZM12.4424 13.9995C12.4424 14.2919 12.3891 14.5699 12.2959 14.8303L16.2036 16.7102C16.6533 16.2179 17.2985 15.908 18.0176 15.908C19.3758 15.908 20.4772 17.0089 20.4772 18.3671C20.4772 19.7256 19.3756 20.827 18.017 20.827C16.6588 20.827 15.5569 19.7256 15.5569 18.3671C15.5569 18.2369 15.5704 18.1098 15.5898 17.9854L11.4302 15.9847C11.0236 16.2823 10.5239 16.4597 9.98168 16.4597C8.62323 16.4597 7.52182 15.3587 7.52182 13.9994C7.52182 12.6414 8.62323 11.5402 9.98168 11.5402C10.5239 11.5402 11.0237 11.7177 11.4305 12.0149L15.5904 10.0147C15.5708 9.89003 15.5574 9.76347 15.5574 9.633C15.5574 8.27427 16.659 7.17313 18.0176 7.17313C19.3758 7.17313 20.4774 8.27427 20.4774 9.633C20.4774 10.9914 19.3758 12.0929 18.0176 12.0929C17.2989 12.0929 16.6533 11.7822 16.2036 11.2904L12.2959 13.1695C12.3892 13.4296 12.4424 13.7082 12.4424 13.9995Z" fill="#0DFFFF" fill-opacity="0.9586"/>
</svg>
