<svg width="351" height="329" viewBox="0 0 351 329" fill="none" xmlns="http://www.w3.org/2000/svg">
<path d="M56.3595 56.253C116.322 -3.61216 213.801 -3.61216 273.763 56.253C333.726 116.118 333.726 213.438 273.763 273.303C213.801 333.168 116.322 333.168 56.3595 273.303C-3.52559 213.438 -3.52559 116.118 56.3595 56.253ZM260.792 260.353C313.609 207.622 313.609 121.856 260.792 69.1255C207.975 16.3946 122.07 16.3946 69.253 69.1255C16.4361 121.856 16.4361 207.622 69.253 260.353C122.07 313.084 208.053 313.084 260.792 260.353Z" fill="url(#paint0_linear)"/>
<path d="M314.541 96.189L296.366 103.246L303.434 121.391L321.609 114.335L314.541 96.189ZM114.536 8.48499L96.3606 15.5416L103.429 33.6873L121.604 26.6306L114.536 8.48499ZM319.357 221.813L301.492 213.981L293.647 231.816L311.512 239.648L319.357 221.813ZM329.299 155.046H309.803V174.51H329.299V155.046ZM240.054 18.5659L222.189 10.7338L214.344 28.5693L232.209 36.4014L240.054 18.5659ZM90.0692 310.99L107.934 318.822L115.779 300.987L97.914 293.155L90.0692 310.99ZM274.307 69.4358L288.055 55.7102L274.307 41.9071L260.559 55.6327L274.307 69.4358ZM174.809 0.807983H155.314V20.2719H174.809V0.807983ZM174.809 309.284H155.314V328.748H174.809V309.284ZM20.3198 155.046H0.824097V174.51H20.3198V155.046ZM26.6112 208.165L8.43595 215.221L15.5041 233.367L33.6793 226.31L26.6112 208.165ZM69.5638 273.846L55.8158 260.12L41.9902 273.846L55.7382 287.571L69.5638 273.846ZM226.694 295.946L208.519 303.003L215.587 321.148L233.762 314.092L226.694 295.946ZM55.8158 41.9071L41.9902 55.7102L55.7382 69.4358L69.4861 55.7102L55.8158 41.9071ZM274.307 260.12L260.559 273.846L274.307 287.571L288.055 273.846L274.307 260.12ZM36.3979 97.7399L18.5333 89.9078L10.6884 107.743L28.553 115.575L36.3979 97.7399Z" fill="url(#paint1_linear)"/>
<path d="M337.377 232.824L329.609 229.335L328.289 232.359L336.056 235.771L337.377 232.824Z" fill="url(#paint2_linear)"/>
<path d="M340.018 225.768L332.017 222.743L330.852 225.768L338.775 228.869L340.018 225.768Z" fill="url(#paint3_linear)"/>
<path d="M342.503 218.478L334.347 215.842L333.338 218.943L341.493 221.58L342.503 218.478Z" fill="url(#paint4_linear)"/>
<path d="M344.988 209.405L336.755 207.157L335.901 210.336L344.056 212.507L344.988 209.405Z" fill="url(#paint5_linear)"/>
<path d="M12.0865 60.9834L18.9993 65.8687L20.9411 63.2322L13.9507 58.3468L12.0865 60.9834Z" fill="url(#paint6_linear)"/>
<path d="M8.12524 67.3422L15.2711 71.9174L17.0575 69.1257L9.9117 64.5505L8.12524 67.3422Z" fill="url(#paint7_linear)"/>
<path d="M4.2417 74.0111L11.6982 78.1986L13.2516 75.3294L5.87281 71.2195L4.2417 74.0111Z" fill="url(#paint8_linear)"/>
<path d="M0.0473633 82.4635L7.65921 86.2632L9.13498 83.3165L1.52313 79.5167L0.0473633 82.4635Z" fill="url(#paint9_linear)"/>
<path d="M272.909 75.3293L264.598 82.3084L267.239 85.4878L275.55 78.5863L272.909 75.3293Z" fill="url(#paint10_linear)"/>
<path d="M266.384 68.4277L258.384 75.717L261.18 78.8188L269.181 71.5296L266.384 68.4277Z" fill="url(#paint11_linear)"/>
<path d="M259.394 61.4486L251.86 69.2032L254.811 72.1499L262.423 64.3953L259.394 61.4486Z" fill="url(#paint12_linear)"/>
<path d="M250.462 53.4614L243.238 61.6037L246.345 64.3178L253.569 56.2531L250.462 53.4614Z" fill="url(#paint13_linear)"/>
<path d="M350.426 161.715L342.27 162.49L342.503 165.592L350.736 164.894L350.426 161.715Z" fill="url(#paint14_linear)"/>
<path d="M346.93 133.411L338.852 134.962L339.474 138.064L347.552 136.513L346.93 133.411Z" fill="url(#paint15_linear)"/>
<path d="M344.833 124.571L336.833 126.509L337.532 129.533L345.532 127.595L344.833 124.571Z" fill="url(#paint16_linear)"/>
<path d="M343.202 116.816L335.202 118.755L335.901 121.779L343.901 119.84L343.202 116.816Z" fill="url(#paint17_linear)"/>
<defs>
<linearGradient id="paint0_linear" x1="273.754" y1="56.2746" x2="56.7277" y2="273.655" gradientUnits="userSpaceOnUse">
<stop offset="0.010637" stop-color="#0DFFFF" stop-opacity="0.2"/>
<stop offset="0.8545" stop-color="#0DFFFF" stop-opacity="0.847"/>
<stop offset="1" stop-color="#0DFFFF" stop-opacity="0.9586"/>
</linearGradient>
<linearGradient id="paint1_linear" x1="287.485" y1="287.01" x2="23.7632" y2="22.8583" gradientUnits="userSpaceOnUse">
<stop stop-color="#00FCFF"/>
<stop offset="0.1208" stop-color="#00FCF5" stop-opacity="0.8792"/>
<stop offset="0.7055" stop-color="#00FCC7" stop-opacity="0.2945"/>
<stop offset="1" stop-color="#00FCB6" stop-opacity="0"/>
</linearGradient>
<linearGradient id="paint2_linear" x1="336.212" y1="235.958" x2="328.905" y2="228.64" gradientUnits="userSpaceOnUse">
<stop stop-color="#00FCFF"/>
<stop offset="0.1208" stop-color="#00FCF5" stop-opacity="0.8792"/>
<stop offset="0.7055" stop-color="#00FCC7" stop-opacity="0.2945"/>
<stop offset="1" stop-color="#00FCB6" stop-opacity="0"/>
</linearGradient>
<linearGradient id="paint3_linear" x1="338.983" y1="229.054" x2="331.354" y2="222.07" gradientUnits="userSpaceOnUse">
<stop stop-color="#00FCFF"/>
<stop offset="0.1208" stop-color="#00FCF5" stop-opacity="0.8792"/>
<stop offset="0.7055" stop-color="#00FCC7" stop-opacity="0.2945"/>
<stop offset="1" stop-color="#00FCB6" stop-opacity="0"/>
</linearGradient>
<linearGradient id="paint4_linear" x1="341.643" y1="221.729" x2="333.632" y2="215.185" gradientUnits="userSpaceOnUse">
<stop stop-color="#00FCFF"/>
<stop offset="0.1208" stop-color="#00FCF5" stop-opacity="0.8792"/>
<stop offset="0.7055" stop-color="#00FCC7" stop-opacity="0.2945"/>
<stop offset="1" stop-color="#00FCB6" stop-opacity="0"/>
</linearGradient>
<linearGradient id="paint5_linear" x1="344.299" y1="212.702" x2="335.976" y2="206.558" gradientUnits="userSpaceOnUse">
<stop stop-color="#00FCFF"/>
<stop offset="0.1208" stop-color="#00FCF5" stop-opacity="0.8792"/>
<stop offset="0.7055" stop-color="#00FCC7" stop-opacity="0.2945"/>
<stop offset="1" stop-color="#00FCB6" stop-opacity="0"/>
</linearGradient>
<linearGradient id="paint6_linear" x1="13.8453" y1="58.0991" x2="19.5716" y2="66.7072" gradientUnits="userSpaceOnUse">
<stop stop-color="#00FCFF"/>
<stop offset="0.1208" stop-color="#00FCF5" stop-opacity="0.8792"/>
<stop offset="0.7055" stop-color="#00FCC7" stop-opacity="0.2945"/>
<stop offset="1" stop-color="#00FCB6" stop-opacity="0"/>
</linearGradient>
<linearGradient id="paint7_linear" x1="9.80547" y1="64.3665" x2="15.9126" y2="72.7098" gradientUnits="userSpaceOnUse">
<stop stop-color="#00FCFF"/>
<stop offset="0.1208" stop-color="#00FCF5" stop-opacity="0.8792"/>
<stop offset="0.7055" stop-color="#00FCC7" stop-opacity="0.2945"/>
<stop offset="1" stop-color="#00FCB6" stop-opacity="0"/>
</linearGradient>
<linearGradient id="paint8_linear" x1="5.68356" y1="70.9969" x2="12.2504" y2="78.9837" gradientUnits="userSpaceOnUse">
<stop stop-color="#00FCFF"/>
<stop offset="0.1208" stop-color="#00FCF5" stop-opacity="0.8792"/>
<stop offset="0.7055" stop-color="#00FCC7" stop-opacity="0.2945"/>
<stop offset="1" stop-color="#00FCB6" stop-opacity="0"/>
</linearGradient>
<linearGradient id="paint9_linear" x1="1.32171" y1="79.357" x2="8.273" y2="87.0129" gradientUnits="userSpaceOnUse">
<stop stop-color="#00FCFF"/>
<stop offset="0.1208" stop-color="#00FCF5" stop-opacity="0.8792"/>
<stop offset="0.7055" stop-color="#00FCC7" stop-opacity="0.2945"/>
<stop offset="1" stop-color="#00FCB6" stop-opacity="0"/>
</linearGradient>
<linearGradient id="paint10_linear" x1="275.811" y1="78.47" x2="263.335" y2="82.6763" gradientUnits="userSpaceOnUse">
<stop stop-color="#00FCFF"/>
<stop offset="0.1208" stop-color="#00FCF5" stop-opacity="0.8792"/>
<stop offset="0.7055" stop-color="#00FCC7" stop-opacity="0.2945"/>
<stop offset="1" stop-color="#00FCB6" stop-opacity="0"/>
</linearGradient>
<linearGradient id="paint11_linear" x1="269.493" y1="71.4288" x2="257.218" y2="76.1923" gradientUnits="userSpaceOnUse">
<stop stop-color="#00FCFF"/>
<stop offset="0.1208" stop-color="#00FCF5" stop-opacity="0.8792"/>
<stop offset="0.7055" stop-color="#00FCC7" stop-opacity="0.2945"/>
<stop offset="1" stop-color="#00FCB6" stop-opacity="0"/>
</linearGradient>
<linearGradient id="paint12_linear" x1="262.681" y1="64.2682" x2="250.696" y2="69.7153" gradientUnits="userSpaceOnUse">
<stop stop-color="#00FCFF"/>
<stop offset="0.1208" stop-color="#00FCF5" stop-opacity="0.8792"/>
<stop offset="0.7055" stop-color="#00FCC7" stop-opacity="0.2945"/>
<stop offset="1" stop-color="#00FCB6" stop-opacity="0"/>
</linearGradient>
<linearGradient id="paint13_linear" x1="253.843" y1="56.1371" x2="242.14" y2="62.1662" gradientUnits="userSpaceOnUse">
<stop stop-color="#00FCFF"/>
<stop offset="0.1208" stop-color="#00FCF5" stop-opacity="0.8792"/>
<stop offset="0.7055" stop-color="#00FCC7" stop-opacity="0.2945"/>
<stop offset="1" stop-color="#00FCB6" stop-opacity="0"/>
</linearGradient>
<linearGradient id="paint14_linear" x1="350.95" y1="164.98" x2="341.357" y2="162.172" gradientUnits="userSpaceOnUse">
<stop stop-color="#00FCFF"/>
<stop offset="0.1208" stop-color="#00FCF5" stop-opacity="0.8792"/>
<stop offset="0.7055" stop-color="#00FCC7" stop-opacity="0.2945"/>
<stop offset="1" stop-color="#00FCB6" stop-opacity="0"/>
</linearGradient>
<linearGradient id="paint15_linear" x1="347.758" y1="136.574" x2="337.929" y2="134.752" gradientUnits="userSpaceOnUse">
<stop stop-color="#00FCFF"/>
<stop offset="0.1208" stop-color="#00FCF5" stop-opacity="0.8792"/>
<stop offset="0.7055" stop-color="#00FCC7" stop-opacity="0.2945"/>
<stop offset="1" stop-color="#00FCB6" stop-opacity="0"/>
</linearGradient>
<linearGradient id="paint16_linear" x1="345.775" y1="127.667" x2="335.868" y2="126.329" gradientUnits="userSpaceOnUse">
<stop stop-color="#00FCFF"/>
<stop offset="0.1208" stop-color="#00FCF5" stop-opacity="0.8792"/>
<stop offset="0.7055" stop-color="#00FCC7" stop-opacity="0.2945"/>
<stop offset="1" stop-color="#00FCB6" stop-opacity="0"/>
</linearGradient>
<linearGradient id="paint17_linear" x1="344.146" y1="119.916" x2="334.24" y2="118.578" gradientUnits="userSpaceOnUse">
<stop stop-color="#00FCFF"/>
<stop offset="0.1208" stop-color="#00FCF5" stop-opacity="0.8792"/>
<stop offset="0.7055" stop-color="#00FCC7" stop-opacity="0.2945"/>
<stop offset="1" stop-color="#00FCB6" stop-opacity="0"/>
</linearGradient>
</defs>
</svg>
