<svg width="38" height="38" viewBox="0 0 38 38" fill="none" xmlns="http://www.w3.org/2000/svg">
<path d="M37.2386 7.97059C36.3262 3.72738 34.9117 0.755737 34.852 0.631363C34.6064 0.11995 34.0153 -0.125029 33.4798 0.0631269C33.3752 0.0996564 30.8825 0.983611 27.7421 2.85734C25.1505 4.40404 21.6675 6.9153 19.0313 10.4195C18.4454 9.63906 17.7965 8.87832 17.0865 8.14019C15.501 6.49231 13.6078 4.95314 11.459 3.56502C7.81355 1.20975 4.71232 0.108934 4.58185 0.0631269C4.04667 -0.125029 3.45553 0.11995 3.20968 0.631363C3.14996 0.755737 1.73546 3.72738 0.823091 7.97059C0.285587 10.4714 0.0350992 12.8986 0.0791665 15.1849C0.13483 18.075 0.663637 20.7484 1.65022 23.1303C2.6371 25.5125 4.15365 27.7768 6.15784 29.8598C7.7431 31.5074 9.63654 33.0469 11.7851 34.435C15.4305 36.7903 18.5318 37.8914 18.6622 37.9372C18.7814 37.9789 18.906 37.9998 19.0307 37.9998C19.1554 37.9998 19.28 37.9789 19.3995 37.9372C19.5296 37.8914 22.6312 36.7903 26.2766 34.435C28.4251 33.0469 30.3183 31.5074 31.9038 29.8598C33.908 27.7768 35.4246 25.5125 36.4112 23.1303C37.398 20.7484 37.9266 18.075 37.9822 15.1849C38.0266 12.8986 37.7761 10.4714 37.2386 7.97059ZM3.70747 22.2785C1.71052 17.4578 2.2144 12.1207 2.98848 8.49215C3.55062 5.85681 4.33398 3.71172 4.80654 2.54713C7.3349 3.61866 14.2323 6.96342 18.0757 12.9427C18.0867 12.9612 18.0986 12.9798 18.1108 12.9977C18.6558 13.8518 19.1383 14.7593 19.5369 15.7215C22.3094 22.4154 20.3518 30.0976 19.0116 33.9306L9.11382 10.0354C8.8787 9.46743 8.22726 9.19752 7.65932 9.43293C7.09137 9.66834 6.82146 10.3195 7.05687 10.8877L16.9543 34.7823C15.8379 34.2451 14.4338 33.4986 12.9474 32.5352C9.83427 30.5168 5.70412 27.099 3.70747 22.2785ZM34.3542 22.2785C32.3576 27.099 28.2274 30.5168 25.1143 32.5352C23.6279 33.4989 22.2244 34.2448 21.1077 34.782L32.139 8.14947C32.3744 7.58152 32.1045 6.93008 31.5365 6.69496C30.9683 6.45984 30.3171 6.72946 30.082 7.29741L23.1646 23.9977C23.2475 20.6533 22.7231 17.5958 21.5938 14.8694C21.2454 14.0284 20.8308 13.2015 20.3521 12.3927C22.7979 8.86005 26.2832 6.3259 28.8389 4.79601C30.6674 3.70129 32.2831 2.95678 33.2549 2.54626C33.7274 3.71056 34.5108 5.85623 35.0732 8.49215C35.8473 12.1207 36.3512 17.4578 34.3542 22.2785Z" fill="#46985D"/>
</svg>
