<svg width="36" height="36" viewBox="0 0 36 36" fill="none" xmlns="http://www.w3.org/2000/svg">
<path d="M31.5 0H4.5C2.01825 0 0 2.01825 0 4.5V31.5C0 33.9818 2.01825 36 4.5 36H31.5C33.9818 36 36 33.9818 36 31.5V4.5C36 2.01825 33.9818 0 31.5 0ZM22.5 11.25V16.5H13.5V11.25H22.5ZM33 11.25V16.5H25.5V11.25H33ZM10.5 16.5H3V11.25H10.5V16.5ZM3 19.5H16.5V24.75H3V19.5ZM22.5 27.75V33H13.5V27.75H22.5ZM19.5 24.75V19.5H33V24.75H19.5ZM33 4.5V8.25H19.5V3H31.5C32.3273 3 33 3.67275 33 4.5ZM4.5 3H16.5V8.25H3V4.5C3 3.67275 3.67275 3 4.5 3ZM3 31.5V27.75H10.5V33H4.5C3.67275 33 3 32.3273 3 31.5ZM31.5 33H25.5V27.75H33V31.5C33 32.3273 32.3273 33 31.5 33Z" fill="white"/>
</svg>
