<svg width="38" height="36" viewBox="0 0 38 36" fill="none" xmlns="http://www.w3.org/2000/svg">
<path d="M37.3987 15.3687L20.1265 0.515155C19.4784 -0.0415101 18.5217 -0.0415101 17.8736 0.515155L0.601216 15.3687C-0.121982 15.9906 -0.204382 17.0815 0.41735 17.8047C1.03988 18.5275 2.13095 18.61 2.85334 17.9882L19 4.10235L35.1466 17.9883C35.4723 18.2687 35.8739 18.4059 36.2714 18.4059C36.7571 18.4059 37.2411 18.2023 37.5826 17.8047C38.2045 17.0817 38.1219 15.9906 37.3987 15.3687Z" fill="black"/>
<path d="M25.2282 19.6003H12.7728L10.8192 25.0715H27.1818L25.2282 19.6003Z" fill="black"/>
<path d="M27.9961 28.5288H23.6766C23.4779 28.5288 23.3171 28.688 23.3171 28.8884V30.1769C23.3171 30.3756 23.4779 30.5377 23.6766 30.5377H27.9961C28.1939 30.5377 28.3557 30.3757 28.3557 30.1769V28.8884C28.3557 28.688 28.1939 28.5288 27.9961 28.5288Z" fill="black"/>
<path d="M16.4816 28.9932C16.282 28.9932 16.1212 29.1528 16.1212 29.3516V29.7116C16.1212 29.9104 16.282 30.0724 16.4816 30.0724H21.5185C21.7181 30.0724 21.8789 29.9104 21.8789 29.7116V29.3516C21.8789 29.1528 21.7181 28.9932 21.5185 28.9932H16.4816Z" fill="black"/>
<path d="M14.6839 30.1769V28.8884C14.6839 28.688 14.5231 28.5288 14.3243 28.5288H10.0049C9.807 28.5288 9.64526 28.688 9.64526 28.8884V30.1769C9.64526 30.3756 9.80686 30.5377 10.0049 30.5377H14.3243C14.5231 30.5376 14.6839 30.3756 14.6839 30.1769Z" fill="black"/>
<path d="M19.5653 6.52532C19.2404 6.24612 18.7621 6.24612 18.4372 6.52532L5.42097 17.7521C5.23044 17.9162 5.12244 18.1549 5.12244 18.4065V34.643C5.12244 35.1204 5.50844 35.5068 5.9851 35.5068H7.91803V32.7335C7.56016 32.2363 7.34243 31.6318 7.34243 30.9729V28.0941C7.34243 26.9894 7.94443 26.0311 8.83176 25.5042L11.3519 18.4469C11.474 18.103 11.7996 17.8738 12.1651 17.8738H25.8377C26.2031 17.8738 26.5288 18.103 26.6508 18.4469L29.1709 25.5042C30.0582 26.0311 30.6602 26.9894 30.6602 28.0941V30.9729C30.6602 31.6318 30.4425 32.2362 30.0846 32.7335V35.5068H32.0176C32.4942 35.5068 32.8802 35.1206 32.8802 34.643V18.4064C32.8802 18.1549 32.7721 17.9161 32.5817 17.752L19.5653 6.52532Z" fill="black"/>
<path d="M25.9082 33.9944H12.0903V35.506H25.9082V33.9944Z" fill="black"/>
</svg>
