<svg width="36" height="36" viewBox="0 0 36 36" fill="none" xmlns="http://www.w3.org/2000/svg">
<g clip-path="url(#clip0)">
<path d="M32.8102 10.6576C32.8102 7.9261 30.7373 5.67943 28.0788 5.40348C27.3326 3.39133 25.4016 1.95438 23.1292 1.95438C22.1345 1.95438 21.2075 2.23441 20.4134 2.71223C19.5104 1.09506 17.7841 0 15.8 0C13.1694 0 10.9939 1.92521 10.5902 4.44203C10.3755 4.4158 10.1585 4.39768 9.93679 4.39768C7.0192 4.39768 4.65351 6.76283 4.65351 9.68097C4.65351 9.82392 4.664 9.96393 4.6751 10.104C3.19563 11.0403 2.21082 12.6867 2.21082 14.567C2.21082 16.2291 2.97978 17.7098 4.17977 18.6782C4.17452 18.7733 4.16519 18.8678 4.16519 18.9641C4.16519 21.8817 6.53034 24.2474 9.44847 24.2474C10.323 24.2474 11.1456 24.0315 11.8719 23.6558C12.8783 24.3787 14.3193 25.283 15.017 25.1027C15.017 25.1027 15.2766 29.1235 15.2206 30.1445C15.1139 32.0872 14.531 34.2499 14.1209 36.0001H20.473C20.473 36.0001 19.5367 32.0983 19.4958 30.7956C19.455 29.4928 19.903 27.0938 19.903 27.0938L22.1066 24.8145C22.9548 25.3944 23.9792 25.7241 25.0842 25.7241C27.8157 25.7241 30.0624 23.646 30.3384 20.9874C32.3504 20.2412 33.7874 18.3049 33.7874 16.0325C33.7874 14.6907 33.2833 13.4702 32.4595 12.538C32.6824 11.9533 32.8102 11.321 32.8102 10.6576ZM13.0924 22.7836C13.5159 22.3793 13.8712 21.9068 14.1425 21.3823L15.1797 23.5554C15.1792 23.5555 14.615 23.8046 13.0924 22.7836ZM16.9709 24.1254C16.4341 24.2229 15.5199 22.5701 14.8712 21.2265C15.5905 21.5934 16.4026 21.8046 17.266 21.8046C17.4877 21.8046 17.7053 21.7866 17.92 21.7597C17.7532 22.835 17.4592 24.0362 16.9709 24.1254ZM19.2514 25.1832C18.0098 25.5279 18.7531 22.9563 19.109 21.4674C19.3663 21.3718 19.6154 21.2592 19.8523 21.1255C19.9952 22.2107 20.4666 23.1896 21.1649 23.9638C20.5599 24.5012 19.8633 25.0134 19.2514 25.1832Z" fill="black"/>
</g>
<defs>
<clipPath id="clip0">
<rect width="36" height="36" fill="white"/>
</clipPath>
</defs>
</svg>
