<svg width="25" height="25" viewBox="0 0 25 25" fill="none" xmlns="http://www.w3.org/2000/svg">
<g clip-path="url(#clip0)">
<path d="M17.2095 10.7422C17.2095 10.2028 16.7723 9.76562 16.2329 9.76562H6.17432C5.63496 9.76562 5.19775 10.2028 5.19775 10.7422C5.19775 11.2815 5.63496 11.7188 6.17432 11.7188H16.2329C16.7723 11.7188 17.2095 11.2815 17.2095 10.7422Z" fill="#F53248"/>
<path d="M6.17432 13.6719C5.63496 13.6719 5.19775 14.1091 5.19775 14.6484C5.19775 15.1878 5.63496 15.625 6.17432 15.625H12.2833C12.8226 15.625 13.2598 15.1878 13.2598 14.6484C13.2598 14.1091 12.8226 13.6719 12.2833 13.6719H6.17432Z" fill="#F53248"/>
<path d="M8.47005 23.0469H5.20398C4.12703 23.0469 3.25085 22.1707 3.25085 21.0938V3.90625C3.25085 2.8293 4.12703 1.95312 5.20398 1.95312H17.2103C18.2872 1.95312 19.1634 2.8293 19.1634 3.90625V9.91211C19.1634 10.4515 19.6006 10.8887 20.14 10.8887C20.6793 10.8887 21.1165 10.4515 21.1165 9.91211V3.90625C21.1165 1.75234 19.3642 0 17.2103 0H5.20398C3.05007 0 1.29773 1.75234 1.29773 3.90625V21.0938C1.29773 23.2477 3.05007 25 5.20398 25H8.47005C9.0094 25 9.44661 24.5628 9.44661 24.0234C9.44661 23.4841 9.0094 23.0469 8.47005 23.0469Z" fill="#F53248"/>
<path d="M22.8453 14.1398C21.703 12.9975 19.8444 12.9975 18.7029 14.139L13.3414 19.4886C13.2275 19.6022 13.1436 19.7422 13.0968 19.8961L11.9291 23.7401C11.8256 24.0809 11.9158 24.451 12.1645 24.7059C12.3509 24.8969 12.604 25.0005 12.8636 25.0005C12.9505 25.0005 13.0382 24.9889 13.1243 24.965L17.0659 23.8732C17.2281 23.8283 17.376 23.7422 17.4951 23.6232L22.8454 18.2831C23.9876 17.1408 23.9876 15.2822 22.8453 14.1398ZM16.2971 22.0595L14.3141 22.6088L14.8944 20.6982L18.512 17.0886L19.8934 18.47L16.2971 22.0595ZM21.465 16.9014L21.2758 17.0902L19.8947 15.7091L20.0832 15.5209C20.464 15.1402 21.0835 15.1402 21.4643 15.5209C21.8451 15.9017 21.8451 16.5212 21.465 16.9014Z" fill="#F53248"/>
<path d="M16.2329 5.85938H6.17432C5.63496 5.85938 5.19775 6.29658 5.19775 6.83594C5.19775 7.37529 5.63496 7.8125 6.17432 7.8125H16.2329C16.7723 7.8125 17.2095 7.37529 17.2095 6.83594C17.2095 6.29658 16.7723 5.85938 16.2329 5.85938Z" fill="#F53248"/>
</g>
<defs>
<clipPath id="clip0">
<rect width="25" height="25" fill="white"/>
</clipPath>
</defs>
</svg>
