<?xml version="1.0" encoding="UTF-8"?> <svg xmlns="http://www.w3.org/2000/svg" xmlns:xlink="http://www.w3.org/1999/xlink" width="397" height="412" viewBox="0 0 397 412"> <defs> <style> .a { opacity: 0.93; } .b { opacity: 0.5; } .c { fill: url(#a); } .d { opacity: 0.68; fill: url(#b); } .e { fill: url(#c); } </style> <linearGradient id="a" data-name="Безымянный градиент 97" x1="75.6" y1="169.08" x2="401.18" y2="169.08" gradientTransform="translate(485.4 225.92) rotate(146.39)" gradientUnits="userSpaceOnUse"> <stop offset="0" stop-color="#6c01dd"></stop> <stop offset="0.99" stop-color="#5b3bdd"></stop> </linearGradient> <linearGradient id="b" data-name="Безымянный градиент 69" x1="36.03" y1="192.49" x2="366.06" y2="192.49" gradientUnits="userSpaceOnUse"> <stop offset="0" stop-color="#6c01dd"></stop> <stop offset="1" stop-color="#60a6dd"></stop> </linearGradient> <linearGradient id="c" data-name="Безымянный градиент 57" x1="27.13" y1="194.8" x2="378.15" y2="194.8" gradientTransform="translate(127.24 -74.11) rotate(30.35)" gradientUnits="userSpaceOnUse"> <stop offset="0" stop-color="#6c01dd"></stop> <stop offset="1" stop-color="#6280dd"></stop> </linearGradient> </defs> <title>Фигура слива </title> <g class="b"> <path class="c" d="M66.49,272.31c9.05-9.05,35.35,6.89,38.88.74,2.54-4.42-9.07-16.21-21.15-28.47-15.16-15.4-17.63-14.4-21.26-21.19-3.87-7.26-3.64-13.91.61-47.6,2.39-18.95,3.58-28.42,4.2-31.61,9.72-50.06,63.43-111,107.5-121.89,8.76-2.17,27.86-6.89,48.19,1.37a67.78,67.78,0,0,1,6.68,3.2c25,13.47,41.88,36.74,48.24,45.77,21.46,30.48,28.34,54.06,32.65,52.74,3.45-1.05-.36-16.17,2-16.91,6.87-2.19,85.74,115.28,47.72,192.82C331.52,360.81,242.31,378.7,240,374.34s67.06-47.1,68.29-45.4c.67.94-18.05,16.41-39.15,29.63A214.24,214.24,0,0,1,240,374.34c-6.76,3-23.84,10-50.5,14.35-38.07,6.25-57.1,9.37-72.94.45C103.63,381.88,95,363,78.92,324.73,60.88,281.84,63.73,275.07,66.49,272.31Z"></path> </g> <g class="a"> <path class="d" d="M351,110c3.32,11.12,6.06,15.49,10,31,4.72,18.62,7,28.05,3,34-8.6,12.8-34.63,4-38,13-2.23,6,8.55,11.54,20,31a125.58,125.58,0,0,1,12,28,140.73,140.73,0,0,1,6,50c-1.21,19.22-3.1,49.35-23,67-12.55,11.13-33.54,11.57-75,12-49.51.51-74.86.5-104.14-12.65-19.87-8.92-33.45-20-42.53-27.41-24-19.53-37.88-39-49.55-55.62-14.79-21.05-21.89-31.78-27-47.39C40.91,227.23,23.21,170.44,54,129c19.33-26,52.13-38.4,59-41,13.64-5.15,26.44-7.44,44-19,11.31-7.45,12.84-11,25-21,11.73-9.64,30.84-25.35,56-33,12.75-3.88,38.46-11.69,64,0,1.41.65,31.83,14.53,42,45C349.92,77.73,343,83,351,110Z"></path> </g> <path class="e" d="M95.66,89.87c20-11.26,36.07-18.49,41.88-21.05,7.81-3.45,15.18-6.44,22.16-9.07C170.1,55.82,188,49,209.18,44c24.39-5.83,38.31-9.15,57.29-7.68,9.35.72,31.47,2.68,53.74,16.76,24.79,15.66,35.66,37.41,44.52,55.22,6,12,22.61,46.58,18.79,92.37-2.42,29-12,50-20.2,67.89-13.12,28.67-28,47.06-31.41,51.17-9.85,12-22.9,27.52-45.18,41a166.84,166.84,0,0,1-63,21.71c-13,1.76-35.51,4.82-61.65-2.85-36.31-10.65-58.19-35.5-83-64.45-15.72-18.36-25-33.28-33.33-46.57-15.41-24.68-23.18-37.41-26.54-56.51a99.11,99.11,0,0,1,2-46c7.7-26.22,24.59-41.7,34.5-50.55C65.38,106.91,75.47,101.23,95.66,89.87Z"></path> </svg> 