<svg width="37" height="37" viewBox="0 0 37 37" fill="none" xmlns="http://www.w3.org/2000/svg">
<circle cx="18.5" cy="18.5" r="18.5" fill="#0DFFFF" fill-opacity="0.9586"/>
<path d="M22.4038 20.9228C21.9137 20.439 21.302 20.439 20.815 20.9228C20.4436 21.2912 20.0721 21.6595 19.7069 22.034C19.6071 22.137 19.5228 22.1589 19.4011 22.0902C19.1607 21.9591 18.9048 21.853 18.6738 21.7094C17.5969 21.0321 16.6948 20.1612 15.8958 19.1811C15.4994 18.6942 15.1467 18.1729 14.9001 17.5861C14.8501 17.4675 14.8595 17.3895 14.9563 17.2927C15.3277 16.9338 15.6898 16.5654 16.055 16.1971C16.5637 15.6852 16.5637 15.0859 16.0518 14.5709C15.7616 14.2775 15.4713 13.9903 15.181 13.6969C14.8813 13.3973 14.5848 13.0945 14.282 12.798C13.792 12.3204 13.1802 12.3204 12.6933 12.8011C12.3187 13.1694 11.9598 13.5471 11.579 13.9092C11.2262 14.2432 11.0483 14.6521 11.0109 15.1296C10.9516 15.9068 11.142 16.6403 11.4104 17.3551C11.9598 18.8347 12.7963 20.1487 13.8107 21.3536C15.181 22.9829 16.8166 24.272 18.73 25.2022C19.5915 25.6205 20.4842 25.942 21.4549 25.995C22.1229 26.0325 22.7034 25.8639 23.1685 25.3427C23.4869 24.9868 23.8459 24.6622 24.183 24.322C24.6824 23.8163 24.6855 23.2045 24.1892 22.7051C23.5961 22.109 23 21.5159 22.4038 20.9228Z" fill="#092642"/>
<path d="M21.8077 18.4352L22.9595 18.2386C22.7785 17.1804 22.279 16.2222 21.5205 15.4605C20.7183 14.6583 19.7039 14.1527 18.5864 13.9966L18.4241 15.1546C19.2887 15.2764 20.0753 15.6665 20.6965 16.2877C21.2833 16.8745 21.6672 17.6174 21.8077 18.4352Z" fill="#092642"/>
<path d="M23.6086 13.4284C22.2789 12.0987 20.5965 11.2591 18.7393 11L18.577 12.158C20.1814 12.3828 21.6359 13.11 22.7846 14.2556C23.874 15.3449 24.5887 16.7214 24.8478 18.2353L25.9996 18.0386C25.6968 16.2844 24.8697 14.6926 23.6086 13.4284Z" fill="#092642"/>
</svg>
