<svg width="37" height="37" viewBox="0 0 37 37" fill="none" xmlns="http://www.w3.org/2000/svg">
<circle cx="18.5" cy="18.5" r="18.5" fill="#0DFFFF" fill-opacity="0.9586"/>
<path d="M18.5 11C15.4673 11 13 13.437 13 16.4324C13 20.1498 17.922 25.6072 18.1315 25.8377C18.3284 26.0543 18.672 26.0539 18.8685 25.8377C19.078 25.6072 24 20.1498 24 16.4324C23.9999 13.437 21.5327 11 18.5 11ZM18.5 19.1656C16.9742 19.1656 15.7328 17.9395 15.7328 16.4324C15.7328 14.9253 16.9742 13.6992 18.5 13.6992C20.0258 13.6992 21.2671 14.9253 21.2671 16.4324C21.2671 17.9395 20.0258 19.1656 18.5 19.1656Z" fill="#092642"/>
</svg>
