<svg width="37" height="37" viewBox="0 0 37 37" fill="none" xmlns="http://www.w3.org/2000/svg">
<circle cx="18.5" cy="18.5" r="18.5" fill="#0DFFFF" fill-opacity="0.9586"/>
<path d="M25.4107 17.8855C25.8035 17.448 26 16.9307 26 16.3334C26 15.7918 25.7962 15.3231 25.3899 14.9271C24.9827 14.5311 24.5007 14.3332 23.9436 14.3332H20.9759C21.0044 14.236 21.033 14.1526 21.0615 14.0832C21.0898 14.0138 21.1295 13.9373 21.1793 13.854C21.2291 13.7706 21.265 13.7081 21.2863 13.6665C21.4148 13.4305 21.5132 13.2359 21.5812 13.0833C21.649 12.9303 21.7165 12.7221 21.7845 12.4582C21.8525 12.1944 21.8863 11.9304 21.8863 11.6665C21.8863 11.5 21.8842 11.3644 21.8808 11.2603C21.8775 11.1562 21.8593 10.9999 21.8274 10.7915C21.7951 10.5832 21.7522 10.4096 21.6987 10.2708C21.6451 10.1319 21.5593 9.97556 21.4416 9.80208C21.3237 9.62826 21.1809 9.48783 21.0129 9.38013C20.845 9.2725 20.6308 9.18224 20.3701 9.10938C20.1091 9.03645 19.8146 9 19.4859 9C19.3002 9 19.1396 9.066 19.0038 9.19797C18.8609 9.33683 18.7393 9.51042 18.6394 9.71867C18.5394 9.92704 18.4697 10.1076 18.4304 10.2604C18.3911 10.4132 18.3464 10.6251 18.2966 10.8958C18.2321 11.1876 18.1841 11.3975 18.1517 11.526C18.1196 11.6545 18.057 11.8228 17.9642 12.0311C17.8713 12.2396 17.7607 12.4061 17.6321 12.5312C17.3964 12.7603 17.0357 13.177 16.5499 13.7811C16.1998 14.2255 15.8392 14.6456 15.4678 15.0415C15.0963 15.4374 14.8249 15.6422 14.6535 15.6561C14.4751 15.67 14.3215 15.7412 14.1929 15.8697C14.0643 15.9982 14 16.1493 14 16.3228V22.9998C14 23.1804 14.0678 23.3348 14.2035 23.4633C14.3392 23.5919 14.4999 23.6596 14.6856 23.6666C14.9356 23.6735 15.4999 23.8261 16.3785 24.125C16.9284 24.3053 17.3587 24.4427 17.6694 24.5363C17.98 24.6299 18.4143 24.7307 18.971 24.8384C19.5282 24.946 20.0424 25 20.5137 25H20.6959H21.5102H21.8958C22.846 24.9861 23.5493 24.7152 24.0066 24.1876C24.4207 23.7083 24.5956 23.0799 24.5316 22.3021C24.8101 22.0452 25.0031 21.7189 25.1101 21.323C25.2313 20.8996 25.2313 20.4933 25.1101 20.1045C25.4386 19.6809 25.5922 19.2052 25.5706 18.6774C25.5715 18.455 25.518 18.1911 25.4107 17.8855Z" fill="#092642"/>
<path d="M12.3847 16H9.6155C9.44873 16 9.30449 16.066 9.1827 16.198C9.06092 16.3299 9 16.4861 9 16.6667V23.3335C9 23.5138 9.06092 23.6701 9.18274 23.8022C9.30462 23.934 9.44886 24 9.61554 24H12.3847C12.5513 24 12.6955 23.934 12.8173 23.8022C12.9391 23.6701 13 23.5138 13 23.3335V16.6667C13 16.4861 12.9391 16.3299 12.8173 16.198C12.6955 16.066 12.5513 16 12.3847 16ZM11.2788 22.4739C11.1571 22.6024 11.0128 22.6666 10.8462 22.6666C10.6731 22.6666 10.5272 22.6024 10.4087 22.4739C10.2901 22.3454 10.2308 22.1875 10.2308 22C10.2308 21.8194 10.2901 21.6632 10.4087 21.5313C10.5272 21.3993 10.6731 21.3332 10.8462 21.3332C11.0128 21.3332 11.1571 21.3993 11.2788 21.5313C11.4007 21.6631 11.4616 21.8194 11.4616 22C11.4616 22.1875 11.4008 22.3454 11.2788 22.4739Z" fill="#092642"/>
</svg>
