<svg width="37" height="37" viewBox="0 0 37 37" fill="none" xmlns="http://www.w3.org/2000/svg">
<circle cx="18.5" cy="18.5" r="18.5" fill="#0DFFFF" fill-opacity="0.9586"/>
<path d="M18.5001 20.6428L16.6444 19.0186L11.3388 23.5667C11.5316 23.7456 11.792 23.857 12.0791 23.857H24.9211C25.2071 23.857 25.4664 23.7456 25.6582 23.5667L20.3558 19.0186L18.5001 20.6428Z" fill="#092642"/>
<path d="M25.6614 13.4334C25.4686 13.2534 25.2093 13.1431 24.9211 13.1431H12.0791C11.7931 13.1431 11.5338 13.2545 11.3409 13.4356L18.5001 19.5715L25.6614 13.4334Z" fill="#092642"/>
<path d="M11.0002 14.0837V22.985L16.1784 18.5847L11.0002 14.0837Z" fill="#092642"/>
<path d="M20.8219 18.5848L26 22.9851V14.0806L20.8219 18.5848Z" fill="#092642"/>
</svg>
