<svg width="20" height="20" viewBox="0 0 20 20" fill="none" xmlns="http://www.w3.org/2000/svg">
<g clip-path="url(#clip0)">
<path d="M19.2726 0.960078L15.2101 0.0225782C14.7687 -0.0789843 14.3156 0.151484 14.1359 0.565547L12.2609 4.94055C12.0968 5.32336 12.2062 5.77258 12.5304 6.0343L14.8976 7.9718C13.4913 10.9679 11.0343 13.4601 7.97572 14.8937L6.03822 12.5265C5.7726 12.2023 5.32728 12.0929 4.94447 12.257L0.569468 14.132C0.151499 14.3155 -0.0789694 14.7687 0.0225932 15.2101L0.960094 19.2726C1.05775 19.6945 1.43275 19.9991 1.87416 19.9991C11.8781 19.9991 19.9992 11.8937 19.9992 1.87414C19.9992 1.43664 19.6984 1.05773 19.2726 0.960078Z" fill="white"/>
</g>
<defs>
<clipPath id="clip0">
<rect width="20" height="20" fill="white"/>
</clipPath>
</defs>
</svg>
