<svg width="184" height="40" viewBox="0 0 184 40" fill="none" xmlns="http://www.w3.org/2000/svg">
<rect x="1" y="1" width="182" height="38" stroke="#D3AA68" stroke-width="2"/>
<path d="M56.1338 21.8057C56.1338 20.2705 56.3418 18.8262 56.7578 17.4727C57.1738 16.1191 57.7627 14.9326 58.5244 13.9131C58.9873 13.2979 59.4326 12.8467 59.8604 12.5596L60.168 13.6318C59.4648 14.3057 58.8877 15.3223 58.4365 16.6816C57.9854 18.0352 57.7393 19.541 57.6982 21.1992L57.6895 21.9111C57.6895 23.9736 57.9795 25.7959 58.5596 27.3779C58.999 28.5674 59.5352 29.4873 60.168 30.1377L59.8604 31.1309C59.3213 30.7676 58.7734 30.1699 58.2168 29.3379C56.8281 27.2461 56.1338 24.7354 56.1338 21.8057ZM68.5264 21.542C68.5264 23.4287 68.251 24.8408 67.7002 25.7783C67.1494 26.71 66.2852 27.1758 65.1074 27.1758C63.9648 27.1758 63.1123 26.7275 62.5498 25.8311C61.9873 24.9346 61.6943 23.5869 61.6709 21.7881V19.5908C61.6709 17.7217 61.9463 16.3271 62.4971 15.4072C63.0537 14.4873 63.918 14.0273 65.0898 14.0273C66.2441 14.0273 67.0967 14.4639 67.6475 15.3369C68.2041 16.21 68.4971 17.5312 68.5264 19.3008V21.542ZM66.9707 19.3184C66.9707 17.9648 66.8213 16.9688 66.5225 16.3301C66.2236 15.6855 65.7461 15.3633 65.0898 15.3633C64.4512 15.3633 63.9824 15.6797 63.6836 16.3125C63.3848 16.9395 63.2295 17.8887 63.2178 19.1602V21.7969C63.2178 23.1445 63.373 24.1582 63.6836 24.8379C63.9941 25.5117 64.4688 25.8486 65.1074 25.8486C65.7402 25.8486 66.2061 25.5293 66.5049 24.8906C66.8037 24.252 66.959 23.2764 66.9707 21.9639V19.3184ZM75.6982 21.5332C75.0771 22.3242 74.3506 22.7197 73.5186 22.7197C72.5869 22.7197 71.8457 22.3271 71.2949 21.542C70.7441 20.7568 70.4688 19.7285 70.4688 18.457C70.4688 17.1211 70.7676 16.0488 71.3652 15.2402C71.9688 14.4316 72.7891 14.0273 73.8262 14.0273C74.9043 14.0273 75.7451 14.4961 76.3486 15.4336C76.958 16.3652 77.2627 17.6572 77.2627 19.3096V19.793C77.2627 21.2109 77.1543 22.3594 76.9375 23.2383C76.7266 24.1172 76.4131 24.8262 75.9971 25.3652C75.5811 25.9043 75.0508 26.3145 74.4062 26.5957C73.7617 26.8711 72.9561 27.0088 71.9893 27.0088V25.6377H72.2617C73.3633 25.6143 74.1982 25.2803 74.7666 24.6357C75.3408 23.9854 75.6514 22.9512 75.6982 21.5332ZM73.7822 21.375C74.1572 21.375 74.5234 21.2197 74.8809 20.9092C75.2383 20.5928 75.5166 20.1797 75.7158 19.6699V18.9844C75.7158 17.9238 75.5312 17.0596 75.1621 16.3916C74.793 15.7178 74.3477 15.3809 73.8262 15.3809C73.2637 15.3809 72.8154 15.6592 72.4814 16.2158C72.1533 16.7666 71.9893 17.4844 71.9893 18.3691C71.9893 19.2539 72.1504 19.9775 72.4727 20.54C72.7949 21.0967 73.2314 21.375 73.7822 21.375ZM84.8916 14.1943V15.5742H84.6367C83.5996 15.5977 82.7881 15.9492 82.2021 16.6289C81.6162 17.3027 81.2793 18.3193 81.1914 19.6787C81.7598 18.9639 82.4863 18.6064 83.3711 18.6064C84.3145 18.6064 85.0615 18.9961 85.6123 19.7754C86.1689 20.5488 86.4473 21.5654 86.4473 22.8252C86.4473 24.167 86.1396 25.2275 85.5244 26.0068C84.915 26.7861 84.0947 27.1758 83.0635 27.1758C82.0264 27.1758 81.1914 26.7158 80.5586 25.7959C79.9258 24.876 79.6094 23.6543 79.6094 22.1309V21.5068C79.6094 19.749 79.7998 18.3486 80.1807 17.3057C80.5615 16.2627 81.1211 15.4893 81.8594 14.9854C82.6035 14.4756 83.5264 14.2119 84.6279 14.1943H84.8916ZM83.1074 19.96C82.6855 19.96 82.2959 20.1211 81.9385 20.4434C81.5811 20.7656 81.3232 21.1758 81.165 21.6738V22.3154C81.165 23.3525 81.3467 24.1992 81.71 24.8555C82.0791 25.5059 82.5303 25.8311 83.0635 25.8311C83.6436 25.8311 84.0977 25.5645 84.4258 25.0312C84.7539 24.4922 84.918 23.7832 84.918 22.9043C84.918 22.0371 84.7539 21.3311 84.4258 20.7861C84.0977 20.2354 83.6582 19.96 83.1074 19.96ZM91.8525 21.8936C91.8525 24.5068 91.2666 26.8184 90.0947 28.8281C89.4619 29.9062 88.8057 30.6738 88.126 31.1309L87.8184 30.1377C88.5566 29.4287 89.1514 28.3477 89.6025 26.8945C90.0537 25.4355 90.2852 23.8389 90.2969 22.1045V21.7881C90.2969 19.5615 89.9307 17.5693 89.1982 15.8115C88.7939 14.8506 88.334 14.0977 87.8184 13.5527L88.126 12.5596C88.7705 12.9932 89.3945 13.7051 89.998 14.6953C91.2344 16.7344 91.8525 19.1338 91.8525 21.8936ZM104.122 22.7021H105.546V24.0293H104.122V27H102.566V24.0293H97.7324V23.0713L102.487 14.2031H104.122V22.7021ZM99.4551 22.7021H102.566V16.6201L99.4551 22.7021ZM111.76 27H110.195V16.1631L107.506 17.3672V15.8906L111.514 14.1416H111.76V27ZM121.138 21.5332C120.517 22.3242 119.79 22.7197 118.958 22.7197C118.026 22.7197 117.285 22.3271 116.734 21.542C116.184 20.7568 115.908 19.7285 115.908 18.457C115.908 17.1211 116.207 16.0488 116.805 15.2402C117.408 14.4316 118.229 14.0273 119.266 14.0273C120.344 14.0273 121.185 14.4961 121.788 15.4336C122.397 16.3652 122.702 17.6572 122.702 19.3096V19.793C122.702 21.2109 122.594 22.3594 122.377 23.2383C122.166 24.1172 121.853 24.8262 121.437 25.3652C121.021 25.9043 120.49 26.3145 119.846 26.5957C119.201 26.8711 118.396 27.0088 117.429 27.0088V25.6377H117.701C118.803 25.6143 119.638 25.2803 120.206 24.6357C120.78 23.9854 121.091 22.9512 121.138 21.5332ZM119.222 21.375C119.597 21.375 119.963 21.2197 120.32 20.9092C120.678 20.5928 120.956 20.1797 121.155 19.6699V18.9844C121.155 17.9238 120.971 17.0596 120.602 16.3916C120.232 15.7178 119.787 15.3809 119.266 15.3809C118.703 15.3809 118.255 15.6592 117.921 16.2158C117.593 16.7666 117.429 17.4844 117.429 18.3691C117.429 19.2539 117.59 19.9775 117.912 20.54C118.234 21.0967 118.671 21.375 119.222 21.375ZM135.886 21.542C135.886 23.4287 135.61 24.8408 135.06 25.7783C134.509 26.71 133.645 27.1758 132.467 27.1758C131.324 27.1758 130.472 26.7275 129.909 25.8311C129.347 24.9346 129.054 23.5869 129.03 21.7881V19.5908C129.03 17.7217 129.306 16.3271 129.856 15.4072C130.413 14.4873 131.277 14.0273 132.449 14.0273C133.604 14.0273 134.456 14.4639 135.007 15.3369C135.563 16.21 135.856 17.5312 135.886 19.3008V21.542ZM134.33 19.3184C134.33 17.9648 134.181 16.9688 133.882 16.3301C133.583 15.6855 133.105 15.3633 132.449 15.3633C131.811 15.3633 131.342 15.6797 131.043 16.3125C130.744 16.9395 130.589 17.8887 130.577 19.1602V21.7969C130.577 23.1445 130.732 24.1582 131.043 24.8379C131.354 25.5117 131.828 25.8486 132.467 25.8486C133.1 25.8486 133.565 25.5293 133.864 24.8906C134.163 24.252 134.318 23.2764 134.33 21.9639V19.3184ZM145.097 27H137.942V25.8311L141.59 20.9971C142.141 20.2529 142.521 19.6436 142.732 19.1689C142.949 18.6885 143.058 18.1816 143.058 17.6484C143.058 16.9688 142.899 16.418 142.583 15.9961C142.267 15.5742 141.851 15.3633 141.335 15.3633C140.685 15.3633 140.181 15.5889 139.823 16.04C139.472 16.4854 139.296 17.1299 139.296 17.9736H137.74C137.74 16.7959 138.062 15.8438 138.707 15.1172C139.352 14.3906 140.228 14.0273 141.335 14.0273C142.354 14.0273 143.157 14.3408 143.743 14.9678C144.329 15.5889 144.622 16.418 144.622 17.4551C144.622 18.7207 143.963 20.2178 142.645 21.9463L139.797 25.6729H145.097V27ZM157.806 21.542C157.806 23.4287 157.53 24.8408 156.979 25.7783C156.429 26.71 155.564 27.1758 154.387 27.1758C153.244 27.1758 152.392 26.7275 151.829 25.8311C151.267 24.9346 150.974 23.5869 150.95 21.7881V19.5908C150.95 17.7217 151.226 16.3271 151.776 15.4072C152.333 14.4873 153.197 14.0273 154.369 14.0273C155.523 14.0273 156.376 14.4639 156.927 15.3369C157.483 16.21 157.776 17.5312 157.806 19.3008V21.542ZM156.25 19.3184C156.25 17.9648 156.101 16.9688 155.802 16.3301C155.503 15.6855 155.025 15.3633 154.369 15.3633C153.73 15.3633 153.262 15.6797 152.963 16.3125C152.664 16.9395 152.509 17.8887 152.497 19.1602V21.7969C152.497 23.1445 152.652 24.1582 152.963 24.8379C153.273 25.5117 153.748 25.8486 154.387 25.8486C155.02 25.8486 155.485 25.5293 155.784 24.8906C156.083 24.252 156.238 23.2764 156.25 21.9639V19.3184ZM167.017 27H159.862V25.8311L163.51 20.9971C164.061 20.2529 164.441 19.6436 164.652 19.1689C164.869 18.6885 164.978 18.1816 164.978 17.6484C164.978 16.9688 164.819 16.418 164.503 15.9961C164.187 15.5742 163.771 15.3633 163.255 15.3633C162.604 15.3633 162.101 15.5889 161.743 16.04C161.392 16.4854 161.216 17.1299 161.216 17.9736H159.66C159.66 16.7959 159.982 15.8438 160.627 15.1172C161.271 14.3906 162.147 14.0273 163.255 14.0273C164.274 14.0273 165.077 14.3408 165.663 14.9678C166.249 15.5889 166.542 16.418 166.542 17.4551C166.542 18.7207 165.883 20.2178 164.564 21.9463L161.717 25.6729H167.017V27Z" fill="#262524"/>
<rect width="40" height="40" fill="#D3AA68"/>
<g clip-path="url(#clip0)">
<path d="M29.2726 10.9601L25.2101 10.0226C24.7687 9.92102 24.3156 10.1515 24.1359 10.5655L22.2609 14.9405C22.0968 15.3234 22.2062 15.7726 22.5304 16.0343L24.8976 17.9718C23.4913 20.9679 21.0343 23.4601 17.9757 24.8937L16.0382 22.5265C15.7726 22.2023 15.3273 22.0929 14.9445 22.257L10.5695 24.132C10.1515 24.3155 9.92103 24.7687 10.0226 25.2101L10.9601 29.2726C11.0577 29.6945 11.4327 29.9991 11.8742 29.9991C21.8781 29.9991 29.9992 21.8937 29.9992 11.8741C29.9992 11.4366 29.6984 11.0577 29.2726 10.9601Z" fill="white"/>
</g>
<defs>
<clipPath id="clip0">
<rect width="20" height="20" fill="white" transform="translate(10 10)"/>
</clipPath>
</defs>
</svg>
