<?xml version="1.0" encoding="UTF-8"?>
<!DOCTYPE svg PUBLIC "-//W3C//DTD SVG 1.1//EN" "http://www.w3.org/Graphics/SVG/1.1/DTD/svg11.dtd">
<!-- Creator: CorelDRAW X6 -->
<svg xmlns="http://www.w3.org/2000/svg" xml:space="preserve" width="6.54166in" height="2.125in" version="1.1" style="shape-rendering:geometricPrecision; text-rendering:geometricPrecision; image-rendering:optimizeQuality; fill-rule:evenodd; clip-rule:evenodd"
viewBox="0 0 6542 2125"
 xmlns:xlink="http://www.w3.org/1999/xlink">
 <defs>
  <style type="text/css">
   <![CDATA[
    .fil1 {fill:#2279BD}
    .fil2 {fill:#89BDE6}
    .fil0 {fill:#2279BD;fill-rule:nonzero}
   ]]>
  </style>
 </defs>
 <g id="Layer_x0020_1">
  <metadata id="CorelCorpID_0Corel-Layer"/>
  <path class="fil0" d="M957 1218l96 -116c-56,-56 -123,-100 -199,-130 -77,-31 -156,-46 -238,-46 -113,0 -217,26 -311,79 -94,53 -169,125 -223,216 -54,91 -82,192 -82,302 0,111 27,213 81,304 54,92 127,165 220,218 93,53 196,80 308,80 81,0 160,-17 239,-50 78,-33 147,-79 207,-137l-98 -106c-46,44 -99,78 -158,103 -59,25 -120,38 -182,38 -83,0 -159,-20 -229,-61 -70,-40 -124,-95 -165,-165 -40,-70 -61,-145 -61,-227 0,-83 20,-159 61,-228 40,-69 95,-124 165,-164 70,-40 146,-61 229,-61 63,0 124,13 183,40 59,26 112,63 156,110l0 0z"/>
  <path class="fil0" d="M3997 1600l0 -518 299 0c101,0 178,22 232,65 54,43 81,107 81,191 0,86 -27,152 -81,196 -54,44 -131,66 -232,66l-299 0 0 0zm784 513l-274 -399c83,-29 147,-76 191,-141 44,-65 66,-145 66,-241 0,-127 -41,-225 -122,-294 -81,-69 -197,-103 -346,-103l-461 0 0 1178 162 0 0 -367 299 0c17,0 39,-1 66,-3l234 370 185 0 0 0zm-1724 0l161 0 0 -1178 -161 0 0 1178zm-1063 -1004l249 572 -495 0 246 -572 0 0zm611 1004l-522 -1178 -168 0 -523 1178 170 0 123 -286 621 0 124 286 175 0 0 0z"/>
  <polygon class="fil0" points="5331,2113 6168,2113 6168,1967 5492,1967 5492,1592 6079,1592 6079,1445 5492,1445 5492,1082 6148,1082 6148,936 5331,936 "/>
  <path class="fil1" d="M3695 292c350,-198 800,30 800,30 0,0 -308,-154 -732,121 -416,270 -986,-15 -986,-15 0,0 441,134 919,-137z"/>
  <path class="fil2" d="M3041 138c270,-153 618,23 618,23 0,0 -238,-119 -566,94 -322,209 -762,-11 -762,-11 0,0 341,104 710,-106z"/>
  <path class="fil2" d="M2507 39c184,-104 402,15 402,15 0,0 -144,-81 -367,64 -219,142 -518,-8 -518,-8 0,0 232,71 483,-72z"/>
  <path class="fil0" d="M6410 945c12,0 22,-3 28,-9 7,-6 10,-14 10,-25 0,-10 -3,-18 -10,-24 -7,-5 -16,-8 -28,-8l-36 0 0 65 36 0zm50 -4c-5,8 -13,14 -23,17l34 49 -24 0 -28 -45c-2,0 -4,0 -8,0l-36 0 0 45 -20 0 0 -144 56 0c19,0 33,4 43,13 10,8 15,20 15,36 0,12 -3,21 -8,29zm8 102c19,-11 33,-26 44,-44 11,-18 16,-39 16,-60 0,-22 -5,-42 -16,-60 -11,-18 -25,-33 -44,-44 -18,-11 -39,-16 -61,-16 -23,0 -43,5 -61,16 -18,11 -33,26 -44,44 -11,18 -16,39 -16,60 0,22 5,42 16,60 11,18 25,33 44,44 18,11 39,16 61,16 22,0 43,-5 61,-16zm11 -227c22,13 39,30 51,51 12,22 19,45 19,71 0,25 -6,49 -19,71 -13,22 -30,39 -51,52 -22,13 -46,19 -72,19 -26,0 -50,-6 -71,-19 -22,-13 -38,-30 -51,-52 -12,-22 -19,-45 -19,-70 0,-25 6,-49 19,-71 13,-22 30,-39 51,-52 22,-13 45,-19 71,-19 26,0 50,6 71,19z"/>
 </g>
</svg>
