<svg width="81" height="48" viewBox="0 0 81 48" fill="none" xmlns="http://www.w3.org/2000/svg">
<path d="M41.3475 11.8778C39.7293 11.8778 38.3927 11.3479 37.3378 10.2883C36.2829 9.22865 35.7555 7.92174 35.7555 6.36759C35.7555 4.80335 36.2829 3.49645 37.3378 2.44689C38.3927 1.38725 39.7293 0.857422 41.3475 0.857422C42.3204 0.857422 43.2166 1.08449 44.0359 1.53862C44.8655 1.98267 45.5107 2.58818 45.9716 3.35516L44.1435 4.39968C43.8772 3.92536 43.4982 3.557 43.0066 3.29461C42.515 3.02213 41.962 2.88589 41.3475 2.88589C40.3028 2.88589 39.4579 3.20883 38.8126 3.85471C38.1777 4.50059 37.8602 5.33822 37.8602 6.36759C37.8602 7.38687 38.1777 8.21946 38.8126 8.86534C39.4579 9.51122 40.3028 9.83416 41.3475 9.83416C41.962 9.83416 42.515 9.70296 43.0066 9.44057C43.5085 9.16809 43.8874 8.79974 44.1435 8.33551L45.9716 9.38002C45.5107 10.147 44.8706 10.7576 44.0513 11.2117C43.2319 11.6557 42.3307 11.8778 41.3475 11.8778Z" fill="#23282E"/>
<path d="M58.1783 9.2035H62.0269V11.1431H56.1891V0.857422H58.1783V9.2035Z" fill="#23282E"/>
<path d="M75.1613 0.857422H77.3505V11.1431H75.1613V0.857422Z" fill="#23282E"/>
<path d="M43.2039 19.2241H45.2439V29.5098H43.6917L39.257 23.2208V29.5098H37.217V19.2241H38.7692L43.2039 25.4984V19.2241Z" fill="#23282E"/>
<path d="M57.6476 19.2241H59.8368V29.5098H57.6476V19.2241Z" fill="#23282E"/>
<path d="M76.7062 29.5108C75.2036 29.5108 73.9625 28.981 72.9829 27.9214C72.0034 26.8617 71.5136 25.5548 71.5136 24.0006C71.5136 22.4364 72.0034 21.1295 72.9829 20.08C73.9625 19.0203 75.2036 18.4905 76.7062 18.4905C77.6096 18.4905 78.4418 18.7175 79.2026 19.1717C79.9729 19.6157 80.572 20.2212 81 20.9882L79.3024 22.0327C79.0552 21.5584 78.7033 21.1901 78.2468 20.9277C77.7903 20.6552 77.2768 20.5189 76.7062 20.5189C75.7361 20.5189 74.9515 20.8419 74.3524 21.4878C73.7628 22.1337 73.4679 22.9713 73.4679 24.0006C73.4679 25.0199 73.7628 25.8525 74.3524 26.4984C74.9515 27.1443 75.7361 27.4672 76.7062 27.4672C77.2768 27.4672 77.7903 27.336 78.2468 27.0736C78.7128 26.8012 79.0647 26.4328 79.3024 25.9686L81 27.0131C80.572 27.7801 79.9777 28.3906 79.2168 28.8448C78.456 29.2888 77.6191 29.5108 76.7062 29.5108Z" fill="#23282E"/>
<path d="M55.5278 47.1426V45.6588L58.8463 42.115C59.5868 41.3083 59.9571 40.636 59.9571 40.0982C59.9571 39.7045 59.8367 39.3875 59.5961 39.1474C59.3647 38.9073 59.0638 38.7873 58.6936 38.7873C57.9623 38.7873 57.4208 39.181 57.069 39.9686L55.4584 38.989C55.7639 38.2975 56.2036 37.7693 56.7775 37.4043C57.3514 37.0394 57.9808 36.8569 58.6658 36.8569C59.5452 36.8569 60.2996 37.145 60.929 37.7213C61.5584 38.2879 61.8732 39.0562 61.8732 40.0262C61.8732 41.073 61.3409 42.1486 60.2764 43.2531L58.3742 45.2266H62.0259V47.1426H55.5278Z" fill="#23282E"/>
<path d="M76.2488 47.1426C75.0785 47.1426 74.1183 46.8257 73.3681 46.1918C72.6179 45.558 72.2429 44.708 72.2429 43.642V36.8569H74.2984V43.4835C74.2984 44.0118 74.4534 44.4295 74.7635 44.7368C75.0835 45.0442 75.5787 45.1978 76.2488 45.1978C76.919 45.1978 77.4091 45.0442 77.7192 44.7368C78.0393 44.4295 78.1993 44.0118 78.1993 43.4835V36.8569H80.2698V43.642C80.2698 44.708 79.8947 45.558 79.1445 46.1918C78.3943 46.8257 77.4291 47.1426 76.2488 47.1426Z" fill="#23282E"/>
<path d="M20.4326 36.8569C20.4326 39.5849 19.3563 42.2011 17.4404 44.13C15.5245 46.0589 12.926 47.1426 10.2165 47.1426C7.50702 47.1426 4.90852 46.0589 2.99263 44.13C1.07673 42.2011 0.000397138 39.5849 0.000396729 36.8569H5.0597C5.0597 38.2339 5.60301 39.5545 6.5701 40.5282C7.53718 41.5018 8.84883 42.0488 10.2165 42.0488C11.5842 42.0488 12.8958 41.5018 13.8629 40.5282C14.83 39.5545 15.3733 38.2339 15.3733 36.8569H20.4326Z" fill="#23282E"/>
<path d="M0 0.85791H5.10805V29.5108H0V0.85791Z" fill="#23282E"/>
<path d="M15.3234 0.857422H20.4314V29.5103H15.3234V0.857422Z" fill="#23282E"/>
</svg>
