<svg width="127" height="96" viewBox="0 0 127 96" fill="none" xmlns="http://www.w3.org/2000/svg">
<path d="M50.8 63H50.796C50.796 59.9663 51.0619 61.3631 33.9189 28.9669C30.4165 22.35 20.3875 22.3369 16.8791 28.9669C-0.408782 61.6406 0.00396875 60.0619 0.00396875 63H0C0 71.2838 11.3725 78 25.4 78C39.4275 78 50.8 71.2838 50.8 63ZM25.4 33L39.6875 60H11.1125L25.4 33ZM126.996 63C126.996 59.9663 127.262 61.3631 110.119 28.9669C106.616 22.35 96.5875 22.3369 93.0791 28.9669C75.7912 61.6406 76.204 60.0619 76.204 63H76.2C76.2 71.2838 87.5724 78 101.6 78C115.628 78 127 71.2838 127 63H126.996ZM87.3125 60L101.6 33L115.887 60H87.3125ZM104.775 84H69.85V28.7344C74.5153 26.805 78.0177 22.8319 79.0555 18H104.775C106.529 18 107.95 16.6575 107.95 15V9C107.95 7.3425 106.529 6 104.775 6H76.1286C73.2314 2.3775 68.6772 0 63.5 0C58.3228 0 53.7686 2.3775 50.8714 6H22.225C20.4708 6 19.05 7.3425 19.05 9V15C19.05 16.6575 20.4708 18 22.225 18H47.9445C48.9823 22.83 52.4827 26.805 57.15 28.7344V84H22.225C20.4708 84 19.05 85.3425 19.05 87V93C19.05 94.6575 20.4708 96 22.225 96H104.775C106.529 96 107.95 94.6575 107.95 93V87C107.95 85.3425 106.529 84 104.775 84Z" fill="#F0F5F5"/>
</svg>
