<svg width="46" height="28" viewBox="0 0 46 28" fill="none" xmlns="http://www.w3.org/2000/svg">
<path d="M31.2441 0H25.07C24.495 0 23.9416 0.218671 23.5175 0.612278L16.4522 7.1724C16.445 7.17969 16.4378 7.19427 16.4306 7.20155C15.2375 8.33864 15.2591 10.1536 16.2797 11.2834C17.1925 12.2966 19.1116 12.5663 20.3119 11.4802C20.3191 11.4729 20.3334 11.4729 20.3406 11.4656L26.0834 6.13007C26.5506 5.70002 27.2837 5.72917 27.7078 6.20296C28.1391 6.67675 28.1031 7.41294 27.6359 7.85028L25.76 9.59235L36.225 18.208C36.4334 18.3829 36.6203 18.5724 36.7928 18.7692V4.66497L32.8684 0.685168C32.4444 0.247827 31.855 0 31.2441 0ZM39.1 4.67955V20.9997C39.1 22.2898 40.1278 23.3322 41.4 23.3322H46V4.67955H39.1ZM42.55 20.9997C41.9175 20.9997 41.4 20.4749 41.4 19.8334C41.4 19.192 41.9175 18.6672 42.55 18.6672C43.1825 18.6672 43.7 19.192 43.7 19.8334C43.7 20.4749 43.1825 20.9997 42.55 20.9997ZM0 23.3249H4.6C5.87219 23.3249 6.9 22.2825 6.9 20.9924V4.67955H0V23.3249ZM3.45 18.6672C4.0825 18.6672 4.6 19.192 4.6 19.8334C4.6 20.4749 4.0825 20.9997 3.45 20.9997C2.8175 20.9997 2.3 20.4749 2.3 19.8334C2.3 19.1847 2.8175 18.6672 3.45 18.6672ZM34.7803 20.0229L24.0494 11.1887L21.8931 13.1931C19.7584 15.1685 16.4881 14.9789 14.5834 12.8724C12.65 10.7294 12.8009 7.41294 14.8997 5.45948L20.7791 0H14.7559C14.145 0 13.5628 0.247827 13.1316 0.685168L9.2 4.66497V20.9851H10.5153L17.02 26.9548C18.9894 28.5803 21.8859 28.2741 23.4887 26.2769L23.5031 26.2623L24.7897 27.3921C25.9325 28.3397 27.6216 28.1575 28.5487 26.9985L30.8056 24.185L31.1937 24.5057C32.1784 25.3148 33.6303 25.169 34.4281 24.1631L35.1109 23.3103C35.9159 22.3044 35.765 20.8393 34.7803 20.0229Z" fill="white"/>
</svg>
