<svg width="46" height="42" viewBox="0 0 46 42" fill="none" xmlns="http://www.w3.org/2000/svg">
<g clip-path="url(#clip0)">
<path d="M22.3906 12.162L7.66664 24.6184V38.0625C7.66664 38.4106 7.80126 38.7445 8.04089 38.9906C8.28052 39.2368 8.60553 39.375 8.94442 39.375L17.8936 39.3513C18.2314 39.3495 18.5548 39.2105 18.793 38.9645C19.0313 38.7186 19.165 38.3857 19.165 38.0388V30.1875C19.165 29.8395 19.2997 29.5056 19.5393 29.2595C19.7789 29.0133 20.1039 28.875 20.4428 28.875H25.5539C25.8928 28.875 26.2178 29.0133 26.4574 29.2595C26.6971 29.5056 26.8317 29.8395 26.8317 30.1875V38.033C26.8312 38.2057 26.8638 38.3768 26.9278 38.5365C26.9918 38.6963 27.0858 38.8414 27.2045 38.9637C27.3232 39.0861 27.4643 39.1831 27.6196 39.2493C27.7749 39.3155 27.9413 39.3496 28.1095 39.3496L37.0555 39.375C37.3944 39.375 37.7194 39.2368 37.959 38.9906C38.1987 38.7445 38.3333 38.4106 38.3333 38.0625V24.6094L23.6125 12.162C23.4394 12.0187 23.2238 11.9406 23.0016 11.9406C22.7793 11.9406 22.5637 12.0187 22.3906 12.162ZM45.6486 20.6284L38.9722 14.9757V3.61353C38.9722 3.35245 38.8712 3.10207 38.6915 2.91747C38.5118 2.73286 38.268 2.62915 38.0138 2.62915H33.5416C33.2875 2.62915 33.0437 2.73286 32.864 2.91747C32.6843 3.10207 32.5833 3.35245 32.5833 3.61353V9.56981L25.4333 3.52739C24.7472 2.94741 23.8862 2.63031 22.9976 2.63031C22.109 2.63031 21.248 2.94741 20.5618 3.52739L0.346573 20.6284C0.249532 20.7108 0.169246 20.8121 0.110302 20.9263C0.0513581 21.0406 0.0149118 21.1657 0.0030456 21.2944C-0.00882064 21.4232 0.00412572 21.553 0.041145 21.6766C0.0781642 21.8002 0.138531 21.9151 0.218796 22.0148L2.25525 24.5577C2.3353 24.6577 2.43376 24.7405 2.54499 24.8013C2.65622 24.8622 2.77804 24.8999 2.90348 24.9123C3.02892 24.9247 3.15551 24.9116 3.27601 24.8737C3.3965 24.8358 3.50854 24.7739 3.6057 24.6915L22.3906 8.79872C22.5637 8.65543 22.7793 8.57729 23.0016 8.57729C23.2238 8.57729 23.4394 8.65543 23.6125 8.79872L42.3982 24.6915C42.4952 24.7739 42.6071 24.8359 42.7274 24.8739C42.8477 24.912 42.9742 24.9253 43.0995 24.9131C43.2249 24.9009 43.3466 24.8634 43.4579 24.8029C43.5691 24.7424 43.6677 24.6599 43.7479 24.5602L45.7843 22.0172C45.8645 21.917 45.9246 21.8015 45.9612 21.6774C45.9978 21.5533 46.0101 21.4229 45.9975 21.2939C45.9849 21.1648 45.9476 21.0396 45.8877 20.9254C45.8278 20.8112 45.7465 20.7103 45.6486 20.6284Z" fill="white"/>
</g>
<defs>
<clipPath id="clip0">
<rect width="46" height="42" fill="white"/>
</clipPath>
</defs>
</svg>
