<svg width="281" height="51" viewBox="0 0 281 51" fill="none" xmlns="http://www.w3.org/2000/svg">
<path d="M10.188 13.634H3.168L1.656 17H0.27L6.03 4.4H7.344L13.104 17H11.7L10.188 13.634ZM9.702 12.554L6.678 5.786L3.654 12.554H9.702ZM24.4817 15.884V19.286H23.2757V17H14.7977V19.286H13.5917V15.884H14.1317C14.7677 15.848 15.1997 15.38 15.4277 14.48C15.6557 13.58 15.8117 12.32 15.8957 10.7L16.0217 7.532H23.0057V15.884H24.4817ZM17.0657 10.772C17.0057 12.116 16.8917 13.226 16.7237 14.102C16.5557 14.966 16.2557 15.56 15.8237 15.884H21.7277V8.666H17.1737L17.0657 10.772ZM33.0023 12.104C34.2863 12.404 34.9283 13.178 34.9283 14.426C34.9283 15.254 34.6223 15.89 34.0103 16.334C33.3983 16.778 32.4863 17 31.2743 17H26.9723V7.532H31.1483C32.2283 7.532 33.0743 7.742 33.6863 8.162C34.2983 8.582 34.6043 9.182 34.6043 9.962C34.6043 10.478 34.4603 10.922 34.1723 11.294C33.8963 11.654 33.5063 11.924 33.0023 12.104ZM28.2143 11.744H31.0583C31.7903 11.744 32.3483 11.606 32.7323 11.33C33.1283 11.054 33.3263 10.652 33.3263 10.124C33.3263 9.596 33.1283 9.2 32.7323 8.936C32.3483 8.672 31.7903 8.54 31.0583 8.54H28.2143V11.744ZM31.2203 15.992C32.0363 15.992 32.6483 15.86 33.0563 15.596C33.4643 15.332 33.6683 14.918 33.6683 14.354C33.6683 13.79 33.4823 13.376 33.1103 13.112C32.7383 12.836 32.1503 12.698 31.3463 12.698H28.2143V15.992H31.2203ZM41.8295 17.09C40.9175 17.09 40.0955 16.886 39.3635 16.478C38.6315 16.058 38.0555 15.482 37.6355 14.75C37.2155 14.018 37.0055 13.19 37.0055 12.266C37.0055 11.342 37.2155 10.514 37.6355 9.782C38.0555 9.05 38.6315 8.48 39.3635 8.072C40.0955 7.664 40.9175 7.46 41.8295 7.46C42.7415 7.46 43.5635 7.664 44.2955 8.072C45.0275 8.48 45.5975 9.05 46.0055 9.782C46.4255 10.514 46.6355 11.342 46.6355 12.266C46.6355 13.19 46.4255 14.018 46.0055 14.75C45.5975 15.482 45.0275 16.058 44.2955 16.478C43.5635 16.886 42.7415 17.09 41.8295 17.09ZM41.8295 15.956C42.5015 15.956 43.1015 15.806 43.6295 15.506C44.1695 15.194 44.5895 14.756 44.8895 14.192C45.1895 13.628 45.3395 12.986 45.3395 12.266C45.3395 11.546 45.1895 10.904 44.8895 10.34C44.5895 9.776 44.1695 9.344 43.6295 9.044C43.1015 8.732 42.5015 8.576 41.8295 8.576C41.1575 8.576 40.5515 8.732 40.0115 9.044C39.4835 9.344 39.0635 9.776 38.7515 10.34C38.4515 10.904 38.3015 11.546 38.3015 12.266C38.3015 12.986 38.4515 13.628 38.7515 14.192C39.0635 14.756 39.4835 15.194 40.0115 15.506C40.5515 15.806 41.1575 15.956 41.8295 15.956ZM52.8048 12.788H50.6448V17H49.3668V7.532H50.6448V11.69H52.8228L56.1528 7.532H57.5388L53.8128 12.122L57.8088 17H56.2968L52.8048 12.788ZM62.908 7.46C64.144 7.46 65.092 7.772 65.752 8.396C66.412 9.008 66.742 9.92 66.742 11.132V17H65.518V15.524C65.23 16.016 64.804 16.4 64.24 16.676C63.688 16.952 63.028 17.09 62.26 17.09C61.204 17.09 60.364 16.838 59.74 16.334C59.116 15.83 58.804 15.164 58.804 14.336C58.804 13.532 59.092 12.884 59.668 12.392C60.256 11.9 61.186 11.654 62.458 11.654H65.464V11.078C65.464 10.262 65.236 9.644 64.78 9.224C64.324 8.792 63.658 8.576 62.782 8.576C62.182 8.576 61.606 8.678 61.054 8.882C60.502 9.074 60.028 9.344 59.632 9.692L59.056 8.738C59.536 8.33 60.112 8.018 60.784 7.802C61.456 7.574 62.164 7.46 62.908 7.46ZM62.458 16.082C63.178 16.082 63.796 15.92 64.312 15.596C64.828 15.26 65.212 14.78 65.464 14.156V12.608H62.494C60.874 12.608 60.064 13.172 60.064 14.3C60.064 14.852 60.274 15.29 60.694 15.614C61.114 15.926 61.702 16.082 62.458 16.082ZM76.8042 8.666H73.2222V17H71.9442V8.666H68.3622V7.532H76.8042V8.666ZM13.464 41.4H5.664L4.176 45H0.192L7.68 28.2H11.52L19.032 45H14.952L13.464 41.4ZM12.24 38.448L9.576 32.016L6.912 38.448H12.24ZM33.4965 32.088V45H29.7525V35.16H25.6725L25.5525 37.44C25.4885 39.136 25.3285 40.544 25.0725 41.664C24.8165 42.784 24.4005 43.664 23.8245 44.304C23.2485 44.944 22.4485 45.264 21.4245 45.264C20.8805 45.264 20.2325 45.168 19.4805 44.976L19.6725 41.904C19.9285 41.936 20.1125 41.952 20.2245 41.952C20.7845 41.952 21.2005 41.752 21.4725 41.352C21.7605 40.936 21.9525 40.416 22.0485 39.792C22.1445 39.152 22.2165 38.312 22.2645 37.272L22.4565 32.088H33.4965ZM49.6489 38.592C49.6489 38.64 49.6249 38.976 49.5769 39.6H39.8089C39.9849 40.4 40.4009 41.032 41.0569 41.496C41.7129 41.96 42.5289 42.192 43.5049 42.192C44.1769 42.192 44.7689 42.096 45.2809 41.904C45.8089 41.696 46.2969 41.376 46.7449 40.944L48.7369 43.104C47.5209 44.496 45.7449 45.192 43.4089 45.192C41.9529 45.192 40.6649 44.912 39.5449 44.352C38.4249 43.776 37.5609 42.984 36.9529 41.976C36.3449 40.968 36.0409 39.824 36.0409 38.544C36.0409 37.28 36.3369 36.144 36.9289 35.136C37.5369 34.112 38.3609 33.32 39.4009 32.76C40.4569 32.184 41.6329 31.896 42.9289 31.896C44.1929 31.896 45.3369 32.168 46.3609 32.712C47.3849 33.256 48.1849 34.04 48.7609 35.064C49.3529 36.072 49.6489 37.248 49.6489 38.592ZM42.9529 34.728C42.1049 34.728 41.3929 34.968 40.8169 35.448C40.2409 35.928 39.8889 36.584 39.7609 37.416H46.1209C45.9929 36.6 45.6409 35.952 45.0649 35.472C44.4889 34.976 43.7849 34.728 42.9529 34.728ZM58.2068 40.104H56.2628V45H52.5188V32.088H56.2628V37.104H58.2788L61.7828 32.088H65.7668L61.2548 38.28L66.0788 45H61.6628L58.2068 40.104ZM73.6628 45.192C72.2868 45.192 71.0468 44.912 69.9428 44.352C68.8548 43.776 67.9988 42.984 67.3748 41.976C66.7668 40.968 66.4628 39.824 66.4628 38.544C66.4628 37.264 66.7668 36.12 67.3748 35.112C67.9988 34.104 68.8548 33.32 69.9428 32.76C71.0468 32.184 72.2868 31.896 73.6628 31.896C75.0228 31.896 76.2068 32.184 77.2148 32.76C78.2388 33.32 78.9828 34.128 79.4468 35.184L76.5428 36.744C75.8708 35.56 74.9028 34.968 73.6388 34.968C72.6628 34.968 71.8548 35.288 71.2148 35.928C70.5748 36.568 70.2548 37.44 70.2548 38.544C70.2548 39.648 70.5748 40.52 71.2148 41.16C71.8548 41.8 72.6628 42.12 73.6388 42.12C74.9188 42.12 75.8868 41.528 76.5428 40.344L79.4468 41.928C78.9828 42.952 78.2388 43.752 77.2148 44.328C76.2068 44.904 75.0228 45.192 73.6628 45.192ZM86.7379 31.896C88.7379 31.896 90.2739 32.376 91.3459 33.336C92.4179 34.28 92.9539 35.712 92.9539 37.632V45H89.4499V43.392C88.7459 44.592 87.4339 45.192 85.5139 45.192C84.5219 45.192 83.6579 45.024 82.9219 44.688C82.2019 44.352 81.6499 43.888 81.2659 43.296C80.8819 42.704 80.6899 42.032 80.6899 41.28C80.6899 40.08 81.1379 39.136 82.0339 38.448C82.9459 37.76 84.3459 37.416 86.2339 37.416H89.2099C89.2099 36.6 88.9619 35.976 88.4659 35.544C87.9699 35.096 87.2259 34.872 86.2339 34.872C85.5459 34.872 84.8659 34.984 84.1939 35.208C83.5379 35.416 82.9779 35.704 82.5139 36.072L81.1699 33.456C81.8739 32.96 82.7139 32.576 83.6899 32.304C84.6819 32.032 85.6979 31.896 86.7379 31.896ZM86.4499 42.672C87.0899 42.672 87.6579 42.528 88.1539 42.24C88.6499 41.936 89.0019 41.496 89.2099 40.92V39.6H86.6419C85.1059 39.6 84.3379 40.104 84.3379 41.112C84.3379 41.592 84.5219 41.976 84.8899 42.264C85.2739 42.536 85.7939 42.672 86.4499 42.672ZM96.2063 32.088H99.9263V37.128H105.542V32.088H109.286V45H105.542V40.176H99.9263V45H96.2063V32.088ZM127.342 41.928V47.784H123.862V45H114.79V47.784H111.31V41.928H111.838C112.638 41.912 113.19 41.44 113.494 40.512C113.798 39.584 113.99 38.264 114.07 36.552L114.238 32.088H125.494V41.928H127.342ZM117.454 36.816C117.406 38.128 117.302 39.2 117.142 40.032C116.998 40.864 116.718 41.496 116.302 41.928H121.75V35.16H117.526L117.454 36.816ZM137.306 31.896C138.506 31.896 139.594 32.176 140.57 32.736C141.562 33.28 142.338 34.056 142.898 35.064C143.458 36.056 143.738 37.216 143.738 38.544C143.738 39.872 143.458 41.04 142.898 42.048C142.338 43.04 141.562 43.816 140.57 44.376C139.594 44.92 138.506 45.192 137.306 45.192C135.658 45.192 134.362 44.672 133.418 43.632V49.656H129.674V32.088H133.25V33.576C134.178 32.456 135.53 31.896 137.306 31.896ZM136.658 42.12C137.618 42.12 138.402 41.8 139.01 41.16C139.634 40.504 139.946 39.632 139.946 38.544C139.946 37.456 139.634 36.592 139.01 35.952C138.402 35.296 137.618 34.968 136.658 34.968C135.698 34.968 134.906 35.296 134.282 35.952C133.674 36.592 133.37 37.456 133.37 38.544C133.37 39.632 133.674 40.504 134.282 41.16C134.906 41.8 135.698 42.12 136.658 42.12ZM159.951 38.232H157.263V45H153.399V28.2H157.263V34.992H160.047L164.463 28.2H168.567L163.071 36.312L168.735 45H164.319L159.951 38.232ZM175.402 31.896C177.402 31.896 178.938 32.376 180.01 33.336C181.082 34.28 181.618 35.712 181.618 37.632V45H178.114V43.392C177.41 44.592 176.098 45.192 174.178 45.192C173.186 45.192 172.322 45.024 171.586 44.688C170.866 44.352 170.314 43.888 169.93 43.296C169.546 42.704 169.354 42.032 169.354 41.28C169.354 40.08 169.802 39.136 170.698 38.448C171.61 37.76 173.01 37.416 174.898 37.416H177.874C177.874 36.6 177.626 35.976 177.13 35.544C176.634 35.096 175.89 34.872 174.898 34.872C174.21 34.872 173.53 34.984 172.858 35.208C172.202 35.416 171.642 35.704 171.178 36.072L169.834 33.456C170.538 32.96 171.378 32.576 172.354 32.304C173.346 32.032 174.362 31.896 175.402 31.896ZM175.114 42.672C175.754 42.672 176.322 42.528 176.818 42.24C177.314 41.936 177.666 41.496 177.874 40.92V39.6H175.306C173.77 39.6 173.002 40.104 173.002 41.112C173.002 41.592 173.186 41.976 173.554 42.264C173.938 42.536 174.458 42.672 175.114 42.672ZM197.47 45V37.272L193.606 43.752H192.022L188.254 37.248V45H184.87V32.088H188.782L192.91 39.552L197.302 32.088H200.806L200.854 45H197.47ZM211.905 32.976C213.137 32.976 214.217 33.232 215.145 33.744C216.073 34.24 216.785 34.944 217.281 35.856C217.793 36.768 218.049 37.824 218.049 39.024C218.049 40.256 217.745 41.352 217.137 42.312C216.545 43.256 215.713 43.992 214.641 44.52C213.569 45.032 212.353 45.288 210.993 45.288C208.737 45.288 206.961 44.568 205.665 43.128C204.385 41.672 203.745 39.544 203.745 36.744C203.745 34.152 204.305 32.088 205.425 30.552C206.561 29 208.297 27.984 210.633 27.504L216.777 26.28L217.281 29.496L211.857 30.576C210.385 30.864 209.289 31.344 208.569 32.016C207.865 32.688 207.449 33.64 207.321 34.872C207.881 34.264 208.553 33.8 209.337 33.48C210.121 33.144 210.977 32.976 211.905 32.976ZM211.017 42.384C211.977 42.384 212.745 42.072 213.321 41.448C213.913 40.824 214.209 40.032 214.209 39.072C214.209 38.096 213.913 37.32 213.321 36.744C212.745 36.168 211.977 35.88 211.017 35.88C210.041 35.88 209.257 36.168 208.665 36.744C208.073 37.32 207.777 38.096 207.777 39.072C207.777 40.048 208.081 40.848 208.689 41.472C209.297 42.08 210.073 42.384 211.017 42.384ZM233.174 32.088L227.342 45.792C226.75 47.28 226.014 48.328 225.134 48.936C224.27 49.544 223.222 49.848 221.99 49.848C221.318 49.848 220.654 49.744 219.998 49.536C219.342 49.328 218.806 49.04 218.389 48.672L219.758 46.008C220.046 46.264 220.374 46.464 220.742 46.608C221.126 46.752 221.502 46.824 221.87 46.824C222.382 46.824 222.798 46.696 223.118 46.44C223.438 46.2 223.726 45.792 223.982 45.216L224.03 45.096L218.438 32.088H222.302L225.926 40.848L229.574 32.088H233.174ZM242.588 31.896C243.788 31.896 244.876 32.176 245.852 32.736C246.844 33.28 247.62 34.056 248.18 35.064C248.74 36.056 249.02 37.216 249.02 38.544C249.02 39.872 248.74 41.04 248.18 42.048C247.62 43.04 246.844 43.816 245.852 44.376C244.876 44.92 243.788 45.192 242.588 45.192C240.94 45.192 239.644 44.672 238.7 43.632V49.656H234.956V32.088H238.532V33.576C239.46 32.456 240.812 31.896 242.588 31.896ZM241.94 42.12C242.9 42.12 243.684 41.8 244.292 41.16C244.916 40.504 245.228 39.632 245.228 38.544C245.228 37.456 244.916 36.592 244.292 35.952C243.684 35.296 242.9 34.968 241.94 34.968C240.98 34.968 240.188 35.296 239.564 35.952C238.956 36.592 238.652 37.456 238.652 38.544C238.652 39.632 238.956 40.504 239.564 41.16C240.188 41.8 240.98 42.12 241.94 42.12ZM257.692 45.192C256.332 45.192 255.108 44.912 254.02 44.352C252.948 43.776 252.108 42.984 251.5 41.976C250.892 40.968 250.588 39.824 250.588 38.544C250.588 37.264 250.892 36.12 251.5 35.112C252.108 34.104 252.948 33.32 254.02 32.76C255.108 32.184 256.332 31.896 257.692 31.896C259.052 31.896 260.268 32.184 261.34 32.76C262.412 33.32 263.252 34.104 263.86 35.112C264.468 36.12 264.772 37.264 264.772 38.544C264.772 39.824 264.468 40.968 263.86 41.976C263.252 42.984 262.412 43.776 261.34 44.352C260.268 44.912 259.052 45.192 257.692 45.192ZM257.692 42.12C258.652 42.12 259.436 41.8 260.044 41.16C260.668 40.504 260.98 39.632 260.98 38.544C260.98 37.456 260.668 36.592 260.044 35.952C259.436 35.296 258.652 34.968 257.692 34.968C256.732 34.968 255.94 35.296 255.316 35.952C254.692 36.592 254.38 37.456 254.38 38.544C254.38 39.632 254.692 40.504 255.316 41.16C255.94 41.8 256.732 42.12 257.692 42.12ZM277.211 38.256C278.731 38.768 279.491 39.792 279.491 41.328C279.491 42.496 279.051 43.4 278.171 44.04C277.291 44.68 275.979 45 274.235 45H267.347V32.088H273.947C275.563 32.088 276.827 32.384 277.739 32.976C278.651 33.552 279.107 34.368 279.107 35.424C279.107 36.064 278.939 36.632 278.603 37.128C278.283 37.608 277.819 37.984 277.211 38.256ZM270.779 37.392H273.611C274.923 37.392 275.579 36.928 275.579 36C275.579 35.088 274.923 34.632 273.611 34.632H270.779V37.392ZM273.923 42.456C275.299 42.456 275.987 41.984 275.987 41.04C275.987 40.544 275.827 40.184 275.507 39.96C275.187 39.72 274.683 39.6 273.995 39.6H270.779V42.456H273.923Z" fill="#262524"/>
<circle cx="94" cy="12" r="6" fill="#698C95"/>
</svg>
