<svg width="40" height="40" viewBox="0 0 40 40" fill="none" xmlns="http://www.w3.org/2000/svg">
<circle cx="20" cy="20" r="20" fill="#698C95"/>
<g clip-path="url(#clip0)">
<path d="M29.0404 29.2721L29.9779 25.2096C30.0795 24.7682 29.849 24.3151 29.435 24.1354L25.06 22.2604C24.6772 22.0964 24.2279 22.2057 23.9662 22.5299L22.0287 24.8971C19.0326 23.4909 16.5404 21.0339 15.1068 17.9753L17.474 16.0378C17.7983 15.7721 17.9076 15.3268 17.7436 14.944L15.8686 10.569C15.685 10.151 15.2318 9.92057 14.7904 10.0221L10.7279 10.9596C10.3061 11.0573 10.0014 11.4323 10.0014 11.8737C10.0014 21.8776 18.1068 29.9987 28.1264 29.9987C28.5639 29.9987 28.9428 29.6979 29.0404 29.2721Z" fill="white"/>
</g>
<defs>
<clipPath id="clip0">
<rect width="20" height="20" fill="white" transform="translate(30 10) rotate(90)"/>
</clipPath>
</defs>
</svg>
