<svg width="46" height="46" viewBox="0 0 46 46" fill="none" xmlns="http://www.w3.org/2000/svg">
<path d="M44.5625 11.5V12.9375C44.5625 13.1281 44.4868 13.311 44.352 13.4458C44.2172 13.5806 44.0344 13.6563 43.8438 13.6563H41.6875V14.7344C41.6875 15.3298 41.2048 15.8125 40.6094 15.8125H5.39062C4.79523 15.8125 4.3125 15.3298 4.3125 14.7344V13.6563H2.15625C1.96563 13.6563 1.78281 13.5806 1.64802 13.4458C1.51323 13.311 1.4375 13.1281 1.4375 12.9375V11.5C1.4375 11.3578 1.47968 11.2188 1.5587 11.1006C1.63772 10.9824 1.75003 10.8903 1.88142 10.8359L22.7252 2.92965C22.9011 2.85678 23.0989 2.85678 23.2748 2.92965L44.1186 10.8359C44.25 10.8903 44.3623 10.9824 44.4413 11.1006C44.5203 11.2188 44.5625 11.3578 44.5625 11.5ZM42.4062 38.8125H3.59375C2.40287 38.8125 1.4375 39.7779 1.4375 40.9688V42.4063C1.4375 42.5969 1.51323 42.7797 1.64802 42.9145C1.78281 43.0493 1.96563 43.125 2.15625 43.125H43.8438C44.0344 43.125 44.2172 43.0493 44.352 42.9145C44.4868 42.7797 44.5625 42.5969 44.5625 42.4063V40.9688C44.5625 39.7779 43.5971 38.8125 42.4062 38.8125ZM8.625 17.25V34.5H5.39062C4.79523 34.5 4.3125 34.9828 4.3125 35.5782V37.375H41.6875V35.5782C41.6875 34.9828 41.2048 34.5 40.6094 34.5H37.375V17.25H31.625V34.5H25.875V17.25H20.125V34.5H14.375V17.25H8.625Z" fill="white"/>
</svg>
