<svg width="53" height="53" viewBox="0 0 53 53" fill="none" xmlns="http://www.w3.org/2000/svg">
<path d="M26.5 6.09703e-07C41.1123 6.09703e-07 53 11.8877 53 26.5C53 41.1123 41.1123 53 26.5 53C11.8877 53 6.09703e-07 41.1123 6.09703e-07 26.5C6.09703e-07 11.8877 11.8877 6.09703e-07 26.5 6.09703e-07ZM26.5 51.2028C40.1202 51.2028 51.2028 40.1214 51.2028 26.5C51.2028 12.8798 40.1202 1.79718 26.5 1.79718C12.8774 1.79718 1.79718 12.8798 1.79718 26.5C1.79718 40.1214 12.8774 51.2028 26.5 51.2028Z" fill="white"/>
<path d="M29.8273 17.1963C30.0573 17.1963 30.2874 17.2837 30.4623 17.4599C30.8133 17.8097 30.8133 18.38 30.4623 18.7311L22.3199 26.8831L30.4623 35.0339C30.8122 35.3849 30.8122 35.9552 30.4623 36.3051C30.1113 36.6561 29.5421 36.6561 29.1911 36.3051L20.4149 27.5193C20.0638 27.1682 20.0638 26.5991 20.4149 26.2481L29.1911 17.4622C29.3672 17.2837 29.5973 17.1963 29.8273 17.1963Z" fill="white"/>
</svg>
