<svg width="53" height="53" viewBox="0 0 53 53" fill="none" xmlns="http://www.w3.org/2000/svg">
<path d="M23.1727 35.8037C22.9427 35.8037 22.7126 35.7163 22.5377 35.5401C22.1867 35.1903 22.1867 34.62 22.5377 34.2689L30.6801 26.1169L22.5377 17.9661C22.1878 17.6151 22.1878 17.0448 22.5377 16.6949C22.8887 16.3439 23.4579 16.3439 23.8089 16.6949L32.5851 25.4807C32.9362 25.8318 32.9362 26.4009 32.5851 26.7519L23.8089 35.5378C23.6328 35.7163 23.4027 35.8037 23.1727 35.8037Z" fill="white"/>
<path d="M26.5 53C11.8877 53 0 41.1123 0 26.5C0 11.8877 11.8877 0 26.5 0C41.1123 0 53 11.8877 53 26.5C53 41.1123 41.1123 53 26.5 53ZM26.5 1.79718C12.8798 1.79718 1.79718 12.8786 1.79718 26.5C1.79718 40.1202 12.8798 51.2028 26.5 51.2028C40.1226 51.2028 51.2028 40.1202 51.2028 26.5C51.2028 12.8786 40.1226 1.79718 26.5 1.79718Z" fill="white"/>
</svg>
