<svg width="25" height="31" viewBox="0 0 25 31" fill="none" xmlns="http://www.w3.org/2000/svg">
<path fill-rule="evenodd" clip-rule="evenodd" d="M17.0599 10.0427V6.62393C17.0599 4.14573 15.0185 2.13675 12.5003 2.13675C9.98213 2.13675 7.94075 4.14573 7.94075 6.62393V10.0427C7.94075 12.5209 9.98213 14.5299 12.5003 14.5299C15.0185 14.5299 17.0599 12.5209 17.0599 10.0427ZM12.5003 0C8.783 0 5.76953 2.96564 5.76953 6.62393V10.0427C5.76953 13.701 8.783 16.6667 12.5003 16.6667C16.2176 16.6667 19.2311 13.701 19.2311 10.0427V6.62393C19.2311 2.96564 16.2176 0 12.5003 0Z" fill="black"/>
<path d="M2.07764 8.33398H23.2652L24.9821 25.9956C25.1975 28.2114 23.4364 30.1289 21.1859 30.1289H3.81425C1.53476 30.1289 -0.235662 28.1641 0.0256216 25.9243L2.07764 8.33398Z" fill="black"/>
<path d="M4.46017 10.7148H20.8048L22.1293 24.0278C22.2955 25.698 20.9369 27.1434 19.2008 27.1434H5.79983C4.04138 27.1434 2.67563 25.6623 2.87719 23.974L4.46017 10.7148Z" fill="white"/>
</svg>
