<svg width="762" height="416" viewBox="0 0 762 416" fill="none" xmlns="http://www.w3.org/2000/svg">
<g opacity="0.1">
<path d="M80.7102 274.246C90.6844 283.863 105.105 288.632 123.811 288.632C137.231 288.632 148.767 285.254 158.461 278.657C168.155 271.981 174.123 264.907 176.206 257.515H234.809C225.476 286.327 211.056 306.912 191.708 319.351C172.32 331.71 148.927 337.91 121.448 337.91C102.381 337.91 85.2366 334.929 69.9348 328.889C54.633 322.888 41.6546 314.264 30.9994 303.097C20.3443 291.93 12.1727 278.657 6.36446 263.079C0.636309 247.58 -2.20776 230.571 -2.20776 211.973C-2.20776 194.01 0.716422 177.28 6.64485 161.781C12.5733 146.283 20.9853 132.85 31.9609 121.524C42.8964 110.238 55.995 101.336 71.0564 94.819C86.278 88.3017 103.022 85.043 121.488 85.043C142.158 85.043 160.063 88.9772 175.325 96.9253C190.747 104.834 203.244 115.444 213.139 128.757C222.912 142.11 230.003 157.291 234.409 174.339C238.775 191.388 240.297 209.231 239.055 227.79H64.2868C65.2081 249.09 70.736 264.668 80.7102 274.246ZM155.897 147.832C147.966 139.129 135.829 134.798 119.606 134.798C108.95 134.798 100.178 136.586 93.0878 140.163C86.0779 143.739 80.5099 148.111 76.2638 153.396C72.0579 158.681 69.0536 164.245 67.3712 170.127C65.6087 176.008 64.6073 181.294 64.2868 185.903H172.561C169.436 169.173 163.868 156.456 155.897 147.832Z" fill="#E0C0B4"/>
<path d="M346.889 0V331.87H280.274V0H346.889Z" fill="#E0C0B4"/>
<path d="M462.574 91.5603V122.279H463.495C471.627 109.245 481.962 99.7866 494.379 93.905C506.917 87.9837 520.617 85.043 535.718 85.043C554.745 85.043 571.129 88.6196 584.868 95.7331C598.648 102.886 610.064 112.305 619.077 124.108C628.13 135.91 634.859 149.621 639.266 165.278C643.552 180.936 645.795 197.269 645.795 214.278C645.795 230.373 643.552 245.911 639.266 260.774C634.859 275.676 628.17 288.791 619.357 300.315C610.425 311.721 599.329 320.901 586.03 327.657C572.731 334.492 557.229 337.91 539.483 337.91C524.382 337.91 510.522 334.929 497.944 328.889C485.366 322.888 474.912 313.946 466.82 302.143H465.899V415.999H399.324V91.5603H462.574ZM549.017 282.154C556.348 277.862 562.236 272.179 566.762 265.185C571.289 258.191 574.493 250.044 576.416 240.745C578.259 231.525 579.14 222.027 579.14 212.41C579.14 202.833 578.219 193.375 576.176 184.075C574.173 174.776 570.808 166.471 566.041 159.198C561.435 151.926 555.386 146.044 548.136 141.553C540.685 137.063 531.793 134.798 521.137 134.798C510.202 134.798 500.989 137.063 493.698 141.553C486.408 146.044 480.44 151.806 475.913 158.96C471.347 166.073 468.182 174.299 466.339 183.559C464.457 192.858 463.535 202.515 463.535 212.41C463.535 222.027 464.537 231.525 466.58 240.745C468.583 250.044 471.907 258.191 476.434 265.185C480.88 272.179 486.969 277.822 494.419 282.154C501.95 286.486 510.923 288.672 521.578 288.672C532.514 288.672 541.687 286.486 549.017 282.154Z" fill="#E0C0B4"/>
<path d="M761.999 260.299V331.911H688.455V260.299H761.999Z" fill="#E0C0B4"/>
</g>
</svg>
