<svg width="435" height="87" viewBox="0 0 435 87" fill="none" xmlns="http://www.w3.org/2000/svg">
<path d="M13.9231 0V26.1382H14.2163C15.9755 23.2211 18.229 21.1101 20.9768 19.7803C23.7245 18.4505 26.3885 17.7856 29.0106 17.7856C32.7385 17.7856 35.7879 18.3009 38.1838 19.2899C40.5629 20.2956 42.4394 21.6918 43.8133 23.4787C45.1788 25.2573 46.1422 27.4264 46.6951 29.9862C47.2564 32.546 47.5328 35.3718 47.5328 38.4884V69.4055H33.6181V41.0233C33.6181 36.8761 32.9731 33.7844 31.6662 31.7482C30.351 29.6954 28.0388 28.6731 24.7047 28.6731C20.9014 28.6731 18.1704 29.7951 16.4782 32.0224C14.7776 34.2581 13.9231 37.9399 13.9231 43.0678V69.4138H0V0H13.9231Z" fill="black"/>
<path d="M57.527 34.6072C57.7281 31.3493 58.5239 28.6731 59.9732 26.5289C61.4141 24.3929 63.2403 22.6642 65.4603 21.3677C67.6887 20.0878 70.1935 19.1653 72.958 18.6001C75.7476 18.0516 78.5373 17.7773 81.3353 17.7773C83.9071 17.7773 86.4706 17.9519 89.0843 18.3093C91.7064 18.6666 94.0856 19.3648 96.2385 20.4036C98.3999 21.4425 100.151 22.8803 101.525 24.7254C102.899 26.5787 103.577 29.0222 103.577 32.0723V58.2272C103.577 60.4795 103.719 62.657 103.979 64.7347C104.23 66.8125 104.691 68.3583 105.353 69.3972H91.2457C90.9776 68.6077 90.7765 67.8181 90.6006 67.0203C90.4414 66.2058 90.3325 65.383 90.2571 64.5353C88.0455 66.8208 85.4234 68.3999 82.416 69.3058C79.4085 70.22 76.3424 70.6688 73.2009 70.6688C70.7799 70.6688 68.5348 70.3779 66.4405 69.8045C64.3629 69.2061 62.5199 68.3085 60.9533 67.0701C59.4035 65.8484 58.1637 64.2859 57.2841 62.4076C56.3961 60.5293 55.9604 58.2937 55.9604 55.6923C55.9604 52.8416 56.4715 50.4979 57.4935 48.6529C58.4904 46.7995 59.7973 45.3284 61.3973 44.2231C62.989 43.126 64.8404 42.3032 66.8845 41.7464C68.9453 41.2062 71.0228 40.7574 73.1004 40.4332C75.1947 40.1091 77.2556 39.8598 79.2829 39.6603C81.2934 39.4609 83.0946 39.17 84.6695 38.7793C86.2444 38.3887 87.4843 37.8319 88.389 37.0839C89.2938 36.3359 89.721 35.2472 89.6624 33.826C89.6624 32.33 89.4194 31.1581 88.9168 30.2772C88.4225 29.3962 87.7691 28.7147 86.9649 28.2326C86.1523 27.7423 85.2056 27.4182 84.125 27.2602C83.0527 27.1106 81.905 27.0275 80.6651 27.0275C77.9174 27.0275 75.756 27.601 74.1895 28.7645C72.6145 29.9364 71.7182 31.8812 71.4417 34.6072H57.527ZM89.6707 44.8132C89.0843 45.3368 88.3471 45.7357 87.4675 46.0266C86.5795 46.3175 85.6329 46.5585 84.6192 46.7579C83.6056 46.9408 82.5416 47.1153 81.4358 47.2483C80.3217 47.373 79.2242 47.5309 78.1017 47.7303C77.0629 47.9298 76.0241 48.1791 75.0188 48.5033C74.0052 48.8274 73.1339 49.2762 72.3883 49.8164C71.6176 50.3649 71.0228 51.0797 70.5705 51.9025C70.093 52.7502 69.8752 53.814 69.8752 55.1105C69.8752 56.3572 70.093 57.3961 70.5705 58.2355C71.0312 59.0749 71.6512 59.7315 72.4386 60.2218C73.2093 60.7039 74.1225 61.0446 75.178 61.2441C76.2084 61.4352 77.2975 61.535 78.4033 61.535C81.1426 61.535 83.2872 61.0696 84.7784 60.172C86.2779 59.2661 87.4005 58.1856 88.1126 56.914C88.833 55.6508 89.2686 54.3626 89.4278 53.066C89.587 51.7695 89.6707 50.7389 89.6707 49.966V44.8132Z" fill="black"/>
<path d="M114.761 11.3695V0H128.667V11.3695H114.761ZM128.667 19.1486V69.4138H114.761V19.1486H128.667Z" fill="black"/>
<path d="M152.869 19.1487V28.482H153.07C153.724 26.9195 154.612 25.49 155.718 24.1519C156.832 22.8221 158.088 21.6918 159.546 20.7527C160.987 19.8135 162.512 19.0822 164.145 18.5586C165.779 18.035 167.488 17.7773 169.23 17.7773C170.143 17.7773 171.182 17.9436 172.271 18.2677V31.1083C171.634 30.967 170.83 30.8672 169.934 30.7509C169.021 30.6678 168.116 30.6179 167.287 30.6179C164.732 30.6179 162.579 31.0418 160.828 31.8729C159.052 32.7123 157.636 33.8675 156.555 35.322C155.483 36.7847 154.704 38.4885 154.252 40.4249C153.791 42.3697 153.581 44.4724 153.581 46.7496V69.3972H139.65V19.1487H152.869Z" fill="black"/>
<path d="M221.856 0V26.6286H250.188V0H265.561V69.4055H250.188V39.4608H221.856V69.4055H206.484V0H221.856Z" fill="black"/>
<path d="M292.519 57.354C294.605 59.3653 297.621 60.3626 301.533 60.3626C304.339 60.3626 306.752 59.6562 308.779 58.2766C310.806 56.8803 312.055 55.4009 312.49 53.8551H324.746C322.794 59.8806 319.779 64.1857 315.732 66.7871C311.678 69.3718 306.785 70.6683 301.038 70.6683C297.051 70.6683 293.465 70.045 290.265 68.7817C287.065 67.5267 284.351 65.7232 282.123 63.3878C279.894 61.0524 278.185 58.2765 276.97 55.0186C275.773 51.7773 275.178 48.2202 275.178 44.3306C275.178 40.574 275.789 37.0751 277.029 33.8338C278.269 30.5925 280.028 27.7833 282.324 25.4147C284.611 23.0544 287.35 21.1927 290.5 19.8297C293.683 18.4667 297.185 17.7852 301.047 17.7852C305.37 17.7852 309.114 18.6079 312.306 20.2702C315.531 21.9241 318.145 24.1431 320.214 26.9273C322.258 29.7198 323.741 32.8946 324.662 36.4601C325.576 40.0255 325.894 43.7572 325.634 47.6384H289.084C289.277 52.0931 290.433 55.3511 292.519 57.354ZM308.243 30.9166C306.584 29.0965 304.046 28.1906 300.653 28.1906C298.425 28.1906 296.59 28.5646 295.107 29.3126C293.641 30.0606 292.477 30.9748 291.589 32.0801C290.709 33.1855 290.081 34.3491 289.729 35.5791C289.361 36.8091 289.151 37.9145 289.084 38.8786H311.728C311.074 35.3796 309.91 32.7201 308.243 30.9166Z" fill="black"/>
<path d="M348.186 0V69.4055H334.254V0H348.186Z" fill="black"/>
<path d="M372.38 19.1482V25.5726H372.572C374.273 22.8466 376.434 20.8686 379.031 19.6385C381.653 18.4002 384.518 17.7852 387.677 17.7852C391.656 17.7852 395.082 18.5331 397.956 20.0208C400.837 21.5168 403.225 23.4865 405.11 25.9549C407.003 28.4233 408.41 31.2906 409.332 34.5651C410.228 37.8397 410.697 41.2555 410.697 44.8127C410.697 48.1786 410.228 51.4283 409.332 54.5366C408.41 57.6532 407.011 60.3959 405.168 62.8061C403.3 65.1913 400.98 67.1112 398.198 68.5241C395.417 69.9536 392.175 70.6683 388.464 70.6683C385.306 70.6683 382.407 70.045 379.777 68.7817C377.146 67.5267 374.96 65.6568 373.268 63.1884H373.075V86.9995H359.152V19.1482H372.38ZM390.458 59.0079C391.991 58.1103 393.222 56.9219 394.169 55.4591C395.116 53.9964 395.786 52.2926 396.188 50.3478C396.573 48.4197 396.758 46.4333 396.758 44.422C396.758 42.4191 396.565 40.4411 396.138 38.4963C395.719 36.5515 395.015 34.8145 394.018 33.2936C393.055 31.7726 391.79 30.5426 390.274 29.6035C388.715 28.6643 386.856 28.1906 384.627 28.1906C382.34 28.1906 380.413 28.6643 378.889 29.6035C377.364 30.5426 376.116 31.7477 375.169 33.2437C374.214 34.7314 373.552 36.4518 373.167 38.3882C372.773 40.333 372.581 42.3526 372.581 44.422C372.581 46.4333 372.79 48.4197 373.217 50.3478C373.636 52.2926 374.332 53.9964 375.278 55.4591C376.208 56.9219 377.481 58.102 379.04 59.0079C380.614 59.9138 382.491 60.3709 384.719 60.3709C387.006 60.3709 388.925 59.9138 390.458 59.0079Z" fill="black"/>
<path d="M435 54.4375V69.414H419.619V54.4375H435Z" fill="black"/>
</svg>
