<svg width="280" height="55" viewBox="0 0 280 55" fill="none" xmlns="http://www.w3.org/2000/svg">
<path d="M8.96198 0V16.5242H9.15071C10.2831 14.68 11.7336 13.3454 13.5023 12.5048C15.271 11.6641 16.9857 11.2438 18.6735 11.2438C21.0731 11.2438 23.0359 11.5695 24.5781 12.1948C26.1095 12.8305 27.3173 13.7132 28.2017 14.8429C29.0806 15.9672 29.7007 17.3386 30.0566 18.9568C30.4179 20.5751 30.5958 22.3615 30.5958 24.3318V43.8771H21.6393V25.9343C21.6393 23.3125 21.2241 21.358 20.3829 20.0707C19.5363 18.7729 18.048 18.1267 15.9019 18.1267C13.4538 18.1267 11.6959 18.836 10.6066 20.2441C9.512 21.6574 8.96198 23.985 8.96198 27.2268V43.8823H0V0H8.96198Z" fill="black"/>
<path d="M37.0287 21.8778C37.1582 19.8182 37.6704 18.1264 38.6033 16.7709C39.5308 15.4205 40.7063 14.3277 42.1352 13.5081C43.5696 12.6989 45.1819 12.1157 46.9613 11.7584C48.757 11.4117 50.5526 11.2383 52.3536 11.2383C54.0091 11.2383 55.6591 11.3486 57.3415 11.5745C59.0293 11.8005 60.5607 12.2418 61.9465 12.8986C63.3377 13.5553 64.4647 14.4643 65.3491 15.6307C66.2334 16.8024 66.6702 18.3471 66.6702 20.2753V36.81C66.6702 38.2339 66.7618 39.6105 66.929 40.924C67.0908 42.2375 67.3873 43.2148 67.8133 43.8715H58.7327C58.5602 43.3724 58.4307 42.8733 58.3175 42.3689C58.2151 41.854 58.145 41.3338 58.0964 40.7979C56.6729 42.2428 54.9851 43.241 53.0492 43.8137C51.1134 44.3917 49.1398 44.6754 47.1177 44.6754C45.5593 44.6754 44.1142 44.4915 42.7661 44.129C41.4289 43.7507 40.2425 43.1832 39.2342 42.4004C38.2366 41.628 37.4386 40.6403 36.8724 39.4528C36.3008 38.2654 36.0204 36.852 36.0204 35.2075C36.0204 33.4054 36.3493 31.9237 37.0072 30.7573C37.6489 29.5856 38.4901 28.6556 39.52 27.9568C40.5445 27.2633 41.7362 26.7431 43.0519 26.3911C44.3784 26.0496 45.7157 25.7659 47.053 25.561C48.4011 25.3561 49.7276 25.1984 51.0325 25.0723C52.3267 24.9462 53.486 24.7623 54.4998 24.5154C55.5135 24.2685 56.3116 23.9164 56.8939 23.4436C57.4763 22.9707 57.7513 22.2824 57.7136 21.384C57.7136 20.4382 57.5572 19.6974 57.2337 19.1405C56.9155 18.5835 56.4949 18.1527 55.9773 17.8479C55.4542 17.538 54.8449 17.333 54.1493 17.2332C53.4591 17.1386 52.7203 17.0861 51.9222 17.0861C50.1536 17.0861 48.7624 17.4486 47.754 18.1842C46.7403 18.925 46.1633 20.1545 45.9853 21.8778H37.0287ZM57.719 28.3299C57.3415 28.6609 56.867 28.9131 56.3008 29.097C55.7292 29.2809 55.1199 29.4333 54.4674 29.5593C53.8149 29.6749 53.1301 29.7853 52.4183 29.8693C51.7012 29.9482 50.9948 30.048 50.2722 30.1741C49.6036 30.3002 48.9349 30.4578 48.2878 30.6627C47.6354 30.8676 47.0746 31.1513 46.5947 31.4929C46.0986 31.8396 45.7157 32.2915 45.4245 32.8116C45.1172 33.3476 44.977 34.0201 44.977 34.8397C44.977 35.6278 45.1172 36.2846 45.4245 36.8153C45.7211 37.3459 46.1201 37.761 46.627 38.071C47.1231 38.3757 47.7109 38.5912 48.3903 38.7173C49.0536 38.8381 49.7546 38.9011 50.4663 38.9011C52.2296 38.9011 53.61 38.6069 54.5699 38.0395C55.5351 37.4668 56.2576 36.7837 56.716 35.9799C57.1797 35.1812 57.4601 34.3669 57.5626 33.5472C57.665 32.7276 57.719 32.0761 57.719 31.5874V28.3299V28.3299Z" fill="black"/>
<path d="M73.869 7.18762V0H82.8202V7.18762H73.869ZM82.8202 12.1055V43.8823H73.869V12.1055H82.8202Z" fill="black"/>
<path d="M98.3986 12.1052V18.0056H98.528C98.9486 17.0178 99.5202 16.1141 100.232 15.2682C100.949 14.4275 101.758 13.713 102.696 13.1193C103.624 12.5255 104.605 12.0632 105.657 11.7322C106.708 11.4012 107.808 11.2383 108.93 11.2383C109.517 11.2383 110.186 11.3434 110.887 11.5483V19.6659C110.477 19.5765 109.96 19.5135 109.383 19.4399C108.795 19.3874 108.213 19.3559 107.679 19.3559C106.034 19.3559 104.648 19.6238 103.521 20.1492C102.378 20.6799 101.467 21.4102 100.771 22.3297C100.081 23.2544 99.5795 24.3315 99.2883 25.5557C98.9917 26.7852 98.8569 28.1145 98.8569 29.5541V43.8715H89.8895V12.1052H98.3986Z" fill="black"/>
<path d="M142.804 0V16.8342H161.041V0H170.936V43.8771H161.041V24.9465H142.804V43.8771H132.909V0H142.804Z" fill="black"/>
<path d="M188.288 36.2589C189.631 37.5304 191.572 38.1609 194.09 38.1609C195.896 38.1609 197.449 37.7143 198.754 36.8422C200.059 35.9595 200.863 35.0242 201.143 34.047H209.032C207.776 37.8562 205.834 40.5778 203.23 42.2224C200.62 43.8564 197.471 44.676 193.772 44.676C191.205 44.676 188.897 44.282 186.837 43.4833C184.777 42.69 183.03 41.5498 181.596 40.0734C180.162 38.597 179.062 36.8421 178.28 34.7825C177.509 32.7334 177.126 30.4847 177.126 28.0258C177.126 25.6509 177.519 23.4389 178.318 21.3898C179.116 19.3407 180.248 17.5648 181.725 16.0674C183.198 14.5752 184.961 13.3983 186.988 12.5367C189.037 11.675 191.291 11.2441 193.777 11.2441C196.56 11.2441 198.97 11.7643 201.024 12.8151C203.1 13.8607 204.783 15.2635 206.115 17.0237C207.43 18.789 208.385 20.7961 208.978 23.0501C209.566 25.3041 209.771 27.6632 209.604 30.1169H186.077C186.201 32.9331 186.945 34.9927 188.288 36.2589ZM198.409 19.5456C197.342 18.395 195.708 17.8223 193.524 17.8223C192.089 17.8223 190.909 18.0587 189.954 18.5316C189.01 19.0045 188.261 19.5824 187.689 20.2812C187.123 20.98 186.719 21.7156 186.492 22.4932C186.255 23.2708 186.12 23.9696 186.077 24.5791H200.652C200.232 22.3671 199.482 20.6858 198.409 19.5456Z" fill="black"/>
<path d="M224.12 0V43.8771H215.152V0H224.12Z" fill="black"/>
<path d="M239.693 12.1058V16.1672H239.817C240.911 14.4439 242.303 13.1934 243.974 12.4158C245.662 11.6329 247.506 11.2441 249.539 11.2441C252.1 11.2441 254.306 11.717 256.155 12.6575C258.01 13.6032 259.547 14.8485 260.76 16.4089C261.979 17.9694 262.885 19.7821 263.478 21.8522C264.055 23.9223 264.357 26.0817 264.357 28.3305C264.357 30.4584 264.055 32.5128 263.478 34.4778C262.885 36.4481 261.984 38.1819 260.798 39.7056C259.596 41.2136 258.102 42.4273 256.312 43.3205C254.521 44.2242 252.435 44.676 250.046 44.676C248.013 44.676 246.147 44.282 244.454 43.4833C242.761 42.69 241.353 41.5078 240.264 39.9473H240.14V55.0003H231.178V12.1058H239.693ZM251.329 37.3045C252.316 36.7371 253.109 35.9857 253.718 35.061C254.327 34.1363 254.759 33.0592 255.018 31.8297C255.266 30.6108 255.384 29.355 255.384 28.0836C255.384 26.8173 255.26 25.5668 254.985 24.3374C254.716 23.1079 254.263 22.0098 253.621 21.0483C253.001 20.0868 252.187 19.3092 251.211 18.7155C250.208 18.1218 249.011 17.8223 247.576 17.8223C246.104 17.8223 244.864 18.1218 243.882 18.7155C242.901 19.3092 242.098 20.071 241.488 21.0168C240.874 21.9573 240.448 23.0449 240.2 24.2691C239.946 25.4985 239.822 26.7753 239.822 28.0836C239.822 29.355 239.957 30.6108 240.232 31.8297C240.501 33.0592 240.949 34.1363 241.558 35.061C242.157 35.9857 242.977 36.7318 243.98 37.3045C244.993 37.8772 246.201 38.1662 247.636 38.1662C249.108 38.1662 250.342 37.8772 251.329 37.3045Z" fill="black"/>
<path d="M280 34.4141V43.882H270.1V34.4141H280Z" fill="black"/>
</svg>
