<svg width="1221" height="104" viewBox="0 0 1221 104" fill="none" xmlns="http://www.w3.org/2000/svg">
<g opacity="0.1">
<path d="M66.5747 -234V-109.017H67.9767C76.3887 -122.966 87.1641 -133.06 100.303 -139.418C113.441 -145.777 126.18 -148.956 138.717 -148.956C156.543 -148.956 171.124 -146.492 182.58 -141.763C193.956 -136.955 202.929 -130.278 209.498 -121.734C216.027 -113.23 220.634 -102.857 223.278 -90.6175C225.962 -78.3775 227.283 -64.8659 227.283 -49.9633V97.8701H160.749V-37.8425C160.749 -57.6729 157.664 -72.4562 151.415 -82.1926C145.127 -92.0084 134.071 -96.8964 118.128 -96.8964C99.9422 -96.8964 86.8837 -91.5315 78.7921 -80.8811C70.6606 -70.191 66.5747 -52.5861 66.5747 -28.0665V97.9099H0V-234H66.5747Z" fill="#D7BDB1"/>
<path d="M275.071 -68.5223C276.033 -84.1004 279.838 -96.8967 286.768 -107.15C293.658 -117.363 302.39 -125.629 313.005 -131.828C323.661 -137.948 335.638 -142.359 348.856 -145.062C362.195 -147.685 375.534 -148.996 388.913 -148.996C401.211 -148.996 413.468 -148.162 425.966 -146.453C438.504 -144.744 449.88 -141.406 460.175 -136.438C470.51 -131.471 478.882 -124.596 485.451 -115.773C492.02 -106.911 495.265 -95.2277 495.265 -80.643V44.4193C495.265 55.1888 495.946 65.6008 497.188 75.5358C498.389 85.4708 500.592 92.8625 503.757 97.83H436.301C435.019 94.0547 434.058 90.2794 433.217 86.4644C432.455 82.5698 431.935 78.6355 431.574 74.582C420.999 85.5106 408.461 93.0612 394.081 97.3929C379.7 101.764 365.04 103.91 350.018 103.91C338.442 103.91 327.706 102.519 317.692 99.7773C307.758 96.916 298.945 92.6241 291.455 86.7028C284.044 80.861 278.116 73.3898 273.91 64.4086C269.664 55.4273 267.581 44.7372 267.581 32.2985C267.581 18.6676 270.024 7.46091 274.911 -1.3614C279.678 -10.2235 285.927 -17.2575 293.578 -22.5429C301.189 -27.7886 310.041 -31.7229 319.815 -34.3855C329.669 -36.9686 339.603 -39.1146 349.537 -40.6644C359.552 -42.2143 369.406 -43.4065 379.1 -44.3603C388.713 -45.314 397.326 -46.7049 404.856 -48.5727C412.387 -50.4405 418.315 -53.1031 422.642 -56.6797C426.968 -60.2563 429.011 -65.4623 428.73 -72.2578C428.73 -79.4111 427.569 -85.0144 425.165 -89.2269C422.802 -93.4394 419.677 -96.698 415.832 -99.003C411.946 -101.348 407.42 -102.898 402.252 -103.653C397.125 -104.368 391.637 -104.765 385.709 -104.765C372.57 -104.765 362.236 -102.023 354.745 -96.4596C347.214 -90.8562 342.928 -81.557 341.606 -68.5223H275.071ZM428.77 -19.7213C425.966 -17.2177 422.441 -15.3102 418.235 -13.9193C413.989 -12.5284 409.463 -11.3759 404.616 -10.4222C399.769 -9.54788 394.682 -8.71334 389.394 -8.07749C384.067 -7.48139 378.819 -6.72632 373.452 -5.77256C368.484 -4.8188 363.517 -3.62659 358.711 -2.07673C353.864 -0.526862 349.698 1.61911 346.133 4.20222C342.447 6.82507 339.603 10.2427 337.44 14.177C335.157 18.2305 334.116 23.3172 334.116 29.5167C334.116 35.4777 335.157 40.4452 337.44 44.459C339.643 48.4728 342.608 51.6122 346.373 53.9569C350.058 56.2618 354.424 57.8912 359.472 58.8449C364.399 59.759 369.606 60.2358 374.894 60.2358C387.992 60.2358 398.247 58.0104 405.377 53.7184C412.547 49.3868 417.915 44.2206 421.32 38.1403C424.765 32.0998 426.848 25.9401 427.609 19.7406C428.37 13.5412 428.77 8.61338 428.77 4.91754V-19.7213V-19.7213Z" fill="#D7BDB1"/>
<path d="M548.741 -179.635V-234H615.236V-179.635H548.741ZM615.236 -142.439V97.9099H548.741V-142.439H615.236Z" fill="#D7BDB1"/>
<path d="M730.961 -142.439V-97.8108H731.922C735.047 -105.282 739.293 -112.117 744.58 -118.515C749.908 -124.874 755.917 -130.278 762.886 -134.769C769.776 -139.26 777.067 -142.757 784.878 -145.261C792.689 -147.764 800.861 -148.996 809.192 -148.996C813.559 -148.996 818.526 -148.201 823.733 -146.651V-85.2529C820.689 -85.9285 816.843 -86.4053 812.557 -86.9617C808.191 -87.3591 803.865 -87.5976 799.899 -87.5976C787.682 -87.5976 777.387 -85.5708 769.015 -81.5968C760.523 -77.583 753.753 -72.0592 748.586 -65.1046C743.459 -58.1104 739.734 -49.9636 737.57 -40.7042C735.367 -31.405 734.366 -21.3507 734.366 -10.4619V97.83H667.751V-142.439H730.961Z" fill="#D7BDB1"/>
<path d="M1107.5 -234V-106.673H1242.98V-234H1316.48V97.8701H1242.98V-45.3137H1107.5V97.8701H1034V-234H1107.5Z" fill="#D7BDB1"/>
</g>
</svg>
