<svg width="110" height="110" viewBox="0 0 110 110" fill="none" xmlns="http://www.w3.org/2000/svg">
<path d="M54.9976 0C24.6295 0 0 24.6242 0 54.9988C0 85.3734 24.6295 110 54.9976 110C85.3776 110 110 85.371 110 54.9988C110 24.6242 85.3776 0 54.9976 0ZM76.2534 71.2246H69.1182V57.2233H55.9826V71.2246H55.7994H49.3423H48.8498V54.4683C48.7332 54.1494 48.5999 53.864 48.4405 53.6165C47.8267 52.6625 46.7561 52.1819 45.212 52.1819C43.4514 52.1819 42.1832 52.7077 41.3933 53.7498C40.6035 54.7918 40.2109 56.5167 40.2109 58.9101V71.2246H33.7537V38.7754H40.2109V51.0018H40.3536C41.1721 49.6338 42.2142 48.6441 43.4799 48.0231C44.7575 47.3998 45.9995 47.0881 47.2105 47.0881C47.7982 47.0881 48.3359 47.1286 48.8498 47.1809V38.7754H55.9826V51.2255H69.1182V38.7754H76.2534V71.2246Z" fill="black"/>
</svg>
