<svg width="90" height="90" viewBox="0 0 90 90" fill="none" xmlns="http://www.w3.org/2000/svg">
<path d="M44.998 0C20.1514 0 0 20.1471 0 44.999C0 69.851 20.1514 90 44.998 90C69.8544 90 90 69.849 90 44.999C90 20.1471 69.8544 0 44.998 0ZM62.3891 58.2747H56.5512V46.8191H45.804V58.2747H45.6541H40.3709H39.968V44.5649C39.8726 44.3041 39.7636 44.0705 39.6332 43.8681C39.1309 43.0875 38.255 42.6943 36.9916 42.6943C35.5511 42.6943 34.5136 43.1245 33.8673 43.9771C33.221 44.8297 32.8998 46.2409 32.8998 48.1992V58.2747H27.6167V31.7253H32.8998V41.7288H33.0166C33.6862 40.6095 34.5389 39.7997 35.5745 39.2917C36.6198 38.7817 37.6359 38.5267 38.6268 38.5267C39.1076 38.5267 39.5475 38.5597 39.968 38.6026V31.7253H45.804V41.9118H56.5512V31.7253H62.3891V58.2747Z" fill="black"/>
</svg>
