<svg width="454" height="87" viewBox="0 0 454 87" fill="none" xmlns="http://www.w3.org/2000/svg">
<path d="M13.9231 0V26.1382H14.2163C15.9755 23.2211 18.229 21.1101 20.9768 19.7803C23.7245 18.4505 26.3885 17.7856 29.0106 17.7856C32.7385 17.7856 35.7879 18.3009 38.1838 19.2899C40.5629 20.2956 42.4394 21.6918 43.8133 23.4787C45.1788 25.2573 46.1422 27.4264 46.6951 29.9862C47.2564 32.546 47.5328 35.3718 47.5328 38.4884V69.4055H33.6181V41.0233C33.6181 36.8761 32.9731 33.7844 31.6662 31.7482C30.351 29.6954 28.0388 28.6731 24.7047 28.6731C20.9014 28.6731 18.1704 29.7951 16.4782 32.0225C14.7776 34.2581 13.9231 37.9399 13.9231 43.0678V69.4138H0V0H13.9231Z" fill="black"/>
<path d="M64.0994 34.6072C64.3005 31.3493 65.0963 28.6731 66.5456 26.5289C67.9865 24.3929 69.8127 22.6642 72.0327 21.3677C74.2611 20.0878 76.7659 19.1653 79.5304 18.6001C82.32 18.0516 85.1097 17.7773 87.9077 17.7773C90.4795 17.7773 93.043 17.9519 95.6567 18.3093C98.2788 18.6666 100.658 19.3648 102.811 20.4036C104.972 21.4425 106.723 22.8803 108.097 24.7254C109.471 26.5787 110.149 29.0222 110.149 32.0723V58.2272C110.149 60.4795 110.292 62.657 110.552 64.7347C110.803 66.8125 111.264 68.3583 111.925 69.3972H97.8181C97.55 68.6077 97.3489 67.8181 97.173 67.0203C97.0138 66.2058 96.9049 65.383 96.8295 64.5353C94.6179 66.8208 91.9958 68.3999 88.9884 69.3058C85.9809 70.22 82.9148 70.6688 79.7733 70.6688C77.3523 70.6688 75.1072 70.3779 73.0129 69.8045C70.9353 69.2061 69.0923 68.3085 67.5257 67.0701C65.9759 65.8484 64.7361 64.2859 63.8565 62.4076C62.9685 60.5293 62.5328 58.2937 62.5328 55.6923C62.5328 52.8416 63.0439 50.4979 64.0659 48.6529C65.0628 46.7995 66.3696 45.3284 67.9697 44.2231C69.5614 43.126 71.4128 42.3032 73.4568 41.7464C75.5177 41.2062 77.5952 40.7574 79.6728 40.4332C81.7671 40.1091 83.828 39.8598 85.8553 39.6603C87.8658 39.4609 89.6669 39.17 91.2419 38.7793C92.8168 38.3887 94.0566 37.8319 94.9614 37.0839C95.8661 36.3359 96.2934 35.2472 96.2347 33.826C96.2347 32.33 95.9918 31.1581 95.4892 30.2772C94.9949 29.3962 94.3415 28.7147 93.5373 28.2326C92.7247 27.7423 91.778 27.4182 90.6973 27.2602C89.6251 27.1106 88.4774 27.0275 87.2375 27.0275C84.4898 27.0275 82.3284 27.601 80.7619 28.7645C79.1869 29.9364 78.2906 31.8812 78.0141 34.6072H64.0994ZM96.2431 44.8132C95.6567 45.3368 94.9195 45.7357 94.0399 46.0266C93.1519 46.3175 92.2053 46.5585 91.1916 46.7579C90.178 46.9408 89.114 47.1153 88.0082 47.2483C86.894 47.373 85.7966 47.5309 84.6741 47.7303C83.6353 47.9298 82.5965 48.1791 81.5912 48.5033C80.5776 48.8274 79.7063 49.2762 78.9607 49.8164C78.19 50.3649 77.5952 51.0797 77.1429 51.9025C76.6654 52.7502 76.4475 53.814 76.4475 55.1105C76.4475 56.3572 76.6654 57.3961 77.1429 58.2355C77.6036 59.0749 78.2235 59.7315 79.011 60.2218C79.7817 60.7039 80.6948 61.0446 81.7504 61.2441C82.7808 61.4352 83.8698 61.535 84.9756 61.535C87.715 61.535 89.8596 61.0696 91.3508 60.172C92.8503 59.2661 93.9729 58.1856 94.6849 56.914C95.4054 55.6508 95.841 54.3626 96.0002 53.066C96.1594 51.7695 96.2431 50.7389 96.2431 49.966V44.8132V44.8132Z" fill="black"/>
<path d="M126.925 11.3695V0H140.832V11.3695H126.925ZM140.832 19.1486V69.4138H126.925V19.1486H140.832Z" fill="black"/>
<path d="M169.051 19.1487V28.482H169.252C169.906 26.9195 170.794 25.49 171.899 24.1519C173.014 22.8221 174.27 21.6918 175.728 20.7527C177.169 19.8135 178.693 19.0822 180.327 18.5586C181.961 18.035 183.67 17.7773 185.412 17.7773C186.325 17.7773 187.364 17.9436 188.453 18.2677V31.1083C187.816 30.967 187.012 30.8672 186.116 30.7509C185.203 30.6678 184.298 30.6179 183.469 30.6179C180.913 30.6179 178.76 31.0418 177.01 31.8729C175.234 32.7123 173.818 33.8675 172.737 35.322C171.665 36.7847 170.886 38.4885 170.433 40.4249C169.973 42.3697 169.763 44.4724 169.763 46.7496V69.3972H155.832V19.1487H169.051Z" fill="black"/>
<path d="M218.825 0V26.6286H247.157V0H262.53V69.4055H247.157V39.4608H218.825V69.4055H203.453V0H218.825Z" fill="black"/>
<path d="M294.871 57.354C296.957 59.3653 299.973 60.3626 303.885 60.3626C306.691 60.3626 309.104 59.6562 311.131 58.2765C313.158 56.8803 314.407 55.4009 314.842 53.8551H327.098C325.146 59.8806 322.131 64.1857 318.084 66.7871C314.03 69.3718 309.137 70.6683 303.391 70.6683C299.403 70.6683 295.817 70.045 292.617 68.7817C289.417 67.5267 286.703 65.7232 284.475 63.3878C282.246 61.0524 280.537 58.2765 279.323 55.0186C278.125 51.7773 277.53 48.2202 277.53 44.3306C277.53 40.574 278.141 37.0751 279.381 33.8338C280.621 30.5925 282.38 27.7833 284.676 25.4147C286.963 23.0544 289.702 21.1927 292.852 19.8297C296.035 18.4667 299.537 17.7852 303.399 17.7852C307.722 17.7852 311.466 18.6079 314.658 20.2702C317.883 21.9241 320.497 24.1431 322.566 26.9273C324.61 29.7198 326.093 32.8946 327.015 36.4601C327.928 40.0255 328.246 43.7572 327.986 47.6384H291.436C291.629 52.0931 292.785 55.3511 294.871 57.354ZM310.595 30.9166C308.936 29.0965 306.398 28.1906 303.005 28.1906C300.777 28.1906 298.942 28.5646 297.459 29.3126C295.993 30.0606 294.829 30.9748 293.941 32.0801C293.061 33.1855 292.433 34.3491 292.081 35.5791C291.713 36.8091 291.503 37.9145 291.436 38.8786H314.08C313.427 35.3796 312.262 32.7201 310.595 30.9166Z" fill="black"/>
<path d="M357.005 0V69.4055H343.074V0H357.005Z" fill="black"/>
<path d="M385.233 19.1482V25.5726H385.425C387.126 22.8466 389.287 20.8686 391.884 19.6385C394.506 18.4002 397.371 17.7852 400.53 17.7852C404.509 17.7852 407.935 18.5331 410.809 20.0208C413.691 21.5168 416.078 23.4865 417.963 25.9549C419.856 28.4233 421.264 31.2906 422.185 34.5651C423.081 37.8397 423.551 41.2555 423.551 44.8127C423.551 48.1786 423.081 51.4283 422.185 54.5366C421.264 57.6532 419.865 60.3959 418.022 62.8061C416.153 65.1913 413.833 67.1112 411.052 68.5241C408.27 69.9536 405.028 70.6683 401.317 70.6683C398.159 70.6683 395.26 70.045 392.63 68.7817C389.999 67.5267 387.813 65.6568 386.121 63.1884H385.928V86.9995H372.005V19.1482H385.233ZM403.311 59.0079C404.844 58.1103 406.075 56.9219 407.022 55.4591C407.969 53.9964 408.639 52.2926 409.041 50.3478C409.426 48.4197 409.611 46.4333 409.611 44.422C409.611 42.4191 409.418 40.4411 408.991 38.4963C408.572 36.5515 407.868 34.8145 406.871 33.2936C405.908 31.7726 404.643 30.5426 403.127 29.6035C401.569 28.6643 399.709 28.1906 397.48 28.1906C395.193 28.1906 393.267 28.6643 391.742 29.6035C390.217 30.5426 388.969 31.7477 388.022 33.2437C387.067 34.7314 386.406 36.4518 386.02 38.3882C385.626 40.333 385.434 42.3526 385.434 44.422C385.434 46.4333 385.643 48.4197 386.07 50.3478C386.489 52.2926 387.185 53.9964 388.131 55.4591C389.061 56.9219 390.335 58.102 391.893 59.0079C393.468 59.9138 395.344 60.3709 397.573 60.3709C399.86 60.3709 401.778 59.9138 403.311 59.0079Z" fill="black"/>
<path d="M453.931 54.4375V69.414H438.551V54.4375H453.931Z" fill="black"/>
</svg>
