<svg width="1560" height="386" viewBox="0 0 1560 386" fill="none" xmlns="http://www.w3.org/2000/svg">
<g opacity="0.1">
<path d="M56.6136 0V115.97H57.9112C65.6963 103.027 75.6687 93.6607 87.8283 87.7608C99.9879 81.8609 111.777 78.911 123.38 78.911C139.877 78.911 153.372 81.1972 163.974 85.5852C174.503 90.047 182.807 96.2419 188.887 104.17C194.929 112.061 199.193 121.685 201.639 133.042C204.123 144.4 205.346 156.937 205.346 170.765V307.937H143.77V182.011C143.77 163.611 140.915 149.894 135.132 140.86C129.312 131.752 119.08 127.216 104.325 127.216C87.4946 127.216 75.4091 132.194 67.9206 142.077C60.395 151.996 56.6136 168.331 56.6136 191.083V307.974H-5V0H56.6136Z" fill="#D7BDB1"/>
<path d="M249.573 153.545C250.463 139.091 253.985 127.217 260.398 117.704C266.775 108.227 274.856 100.557 284.681 94.8047C294.542 89.1261 305.626 85.033 317.86 82.5256C330.205 80.0919 342.55 78.875 354.932 78.875C366.313 78.875 377.657 79.6494 389.224 81.235C400.827 82.8206 411.356 85.918 420.883 90.5273C430.448 95.1366 438.196 101.516 444.275 109.702C450.355 117.925 453.358 128.766 453.358 142.299V258.342C453.358 268.335 453.988 277.996 455.138 287.215C456.25 296.433 458.289 303.292 461.217 307.901H398.788C397.602 304.398 396.712 300.895 395.934 297.355C395.229 293.741 394.747 290.091 394.414 286.33C384.627 296.47 373.023 303.476 359.714 307.496C346.405 311.552 332.837 313.543 318.935 313.543C308.221 313.543 298.286 312.252 289.018 309.708C279.824 307.053 271.668 303.071 264.736 297.576C257.877 292.156 252.391 285.224 248.498 276.89C244.569 268.556 242.641 258.637 242.641 247.096C242.641 234.448 244.902 224.049 249.425 215.863C253.837 207.64 259.62 201.113 266.701 196.209C273.744 191.342 281.937 187.691 290.983 185.22C300.102 182.824 309.296 180.832 318.49 179.394C327.758 177.956 336.878 176.85 345.849 175.965C354.747 175.08 362.717 173.789 369.687 172.056C376.656 170.323 382.143 167.853 386.147 164.534C390.15 161.215 392.041 156.385 391.781 150.079C391.781 143.442 390.706 138.243 388.482 134.334C386.295 130.425 383.403 127.402 379.844 125.263C376.248 123.087 372.059 121.649 367.277 120.949C362.532 120.285 357.453 119.916 351.966 119.916C339.807 119.916 330.242 122.46 323.31 127.623C316.34 132.822 312.373 141.451 311.15 153.545H249.573ZM391.819 198.827C389.224 201.15 385.961 202.92 382.069 204.211C378.139 205.501 373.95 206.571 369.464 207.456C364.978 208.267 360.27 209.041 355.377 209.631C350.446 210.184 345.59 210.885 340.622 211.77C336.025 212.655 331.428 213.761 326.98 215.199C322.494 216.637 318.638 218.629 315.339 221.025C311.928 223.459 309.296 226.63 307.294 230.281C305.181 234.042 304.217 238.762 304.217 244.514C304.217 250.045 305.181 254.655 307.294 258.379C309.333 262.103 312.077 265.016 315.561 267.192C318.972 269.331 323.013 270.843 327.684 271.728C332.244 272.576 337.063 273.018 341.957 273.018C354.079 273.018 363.57 270.953 370.169 266.971C376.804 262.951 381.772 258.158 384.923 252.516C388.111 246.911 390.039 241.196 390.743 235.443C391.448 229.691 391.819 225.118 391.819 221.689V198.827V198.827Z" fill="#D7BDB1"/>
<path d="M502.849 50.444V0H564.389V50.444H502.849ZM564.389 84.9584V307.974H502.849V84.9584H564.389Z" fill="#D7BDB1"/>
<path d="M671.49 84.9593V126.369H672.38C675.272 119.437 679.201 113.094 684.095 107.158C689.025 101.258 694.586 96.2428 701.037 92.076C707.413 87.9092 714.16 84.6643 721.389 82.3412C728.618 80.0181 736.181 78.875 743.892 78.875C747.933 78.875 752.53 79.6125 757.349 81.0506V138.021C754.532 137.394 750.973 136.952 747.006 136.436C742.965 136.067 738.961 135.846 735.291 135.846C723.984 135.846 714.457 137.726 706.709 141.414C698.85 145.138 692.584 150.264 687.802 156.717C683.057 163.206 679.609 170.766 677.607 179.357C675.568 187.986 674.642 197.315 674.642 207.419V307.901H612.991V84.9593H671.49Z" fill="#D7BDB1"/>
<path d="M976.778 0V118.145H1102.16V0H1170.18V307.937H1102.16V175.079H976.778V307.937H908.751V0H976.778Z" fill="#D7BDB1"/>
<path d="M1289.48 254.469C1298.71 263.392 1312.06 267.817 1329.37 267.817C1341.79 267.817 1352.46 264.683 1361.44 258.562C1370.41 252.367 1375.93 245.803 1377.86 238.945H1432.1C1423.46 265.678 1410.11 284.779 1392.21 296.321C1374.26 307.789 1352.61 313.541 1327.18 313.541C1309.54 313.541 1293.67 310.776 1279.51 305.171C1265.35 299.603 1253.33 291.601 1243.47 281.239C1233.61 270.878 1226.05 258.562 1220.67 244.107C1215.37 229.726 1212.74 213.944 1212.74 196.687C1212.74 180.019 1215.45 164.495 1220.93 150.114C1226.42 135.733 1234.21 123.27 1244.36 112.761C1254.48 102.288 1266.61 94.0286 1280.54 87.9812C1294.63 81.9338 1310.13 78.9102 1327.22 78.9102C1346.35 78.9102 1362.92 82.5607 1377.04 89.9356C1391.32 97.2735 1402.88 107.119 1412.04 119.472C1421.08 131.862 1427.65 145.948 1431.72 161.767C1435.77 177.586 1437.17 194.142 1436.02 211.363H1274.28C1275.13 231.127 1280.25 245.582 1289.48 254.469ZM1359.06 137.172C1351.72 129.096 1340.49 125.077 1325.48 125.077C1315.62 125.077 1307.5 126.736 1300.93 130.055C1294.45 133.373 1289.29 137.43 1285.36 142.334C1281.47 147.238 1278.69 152.401 1277.13 157.858C1275.5 163.315 1274.58 168.22 1274.28 172.497H1374.49C1371.59 156.973 1366.44 145.173 1359.06 137.172Z" fill="#D7BDB1"/>
<path d="M1535.82 0V307.937H1474.17V0H1535.82Z" fill="#D7BDB1"/>
</g>
</svg>
