<svg width="441" height="41" viewBox="0 0 441 41" fill="none" xmlns="http://www.w3.org/2000/svg">
<path d="M441 0H0V41H441V0Z" fill="#D7BDB1"/>
<path d="M13.811 11.6826V17.9569H12.1711V11.6826H13.811ZM17.205 11.6826V17.9569H15.5547V11.6826H17.205Z" fill="black"/>
<path d="M37.3542 29.0559H35.05V21.9474L28.366 11.6826H31.1026L36.2851 19.9521L41.3466 11.6826H43.9621L37.3542 21.9474V29.0559Z" fill="black"/>
<path d="M51.0577 20.185C51.3206 19.3855 51.7081 18.6833 52.227 18.0924C52.7391 17.5014 53.3756 17.0322 54.1402 16.695C54.8979 16.3544 55.7697 16.1875 56.7557 16.1875C57.7556 16.1875 58.6274 16.3578 59.3851 16.695C60.1358 17.0357 60.7655 17.5049 61.2844 18.0924C61.7965 18.6833 62.1909 19.382 62.4469 20.185C62.7029 20.9949 62.8309 21.8535 62.8309 22.7781C62.8309 23.7027 62.7029 24.5648 62.4469 25.3573C62.1909 26.1499 61.7999 26.8451 61.2844 27.436C60.7655 28.0339 60.1358 28.4962 59.3851 28.8264C58.6274 29.1601 57.7556 29.3235 56.7557 29.3235C55.7697 29.3235 54.8979 29.1601 54.1402 28.8264C53.3756 28.4927 52.7425 28.0304 52.227 27.436C51.7081 26.8451 51.3206 26.1533 51.0577 25.3573C50.8017 24.5648 50.6737 23.6992 50.6737 22.7781C50.6702 21.8535 50.8017 20.9914 51.0577 20.185ZM53.1577 24.8081C53.3549 25.399 53.6386 25.8961 53.988 26.2959C54.3478 26.6886 54.7595 26.9945 55.2369 27.2066C55.7109 27.4186 56.216 27.5264 56.7523 27.5264C57.2851 27.5264 57.7867 27.4186 58.2642 27.2066C58.7381 26.9945 59.1568 26.6921 59.5062 26.2959C59.866 25.8961 60.1428 25.399 60.3434 24.8081C60.5475 24.2172 60.6479 23.5393 60.6479 22.7781C60.6479 22.0168 60.5475 21.339 60.3434 20.7481C60.1393 20.1502 59.8625 19.6566 59.5062 19.2464C59.1568 18.8467 58.7347 18.5338 58.2642 18.3218C57.7833 18.1098 57.2851 18.002 56.7523 18.002C56.2195 18.002 55.7109 18.1098 55.2369 18.3218C54.7561 18.5304 54.3444 18.8432 53.988 19.2464C53.6386 19.6531 53.3514 20.1502 53.1577 20.7481C52.9536 21.339 52.8532 22.0168 52.8532 22.7781C52.8532 23.5393 52.957 24.2172 53.1577 24.8081Z" fill="black"/>
<path d="M82.1533 29.0564V27.0611H82.1049C81.6724 27.8363 81.112 28.4133 80.4373 28.7714C79.7627 29.1398 78.9566 29.3206 78.0398 29.3206C77.2164 29.3206 76.5348 29.2128 75.9847 28.9938C75.4312 28.7713 74.9918 28.4585 74.6459 28.0588C74.3068 27.6521 74.0716 27.1689 73.9366 26.6058C73.7948 26.0496 73.7256 25.4309 73.7256 24.7461V16.4766H75.7875V24.9894C75.7875 25.7715 76.0124 26.3868 76.4622 26.8352C76.9154 27.2906 77.5381 27.52 78.3269 27.52C78.9566 27.52 79.5032 27.4192 79.9634 27.228C80.4235 27.0298 80.8075 26.7587 81.112 26.4007C81.4233 26.0427 81.6517 25.6255 81.8074 25.1458C81.9561 24.6696 82.0357 24.1482 82.0357 23.5781V16.4766H84.0907V29.0564H82.1533Z" fill="black"/>
<path d="M97.5314 16.4756V19.1244H97.5798C98.0815 18.1059 98.6939 17.3516 99.4238 16.8649C100.147 16.3748 101.067 16.1524 102.181 16.1871V18.3735C101.358 18.3735 100.662 18.4883 100.081 18.7142C99.5 18.9436 99.026 19.2773 98.6765 19.7118C98.3167 20.1533 98.0607 20.6816 97.8981 21.3073C97.7355 21.933 97.6559 22.6526 97.6559 23.459V29.0589H95.594V16.4756H97.5314Z" fill="black"/>
<path d="M129.481 11.6826V18.3219H129.53C129.692 17.936 129.914 17.6023 130.204 17.3381C130.495 17.074 130.827 16.848 131.184 16.6812C131.547 16.5108 131.927 16.3892 132.325 16.3092C132.716 16.2293 133.104 16.1876 133.474 16.1876C134.297 16.1876 134.982 16.2953 135.536 16.5282C136.082 16.7507 136.529 17.0705 136.868 17.4772C137.207 17.8769 137.442 18.3601 137.577 18.9232C137.719 19.4794 137.788 20.1051 137.788 20.7829V29.0594H135.723V20.5361C135.723 19.761 135.501 19.1457 135.048 18.6903C134.595 18.235 133.972 18.0055 133.183 18.0055C132.554 18.0055 132.007 18.1064 131.547 18.2975C131.09 18.4922 130.703 18.7703 130.398 19.1248C130.087 19.4863 129.858 19.9 129.71 20.3797C129.554 20.8559 129.481 21.3773 129.481 21.9474V29.0559H127.419V11.6826H129.481Z" fill="black"/>
<path d="M160.449 29.0042C160.096 29.2163 159.605 29.324 158.975 29.324C158.442 29.324 158.017 29.1746 157.705 28.8756C157.387 28.5767 157.231 28.0831 157.231 27.4018C156.664 28.0796 156.01 28.5767 155.259 28.8756C154.509 29.1746 153.699 29.324 152.827 29.324C152.26 29.324 151.72 29.2545 151.212 29.1259C150.703 28.9973 150.267 28.7922 149.893 28.5211C149.523 28.243 149.226 27.8815 149.008 27.4331C148.79 26.9916 148.683 26.4493 148.683 25.8167C148.683 25.1041 148.804 24.5201 149.042 24.0648C149.285 23.6094 149.603 23.2444 150.001 22.9594C150.392 22.6744 150.845 22.4554 151.36 22.3128C151.866 22.1634 152.388 22.0417 152.921 21.9479C153.481 21.8331 154.021 21.7497 154.529 21.6906C155.035 21.635 155.488 21.5551 155.875 21.4543C156.259 21.3465 156.571 21.1901 156.796 20.9919C157.024 20.7869 157.135 20.4879 157.135 20.1021C157.135 19.6467 157.055 19.2817 156.885 19.0036C156.716 18.7325 156.495 18.5205 156.232 18.371C155.969 18.2285 155.664 18.1277 155.332 18.079C155 18.0304 154.678 18.0025 154.353 18.0025C153.481 18.0025 152.758 18.1729 152.177 18.5066C151.596 18.8403 151.277 19.4694 151.232 20.3941H149.17C149.205 19.612 149.368 18.955 149.658 18.4197C149.949 17.8913 150.333 17.4568 150.821 17.1231C151.309 16.7894 151.862 16.5461 152.481 16.4036C153.097 16.2541 153.765 16.1846 154.474 16.1846C155.041 16.1846 155.602 16.2263 156.155 16.3062C156.716 16.3862 157.218 16.5496 157.671 16.8033C158.124 17.0536 158.487 17.4081 158.764 17.8565C159.034 18.3119 159.176 18.9028 159.176 19.6293V26.0913C159.176 26.5745 159.203 26.9325 159.255 27.1585C159.311 27.3879 159.498 27.4991 159.823 27.4991C160.006 27.4991 160.214 27.4643 160.452 27.4053V29.0042H160.449ZM157.11 22.5596C156.854 22.7508 156.508 22.8933 156.09 22.9802C155.671 23.0671 155.232 23.1436 154.772 23.1992C154.311 23.2618 153.844 23.3209 153.381 23.3974C152.914 23.4634 152.495 23.5886 152.125 23.745C151.755 23.9083 151.45 24.1378 151.212 24.4367C150.983 24.7357 150.859 25.1423 150.859 25.6603C150.859 26.0009 150.928 26.286 151.07 26.5223C151.205 26.7518 151.381 26.9429 151.603 27.0924C151.817 27.2349 152.07 27.3427 152.36 27.4053C152.651 27.4713 152.962 27.4991 153.287 27.4991C153.962 27.4991 154.543 27.4122 155.031 27.221C155.512 27.0368 155.91 26.8004 156.214 26.5223C156.526 26.2373 156.747 25.9314 156.896 25.5977C157.038 25.271 157.114 24.9581 157.114 24.6661V22.5596H157.11Z" fill="black"/>
<path d="M170.963 14.2097V11.6826H173.025V14.2097H170.963ZM173.025 16.4761V29.0559H170.963V16.4761H173.025Z" fill="black"/>
<path d="M186.559 16.4756V19.1244H186.607C187.106 18.1059 187.721 17.3516 188.445 16.8649C189.175 16.3748 190.095 16.1524 191.209 16.1871V18.3735C190.385 18.3735 189.683 18.4883 189.102 18.7142C188.521 18.9436 188.054 19.2773 187.697 19.7118C187.344 20.1533 187.081 20.6816 186.919 21.3073C186.763 21.933 186.684 22.6526 186.684 23.459V29.0589H184.622V16.4756H186.559Z" fill="black"/>
<path d="M216.561 14.2097V11.6826H218.623V14.2097H216.561ZM218.62 16.4761V29.0559H216.558V16.4761H218.62Z" fill="black"/>
<path d="M231.867 26.2472C232.064 26.56 232.32 26.8103 232.631 27.0015C232.95 27.1857 233.299 27.3213 233.7 27.4012C234.091 27.4812 234.503 27.5229 234.925 27.5229C235.25 27.5229 235.586 27.4951 235.939 27.4464C236.295 27.3978 236.62 27.3109 236.918 27.1822C237.222 27.0536 237.464 26.8624 237.662 26.6052C237.852 26.3549 237.952 26.0351 237.952 25.6493C237.952 25.114 237.748 24.7038 237.343 24.4327C236.939 24.1546 236.437 23.9287 235.828 23.7618C235.226 23.5915 234.565 23.4351 233.856 23.2995C233.147 23.1639 232.489 22.9658 231.884 22.7155C231.275 22.4652 230.777 22.1107 230.369 21.6553C229.96 21.2034 229.756 20.5708 229.756 19.7644C229.756 19.1248 229.898 18.5825 230.182 18.1271C230.466 17.6787 230.832 17.3068 231.268 17.0218C231.715 16.7437 232.216 16.5247 232.777 16.3891C233.33 16.2535 233.884 16.1875 234.434 16.1875C235.143 16.1875 235.8 16.2466 236.392 16.3717C236.994 16.4864 237.52 16.7054 237.98 17.0044C238.44 17.3033 238.81 17.71 239.08 18.221C239.357 18.732 239.52 19.3681 239.568 20.1293H237.506C237.471 19.7296 237.371 19.3889 237.195 19.1248C237.011 18.8536 236.79 18.6346 236.513 18.4782C236.243 18.3148 235.939 18.1932 235.607 18.1237C235.274 18.0472 234.939 18.009 234.6 18.009C234.295 18.009 233.984 18.0368 233.666 18.0854C233.354 18.1341 233.064 18.221 232.808 18.3427C232.552 18.4643 232.341 18.6277 232.178 18.8328C232.016 19.0309 231.936 19.2951 231.936 19.6218C231.936 19.9799 232.057 20.2753 232.313 20.5117C232.562 20.7481 232.88 20.9393 233.264 21.0957C233.648 21.2521 234.088 21.3807 234.576 21.4815C235.057 21.5893 235.541 21.7005 236.029 21.8152C236.541 21.923 237.049 22.0655 237.544 22.2289C238.039 22.3853 238.471 22.6008 238.848 22.8685C239.225 23.1396 239.537 23.4803 239.769 23.88C240.004 24.2867 240.121 24.7907 240.121 25.3886C240.121 26.1568 239.966 26.786 239.647 27.29C239.336 27.7906 238.924 28.2007 238.419 28.5066C237.907 28.8195 237.336 29.028 236.696 29.1532C236.06 29.2748 235.427 29.3374 234.797 29.3374C234.102 29.3374 233.437 29.2609 232.811 29.1184C232.182 28.9689 231.621 28.7326 231.144 28.3989C230.656 28.0652 230.272 27.6307 229.981 27.0884C229.691 26.5461 229.528 25.8787 229.493 25.1001H231.555C231.569 25.5416 231.676 25.9274 231.867 26.2472Z" fill="black"/>
<path d="M265.792 20.185C266.048 19.3855 266.443 18.6833 266.955 18.0924C267.474 17.5014 268.11 17.0322 268.868 16.695C269.632 16.3544 270.504 16.1875 271.483 16.1875C272.49 16.1875 273.362 16.3578 274.113 16.695C274.864 17.0357 275.497 17.5049 276.019 18.0924C276.531 18.6833 276.919 19.382 277.181 20.185C277.437 20.9949 277.565 21.8535 277.565 22.7781C277.565 23.7027 277.437 24.5648 277.181 25.3573C276.919 26.1499 276.531 26.8451 276.019 27.436C275.5 28.0339 274.864 28.4962 274.113 28.8264C273.362 29.1601 272.49 29.3235 271.483 29.3235C270.504 29.3235 269.632 29.1601 268.868 28.8264C268.11 28.4927 267.477 28.0304 266.955 27.436C266.439 26.8451 266.048 26.1533 265.792 25.3573C265.536 24.5648 265.408 23.6992 265.408 22.7781C265.408 21.8535 265.536 20.9914 265.792 20.185ZM267.889 24.8081C268.093 25.399 268.37 25.8961 268.726 26.2959C269.079 26.6886 269.498 26.9945 269.968 27.2066C270.449 27.4186 270.954 27.5264 271.483 27.5264C272.016 27.5264 272.525 27.4186 272.999 27.2066C273.48 26.9945 273.891 26.6921 274.248 26.2959C274.607 25.8961 274.884 25.399 275.085 24.8081C275.286 24.2172 275.389 23.5393 275.389 22.7781C275.389 22.0168 275.289 21.339 275.085 20.7481C274.881 20.1502 274.604 19.6566 274.248 19.2464C273.888 18.8467 273.476 18.5338 272.999 18.3218C272.525 18.1098 272.02 18.002 271.483 18.002C270.958 18.002 270.449 18.1098 269.968 18.3218C269.494 18.5304 269.075 18.8432 268.726 19.2464C268.37 19.6531 268.089 20.1502 267.889 20.7481C267.685 21.339 267.584 22.0168 267.584 22.7781C267.584 23.5393 267.685 24.2172 267.889 24.8081Z" fill="black"/>
<path d="M296.888 29.0564V27.0611H296.839C296.407 27.8363 295.846 28.4133 295.172 28.7714C294.49 29.1398 293.691 29.3206 292.774 29.3206C291.951 29.3206 291.266 29.2128 290.712 28.9938C290.166 28.7713 289.719 28.4585 289.38 28.0588C289.041 27.6521 288.806 27.1689 288.664 26.6058C288.529 26.0496 288.46 25.4309 288.46 24.7461V16.4766H290.522V24.9894C290.522 25.7715 290.743 26.3868 291.197 26.8352C291.65 27.2906 292.273 27.52 293.061 27.52C293.691 27.52 294.238 27.4192 294.698 27.228C295.158 27.0298 295.542 26.7587 295.846 26.4007C296.151 26.0427 296.386 25.6255 296.535 25.1458C296.69 24.6696 296.763 24.1482 296.763 23.5781V16.4766H298.825V29.0564H296.888Z" fill="black"/>
<path d="M312.269 16.4756V19.1244H312.318C312.82 18.1059 313.432 17.3516 314.162 16.8649C314.885 16.3748 315.805 16.1524 316.919 16.1871V18.3735C316.096 18.3735 315.4 18.4883 314.819 18.7142C314.238 18.9436 313.764 19.2773 313.415 19.7118C313.058 20.1533 312.799 20.6816 312.636 21.3073C312.474 21.933 312.394 22.6526 312.394 23.459V29.0589H310.332V16.4756H312.269Z" fill="black"/>
<path d="M349.637 18.6626C349.125 18.2281 348.426 18.0056 347.555 18.0056C346.811 18.0056 346.188 18.1481 345.69 18.4192C345.188 18.6973 344.79 19.0658 344.493 19.5177C344.188 19.973 343.981 20.4944 343.849 21.0854C343.714 21.6763 343.652 22.2881 343.652 22.9172C343.652 23.5012 343.718 24.0713 343.856 24.6205C343.998 25.1767 344.209 25.6668 344.5 26.0944C344.79 26.5289 345.174 26.8695 345.641 27.1267C346.108 27.3909 346.669 27.5195 347.309 27.5195C348.33 27.5195 349.118 27.2484 349.693 26.7166C350.267 26.1813 350.62 25.427 350.748 24.4502H352.855C352.626 26.0109 352.052 27.2067 351.125 28.0548C350.191 28.8961 348.928 29.3167 347.333 29.3167C346.382 29.3167 345.534 29.1602 344.797 28.8543C344.06 28.5484 343.451 28.107 342.96 27.5369C342.465 26.9738 342.095 26.296 341.846 25.5069C341.597 24.7178 341.469 23.8558 341.469 22.9138C341.469 21.9752 341.59 21.0958 341.832 20.2789C342.074 19.4586 342.441 18.746 342.932 18.1342C343.427 17.5294 344.04 17.0462 344.783 16.7021C345.527 16.3475 346.392 16.1807 347.378 16.1807C348.087 16.1807 348.755 16.2606 349.378 16.4309C350.001 16.6013 350.547 16.8654 351.021 17.2235C351.502 17.578 351.893 18.0334 352.197 18.5757C352.502 19.1179 352.699 19.7645 352.779 20.5118H350.651C350.495 19.7228 350.156 19.104 349.637 18.6626Z" fill="black"/>
<path d="M374.727 29.0042C374.367 29.2163 373.883 29.324 373.246 29.324C372.72 29.324 372.295 29.1746 371.976 28.8756C371.665 28.5767 371.502 28.0831 371.502 27.4018C370.942 28.0796 370.281 28.5767 369.53 28.8756C368.78 29.1746 367.97 29.324 367.098 29.324C366.531 29.324 365.998 29.2545 365.49 29.1259C364.974 28.9973 364.538 28.7922 364.164 28.5211C363.794 28.243 363.504 27.8815 363.286 27.4331C363.064 26.9916 362.954 26.4493 362.954 25.8167C362.954 25.1041 363.075 24.5201 363.317 24.0648C363.559 23.6094 363.877 23.2444 364.268 22.9594C364.666 22.6744 365.119 22.4554 365.628 22.3128C366.136 22.1634 366.662 22.0417 367.188 21.9479C367.756 21.8331 368.288 21.7497 368.804 21.6906C369.312 21.635 369.755 21.5551 370.15 21.4543C370.534 21.3465 370.838 21.1901 371.07 20.9919C371.295 20.7869 371.409 20.4879 371.409 20.1021C371.409 19.6467 371.323 19.2817 371.153 19.0036C370.983 18.7325 370.769 18.5205 370.503 18.371C370.233 18.2285 369.935 18.1277 369.603 18.079C369.271 18.0304 368.949 18.0025 368.624 18.0025C367.752 18.0025 367.022 18.1729 366.441 18.5066C365.86 18.8403 365.548 19.4694 365.496 20.3941H363.441C363.476 19.612 363.639 18.955 363.929 18.4197C364.22 17.8913 364.604 17.4568 365.092 17.1231C365.573 16.7894 366.126 16.5461 366.745 16.4036C367.368 16.2541 368.036 16.1846 368.745 16.1846C369.306 16.1846 369.866 16.2263 370.426 16.3062C370.98 16.3862 371.489 16.5496 371.938 16.8033C372.392 17.0536 372.748 17.4081 373.025 17.8565C373.301 18.3119 373.436 18.9028 373.436 19.6293V26.0913C373.436 26.5745 373.464 26.9325 373.523 27.1585C373.578 27.3879 373.765 27.4991 374.09 27.4991C374.267 27.4991 374.474 27.4643 374.72 27.4053V29.0042H374.727ZM371.381 22.5596C371.125 22.7508 370.786 22.8933 370.368 22.9802C369.949 23.0671 369.51 23.1436 369.05 23.1992C368.582 23.2618 368.126 23.3209 367.652 23.3974C367.185 23.4634 366.766 23.5886 366.396 23.745C366.022 23.9083 365.721 24.1378 365.49 24.4367C365.254 24.7357 365.137 25.1423 365.137 25.6603C365.137 26.0009 365.206 26.286 365.341 26.5223C365.476 26.7518 365.659 26.9429 365.874 27.0924C366.092 27.2349 366.348 27.3427 366.638 27.4053C366.929 27.4713 367.233 27.4991 367.558 27.4991C368.233 27.4991 368.814 27.4122 369.302 27.221C369.79 27.0368 370.181 26.8004 370.492 26.5223C370.797 26.2373 371.025 25.9314 371.167 25.5977C371.316 25.271 371.385 24.9581 371.385 24.6661V22.5596H371.381Z" fill="black"/>
<path d="M386.977 16.4756V19.1244H387.033C387.534 18.1059 388.147 17.3516 388.87 16.8649C389.6 16.3748 390.52 16.1524 391.634 16.1871V18.3735C390.811 18.3735 390.108 18.4883 389.527 18.7142C388.946 18.9436 388.472 19.2773 388.123 19.7118C387.763 20.1533 387.507 20.6816 387.344 21.3073C387.181 21.933 387.102 22.6526 387.102 23.459V29.0589H385.047V16.4756H386.977Z" fill="black"/>
<path d="M410.084 28.2491C409.147 28.9686 407.971 29.3232 406.545 29.3232C405.545 29.3232 404.68 29.1598 403.944 28.8331C403.207 28.5133 402.591 28.0579 402.093 27.4739C401.591 26.8899 401.214 26.1913 400.965 25.3744C400.716 24.5679 400.574 23.685 400.546 22.7256C400.546 21.7697 400.688 20.8938 400.979 20.0977C401.269 19.3052 401.674 18.61 402.203 18.026C402.729 17.442 403.352 16.9867 404.068 16.6599C404.784 16.3401 405.576 16.1768 406.434 16.1768C407.542 16.1768 408.469 16.4062 409.206 16.8685C409.943 17.3308 410.531 17.9217 410.977 18.6343C411.416 19.3469 411.728 20.129 411.897 20.9702C412.067 21.8114 412.133 22.6144 412.101 23.3791H402.729C402.715 23.9283 402.778 24.4532 402.926 24.9468C403.068 25.4439 403.303 25.8784 403.629 26.2573C403.954 26.6362 404.366 26.9421 404.867 27.175C405.369 27.3974 405.954 27.5156 406.632 27.5156C407.504 27.5156 408.22 27.3105 408.773 26.9038C409.334 26.5041 409.7 25.8854 409.873 25.0581H411.915C411.627 26.4763 411.019 27.5365 410.084 28.2491ZM409.586 20.1707C409.403 19.7362 409.154 19.3573 408.835 19.0445C408.524 18.7247 408.154 18.4744 407.721 18.2902C407.296 18.099 406.822 18.0052 406.31 18.0052C405.777 18.0052 405.296 18.099 404.864 18.2902C404.438 18.4744 404.072 18.7317 403.764 19.0584C403.459 19.3782 403.217 19.7571 403.041 20.1846C402.857 20.6191 402.757 21.0745 402.722 21.5646H409.918C409.884 21.0745 409.773 20.6122 409.586 20.1707Z" fill="black"/>
<path d="M425.439 11.6826V17.9569H423.788V11.6826H425.439ZM428.829 11.6826V17.9569H427.179V11.6826H428.829Z" fill="black"/>
</svg>
