<svg xmlns="http://www.w3.org/2000/svg" viewBox="0 0 468.01 110.3"><defs><style>.cls-1{font-size:40.93px;}.cls-1,.cls-3{fill:#2d2d2d;font-family:Montserrat-Bold, Montserrat;font-weight:700;}.cls-2{letter-spacing:0.01em;}.cls-3{font-size:30.45px;letter-spacing:0.1em;}.cls-4{fill:#efefef;}.cls-5{fill:#512a00;}.cls-6{fill:#ffce01;}</style></defs><title>Ресурс 11</title><g id="Шар_2" data-name="Шар 2"><g id="Шар_1-2" data-name="Шар 1"><text class="cls-1" transform="translate(188.47 99.41)">СП<tspan class="cls-2" x="62.96" y="0">А</tspan><tspan x="95.91" y="0">ДЩИНА</tspan></text><text class="cls-3" transform="translate(188.47 51.4)">ОЦИФРОВАНА</text><rect class="cls-4" x="44.8" y="49.78" width="69.7" height="9.96"/><rect class="cls-4" x="84.55" y="69.7" width="49.87" height="9.96"/><path class="cls-5" d="M34.85,89.61a24.89,24.89,0,0,1,0-49.78H144.37a5,5,0,0,0,0-10H34.85a34.85,34.85,0,0,0,0,69.7H144.37a5,5,0,0,0,0-10Z"/><rect class="cls-6" x="29.87" y="69.7" width="59.74" height="9.96" rx="4.98" ry="4.98"/><path class="cls-6" d="M29.87,10H139.39a0,0,0,0,1,0,0v0a10,10,0,0,1-10,10H39.83a10,10,0,0,1-10-10v0A0,0,0,0,1,29.87,10Z"/><rect class="cls-6" x="99.57" y="69.7" width="19.91" height="9.96" rx="4.98" ry="4.98"/><rect class="cls-6" x="129.44" y="69.7" width="9.96" height="9.96" rx="4.98" ry="4.98"/><path class="cls-6" d="M34.85,0h0a5,5,0,0,1,5,5v5a0,0,0,0,1,0,0h-10a0,0,0,0,1,0,0V5A5,5,0,0,1,34.85,0Z"/><path class="cls-6" d="M54.76,0h0a5,5,0,0,1,5,5v5a0,0,0,0,1,0,0h-10a0,0,0,0,1,0,0V5A5,5,0,0,1,54.76,0Z"/><path class="cls-6" d="M74.67,0h0a5,5,0,0,1,5,5v5a0,0,0,0,1,0,0h-10a0,0,0,0,1,0,0V5A5,5,0,0,1,74.67,0Z"/><path class="cls-6" d="M94.59,0h0a5,5,0,0,1,5,5v5a0,0,0,0,1,0,0h-10a0,0,0,0,1,0,0V5a5,5,0,0,1,5-5Z"/><path class="cls-6" d="M114.5,0h0a5,5,0,0,1,5,5v5a0,0,0,0,1,0,0h-10a0,0,0,0,1,0,0V5a5,5,0,0,1,5-5Z"/><path class="cls-6" d="M134.41,0h0a5,5,0,0,1,5,5v5a0,0,0,0,1,0,0h-10a0,0,0,0,1,0,0V5A5,5,0,0,1,134.41,0Z"/><rect class="cls-6" x="29.87" y="49.78" width="19.91" height="9.96" rx="4.98" ry="4.98"/><rect class="cls-6" x="59.74" y="49.78" width="39.83" height="9.96" rx="4.98" ry="4.98"/><rect class="cls-6" x="109.52" y="49.78" width="29.87" height="9.96" rx="4.98" ry="4.98"/></g></g></svg>