<svg xmlns="http://www.w3.org/2000/svg">
<defs>
<font id="RedSeven" horiz-adv-x="3047" >
  <font-face 
    font-family="Red Seven"
    font-weight="400"
    font-stretch="normal"
    units-per-em="2048"
    panose-1="2 0 5 0 0 0 0 0 0 0"
    ascent="1638"
    descent="-410"
    x-height="1398"
    cap-height="1399"
    bbox="-485 -842 5616 2147"
    underline-thickness="150"
    underline-position="-592"
    unicode-range="U+001D-F002"
  />
<missing-glyph horiz-adv-x="2648" 
d="M0 511l205 129v-89l-86 -54l109 -91l-159 -100l52 105zM81 561l205 129v-88l-86 -54l109 -91l-160 -101l53 105zM161 612l205 129v-89l-86 -54l110 -91l-160 -100l52 105zM467 417h-66v325h66v-96q11 11 24 17t28 6q80 0 80 -102v-150h-66v145q0 41 -33 41t-33 -41v-145z
M693 498q9 -9 18 -13q12 -5 22 -5t22 5q9 4 18 13q7 7 12 19q4 11 4 24q0 14 -4 23q-5 12 -12 19q-8 10 -18 14q-9 4 -22 4t-22 -4q-10 -4 -18 -14q-7 -7 -12 -19t-5 -23t5 -24q5 -12 12 -19zM797 636l60 35v-254h-65v33h-2q-16 -33 -66 -33q-24 -1 -45 9q-23 10 -38 26
q-16 16 -25 39q-10 22 -9 47q-1 24 8 48q10 24 25 41q16 18 38 28q20 10 46 10q46 0 73 -29zM876 417v254h65v-41q7 18 13 27q9 12 15 16q12 6 22 7q16 2 28 2l-21 -76q-28 0 -38 -12q-11 -13 -11 -41v-136h-73zM1026 417v325h72v-185h1l53 113h87l-63 -124l76 -129h-89
l-64 110h-1v-110h-72zM1243 445l37 50q22 -22 52 -22q32 0 32 19q0 10 -18 15q-9 4 -19 5q-11 2 -21 6q-9 3 -20 8q-8 4 -17 14q-6 6 -11 21q-4 11 -4 29q0 20 7 34q7 13 20 24q12 11 28 15q15 4 35 4q21 0 42 -9q20 -9 36 -24l-39 -41q-17 14 -38 14q-24 0 -24 -14
q0 -13 17 -18q10 -3 30 -7q18 -5 31 -12t24 -23q10 -14 8 -40q0 -21 -7 -35t-21 -25q-12 -10 -30 -16q-18 -5 -35 -5q-19 0 -27 1q-12 1 -23 6q-18 8 -22 10q-2 2 -10 7.5t-13 8.5zM1506 417h-67v325h67v-96q9 11 23 17q13 6 28 6q81 0 81 -102v-150h-67v145q0 41 -33 41
q-32 0 -32 -41v-145zM1735 500q20 -18 41 -18q22 0 42 18q18 16 18 42q0 10 -5 22q-4 10 -13 19q-8 9 -19 13q-12 5 -23 5q-10 0 -22 -5q-10 -4 -19 -13q-8 -8 -13 -19q-5 -12 -5 -22q0 -26 18 -42zM1728 425q-23 9 -43 27q-18 17 -29 41q-11 25 -10 49q0 26 11 50

<glyph glyph-name=".notdef" horiz-adv-x="2648" 
d="M0 511l205 129v-89l-86 -54l109 -91l-159 -100l52 105zM81 561l205 129v-88l-86 -54l109 -91l-160 -101l53 105zM161 612l205 129v-89l-86 -54l110 -91l-160 -100l52 105zM467 417h-66v325h66v-96q11 11 24 17t28 6q80 0 80 -102v-150h-66v145q0 41 -33 41t-33 -41v-145z
M693 498q9 -9 18 -13q12 -5 22 -5t22 5q9 4 18 13q7 7 12 19q4 11 4 24q0 14 -4 23q-5 12 -12 19q-8 10 -18 14q-9 4 -22 4t-22 -4q-10 -4 -18 -14q-7 -7 -12 -19t-5 -23t5 -24q5 -12 12 -19zM797 636l60 35v-254h-65v33h-2q-16 -33 -66 -33q-24 -1 -45 9q-23 10 -38 26
q-16 16 -25 39q-10 22 -9 47q-1 24 8 48q10 24 25 41q16 18 38 28q20 10 46 10q46 0 73 -29zM876 417v254h65v-41q7 18 13 27q9 12 15 16q12 6 22 7q16 2 28 2l-21 -76q-28 0 -38 -12q-11 -13 -11 -41v-136h-73zM1026 417v325h72v-185h1l53 113h87l-63 -124l76 -129h-89
l-64 110h-1v-110h-72zM1243 445l37 50q22 -22 52 -22q32 0 32 19q0 10 -18 15q-9 4 -19 5q-11 2 -21 6q-9 3 -20 8q-8 4 -17 14q-6 6 -11 21q-4 11 -4 29q0 20 7 34q7 13 20 24q12 11 28 15q15 4 35 4q21 0 42 -9q20 -9 36 -24l-39 -41q-17 14 -38 14q-24 0 -24 -14
q0 -13 17 -18q10 -3 30 -7q18 -5 31 -12t24 -23q10 -14 8 -40q0 -21 -7 -35t-21 -25q-12 -10 -30 -16q-18 -5 -35 -5q-19 0 -27 1q-12 1 -23 6q-18 8 -22 10q-2 2 -10 7.5t-13 8.5zM1506 417h-67v325h67v-96q9 11 23 17q13 6 28 6q81 0 81 -102v-150h-67v145q0 41 -33 41
q-32 0 -32 -41v-145zM1735 500q20 -18 41 -18q22 0 42 18q18 16 18 42q0 10 -5 22q-4 10 -13 19q-8 9 -19 13q-12 5 -23 5q-10 0 -22 -5q-10 -4 -19 -13q-8 -8 -13 -19q-5 -12 -5 -22q0 -26 18 -42zM1728 425q-23 9 -43 27q-18 17 -29 41q-11 25 -10 49q0 26 11 50
q12 25 28 40q19 17 42 26t49 9t50 -9q21 -9 42 -26q18 -17 29 -40q10 -21 10 -50t-10 -50q-11 -23 -29 -40q-20 -18 -42 -27q-23 -10 -50 -10q-25 0 -48 10zM2082 660v-74q-23 17 -47 17q-25 0 -42 -17t-17 -42q0 -13 5 -26q4 -11 12 -22q8 -10 18 -14q12 -5 25 -5
q28 0 47 18v-72q-14 -8 -25 -9q-16 -2 -23 -2q-29 -2 -53 9q-26 11 -42 28q-17 16 -27 40q-10 22 -9 46q0 29 9 54q11 26 28 42q18 18 42 27t52 9q28 3 47 -7zM2102 417v325h72v-185h1l52 113h88l-64 -124l76 -129h-88l-64 110h-1v-110h-72zM2340 759q-9 -9 -9 -22t9 -22
t22 -9t22 9t9 22t-9 22t-22 9t-22 -9zM2336 711q-10 10 -10 26q0 15 10 25q11 11 26 11q14 0 25 -11t11 -25q0 -15 -11 -26t-25 -11q-15 0 -26 11zM2351 753v-13h11h6l3 3q1 1 1 3q0 3 -2 5t-6 2h-13zM2351 717h-6v40h18q7 0 8 -1q4 -2 5 -3q2 -4 2 -7q0 -4 -3 -7t-9 -3
q2 -2 4 -2q0 -1 2 -3t2 -3l7 -11h-7l-5 9q-1 2 -4 5l-3 3q-1 1 -2 1h-3h-6v-18zM1383 1369l1 1zM1266 1430q-1 10 -1 29l-6 -21q5 -5 7 -8zM1467 1190v-2q0 -31 -31 -90q-4 -24 -21 -41q-17 -41 -59 -89q-6 -8 -13 -14q-5 -5 -9.5 -10t-7 -8t-4.5 -5l-3 -3h-1
q-7 -10 -17 -28l-13 -31l-16 -26l-11 -12l-5 -10l-1 -1l-1 -2q-3 -4 -5 -4h-1l-1 1q-2 -2 -3 -2h-1q-1 1 -1 2q-1 -1 -3 -1h-1q-2 2 -2 5v3l3 11l9 21q7 13 7 18v1q-2 6 -2 9q0 16 27 20l1 2v4q0 16 7 31q3 9 9 22q13 28 28 34q1 11 6 18q1 3 13 20q9 11 12 20q0 1 0.5 4
t1 7.5t0.5 7.5q0 10 3 18v1q0 12 20 29q1 2 3 4t3 4q-7 1 -12 22l-3 18t-3 16q-9 1 -17 13v-4q0 -20 -10 -20q-12 0 -25 18q0 -14 -8 -22q-6 -7 -15 -7q-22 1 -22 31q-16 -21 -24 -21q-2 0 -4 2q-3 5 -6 40q-16 -21 -26 -21q-3 0 -5 2q-6 4 -6 20q0 3 2 17q-7 -7 -17 -7
q-8 0 -16 6q-5 7 -5 12v2q2 8 14 14q-30 0 -38 8q4 5 16 7q13 1 17 4q3 1 8 6q-6 -2 -8 -2q-3 0 -5 2q-5 3 -5 13v3q-13 -19 -19 -19q-2 0 -2 3l2 14q1 5 2.5 11.5t1.5 8.5q-25 -26 -25 -28q-1 1 -1 4q0 10 6 27q-19 -19 -28 -19q-5 0 -5 9q0 3 2 17q-14 -27 -25 -31v5
q0 8 6 20q7 13 11 25q-5 -4 -16 -18q-9 -12 -16 -15v-1q2 0 7 42q-9 -9 -18 -9h-2q-9 1 -10 13q0 8 8 19q9 10 9 18q-21 -12 -25 -13q-3 -1 -9 -1q-7 0 -10 6q-1 2 -1 7q0 7 9 18q11 13 22 14q-16 -2 -20 -2q-17 0 -19 11v2q0 9 12 15q6 3 11 5q2 0 9 4q-24 10 -24 17
q0 1 1 2t35 12q-1 2 -8 7q-7 7 -9 8q-6 8 -6 13q0 4 1 6q1 1 5 1q6 0 18 -5t18 -5h3q-5 7 -15 22q-4 7 -4 11q0 6 7 6h1q10 0 20 -13q14 -16 18 -18q-18 82 -23 82l-1 -1q24 -13 49 -73q-11 32 -12 68q-1 4 -1 11q0 23 8 23q3 0 5 -1h-1v-1q0 -7 21 -58q6 -18 13 -35
q10 -20 13 -36q-16 68 -16 115q0 52 21 65q10 -7 10 -31q0 -11 -1 -19t-1 -16q2 -16 6 -41q4 -23 7 -40q0 109 30 157q9 -5 9 -29q0 -14 -3 -35q-9 -67 -9 -74v-1q3 10 8 31q6 24 14 51q19 61 37 61q2 0 3 -1q-2 -25 -20 -66q-19 -43 -22 -68q14 41 38 74q31 43 68 51
q-2 -21 -60 -72q-35 -56 -35 -111v-13l1 -7q1 -12 8 -27q13 71 80 150q32 39 64 65h11q-42 -23 -78 -85q52 38 125 40l-3 -11q-121 -3 -147 -90q-7 -21 -7 -49q0 -39 15 -88q3 -1 6 -4q13 -13 31 -58q0 7 8 15q7 6 16 6h2v-1l17 14q-11 -9 -14 -14h1q3 0 4 -1h1q7 4 7 9v-1
q0 -2 -2 -6l6 4l-8 -6l1 -1l8 4l-7 -5h1q5 1 9 7q-1 -4 -7 -8l17 2q2 -2 2 -3v-1l-2 -2h-1h7q1 0 1 -1q0 -2 -1 -3q3 0 3 -3v-3q7 0 8 -4v-2q0 -2 -3 -5q-6 -6 -6 -10v-1q1 -3 4 -8l2.5 -5t1.5 -4q6 -6 8 -9l1 1v-1q1 1 3 1q9 0 16 -10q10 -10 13 -28q1 -4 1 -12
q0 -14 -6 -23q2 -16 2 -21z" />
    <glyph glyph-name="uni0000" horiz-adv-x="250" 
 />
    <glyph glyph-name="uni0000" horiz-adv-x="250" 
 />
    <glyph glyph-name="nonmarkingreturn" horiz-adv-x="682" 
 />
    <glyph glyph-name="space" unicode=" " horiz-adv-x="799" 
 />
    <glyph glyph-name="space" unicode="&#xa0;" horiz-adv-x="799" 
 />
    <glyph glyph-name="exclam" unicode="!" horiz-adv-x="600" 
d="M0 0v350h350v-350h-350zM0 432v967h350v-967h-350z" />
    <glyph glyph-name="quotedbl" unicode="&#x22;" horiz-adv-x="1045" 
d="M0 872v527h350v-527h-350zM445 872v527h350v-527h-350z" />
    <glyph glyph-name="numbersign" unicode="#" horiz-adv-x="1525" 
d="M61 620h122l28 160h-122l61 350h122l47 269h350l-47 -269h170l47 269h350l-47 -269h133l-61 -350h-133l-28 -160h133l-61 -350h-133l-47 -270h-350l47 270h-170l-47 -270h-350l47 270h-122zM731 780h-170l-28 -160h170z" />
    <glyph glyph-name="dollar" unicode="$" 
d="M467 1399h757v123h350v-123h1223v-350h-2328q-77 -2 -104 -48q-10 -15 -13 -38q-2 -10 -2 -17v-72h2447v-407q0 -233 -163 -362q-132 -105 -304 -105h-756v-138h-350v138h-1224v350h2328q76 2 105 48q9 16 13 38q1 5 1 17l1 7v64h-2448v408q0 232 163 362
q134 105 304 105z" />
    <glyph glyph-name="percent" unicode="%" horiz-adv-x="2280" 
d="M540 -138l591 1662h350l-591 -1661zM1657 -136h-190q-137 0 -243 84q-125 100 -130 279v20q5 179 130 279q106 84 243 84h190q137 0 243 -84q125 -100 130 -279v-20q-5 -179 -130 -279q-106 -84 -243 -84zM1409 237q0 -60 47 -86q14 -8 37 -13q3 0 8.5 -0.5t8.5 -1.5
q5 -1 12 -1h79q8 0 13 1q3 1 8 1.5t8 0.5q23 5 38 13q46 25 46 86t-46 86q-15 8 -37 13q-12 2 -17 2q-5 1 -12 1h-79q-8 0 -13 -1q-4 0 -16 -2q-23 -5 -38 -13q-47 -26 -47 -86zM563 776h-190q-137 0 -243 84q-125 100 -130 279v20q5 179 130 279q106 84 243 84h190
q137 0 243 -84q125 -100 130 -279v-20q-5 -179 -130 -279q-106 -84 -243 -84zM315 1149q0 -60 47 -86q14 -8 37 -13q3 0 8.5 -0.5t8.5 -1.5q5 -1 12 -1h79q8 0 13 1q3 1 8 1.5t8 0.5q23 5 38 13q46 25 46 86t-46 86q-15 8 -37 13q-12 2 -17 2q-5 1 -12 1h-79q-8 0 -13 -1
q-4 0 -16 -2q-23 -5 -38 -13q-47 -26 -47 -86z" />
    <glyph glyph-name="ampersand" unicode="&#x26;" 
d="M2448 1399v-350h-1979q-77 -2 -104 -48q-10 -15 -13 -38q-2 -10 -2 -17v-72h-350v58q0 232 163 362q134 105 304 105h1981zM2098 524v-174h-1630q-61 0 -92 29q-25 24 -25 58q0 36 25 58q32 29 92 29h1630zM468 0h1980v524h349v350h-2329q-160 0 -298 -102
q-167 -123 -167 -325v-20q0 -204 167 -326q137 -101 298 -101z" />
    <glyph glyph-name="quotesingle" unicode="'" horiz-adv-x="600" 
d="M0 872v527h350v-527h-350z" />
    <glyph glyph-name="parenleft" unicode="(" horiz-adv-x="697" 
d="M1 -135q-1 8 -1 827t1 827q5 41 14 70q31 103 104 173q49 48 117 75q87 35 194 30h17v-351q-99 0 -99 -112v-1424q0 -112 99 -112v-351h-17q-107 -5 -194 30q-68 27 -117 75q-73 70 -104 173q-9 29 -14 70z" />
    <glyph glyph-name="parenright" unicode=")" horiz-adv-x="697" 
d="M446 1519q1 -8 1 -827t-1 -827q-5 -41 -14 -70q-31 -103 -104 -173q-50 -48 -117 -75q-87 -35 -194 -30h-17v351q99 0 99 112v1424q0 112 -99 112v351h17q107 5 194 -30q67 -27 117 -75q73 -70 104 -173q9 -29 14 -70z" />
    <glyph glyph-name="asterisk" unicode="*" horiz-adv-x="880" 
d="M630 1880l-145 -106l102 -140l-139 -112l-132 153l-131 -153l-139 112l101 139l-147 107l101 148l126 -76v158h179v-157l124 75z" />
    <glyph glyph-name="plus" unicode="+" horiz-adv-x="1217" 
d="M308 216v309h-308v350h308v308h350v-308h309v-350h-309v-309h-350z" />
    <glyph glyph-name="comma" unicode="," horiz-adv-x="600" 
d="M350 350v-1v-348v-1h-1l-110 -146h-198l110 147h-151v349h350z" />
    <glyph glyph-name="hyphen" unicode="-" horiz-adv-x="1216" 
d="M-1 875h967v-350h-967v350z" />
    <glyph glyph-name="hyphen" unicode="&#xad;" horiz-adv-x="1216" 
d="M-1 875h967v-350h-967v350z" />
    <glyph glyph-name="period" unicode="." horiz-adv-x="600" 
d="M0 0v350h350v-350h-350z" />
    <glyph glyph-name="slash" unicode="/" horiz-adv-x="891" 
d="M0 -138l291 1662h350l-291 -1661z" />
    <glyph glyph-name="zero" unicode="0" horiz-adv-x="3222" 
d="M2273 0h-1574q-256 0 -455 157q-237 189 -244 523v39q8 335 244 522q200 158 455 158h1574q255 0 455 -158q236 -187 244 -522v-39q-7 -334 -244 -523q-199 -157 -455 -157zM494 993q-144 -89 -144 -294t144 -294q51 -31 116 -45q34 -6 51 -8q26 -2 38 -2h1572q13 0 39 2
q17 2 51 8q66 14 117 45q144 89 144 294t-144 294q-53 33 -116 46q-34 6 -51 8q-26 2 -38 2h-1572q-13 0 -39 -2q-17 -2 -51 -8q-64 -13 -117 -46z" />
    <glyph glyph-name="one" unicode="1" horiz-adv-x="774" 
d="M175 1049h-175v350h524v-1399h-349v1049z" />
    <glyph glyph-name="two" unicode="2" 
d="M2797 932v-408l-2328 1q-77 -3 -104 -49q-10 -16 -13 -38q-2 -10 -2 -17v-71h2447v-350h-2797v407q0 233 163 362q133 105 304 105h1981v64l-1 8q0 12 -1 17q-5 23 -13 38q-29 47 -105 48h-2328v350h2330q172 0 304 -105q163 -130 163 -362z" />
    <glyph glyph-name="three" unicode="3" 
d="M0 1049v350h2330q172 0 304 -105q163 -130 163 -362v-58h-349v64l-1 8q0 12 -1 17q-5 23 -13 38q-29 47 -105 48h-2328zM2794 447v-20q0 -205 -166 -326q-139 -101 -299 -101h-2329v350h2329q61 0 93 29q24 24 24 58q0 36 -25 58q-32 29 -92 29h-2329v350h2329
q159 0 299 -102q166 -123 166 -325z" />
    <glyph glyph-name="four" unicode="4" 
d="M699 699h1749v700h349v-1399h-349v350h-1749q-256 0 -455 157q-244 193 -244 542v350h350v-350q0 -205 144 -294q51 -31 116 -45q28 -7 51 -8q26 -2 38 -3z" />
    <glyph glyph-name="five" unicode="5" 
d="M2797 1049h-2447v-175h1982q160 0 299 -102q166 -123 166 -325v-20q0 -205 -166 -326q-139 -101 -299 -101h-2329v350h2329q61 0 93 29q24 24 24 58q0 36 -25 58q-32 29 -92 29h-2332v875h2797v-350z" />
    <glyph glyph-name="six" unicode="6" horiz-adv-x="3225" 
d="M465 350h2045q61 0 93 29q24 24 24 58q0 36 -25 58q-32 29 -92 29h-2045q-53 0 -85 -23q-26 -20 -30 -50v-24h-1q5 -33 28 -52q31 -25 88 -25zM465 874h2045q160 0 299 -102q166 -123 166 -325v-20q0 -205 -166 -326q-139 -101 -299 -101h-2045q-161 0 -298 101
q-167 122 -167 326v505q0 232 163 362q134 105 304 105h2330v-350h-2328q-77 -3 -104 -49q-10 -16 -13 -37q-2 -10 -2 -17v-8v-80q60 16 115 16z" />
    <glyph glyph-name="seven" unicode="7" horiz-adv-x="3258" 
d="M1319 0l918 1049h-2237v350h3008l-1224 -1399h-465z" />
    <glyph glyph-name="eight" unicode="8" horiz-adv-x="3225" 
d="M465 350h2045q61 0 93 29q24 24 24 58q0 36 -25 58q-32 29 -92 29h-2045q-60 0 -92 -29q-25 -22 -25 -58q0 -34 25 -58q31 -29 92 -29zM2975 951q0 -148 -87 -253q87 -105 87 -251v-20q0 -205 -166 -326q-139 -101 -299 -101h-2045q-161 0 -298 101q-167 122 -167 326v20
q0 147 88 251q-88 104 -88 253v21q0 202 167 325q138 102 298 102h2045q160 0 299 -102q166 -123 166 -325v-21zM465 874h2045q62 0 93 30q24 22 24 58q0 35 -25 57q-32 30 -92 30h-2045q-61 0 -92 -30q-25 -22 -25 -57q0 -36 25 -58q30 -30 92 -30z" />
    <glyph glyph-name="nine" unicode="9" horiz-adv-x="3225" 
d="M2510 1049h-2045q-61 0 -93 -30q-24 -23 -24 -57q0 -36 25 -58q31 -30 92 -30h2045q54 0 85 24q26 20 30 50v23h1q-5 33 -28 53q-31 25 -88 25zM2510 524h-2045q-161 0 -298 103q-167 122 -167 324v21q0 204 167 326q137 101 298 101h2045q160 0 299 -101
q166 -121 166 -326v-505q0 -233 -163 -362q-132 -105 -304 -105h-2330v350h2328q77 2 104 48q9 15 14 38q1 5 1 17v7v80q-60 -16 -115 -16z" />
    <glyph glyph-name="colon" unicode=":" horiz-adv-x="600" 
d="M0 0v350h350v-350h-350zM0 1049v350h350v-350h-350z" />
    <glyph glyph-name="semicolon" unicode=";" horiz-adv-x="603" 
d="M0 1049v350h350v-350h-350zM353 350v-1v-348v-1h-1l-110 -146h-198l110 147h-151v349h350z" />
    <glyph glyph-name="semicolon" unicode="&#x37e;" horiz-adv-x="603" 
d="M0 1049v350h350v-350h-350zM353 350v-1v-348v-1h-1l-110 -146h-198l110 147h-151v349h350z" />
    <glyph glyph-name="less" unicode="&#x3c;" horiz-adv-x="1593" 
d="M1343 440v-362l-463 122l-880 231v520l880 231l463 122v-362l-374 -98l-583 -153l583 -153z" />
    <glyph glyph-name="equal" unicode="=" horiz-adv-x="1216" 
d="M-1 1125h967v-350h-967v350zM-1 625h967v-350h-967v350z" />
    <glyph glyph-name="greater" unicode="&#x3e;" horiz-adv-x="1593" 
d="M0 78v362l374 98l583 153l-583 153l-374 98v362l463 -122l880 -231v-520l-880 -231z" />
    <glyph glyph-name="question" unicode="?" horiz-adv-x="2662" 
d="M1946 524h-890q-61 0 -93 -29q-24 -23 -24 -58v-4h-349v14q0 202 167 325q138 102 299 102h890q63 0 93 30q24 22 24 58q0 34 -24 57q-31 30 -93 30h-1481q-61 0 -92 -30q-25 -22 -25 -57l1 -5h-349v15q0 202 167 325q138 102 298 102h1481q161 0 299 -102
q167 -123 167 -325v-21q0 -204 -167 -326q-137 -101 -299 -101zM590 0v350h350v-350h-350z" />
    <glyph glyph-name="at" unicode="@" horiz-adv-x="2850" 
d="M2249 350v212l-813 1q-140 0 -140 -106q0 -107 140 -107h813zM2599 785v-44q1 -15 1 -44v-584v-113h-107h-1077q-190 0 -339 116q-183 142 -183 340t183 340q149 116 339 116h775q-36 51 -94 84q-51 29 -117 43q-24 5 -48 6q-6 1 -18 1h-1228q-12 0 -18 -1q-24 -1 -48 -6
q-66 -14 -117 -43q-153 -87 -153 -299v-647q0 -9 3 -18q1 -24 6 -48q14 -66 43 -117q87 -153 299 -153h620v-350h-620q-349 0 -542 244q-159 200 -159 455v634q0 349 244 542q199 157 455 157h1202q256 0 455 -157q212 -168 240 -451z" />
    <glyph glyph-name="A" unicode="A" 
d="M2448 0v175h-1745l-200 349h1945v175q0 206 -145 294q-53 33 -116 46q-34 6 -51 8q-26 2 -38 2h-1748v-1049h-350v1399h2098q256 0 455 -158q244 -193 244 -542v-699h-349z" />
    <glyph glyph-name="B" unicode="B" 
d="M2328 1049h-1978v-1049h-350v1399h2330q172 0 304 -105q163 -130 163 -362v-58h-349v64l-1 8q0 12 -1 17q-5 23 -13 38q-29 47 -105 48zM2797 407v-407h-2097l-200 350h1948v64l-1 7q0 12 -1 17q-4 22 -13 38q-28 46 -105 49l-1628 -1l-200 350h1830q172 0 304 -105
q163 -129 163 -362z" />
    <glyph glyph-name="C" unicode="C" 
d="M350 699v-349h2447v-350h-2797v699q0 349 244 542q200 158 455 158h2098v-350h-2096q-13 0 -39 -2q-17 -2 -51 -8q-64 -13 -117 -46q-144 -89 -144 -294z" />
    <glyph glyph-name="D" unicode="D" 
d="M2797 699v-699h-2797v1399h2098q256 0 455 -158q244 -193 244 -542zM350 1049v-699h2098v349q0 206 -145 294q-53 33 -116 46q-34 6 -51 8q-26 2 -38 2h-1748z" />
    <glyph glyph-name="E" unicode="E" 
d="M2797 1399v-350h-2332q-3 0 -4 -1q-2 0 -7.5 -1t-8.5 -1q-27 -5 -46 -15q-24 -13 -34 -28q-15 -25 -15 -71v-58h-350v58q0 232 163 362q134 105 304 105h2330zM350 407v-57h2447v-350h-2797v407q0 233 163 362q133 105 304 105h2330v-350h-2336q-3 0 -8 -1t-8 -2
q-27 -5 -46 -15q-23 -11 -34 -28q-15 -26 -15 -71z" />
    <glyph glyph-name="F" unicode="F" 
d="M2797 1399v-350h-2331h-1q-3 0 -4 -1q-2 0 -7.5 -1t-8.5 -1q-27 -5 -46 -15q-24 -13 -34 -28q-15 -25 -15 -71v-58h-350v58q0 232 163 362q134 105 304 105h2330zM2797 874v-350h-2331h-1h-4q-3 0 -8 -1t-8 -2q-27 -5 -46 -15q-23 -11 -34 -28q-15 -26 -15 -71v-407h-350
v407q0 233 163 362q133 105 304 105h2330z" />
    <glyph glyph-name="G" unicode="G" 
d="M0 0v699q0 349 244 542q200 158 455 158h2098v-350h-2096q-13 0 -39 -2q-17 -2 -51 -8q-64 -13 -117 -46q-144 -89 -144 -294v-349h2098v349h349v-699h-2797z" />
    <glyph glyph-name="H" unicode="H" 
d="M0 0v1399h350v-1399h-350zM2448 0v524h-1745l-200 350h1945v525h349v-1399h-349z" />
    <glyph glyph-name="I" unicode="I" horiz-adv-x="600" 
d="M0 0v1399h350v-1399h-350z" />
    <glyph glyph-name="J" unicode="J" 
d="M0 1399h2797v-700q0 -349 -244 -542q-197 -157 -455 -157h-2098v350h2097q12 0 38 2q17 2 51 8q66 14 117 45q145 88 145 294v350h-2448v350z" />
    <glyph glyph-name="K" unicode="K" horiz-adv-x="3300" 
d="M2270 764l780 -359v-400l-1313 575l-1737 -573v1389h350v-904l2700 900v-368z" />
    <glyph glyph-name="L" unicode="L" 
d="M2797 350v-350h-2098q-256 0 -455 157q-244 193 -244 542v700h350v-700q0 -205 144 -294q51 -31 116 -45q34 -6 51 -8q26 -2 38 -2h2098z" />
    <glyph glyph-name="M" unicode="M" horiz-adv-x="3397" 
d="M0 1399h2448q255 0 455 -158q244 -193 244 -542v-699h-350v699q0 205 -144 294q-53 33 -117 46q-30 6 -50 8q-26 2 -38 2h-2098v-1049h-350v1399zM1399 0v699h349v-699h-349z" />
    <glyph glyph-name="N" unicode="N" 
d="M0 1399h2098q256 0 455 -158q244 -193 244 -542v-699h-349v699q0 206 -145 294q-53 33 -116 46q-34 6 -51 8q-26 2 -38 2h-1748v-1049h-350v1399z" />
    <glyph glyph-name="O" unicode="O" horiz-adv-x="3222" 
d="M2273 0h-1574q-256 0 -455 157q-237 189 -244 523v39q8 335 244 522q200 158 455 158h1574q255 0 455 -158q236 -187 244 -522v-39q-7 -334 -244 -523q-199 -157 -455 -157zM494 993q-144 -89 -144 -294t144 -294q51 -31 116 -45q34 -6 51 -8q26 -2 38 -2h1572q13 0 39 2
q17 2 51 8q66 14 117 45q144 89 144 294t-144 294q-53 33 -116 46q-34 6 -51 8q-26 2 -38 2h-1572q-13 0 -39 -2q-17 -2 -51 -8q-64 -13 -117 -46z" />
    <glyph glyph-name="P" unicode="P" 
d="M2797 350h-2098l-200 349h1949q0 206 -145 294q-53 33 -116 46q-34 6 -51 8q-26 2 -38 2h-1748v-1049h-350v1399h2098q256 0 455 -158q244 -193 244 -542v-349z" />
    <glyph glyph-name="Q" unicode="Q" horiz-adv-x="3222" 
d="M2273 -10h-1574q-255 0 -455 158q-236 187 -244 522v39q7 334 244 523q199 157 455 157h1574q256 0 455 -157q237 -189 244 -523v-39q-8 -335 -244 -522q-200 -158 -455 -158zM524 -534v350h1924v-350h-1924zM494 984q-144 -88 -144 -294t144 -294q49 -31 116 -46
q34 -6 51 -8q26 -2 38 -2h1572q13 0 39 2q17 2 51 8q67 15 117 46q144 88 144 294t-144 294q-51 31 -116 45q-28 7 -51 8q-26 2 -38 2h-1572q-13 0 -39 -2q-23 -1 -51 -8q-66 -13 -117 -45z" />
    <glyph glyph-name="R" unicode="R" 
d="M2098 350h-1399l-200 349h1599q258 0 455 -157q244 -193 244 -542h-349q0 206 -145 294q-51 31 -116 45q-28 7 -51 8q-6 1 -18.5 2t-19.5 1zM0 0v1399h2098q256 0 455 -158q244 -193 244 -542h-349q0 206 -145 294q-53 33 -116 46q-34 6 -51 8q-26 2 -38 2h-1748v-1049
h-350z" />
    <glyph glyph-name="S" unicode="S" 
d="M0 524v408q0 232 163 362q134 105 304 105h2330v-350h-2328q-77 -2 -104 -48q-10 -15 -13 -38q-2 -10 -2 -17v-72h2447v-407q0 -233 -163 -362q-132 -105 -304 -105h-2330v350h2328q76 2 105 48q9 16 13 38q1 5 1 17l1 7v64h-2448z" />
    <glyph glyph-name="T" unicode="T" 
d="M1224 0v1049h-1224v350h2797v-350h-1224v-1049h-349z" />
    <glyph glyph-name="U" unicode="U" 
d="M2797 0h-2098q-256 0 -455 157q-244 193 -244 542v700h350v-700q0 -205 144 -294q51 -31 117 -45q30 -6 50 -8q26 -2 38 -2h1749v1049h349v-1399z" />
    <glyph glyph-name="V" unicode="V" horiz-adv-x="3043" 
d="M2312 1398h481l-1397 -1478l-127 135l-1269 1343h481l915 -969z" />
    <glyph glyph-name="W" unicode="W" horiz-adv-x="3397" 
d="M350 1399v-1049h2098q12 0 38 2q20 2 50 8q66 14 117 45q144 89 144 294v700h350v-700q0 -349 -244 -542q-199 -157 -455 -157h-2448v1399h350zM1399 699v700h349v-700h-349z" />
    <glyph glyph-name="X" unicode="X" horiz-adv-x="2978" 
d="M1364 489l-734 -489h-630l1049 699l-1049 700h630l734 -490l734 490h630l-1049 -700l1049 -699h-630z" />
    <glyph glyph-name="Y" unicode="Y" 
d="M0 350v1049h350v-700h1747q6 1 18.5 2t19.5 1q23 1 51 8q66 14 117 45q145 88 145 294v350h349v-350q0 -349 -244 -542q-197 -157 -455 -157h-525v-350h-349v350h-1224z" />
    <glyph glyph-name="Z" unicode="Z" horiz-adv-x="3261" 
d="M1263 350h1641v-350h-2904l541 325l1207 724h-1641v350h2904l-542 -325z" />
    <glyph glyph-name="bracketleft" unicode="[" horiz-adv-x="756" 
d="M350 1522v-1657h156v-350h-506v2357h506v-350h-156z" />
    <glyph glyph-name="backslash" unicode="\" horiz-adv-x="891" 
d="M350 1524l291 -1662l-351 1l-290 1661h350z" />
    <glyph glyph-name="bracketright" unicode="]" horiz-adv-x="756" 
d="M156 -135v1657h-156v350h506v-2357h-506v350h156z" />
    <glyph glyph-name="asciicircum" unicode="^" horiz-adv-x="1192" 
d="M361 593h-361l211 804h520l211 -804h-361l-110 418z" />
    <glyph glyph-name="underscore" unicode="_" horiz-adv-x="1216" 
d="M-1 -138h967v-350h-967v350z" />
    <glyph glyph-name="grave" unicode="`" horiz-adv-x="1070" 
d="M0 1924l131 223l689 -402l-131 -223z" />
    <glyph glyph-name="a" unicode="a" 
d="M2448 175h-2098v-175h-350v1399h2098q256 0 455 -158q244 -193 244 -542v-699h-349v175zM350 1049v-525h2098v175q0 206 -145 294q-53 33 -116 46q-34 6 -51 8q-26 2 -38 2h-1748z" />
    <glyph glyph-name="b" unicode="b" 
d="M2797 0h-2797v1399h2330q172 0 304 -105q163 -130 163 -362v-58h-349v64l-1 8q0 12 -1 17q-5 23 -13 38q-29 47 -105 48h-1978v-175h1980q172 0 304 -105q163 -129 163 -362v-407zM350 524v-174h2098v64l-1 7q0 12 -1 17q-4 22 -13 38q-28 46 -105 49z" />
    <glyph glyph-name="c" unicode="c" 
d="M350 699v-349h2447v-350h-2797v699q0 349 244 542q200 158 455 158h2098v-350h-2096q-13 0 -39 -2q-17 -2 -51 -8q-64 -13 -117 -46q-144 -89 -144 -294z" />
    <glyph glyph-name="d" unicode="d" 
d="M2797 699v-699h-2797v1399h2098q256 0 455 -158q244 -193 244 -542zM350 1049v-699h2098v349q0 206 -145 294q-53 33 -116 46q-34 6 -51 8q-26 2 -38 2h-1748z" />
    <glyph glyph-name="e" unicode="e" 
d="M350 932v-71q53 13 117 13h2330v-350h-2336q-3 0 -8 -1t-8 -2q-27 -5 -46 -15q-23 -11 -34 -28q-15 -26 -15 -71v-57h2447v-350h-2797v932q0 232 163 362q134 105 304 105h2330v-350h-2332q-3 0 -4 -1q-2 0 -7.5 -1t-8.5 -1q-27 -5 -46 -15q-24 -13 -34 -28
q-15 -25 -15 -71z" />
    <glyph glyph-name="f" unicode="f" 
d="M0 0v932q0 232 163 362q134 105 304 105h2330v-350h-2332q-3 0 -4 -1q-2 0 -7.5 -1t-8.5 -1q-27 -5 -46 -15q-24 -13 -34 -28q-15 -25 -15 -71v-71q53 13 117 13h2330v-350h-2336q-3 0 -8 -1t-8 -2q-27 -5 -46 -15q-23 -11 -34 -28q-15 -26 -15 -71v-407h-350z" />
    <glyph glyph-name="g" unicode="g" 
d="M0 0v699q0 349 244 542q200 158 455 158h2098v-350h-2096q-13 0 -39 -2q-17 -2 -51 -8q-64 -13 -117 -46q-144 -89 -144 -294v-349h2098v349h349v-699h-2797z" />
    <glyph glyph-name="h" unicode="h" 
d="M2448 524h-2098v-524h-350v1399h350v-525h2098v525h349v-1399h-349v524z" />
    <glyph glyph-name="i" unicode="i" horiz-adv-x="600" 
d="M0 0v1399h350v-1399h-350z" />
    <glyph glyph-name="j" unicode="j" 
d="M0 1399h2797v-700q0 -349 -244 -542q-197 -157 -455 -157h-2098v350h2097q12 0 38 2q17 2 51 8q66 14 117 45q145 88 145 294v350h-2448v350z" />
    <glyph glyph-name="k" unicode="k" horiz-adv-x="3300" 
d="M2270 764l780 -359v-400l-1313 575l-1737 -573v1389h350v-904l2700 900v-368z" />
    <glyph glyph-name="l" unicode="l" 
d="M2797 350v-350h-2098q-256 0 -455 157q-244 193 -244 542v700h350v-700q0 -205 144 -294q51 -31 116 -45q34 -6 51 -8q26 -2 38 -2h2098z" />
    <glyph glyph-name="m" unicode="m" horiz-adv-x="3397" 
d="M1399 1049h-1049v-1049h-350v1399h2448q255 0 455 -158q244 -193 244 -542v-699h-350v699q0 205 -144 294q-53 33 -117 46q-30 6 -50 8q-26 2 -38 2h-700v-1049h-349v1049z" />
    <glyph glyph-name="n" unicode="n" 
d="M0 1399h2098q256 0 455 -158q244 -193 244 -542v-699h-349v699q0 206 -145 294q-53 33 -116 46q-34 6 -51 8q-26 2 -38 2h-1748v-1049h-350v1399z" />
    <glyph glyph-name="o" unicode="o" horiz-adv-x="3222" 
d="M2273 0h-1574q-256 0 -455 157q-237 189 -244 523v39q8 335 244 522q200 158 455 158h1574q255 0 455 -158q236 -187 244 -522v-39q-7 -334 -244 -523q-199 -157 -455 -157zM494 993q-144 -89 -144 -294t144 -294q51 -31 116 -45q34 -6 51 -8q26 -2 38 -2h1572q13 0 39 2
q17 2 51 8q66 14 117 45q144 89 144 294t-144 294q-53 33 -116 46q-34 6 -51 8q-26 2 -38 2h-1572q-13 0 -39 -2q-17 -2 -51 -8q-64 -13 -117 -46z" />
    <glyph glyph-name="p" unicode="p" 
d="M0 0v1399h2098q256 0 455 -158q244 -193 244 -542v-349h-2447v-350h-350zM350 699h2098q0 206 -145 294q-53 33 -116 46q-34 6 -51 8q-26 2 -38 2h-1748v-350z" />
    <glyph glyph-name="q" unicode="q" horiz-adv-x="3222" 
d="M2273 -10h-1574q-255 0 -455 158q-236 187 -244 522v39q7 334 244 523q199 157 455 157h1574q256 0 455 -157q237 -189 244 -523v-39q-8 -335 -244 -522q-200 -158 -455 -158zM524 -534v350h1924v-350h-1924zM494 984q-144 -88 -144 -294t144 -294q49 -31 116 -46
q34 -6 51 -8q26 -2 38 -2h1572q13 0 39 2q17 2 51 8q67 15 117 46q144 88 144 294t-144 294q-51 31 -116 45q-28 7 -51 8q-26 2 -38 2h-1572q-13 0 -39 -2q-23 -1 -51 -8q-66 -13 -117 -45z" />
    <glyph glyph-name="r" unicode="r" 
d="M0 0v1399h2098q256 0 455 -158q244 -193 244 -542h-349q0 206 -145 294q-53 33 -116 46q-34 6 -51 8q-26 2 -38 2h-1748v-350h1748q258 0 455 -157q244 -193 244 -542h-349q0 206 -145 294q-51 31 -116 45q-28 7 -51 8q-6 1 -18.5 2t-19.5 1h-1748v-350h-350z" />
    <glyph glyph-name="s" unicode="s" 
d="M0 524v408q0 232 163 362q134 105 304 105h2330v-350h-2328q-77 -2 -104 -48q-10 -15 -13 -38q-2 -10 -2 -17v-72h2447v-407q0 -233 -163 -362q-132 -105 -304 -105h-2330v350h2328q76 2 105 48q9 16 13 38q1 5 1 17l1 7v64h-2448z" />
    <glyph glyph-name="t" unicode="t" 
d="M1224 0v1049h-1224v350h2797v-350h-1224v-1049h-349z" />
    <glyph glyph-name="u" unicode="u" 
d="M2797 0h-2098q-256 0 -455 157q-244 193 -244 542v700h350v-700q0 -205 144 -294q51 -31 117 -45q30 -6 50 -8q26 -2 38 -2h1749v1049h349v-1399z" />
    <glyph glyph-name="v" unicode="v" horiz-adv-x="3043" 
d="M2312 1398h481l-1397 -1478l-127 135l-1269 1343h481l915 -969z" />
    <glyph glyph-name="w" unicode="w" horiz-adv-x="3397" 
d="M0 0v1399h350v-1049h1049v1049h349v-1049h700q12 0 38 2q20 2 50 8q66 14 117 45q144 89 144 294v700h350v-700q0 -349 -244 -542q-199 -157 -455 -157h-2448z" />
    <glyph glyph-name="x" unicode="x" horiz-adv-x="2978" 
d="M1364 489l-734 -489h-630l1049 699l-1049 700h630l734 -490l734 490h630l-1049 -700l1049 -699h-630z" />
    <glyph glyph-name="y" unicode="y" 
d="M0 350v1049h350v-700h1747q6 1 18.5 2t19.5 1q23 1 51 8q66 14 117 45q145 88 145 294v350h349v-350q0 -349 -244 -542q-197 -157 -455 -157h-525v-350h-349v350h-1224z" />
    <glyph glyph-name="z" unicode="z" horiz-adv-x="3261" 
d="M1263 350h1641v-350h-2904l541 325l1207 724h-1641v350h2904l-542 -325z" />
    <glyph glyph-name="braceleft" unicode="{" horiz-adv-x="789" 
d="M0 674q82 0 87 416q5 417 6 429q5 41 14 70q31 103 104 173q49 48 117 75q87 35 194 30h17v-351q-99 0 -99 -112v-559q0 -121 -58 -167q58 -48 58 -167v-531q0 -112 99 -112v-351h-17q-107 -5 -194 30q-68 27 -117 75q-73 70 -104 173q-9 29 -14 70q-1 12 -6 410
q-5 399 -87 399z" />
    <glyph glyph-name="bar" unicode="|" horiz-adv-x="600" 
d="M0 -337v2069h350v-2069h-350z" />
    <glyph glyph-name="braceright" unicode="}" horiz-adv-x="789" 
d="M539 674q-83 0 -87 -399q-5 -398 -6 -410q-5 -41 -14 -70q-31 -103 -104 -173q-50 -48 -117 -75q-87 -35 -194 -30h-17v351q99 0 99 112v531q0 119 58 167q-58 46 -58 167v559q0 112 -99 112v351h17q107 5 194 -30q67 -27 117 -75q73 -70 104 -173q9 -29 14 -70
q2 -12 6 -429q5 -416 87 -416z" />
    <glyph glyph-name="asciitilde" unicode="~" horiz-adv-x="1761" 
d="M1168 1124l343 -69l-5 -24l-5 -24q-21 -105 -76 -181q-40 -56 -101 -95q-86 -54 -193 -59q-36 -2 -72 3q-4 1 -12 2t-12 2l-9 2q-1 0 -3.5 0.5t-3.5 1.5l-306 76l-306 76h-1h-3q-6 0 -9 -1q-15 0 -20 -4q-7 -5 -11 -16q-6 -10 -11 -33l-9 -48l-343 69l10 48
q21 105 76 181q41 55 101 94q86 55 192 59q36 2 72 -3q5 -1 13 -2.5t12 -1.5l9 -2q4 0 7 -1l608 -151q28 -5 39 5t19 48z" />
    <glyph glyph-name="exclamdown" unicode="&#xa1;" horiz-adv-x="600" 
d="M0 1049v350h350v-350h-350zM0 0v967h350v-967h-350z" />
    <glyph glyph-name="cent" unicode="&#xa2;" 
d="M2797 0h-1134v-136h-349v136h-1314v699q0 349 244 542q200 158 455 158h615v125h349v-125h1134v-350h-2096q-13 0 -39 -2q-17 -2 -51 -8q-64 -13 -117 -46q-144 -89 -144 -294v-349h2447v-350z" />
    <glyph glyph-name="sterling" unicode="&#xa3;" 
d="M1442 591h-1092v-241h2447v-350h-2797v591h-128v217h128v124q0 232 163 362q134 105 304 105h1863q172 0 304 -105q163 -130 163 -362v-58h-349l-1 72q0 12 -1 17q-3 23 -13 38q-27 47 -103 48h-1863q-51 0 -79 -22q-38 -30 -38 -95v-124h1092v-217z" />
    <glyph glyph-name="currency" unicode="&#xa4;" horiz-adv-x="250" 
 />
    <glyph glyph-name="yen" unicode="&#xa5;" horiz-adv-x="2978" 
d="M848 530h341v76l-1189 793h630l734 -490l734 490h630l-1189 -793v-76h341v-128h-341v-92h341v-128h-341v-182h-350v182h-341v128h341v92h-341v128z" />
    <glyph glyph-name="brokenbar" unicode="&#xa6;" horiz-adv-x="600" 
d="M0 603h350v-940h-350v940zM350 782h-350v930h350v-930z" />
    <glyph glyph-name="section" unicode="&#xa7;" horiz-adv-x="250" 
 />
    <glyph glyph-name="dieresis" unicode="&#xa8;" horiz-adv-x="1649" 
d="M0 1524v350h350v-350h-350zM1049 1524v350h350v-350h-350z" />
    <glyph glyph-name="copyright" unicode="&#xa9;" horiz-adv-x="250" 
 />
    <glyph glyph-name="ordfeminine" unicode="&#xaa;" horiz-adv-x="250" 
 />
    <glyph glyph-name="guillemotleft" unicode="&#xab;" horiz-adv-x="250" 
 />
    <glyph glyph-name="logicalnot" unicode="&#xac;" horiz-adv-x="250" 
 />
    <glyph glyph-name="registered" unicode="&#xae;" horiz-adv-x="250" 
 />
    <glyph glyph-name="overscore" unicode="&#xaf;" horiz-adv-x="250" 
 />
    <glyph glyph-name="degree" unicode="&#xb0;" horiz-adv-x="250" 
 />
    <glyph glyph-name="plusminus" unicode="&#xb1;" horiz-adv-x="250" 
 />
    <glyph glyph-name="uni00B2" unicode="&#xb2;" horiz-adv-x="250" 
 />
    <glyph glyph-name="uni00B3" unicode="&#xb3;" horiz-adv-x="250" 
 />
    <glyph glyph-name="acute" unicode="&#xb4;" horiz-adv-x="1070" 
d="M689 2147l131 -223l-689 -402l-131 223z" />
    <glyph glyph-name="mu" unicode="&#xb5;" horiz-adv-x="250" 
 />
    <glyph glyph-name="paragraph" unicode="&#xb6;" horiz-adv-x="250" 
 />
    <glyph glyph-name="middot" unicode="&#xb7;" horiz-adv-x="250" 
 />
    <glyph glyph-name="middot" unicode="&#x2219;" horiz-adv-x="250" 
 />
    <glyph glyph-name="cedilla" unicode="&#xb8;" horiz-adv-x="916" 
d="M321 258v-300q152 0 253 -122q92 -112 92 -255q0 -163 -115 -278t-278 -115q-160 0 -273 112l169 221q34 -61 104 -61q50 0 86 36q35 35 35 85q0 126 -147 135q-74 5 -148 -15v557h222z" />
    <glyph glyph-name="uni00B9" unicode="&#xb9;" horiz-adv-x="250" 
 />
    <glyph glyph-name="ordmasculine" unicode="&#xba;" horiz-adv-x="250" 
 />
    <glyph glyph-name="guillemotright" unicode="&#xbb;" horiz-adv-x="250" 
 />
    <glyph glyph-name="onequarter" unicode="&#xbc;" horiz-adv-x="250" 
 />
    <glyph glyph-name="onehalf" unicode="&#xbd;" horiz-adv-x="250" 
 />
    <glyph glyph-name="threequarters" unicode="&#xbe;" horiz-adv-x="250" 
 />
    <glyph glyph-name="questiondown" unicode="&#xbf;" horiz-adv-x="2662" 
d="M466 875h890q61 0 93 29q24 22 24 58v4h349v-14q0 -202 -167 -325q-138 -102 -299 -102h-890q-63 0 -93 -30q-24 -23 -24 -58t24 -57q31 -30 93 -30h1481q61 0 92 30q25 22 25 57l-1 5h349v-15q0 -202 -167 -325q-138 -102 -298 -102h-1481q-161 0 -299 102
q-167 123 -167 325v21q0 204 167 326q137 101 299 101zM1822 1399v-350h-350v350h350z" />
    <glyph glyph-name="Agrave" unicode="&#xc0;" 
d="M2448 0v175h-1745l-200 349h1945v175q0 206 -145 294q-53 33 -116 46q-34 6 -51 8q-26 2 -38 2h-1748v-1049h-350v1399h2098q256 0 455 -158q244 -193 244 -542v-699h-349zM852 1924l131 223l689 -402l-131 -223z" />
    <glyph glyph-name="Aacute" unicode="&#xc1;" 
d="M2448 0v175h-1745l-200 349h1945v175q0 206 -145 294q-53 33 -116 46q-34 6 -51 8q-26 2 -38 2h-1748v-1049h-350v1399h2098q256 0 455 -158q244 -193 244 -542v-699h-349zM1814 2144l131 -223l-689 -402l-131 223z" />
    <glyph glyph-name="Acircumflex" unicode="&#xc2;" 
d="M2448 0v175h-1745l-200 349h1945v175q0 206 -145 294q-53 33 -116 46q-34 6 -51 8q-26 2 -38 2h-1748v-1049h-350v1399h2098q256 0 455 -158q244 -193 244 -542v-699h-349zM1865 1739l-146 -218l-321 214l-320 -214l-146 218l393 263l73 48l73 -48z" />
    <glyph glyph-name="Atilde" unicode="&#xc3;" 
d="M2448 0v175h-1745l-200 349h1945v175q0 206 -145 294q-53 33 -116 46q-34 6 -51 8q-26 2 -38 2h-1748v-1049h-350v1399h2098q256 0 455 -158q244 -193 244 -542v-699h-349zM1704 1884l255 -56l-4 -19l-4 -19q-15 -84 -56 -147q-31 -46 -75 -76q-65 -44 -143 -48
q-24 -1 -53 2q-3 1 -9 2t-9 2l-7 1q-1 0 -2.5 0.5t-2.5 1.5l-227 61l-227 62h-1h-2q-4 0 -7 -1q-10 0 -14 -3q-5 -5 -9 -13q-5 -13 -8 -27l-6 -39l-255 56l8 39q15 83 56 146q31 46 75 76q63 44 142 48q27 1 54 -3l18 -3l7 -2h5l451 -122q19 -4 29 4q9 8 14 38z" />
    <glyph glyph-name="Adieresis" unicode="&#xc4;" 
d="M2448 0v175h-1745l-200 349h1945v175q0 206 -145 294q-53 33 -116 46q-34 6 -51 8q-26 2 -38 2h-1748v-1049h-350v1399h2098q256 0 455 -158q244 -193 244 -542v-699h-349zM699 1521v350h350v-350h-350zM1748 1521v350h350v-350h-350z" />
    <glyph glyph-name="Aring" unicode="&#xc5;" 
d="M2448 0v175h-1745l-200 349h1945v175q0 206 -145 294q-53 33 -116 46q-34 6 -51 8q-26 2 -38 2h-1748v-1049h-350v1399h2098q256 0 455 -158q244 -193 244 -542v-699h-349zM1491 1521h-185q-95 0 -171 59q-91 71 -92 198v14q1 126 92 197q75 60 171 60h185q96 0 171 -60
q91 -71 92 -197v-14q-1 -127 -92 -198q-76 -59 -171 -59zM1298 1860q-37 -22 -37 -75q0 -54 37 -76q15 -8 30 -11q8 -2 13 -3h10h95h10q8 2 13 3q15 3 30 11q37 22 37 76q0 53 -37 75q-13 9 -30 12q-8 2 -13 2q-3 1 -10 1h-95q-6 0 -10 -1q-3 0 -13 -2q-16 -3 -30 -12z" />
    <glyph glyph-name="AE" unicode="&#xc6;" horiz-adv-x="4446" 
d="M350 350h1573v174h-1457h-1h-4q-3 0 -8 -1t-8 -2q-27 -5 -46 -15q-23 -11 -34 -28q-15 -26 -15 -71v-57zM4196 1049h-1923v-175h1923v-350h-1923v-174h1923v-350h-4196v407q0 233 163 362q133 105 304 105h1456v175h-1457h-1q-3 0 -4 -1q-2 0 -7.5 -1t-8.5 -1
q-27 -5 -46 -15q-24 -13 -34 -28q-15 -25 -15 -71v-58h-350v58q0 232 163 362q134 105 304 105h3729v-350z" />
    <glyph glyph-name="Ccedilla" unicode="&#xc7;" 
d="M1385 -329v329h-1385v699q0 349 244 542q200 158 455 158h2098v-350h-2096q-13 0 -39 -2q-17 -2 -51 -8q-64 -13 -117 -46q-144 -89 -144 -294v-349h2447v-350h-1191v-72q152 0 253 -122q93 -111 93 -255q0 -163 -115 -278t-278 -115q-159 0 -274 112l170 221
q34 -61 104 -61q51 0 85 36q36 34 36 85q0 126 -148 135q-74 4 -147 -15z" />
    <glyph glyph-name="Egrave" unicode="&#xc8;" 
d="M2797 1399v-350h-2332q-3 0 -4 -1q-2 0 -7.5 -1t-8.5 -1q-27 -5 -46 -15q-24 -13 -34 -28q-15 -25 -15 -71v-58h-350v58q0 232 163 362q134 105 304 105h2330zM350 407v-57h2447v-350h-2797v407q0 233 163 362q133 105 304 105h2330v-350h-2336q-3 0 -8 -1t-8 -2
q-27 -5 -46 -15q-23 -11 -34 -28q-15 -26 -15 -71zM852 1924l131 223l689 -402l-131 -223z" />
    <glyph glyph-name="Eacute" unicode="&#xc9;" 
d="M2797 1399v-350h-2332q-3 0 -4 -1q-2 0 -7.5 -1t-8.5 -1q-27 -5 -46 -15q-24 -13 -34 -28q-15 -25 -15 -71v-58h-350v58q0 232 163 362q134 105 304 105h2330zM350 407v-57h2447v-350h-2797v407q0 233 163 362q133 105 304 105h2330v-350h-2336q-3 0 -8 -1t-8 -2
q-27 -5 -46 -15q-23 -11 -34 -28q-15 -26 -15 -71zM1814 2144l131 -223l-689 -402l-131 223z" />
    <glyph glyph-name="Ecircumflex" unicode="&#xca;" 
d="M2797 1399v-350h-2332q-3 0 -4 -1q-2 0 -7.5 -1t-8.5 -1q-27 -5 -46 -15q-24 -13 -34 -28q-15 -25 -15 -71v-58h-350v58q0 232 163 362q134 105 304 105h2330zM350 407v-57h2447v-350h-2797v407q0 233 163 362q133 105 304 105h2330v-350h-2336q-3 0 -8 -1t-8 -2
q-27 -5 -46 -15q-23 -11 -34 -28q-15 -26 -15 -71zM1998 1739l-146 -218l-321 214l-320 -214l-146 218l393 263l73 48l73 -48z" />
    <glyph glyph-name="Edieresis" unicode="&#xcb;" 
d="M2797 1399v-350h-2332q-3 0 -4 -1q-2 0 -7.5 -1t-8.5 -1q-27 -5 -46 -15q-24 -13 -34 -28q-15 -25 -15 -71v-58h-350v58q0 232 163 362q134 105 304 105h2330zM350 407v-57h2447v-350h-2797v407q0 233 163 362q133 105 304 105h2330v-350h-2336q-3 0 -8 -1t-8 -2
q-27 -5 -46 -15q-23 -11 -34 -28q-15 -26 -15 -71zM699 1521v350h350v-350h-350zM1748 1521v350h350v-350h-350z" />
    <glyph glyph-name="Igrave" unicode="&#xcc;" horiz-adv-x="600" 
d="M0 0v1399h350v-1399h-350zM-485 1924l131 223l689 -402l-131 -223z" />
    <glyph glyph-name="Iacute" unicode="&#xcd;" horiz-adv-x="600" 
d="M0 0v1399h350v-1399h-350zM591 2147l131 -223l-689 -402l-131 223z" />
    <glyph glyph-name="Icircumflex" unicode="&#xce;" horiz-adv-x="600" 
d="M0 0v1399h350v-1399h-350zM641 1742l-145 -218l-321 214l-321 -214l-145 218l393 263l73 48l72 -48z" />
    <glyph glyph-name="Idieresis" unicode="&#xcf;" horiz-adv-x="600" 
d="M0 0v1399h350v-1399h-350zM-454 1524v350h350v-350h-350zM455 1524v350h350v-350h-350z" />
    <glyph glyph-name="Eth" unicode="&#xd0;" 
d="M2797 699v-699h-2797v593h-94v217h94v589h2098q256 0 455 -158q244 -193 244 -542zM350 593v-243h2098v349q0 206 -145 294q-53 33 -116 46q-34 6 -51 8q-26 2 -38 2h-1748v-239h605v-217h-605z" />
    <glyph glyph-name="Ntilde" unicode="&#xd1;" 
d="M0 1399h2098q256 0 455 -158q244 -193 244 -542v-699h-349v699q0 206 -145 294q-53 33 -116 46q-34 6 -51 8q-26 2 -38 2h-1748v-1049h-350v1399zM1704 1884l255 -56l-4 -19l-4 -19q-15 -84 -56 -147q-31 -46 -75 -76q-65 -44 -143 -48q-24 -1 -53 2q-3 1 -9 2t-9 2l-7 1
q-1 0 -2.5 0.5t-2.5 1.5l-227 61l-227 62h-3q-4 0 -7 -1q-10 0 -14 -3q-5 -5 -9 -13q-5 -13 -8 -27l-6 -39l-255 56l8 39q15 83 56 146q31 46 75 76q63 44 142 48q27 1 54 -3l18 -3l7 -2h5l451 -122q19 -4 29 4q9 8 14 38z" />
    <glyph glyph-name="Ograve" unicode="&#xd2;" horiz-adv-x="3222" 
d="M2273 0h-1574q-256 0 -455 157q-237 189 -244 523v39q8 335 244 522q200 158 455 158h1574q255 0 455 -158q236 -187 244 -522v-39q-7 -334 -244 -523q-199 -157 -455 -157zM494 993q-144 -89 -144 -294t144 -294q51 -31 116 -45q34 -6 51 -8q26 -2 38 -2h1572q13 0 39 2
q17 2 51 8q66 14 117 45q144 89 144 294t-144 294q-53 33 -116 46q-34 6 -51 8q-26 2 -38 2h-1572q-13 0 -39 -2q-17 -2 -51 -8q-64 -13 -117 -46zM939 1924l131 223l689 -402l-131 -223z" />
    <glyph glyph-name="Oacute" unicode="&#xd3;" horiz-adv-x="3222" 
d="M2273 0h-1574q-256 0 -455 157q-237 189 -244 523v39q8 335 244 522q200 158 455 158h1574q255 0 455 -158q236 -187 244 -522v-39q-7 -334 -244 -523q-199 -157 -455 -157zM494 993q-144 -89 -144 -294t144 -294q51 -31 116 -45q34 -6 51 -8q26 -2 38 -2h1572q13 0 39 2
q17 2 51 8q66 14 117 45q144 89 144 294t-144 294q-53 33 -116 46q-34 6 -51 8q-26 2 -38 2h-1572q-13 0 -39 -2q-17 -2 -51 -8q-64 -13 -117 -46zM1902 2144l131 -223l-689 -402l-131 223z" />
    <glyph glyph-name="Ocircumflex" unicode="&#xd4;" horiz-adv-x="3222" 
d="M2273 0h-1574q-256 0 -455 157q-237 189 -244 523v39q8 335 244 522q200 158 455 158h1574q255 0 455 -158q236 -187 244 -522v-39q-7 -334 -244 -523q-199 -157 -455 -157zM1988 1739l-146 -218l-321 214l-320 -214l-146 218l393 263l73 48l73 -48zM494 993
q-144 -89 -144 -294t144 -294q51 -31 116 -45q34 -6 51 -8q26 -2 38 -2h1572q13 0 39 2q17 2 51 8q66 14 117 45q144 89 144 294t-144 294q-53 33 -116 46q-34 6 -51 8q-26 2 -38 2h-1572q-13 0 -39 -2q-17 -2 -51 -8q-64 -13 -117 -46z" />
    <glyph glyph-name="Otilde" unicode="&#xd5;" horiz-adv-x="3222" 
d="M2273 0h-1574q-256 0 -455 157q-237 189 -244 523v39q8 335 244 522q200 158 455 158h1574q255 0 455 -158q236 -187 244 -522v-39q-7 -334 -244 -523q-199 -157 -455 -157zM1792 1884l254 -56l-3 -19l-4 -19q-17 -88 -56 -147q-31 -46 -75 -76q-64 -43 -144 -48
q-23 -1 -53 2q-3 1 -9 2t-9 2l-6 1q-1 0 -3 1t-3 1l-227 61l-226 62h-3q-4 0 -7 -1q-10 0 -15 -3q-3 -3 -8 -13q-5 -13 -8 -27l-7 -39l-254 56l7 39q17 86 56 146q31 46 75 76q63 43 143 48q26 2 53 -3q7 -1 19 -3l6 -2h6l450 -122q21 -4 29 4q9 7 15 38zM494 993
q-144 -89 -144 -294t144 -294q51 -31 116 -45q34 -6 51 -8q26 -2 38 -2h1572q13 0 39 2q17 2 51 8q66 14 117 45q144 89 144 294t-144 294q-53 33 -116 46q-34 6 -51 8q-26 2 -38 2h-1572q-13 0 -39 -2q-17 -2 -51 -8q-64 -13 -117 -46z" />
    <glyph glyph-name="Odieresis" unicode="&#xd6;" horiz-adv-x="3222" 
d="M2273 0h-1574q-256 0 -455 157q-237 189 -244 523v39q8 335 244 522q200 158 455 158h1574q255 0 455 -158q236 -187 244 -522v-39q-7 -334 -244 -523q-199 -157 -455 -157zM1836 1521v350h350v-350h-350zM787 1521v350h350v-350h-350zM494 993q-144 -89 -144 -294
t144 -294q51 -31 116 -45q34 -6 51 -8q26 -2 38 -2h1572q13 0 39 2q17 2 51 8q66 14 117 45q144 89 144 294t-144 294q-53 33 -116 46q-34 6 -51 8q-26 2 -38 2h-1572q-13 0 -39 -2q-17 -2 -51 -8q-64 -13 -117 -46z" />
    <glyph glyph-name="multiply" unicode="&#xd7;" horiz-adv-x="1181" 
d="M683 234l-218 218l-218 -218l-247 248l217 218l-217 217l247 248l218 -218l218 218l248 -247l-219 -218l219 -219z" />
    <glyph glyph-name="Oslash" unicode="&#xd8;" horiz-adv-x="3222" 
d="M1241 350l272 699h-812q-13 0 -39 -2q-17 -2 -51 -8q-64 -13 -117 -46q-144 -89 -144 -294t144 -294q51 -31 116 -45q34 -6 51 -8q26 -2 38 -2h542zM1729 1049l-272 -699h814q13 0 39 2q17 2 51 8q66 14 117 45q144 89 144 294t-144 294q-53 33 -116 46q-34 6 -51 8
q-26 2 -38 2h-544zM2273 0h-953l-53 -136h-216l53 136h-405q-256 0 -455 157q-237 189 -244 523v39q8 335 244 522q200 158 455 158h951l55 142h216l-55 -142h407q255 0 455 -158q236 -187 244 -522v-39q-7 -334 -244 -523q-199 -157 -455 -157z" />
    <glyph glyph-name="Ugrave" unicode="&#xd9;" 
d="M2797 0h-2098q-256 0 -455 157q-244 193 -244 542v700h350v-700q0 -205 144 -294q51 -31 117 -45q30 -6 50 -8q26 -2 38 -2h1749v1049h349v-1399zM852 1924l131 223l689 -402l-131 -223z" />
    <glyph glyph-name="Uacute" unicode="&#xda;" 
d="M2797 0h-2098q-256 0 -455 157q-244 193 -244 542v700h350v-700q0 -205 144 -294q51 -31 117 -45q30 -6 50 -8q26 -2 38 -2h1749v1049h349v-1399zM1814 2044l131 -223l-689 -402l-131 223z" />
    <glyph glyph-name="Ucircumflex" unicode="&#xdb;" 
d="M2797 0h-2098q-256 0 -455 157q-244 193 -244 542v700h350v-700q0 -205 144 -294q51 -31 117 -45q30 -6 50 -8q26 -2 38 -2h1749v1049h349v-1399zM1918 1739l-146 -218l-321 214l-320 -214l-146 218l393 263l73 48l73 -48z" />
    <glyph glyph-name="Udieresis" unicode="&#xdc;" 
d="M2797 0h-2098q-256 0 -455 157q-244 193 -244 542v700h350v-700q0 -205 144 -294q51 -31 117 -45q30 -6 50 -8q26 -2 38 -2h1749v1049h349v-1399zM1748 1521v350h350v-350h-350zM699 1521v350h350v-350h-350z" />
    <glyph glyph-name="Yacute" unicode="&#xdd;" 
d="M0 350v1049h350v-700h1747q6 1 18.5 2t19.5 1q23 1 51 8q66 14 117 45q145 88 145 294v350h349v-350q0 -349 -244 -542q-197 -157 -455 -157h-525v-350h-349v350h-1224zM1814 2044l131 -223l-689 -402l-131 223z" />
    <glyph glyph-name="Thorn" unicode="&#xde;" 
d="M2098 109h-1748v-109h-350v1399h350v-109h1748q103 0 211 -27q128 -31 229 -93q251 -156 259 -455v-31q-6 -299 -259 -455q-104 -63 -229 -94q-110 -26 -211 -26zM350 940v-482h1754q4 1 13 1q19 1 42 3q65 8 119 27q170 62 170 210q0 145 -162 207q-54 20 -119 29
q-16 2 -44 4q-5 1 -15 1h-1758z" />
    <glyph glyph-name="germandbls" unicode="&#xdf;" 
d="M2797 951q0 -148 -87 -253q87 -105 87 -251v-20q0 -205 -166 -326q-139 -101 -299 -101h-1805v350h1805q61 0 93 29q24 24 24 58q0 36 -25 58q-32 29 -92 29h-1805v350h1805q62 0 93 30q24 22 24 58q0 35 -25 57q-32 30 -92 30h-1863q-77 -2 -104 -48q-10 -15 -13 -38
q-2 -10 -2 -17v-946h-350v932q0 232 163 362q134 105 304 105h1865q160 0 299 -102q166 -123 166 -325v-21z" />
    <glyph glyph-name="agrave" unicode="&#xe0;" 
d="M2448 175h-2098v-175h-350v1399h2098q256 0 455 -158q244 -193 244 -542v-699h-349v175zM350 1049v-525h2098v175q0 206 -145 294q-53 33 -116 46q-34 6 -51 8q-26 2 -38 2h-1748zM852 1924l131 223l689 -402l-131 -223z" />
    <glyph glyph-name="aacute" unicode="&#xe1;" 
d="M2448 0v175h-1745l-200 349h1945v175q0 206 -145 294q-53 33 -116 46q-34 6 -51 8q-26 2 -38 2h-1748v-1049h-350v1399h2098q256 0 455 -158q244 -193 244 -542v-699h-349zM1814 2144l131 -223l-689 -402l-131 223z" />
    <glyph glyph-name="acircumflex" unicode="&#xe2;" 
d="M2448 0v175h-1745l-200 349h1945v175q0 206 -145 294q-53 33 -116 46q-34 6 -51 8q-26 2 -38 2h-1748v-1049h-350v1399h2098q256 0 455 -158q244 -193 244 -542v-699h-349zM1865 1739l-146 -218l-321 214l-320 -214l-146 218l393 263l73 48l73 -48z" />
    <glyph glyph-name="atilde" unicode="&#xe3;" 
d="M2448 0v175h-1745l-200 349h1945v175q0 206 -145 294q-53 33 -116 46q-34 6 -51 8q-26 2 -38 2h-1748v-1049h-350v1399h2098q256 0 455 -158q244 -193 244 -542v-699h-349zM1704 1884l255 -56l-4 -19l-4 -19q-15 -84 -56 -147q-31 -46 -75 -76q-65 -44 -143 -48
q-24 -1 -53 2q-3 1 -9 2t-9 2l-7 1q-1 0 -2.5 0.5t-2.5 1.5l-227 61l-227 62h-1h-2q-4 0 -7 -1q-10 0 -14 -3q-5 -5 -9 -13q-5 -13 -8 -27l-6 -39l-255 56l8 39q15 83 56 146q31 46 75 76q63 44 142 48q27 1 54 -3l18 -3l7 -2h5l451 -122q19 -4 29 4q9 8 14 38z" />
    <glyph glyph-name="adieresis" unicode="&#xe4;" 
d="M2448 0v175h-1745l-200 349h1945v175q0 206 -145 294q-53 33 -116 46q-34 6 -51 8q-26 2 -38 2h-1748v-1049h-350v1399h2098q256 0 455 -158q244 -193 244 -542v-699h-349zM699 1521v350h350v-350h-350zM1748 1521v350h350v-350h-350z" />
    <glyph glyph-name="aring" unicode="&#xe5;" 
d="M2448 0v175h-1745l-200 349h1945v175q0 206 -145 294q-53 33 -116 46q-34 6 -51 8q-26 2 -38 2h-1748v-1049h-350v1399h2098q256 0 455 -158q244 -193 244 -542v-699h-349zM1491 1521h-185q-95 0 -171 59q-91 71 -92 198v14q1 126 92 197q75 60 171 60h185q96 0 171 -60
q91 -71 92 -197v-14q-1 -127 -92 -198q-76 -59 -171 -59zM1298 1860q-37 -22 -37 -75q0 -54 37 -76q15 -8 30 -11q8 -2 13 -3h10h95h10q8 2 13 3q15 3 30 11q37 22 37 76q0 53 -37 75q-13 9 -30 12q-8 2 -13 2q-3 1 -10 1h-95q-6 0 -10 -1q-3 0 -13 -2q-16 -3 -30 -12z" />
    <glyph glyph-name="ae" unicode="&#xe6;" horiz-adv-x="4446" 
d="M350 350h1573v174h-1457h-1h-4q-3 0 -8 -1t-8 -2q-27 -5 -46 -15q-23 -11 -34 -28q-15 -26 -15 -71v-57zM4196 1049h-1923v-175h1923v-350h-1923v-174h1923v-350h-4196v407q0 233 163 362q133 105 304 105h1456v175h-1457h-1q-3 0 -4 -1q-2 0 -7.5 -1t-8.5 -1
q-27 -5 -46 -15q-24 -13 -34 -28q-15 -25 -15 -71v-58h-350v58q0 232 163 362q134 105 304 105h3729v-350z" />
    <glyph glyph-name="ccedilla" unicode="&#xe7;" 
d="M1385 -329v329h-1385v699q0 349 244 542q200 158 455 158h2098v-350h-2096q-13 0 -39 -2q-17 -2 -51 -8q-64 -13 -117 -46q-144 -89 -144 -294v-349h2447v-350h-1191v-72q152 0 253 -122q93 -111 93 -255q0 -163 -115 -278t-278 -115q-159 0 -274 112l170 221
q34 -61 104 -61q51 0 85 36q36 34 36 85q0 126 -148 135q-74 4 -147 -15z" />
    <glyph glyph-name="egrave" unicode="&#xe8;" 
d="M350 932v-71q53 13 117 13h2330v-350h-2336q-3 0 -8 -1t-8 -2q-27 -5 -46 -15q-23 -11 -34 -28q-15 -26 -15 -71v-57h2447v-350h-2797v932q0 232 163 362q134 105 304 105h2330v-350h-2332q-3 0 -4 -1q-2 0 -7.5 -1t-8.5 -1q-27 -5 -46 -15q-24 -13 -34 -28
q-15 -25 -15 -71zM852 1924l131 223l689 -402l-131 -223z" />
    <glyph glyph-name="eacute" unicode="&#xe9;" 
d="M2797 1399v-350h-2332q-3 0 -4 -1q-2 0 -7.5 -1t-8.5 -1q-27 -5 -46 -15q-24 -13 -34 -28q-15 -25 -15 -71v-58h-350v58q0 232 163 362q134 105 304 105h2330zM350 407v-57h2447v-350h-2797v407q0 233 163 362q133 105 304 105h2330v-350h-2336q-3 0 -8 -1t-8 -2
q-27 -5 -46 -15q-23 -11 -34 -28q-15 -26 -15 -71zM1814 2144l131 -223l-689 -402l-131 223z" />
    <glyph glyph-name="ecircumflex" unicode="&#xea;" 
d="M2797 1399v-350h-2332q-3 0 -4 -1q-2 0 -7.5 -1t-8.5 -1q-27 -5 -46 -15q-24 -13 -34 -28q-15 -25 -15 -71v-58h-350v58q0 232 163 362q134 105 304 105h2330zM350 407v-57h2447v-350h-2797v407q0 233 163 362q133 105 304 105h2330v-350h-2336q-3 0 -8 -1t-8 -2
q-27 -5 -46 -15q-23 -11 -34 -28q-15 -26 -15 -71zM1998 1739l-146 -218l-321 214l-320 -214l-146 218l393 263l73 48l73 -48z" />
    <glyph glyph-name="edieresis" unicode="&#xeb;" 
d="M2797 1399v-350h-2332q-3 0 -4 -1q-2 0 -7.5 -1t-8.5 -1q-27 -5 -46 -15q-24 -13 -34 -28q-15 -25 -15 -71v-58h-350v58q0 232 163 362q134 105 304 105h2330zM350 407v-57h2447v-350h-2797v407q0 233 163 362q133 105 304 105h2330v-350h-2336q-3 0 -8 -1t-8 -2
q-27 -5 -46 -15q-23 -11 -34 -28q-15 -26 -15 -71zM699 1521v350h350v-350h-350zM1748 1521v350h350v-350h-350z" />
    <glyph glyph-name="igrave" unicode="&#xec;" horiz-adv-x="600" 
d="M0 0v1399h350v-1399h-350zM-485 1924l131 223l689 -402l-131 -223z" />
    <glyph glyph-name="iacute" unicode="&#xed;" horiz-adv-x="600" 
d="M0 0v1399h350v-1399h-350zM591 2147l131 -223l-689 -402l-131 223z" />
    <glyph glyph-name="icircumflex" unicode="&#xee;" horiz-adv-x="600" 
d="M0 0v1399h350v-1399h-350zM641 1742l-145 -218l-321 214l-321 -214l-145 218l393 263l73 48l72 -48z" />
    <glyph glyph-name="idieresis" unicode="&#xef;" horiz-adv-x="600" 
d="M0 0v1399h350v-1399h-350zM-454 1524v350h350v-350h-350zM455 1524v350h350v-350h-350z" />
    <glyph glyph-name="eth" unicode="&#xf0;" 
d="M2797 699v-699h-2797v593h-94v217h94v589h2098q256 0 455 -158q244 -193 244 -542zM350 593v-243h2098v349q0 206 -145 294q-53 33 -116 46q-34 6 -51 8q-26 2 -38 2h-1748v-239h605v-217h-605z" />
    <glyph glyph-name="ntilde" unicode="&#xf1;" 
d="M0 1399h2098q256 0 455 -158q244 -193 244 -542v-699h-349v699q0 206 -145 294q-53 33 -116 46q-34 6 -51 8q-26 2 -38 2h-1748v-1049h-350v1399zM1704 1884l255 -56l-4 -19l-4 -19q-15 -84 -56 -147q-31 -46 -75 -76q-65 -44 -143 -48q-24 -1 -53 2q-3 1 -9 2t-9 2l-7 1
q-1 0 -2.5 0.5t-2.5 1.5l-227 61l-227 62h-3q-4 0 -7 -1q-10 0 -14 -3q-5 -5 -9 -13q-5 -13 -8 -27l-6 -39l-255 56l8 39q15 83 56 146q31 46 75 76q63 44 142 48q27 1 54 -3l18 -3l7 -2h5l451 -122q19 -4 29 4q9 8 14 38z" />
    <glyph glyph-name="ograve" unicode="&#xf2;" horiz-adv-x="3222" 
d="M2273 0h-1574q-256 0 -455 157q-237 189 -244 523v39q8 335 244 522q200 158 455 158h1574q255 0 455 -158q236 -187 244 -522v-39q-7 -334 -244 -523q-199 -157 -455 -157zM494 993q-144 -89 -144 -294t144 -294q51 -31 116 -45q34 -6 51 -8q26 -2 38 -2h1572q13 0 39 2
q17 2 51 8q66 14 117 45q144 89 144 294t-144 294q-53 33 -116 46q-34 6 -51 8q-26 2 -38 2h-1572q-13 0 -39 -2q-17 -2 -51 -8q-64 -13 -117 -46zM939 1924l131 223l689 -402l-131 -223z" />
    <glyph glyph-name="oacute" unicode="&#xf3;" horiz-adv-x="3222" 
d="M2273 0h-1574q-256 0 -455 157q-237 189 -244 523v39q8 335 244 522q200 158 455 158h1574q255 0 455 -158q236 -187 244 -522v-39q-7 -334 -244 -523q-199 -157 -455 -157zM494 993q-144 -89 -144 -294t144 -294q51 -31 116 -45q34 -6 51 -8q26 -2 38 -2h1572q13 0 39 2
q17 2 51 8q66 14 117 45q144 89 144 294t-144 294q-53 33 -116 46q-34 6 -51 8q-26 2 -38 2h-1572q-13 0 -39 -2q-17 -2 -51 -8q-64 -13 -117 -46zM1902 2144l131 -223l-689 -402l-131 223z" />
    <glyph glyph-name="ocircumflex" unicode="&#xf4;" horiz-adv-x="3222" 
d="M2273 0h-1574q-256 0 -455 157q-237 189 -244 523v39q8 335 244 522q200 158 455 158h1574q255 0 455 -158q236 -187 244 -522v-39q-7 -334 -244 -523q-199 -157 -455 -157zM1988 1739l-146 -218l-321 214l-320 -214l-146 218l393 263l73 48l73 -48zM494 993
q-144 -89 -144 -294t144 -294q51 -31 116 -45q34 -6 51 -8q26 -2 38 -2h1572q13 0 39 2q17 2 51 8q66 14 117 45q144 89 144 294t-144 294q-53 33 -116 46q-34 6 -51 8q-26 2 -38 2h-1572q-13 0 -39 -2q-17 -2 -51 -8q-64 -13 -117 -46z" />
    <glyph glyph-name="otilde" unicode="&#xf5;" horiz-adv-x="3222" 
d="M2273 0h-1574q-256 0 -455 157q-237 189 -244 523v39q8 335 244 522q200 158 455 158h1574q255 0 455 -158q236 -187 244 -522v-39q-7 -334 -244 -523q-199 -157 -455 -157zM1792 1884l254 -56l-3 -19l-4 -19q-17 -88 -56 -147q-31 -46 -75 -76q-64 -43 -144 -48
q-23 -1 -53 2q-3 1 -9 2t-9 2l-6 1q-1 0 -3 1t-3 1l-227 61l-226 62h-3q-4 0 -7 -1q-10 0 -15 -3q-3 -3 -8 -13q-5 -13 -8 -27l-7 -39l-254 56l7 39q17 86 56 146q31 46 75 76q63 43 143 48q26 2 53 -3q7 -1 19 -3l6 -2h6l450 -122q21 -4 29 4q9 7 15 38zM494 993
q-144 -89 -144 -294t144 -294q51 -31 116 -45q34 -6 51 -8q26 -2 38 -2h1572q13 0 39 2q17 2 51 8q66 14 117 45q144 89 144 294t-144 294q-53 33 -116 46q-34 6 -51 8q-26 2 -38 2h-1572q-13 0 -39 -2q-17 -2 -51 -8q-64 -13 -117 -46z" />
    <glyph glyph-name="odieresis" unicode="&#xf6;" horiz-adv-x="3222" 
d="M2273 0h-1574q-256 0 -455 157q-237 189 -244 523v39q8 335 244 522q200 158 455 158h1574q255 0 455 -158q236 -187 244 -522v-39q-7 -334 -244 -523q-199 -157 -455 -157zM1836 1521v350h350v-350h-350zM787 1521v350h350v-350h-350zM494 993q-144 -89 -144 -294
t144 -294q51 -31 116 -45q34 -6 51 -8q26 -2 38 -2h1572q13 0 39 2q17 2 51 8q66 14 117 45q144 89 144 294t-144 294q-53 33 -116 46q-34 6 -51 8q-26 2 -38 2h-1572q-13 0 -39 -2q-17 -2 -51 -8q-64 -13 -117 -46z" />
    <glyph glyph-name="divide" unicode="&#xf7;" horiz-adv-x="1216" 
d="M-1 875h967v-350h-967v350zM345 1260h274v-275h-274v275zM345 421h274v-275h-274v275z" />
    <glyph glyph-name="oslash" unicode="&#xf8;" horiz-adv-x="3222" 
d="M1241 350l272 699h-812q-13 0 -39 -2q-17 -2 -51 -8q-64 -13 -117 -46q-144 -89 -144 -294t144 -294q51 -31 116 -45q34 -6 51 -8q26 -2 38 -2h542zM1729 1049l-272 -699h814q13 0 39 2q17 2 51 8q66 14 117 45q144 89 144 294t-144 294q-53 33 -116 46q-34 6 -51 8
q-26 2 -38 2h-544zM2273 0h-953l-53 -136h-216l53 136h-405q-256 0 -455 157q-237 189 -244 523v39q8 335 244 522q200 158 455 158h951l55 142h216l-55 -142h407q255 0 455 -158q236 -187 244 -522v-39q-7 -334 -244 -523q-199 -157 -455 -157z" />
    <glyph glyph-name="ugrave" unicode="&#xf9;" 
d="M2797 0h-2098q-256 0 -455 157q-244 193 -244 542v700h350v-700q0 -205 144 -294q51 -31 117 -45q30 -6 50 -8q26 -2 38 -2h1749v1049h349v-1399zM852 1924l131 223l689 -402l-131 -223z" />
    <glyph glyph-name="uacute" unicode="&#xfa;" 
d="M2797 0h-2098q-256 0 -455 157q-244 193 -244 542v700h350v-700q0 -205 144 -294q51 -31 117 -45q30 -6 50 -8q26 -2 38 -2h1749v1049h349v-1399zM1814 2044l131 -223l-689 -402l-131 223z" />
    <glyph glyph-name="ucircumflex" unicode="&#xfb;" 
d="M2797 0h-2098q-256 0 -455 157q-244 193 -244 542v700h350v-700q0 -205 144 -294q51 -31 117 -45q30 -6 50 -8q26 -2 38 -2h1749v1049h349v-1399zM1918 1739l-146 -218l-321 214l-320 -214l-146 218l393 263l73 48l73 -48z" />
    <glyph glyph-name="udieresis" unicode="&#xfc;" 
d="M2797 0h-2098q-256 0 -455 157q-244 193 -244 542v700h350v-700q0 -205 144 -294q51 -31 117 -45q30 -6 50 -8q26 -2 38 -2h1749v1049h349v-1399zM1748 1521v350h350v-350h-350zM699 1521v350h350v-350h-350z" />
    <glyph glyph-name="yacute" unicode="&#xfd;" 
d="M0 350v1049h350v-700h1747q6 1 18.5 2t19.5 1q23 1 51 8q66 14 117 45q145 88 145 294v350h349v-350q0 -349 -244 -542q-197 -157 -455 -157h-525v-350h-349v350h-1224zM1814 2044l131 -223l-689 -402l-131 223z" />
    <glyph glyph-name="thorn" unicode="&#xfe;" 
d="M2098 109h-1748v-109h-350v1399h350v-109h1748q103 0 211 -27q128 -31 229 -93q251 -156 259 -455v-31q-6 -299 -259 -455q-104 -63 -229 -94q-110 -26 -211 -26zM350 940v-482h1754q4 1 13 1q19 1 42 3q65 8 119 27q170 62 170 210q0 145 -162 207q-54 20 -119 29
q-16 2 -44 4q-5 1 -15 1h-1758z" />
    <glyph glyph-name="ydieresis" unicode="&#xff;" 
d="M0 350v1049h350v-700h1747q6 1 18.5 2t19.5 1q23 1 51 8q66 14 117 45q145 88 145 294v350h349v-350q0 -349 -244 -542q-197 -157 -455 -157h-525v-350h-349v350h-1224zM1748 1524v350h350v-350h-350zM699 1524v350h350v-350h-350z" />
    <glyph glyph-name="Amacron" unicode="&#x100;" 
d="M2448 0v175h-1745l-200 349h1945v175q0 206 -145 294q-53 33 -116 46q-34 6 -51 8q-26 2 -38 2h-1748v-1049h-350v1399h2098q256 0 455 -158q244 -193 244 -542v-699h-349zM874 1521v263h1049v-263h-1049z" />
    <glyph glyph-name="amacron" unicode="&#x101;" 
d="M2448 0v175h-1745l-200 349h1945v175q0 206 -145 294q-53 33 -116 46q-34 6 -51 8q-26 2 -38 2h-1748v-1049h-350v1399h2098q256 0 455 -158q244 -193 244 -542v-699h-349zM874 1521v263h1049v-263h-1049z" />
    <glyph glyph-name="Abreve" unicode="&#x102;" 
d="M2448 0v175h-1745l-200 349h1945v175q0 206 -145 294q-53 33 -116 46q-34 6 -51 8q-26 2 -38 2h-1748v-1049h-350v1399h2098q256 0 455 -158q244 -193 244 -542v-699h-349zM1636 1521h-349q-128 0 -228 79q-122 98 -122 271v43h262v-48v-5q0 -5 2 -13q1 -14 10 -28
q19 -34 77 -36h349h3q4 0 12 2q24 6 35 11q18 8 25 21q12 20 12 53v43h262v-43q0 -173 -122 -271q-100 -79 -228 -79z" />
    <glyph glyph-name="abreve" unicode="&#x103;" 
d="M2448 0v175h-1745l-200 349h1945v175q0 206 -145 294q-53 33 -116 46q-34 6 -51 8q-26 2 -38 2h-1748v-1049h-350v1399h2098q256 0 455 -158q244 -193 244 -542v-699h-349zM1636 1521h-349q-128 0 -228 79q-122 98 -122 271v43h262v-48v-5q0 -5 2 -13q1 -14 10 -28
q19 -34 77 -36h349h3q4 0 12 2q24 6 35 11q18 8 25 21q12 20 12 53v43h262v-43q0 -173 -122 -271q-100 -79 -228 -79z" />
    <glyph glyph-name="Aogonek" unicode="&#x104;" 
d="M2171 -357q-9 222 277 429v103h-1745l-200 349h1945v175q0 206 -145 294q-53 33 -116 46q-34 6 -51 8q-26 2 -38 2h-1748v-1049h-350v1399h2098q256 0 455 -158q244 -193 244 -542v-699q-355 -193 -355 -347q5 -81 74 -115q54 -26 118 11l145 -231q-194 -119 -385 -23
q-98 49 -159 144q-59 94 -64 204z" />
    <glyph glyph-name="aogonek" unicode="&#x105;" 
d="M2171 -357q-9 222 277 429v103h-1745l-200 349h1945v175q0 206 -145 294q-53 33 -116 46q-34 6 -51 8q-26 2 -38 2h-1748v-1049h-350v1399h2098q256 0 455 -158q244 -193 244 -542v-699q-355 -193 -355 -347q5 -81 74 -115q54 -26 118 11l145 -231q-194 -119 -385 -23
q-98 49 -159 144q-59 94 -64 204z" />
    <glyph glyph-name="Cacute" unicode="&#x106;" 
d="M350 699v-349h2447v-350h-2797v699q0 349 244 542q200 158 455 158h2098v-350h-2096q-13 0 -39 -2q-17 -2 -51 -8q-64 -13 -117 -46q-144 -89 -144 -294zM1814 2144l131 -223l-689 -402l-131 223z" />
    <glyph glyph-name="cacute" unicode="&#x107;" 
d="M350 699v-349h2447v-350h-2797v699q0 349 244 542q200 158 455 158h2098v-350h-2096q-13 0 -39 -2q-17 -2 -51 -8q-64 -13 -117 -46q-144 -89 -144 -294zM1814 2144l131 -223l-689 -402l-131 223z" />
    <glyph glyph-name="Ccircumflex" unicode="&#x108;" 
d="M350 699v-349h2447v-350h-2797v699q0 349 244 542q200 158 455 158h2098v-350h-2096q-13 0 -39 -2q-17 -2 -51 -8q-64 -13 -117 -46q-144 -89 -144 -294zM1865 1739l-146 -218l-321 214l-320 -214l-146 218l393 263l73 48l73 -48z" />
    <glyph glyph-name="ccircumflex" unicode="&#x109;" 
d="M350 699v-349h2447v-350h-2797v699q0 349 244 542q200 158 455 158h2098v-350h-2096q-13 0 -39 -2q-17 -2 -51 -8q-64 -13 -117 -46q-144 -89 -144 -294zM1865 1739l-146 -218l-321 214l-320 -214l-146 218l393 263l73 48l73 -48z" />
    <glyph glyph-name="Cdotaccent" unicode="&#x10a;" 
d="M350 699v-349h2447v-350h-2797v699q0 349 244 542q200 158 455 158h2098v-350h-2096q-13 0 -39 -2q-17 -2 -51 -8q-64 -13 -117 -46q-144 -89 -144 -294zM1224 1521v350h350v-350h-350z" />
    <glyph glyph-name="cdotaccent" unicode="&#x10b;" 
d="M350 699v-349h2447v-350h-2797v699q0 349 244 542q200 158 455 158h2098v-350h-2096q-13 0 -39 -2q-17 -2 -51 -8q-64 -13 -117 -46q-144 -89 -144 -294zM1224 1521v350h350v-350h-350z" />
    <glyph glyph-name="Ccaron" unicode="&#x10c;" 
d="M350 699v-349h2447v-350h-2797v699q0 349 244 542q200 158 455 158h2098v-350h-2096q-13 0 -39 -2q-17 -2 -51 -8q-64 -13 -117 -46q-144 -89 -144 -294zM1719 2050l146 -218l-394 -263l-73 -48l-73 48l-393 263l146 218l320 -214z" />
    <glyph glyph-name="ccaron" unicode="&#x10d;" 
d="M350 699v-349h2447v-350h-2797v699q0 349 244 542q200 158 455 158h2098v-350h-2096q-13 0 -39 -2q-17 -2 -51 -8q-64 -13 -117 -46q-144 -89 -144 -294zM1719 2050l146 -218l-394 -263l-73 -48l-73 48l-393 263l146 218l320 -214z" />
    <glyph glyph-name="Dcaron" unicode="&#x10e;" 
d="M2797 699v-699h-2797v1399h2098q256 0 455 -158q244 -193 244 -542zM350 1049v-699h2098v349q0 206 -145 294q-53 33 -116 46q-34 6 -51 8q-26 2 -38 2h-1748zM1719 2050l146 -218l-394 -263l-73 -48l-73 48l-393 263l146 218l320 -214z" />
    <glyph glyph-name="dcaron" unicode="&#x10f;" 
d="M2797 699v-699h-2797v1399h2098q256 0 455 -158q244 -193 244 -542zM350 1049v-699h2098v349q0 206 -145 294q-53 33 -116 46q-34 6 -51 8q-26 2 -38 2h-1748zM1719 2050l146 -218l-394 -263l-73 -48l-73 48l-393 263l146 218l320 -214z" />
    <glyph glyph-name="Dcroat" unicode="&#x110;" horiz-adv-x="3141" 
d="M2891 699v-699h-2797v593h-94v217h94v589h2098q256 0 455 -158q244 -193 244 -542zM444 593v-243h2098v349q0 206 -145 294q-53 33 -116 46q-34 6 -51 8q-26 2 -38 2h-1748v-239h605v-217h-605z" />
    <glyph glyph-name="dslash" unicode="&#x111;" 
d="M2797 699v-699h-2797v593h-94v217h94v589h2098q256 0 455 -158q244 -193 244 -542zM350 593v-243h2098v349q0 206 -145 294q-53 33 -116 46q-34 6 -51 8q-26 2 -38 2h-1748v-239h605v-217h-605z" />
    <glyph glyph-name="Emacron" unicode="&#x112;" 
d="M2797 1399v-350h-2332q-3 0 -4 -1q-2 0 -7.5 -1t-8.5 -1q-27 -5 -46 -15q-24 -13 -34 -28q-15 -25 -15 -71v-58h-350v58q0 232 163 362q134 105 304 105h2330zM350 407v-57h2447v-350h-2797v407q0 233 163 362q133 105 304 105h2330v-350h-2336q-3 0 -8 -1t-8 -2
q-27 -5 -46 -15q-23 -11 -34 -28q-15 -26 -15 -71zM954 1521v263h1049v-263h-1049z" />
    <glyph glyph-name="emacron" unicode="&#x113;" 
d="M2797 1399v-350h-2332q-3 0 -4 -1q-2 0 -7.5 -1t-8.5 -1q-27 -5 -46 -15q-24 -13 -34 -28q-15 -25 -15 -71v-58h-350v58q0 232 163 362q134 105 304 105h2330zM350 407v-57h2447v-350h-2797v407q0 233 163 362q133 105 304 105h2330v-350h-2336q-3 0 -8 -1t-8 -2
q-27 -5 -46 -15q-23 -11 -34 -28q-15 -26 -15 -71zM954 1521v263h1049v-263h-1049z" />
    <glyph glyph-name="Ebreve" unicode="&#x114;" 
d="M2797 1399v-350h-2332q-3 0 -4 -1q-2 0 -7.5 -1t-8.5 -1q-27 -5 -46 -15q-24 -13 -34 -28q-15 -25 -15 -71v-58h-350v58q0 232 163 362q134 105 304 105h2330zM350 407v-57h2447v-350h-2797v407q0 233 163 362q133 105 304 105h2330v-350h-2336q-3 0 -8 -1t-8 -2
q-27 -5 -46 -15q-23 -11 -34 -28q-15 -26 -15 -71zM1686 1521h-349q-128 0 -228 79q-122 98 -122 271v43h262v-48v-5q0 -5 2 -13q1 -14 10 -28q19 -34 77 -36h349h3q4 0 12 2q24 6 35 11q18 8 25 21q12 20 12 53v43h262v-43q0 -173 -122 -271q-100 -79 -228 -79z" />
    <glyph glyph-name="ebreve" unicode="&#x115;" 
d="M2797 1399v-350h-2332q-3 0 -4 -1q-2 0 -7.5 -1t-8.5 -1q-27 -5 -46 -15q-24 -13 -34 -28q-15 -25 -15 -71v-58h-350v58q0 232 163 362q134 105 304 105h2330zM350 407v-57h2447v-350h-2797v407q0 233 163 362q133 105 304 105h2330v-350h-2336q-3 0 -8 -1t-8 -2
q-27 -5 -46 -15q-23 -11 -34 -28q-15 -26 -15 -71zM1686 1521h-349q-128 0 -228 79q-122 98 -122 271v43h262v-48v-5q0 -5 2 -13q1 -14 10 -28q19 -34 77 -36h349h3q4 0 12 2q24 6 35 11q18 8 25 21q12 20 12 53v43h262v-43q0 -173 -122 -271q-100 -79 -228 -79z" />
    <glyph glyph-name="Edotaccent" unicode="&#x116;" 
d="M2797 1399v-350h-2332q-3 0 -4 -1q-2 0 -7.5 -1t-8.5 -1q-27 -5 -46 -15q-24 -13 -34 -28q-15 -25 -15 -71v-58h-350v58q0 232 163 362q134 105 304 105h2330zM350 407v-57h2447v-350h-2797v407q0 233 163 362q133 105 304 105h2330v-350h-2336q-3 0 -8 -1t-8 -2
q-27 -5 -46 -15q-23 -11 -34 -28q-15 -26 -15 -71zM1357 1521v350h350v-350h-350z" />
    <glyph glyph-name="edotaccent" unicode="&#x117;" 
d="M2797 1399v-350h-2332q-3 0 -4 -1q-2 0 -7.5 -1t-8.5 -1q-27 -5 -46 -15q-24 -13 -34 -28q-15 -25 -15 -71v-58h-350v58q0 232 163 362q134 105 304 105h2330zM350 407v-57h2447v-350h-2797v407q0 233 163 362q133 105 304 105h2330v-350h-2336q-3 0 -8 -1t-8 -2
q-27 -5 -46 -15q-23 -11 -34 -28q-15 -26 -15 -71zM1357 1521v350h350v-350h-350z" />
    <glyph glyph-name="Eogonek" unicode="&#x118;" 
d="M2797 1399v-350h-2332q-3 0 -4 -1q-2 0 -7.5 -1t-8.5 -1q-27 -5 -46 -15q-24 -13 -34 -28q-15 -25 -15 -71v-58h-350v58q0 232 163 362q134 105 304 105h2330zM2171 -357q-7 184 187 357h-2358v407q0 233 163 362q133 105 304 105h2330v-350h-2336q-3 0 -8 -1t-8 -2
q-27 -5 -46 -15q-23 -11 -34 -28q-15 -26 -15 -71v-57h2447v-350q-355 -193 -355 -347q5 -81 74 -115q54 -26 118 11l145 -231q-194 -119 -385 -23q-98 49 -159 144q-59 94 -64 204z" />
    <glyph glyph-name="eogonek" unicode="&#x119;" 
d="M2797 1399v-350h-2332q-3 0 -4 -1q-2 0 -7.5 -1t-8.5 -1q-27 -5 -46 -15q-24 -13 -34 -28q-15 -25 -15 -71v-58h-350v58q0 232 163 362q134 105 304 105h2330zM2171 -357q-7 184 187 357h-2358v407q0 233 163 362q133 105 304 105h2330v-350h-2336q-3 0 -8 -1t-8 -2
q-27 -5 -46 -15q-23 -11 -34 -28q-15 -26 -15 -71v-57h2447v-350q-355 -193 -355 -347q5 -81 74 -115q54 -26 118 11l145 -231q-194 -119 -385 -23q-98 49 -159 144q-59 94 -64 204z" />
    <glyph glyph-name="Ecaron" unicode="&#x11a;" 
d="M2797 1399v-350h-2332q-3 0 -4 -1q-2 0 -7.5 -1t-8.5 -1q-27 -5 -46 -15q-24 -13 -34 -28q-15 -25 -15 -71v-58h-350v58q0 232 163 362q134 105 304 105h2330zM350 407v-57h2447v-350h-2797v407q0 233 163 362q133 105 304 105h2330v-350h-2336q-3 0 -8 -1t-8 -2
q-27 -5 -46 -15q-23 -11 -34 -28q-15 -26 -15 -71zM1842 2050l146 -218l-394 -263l-73 -48l-73 48l-393 263l146 218l320 -214z" />
    <glyph glyph-name="ecaron" unicode="&#x11b;" 
d="M2797 1399v-350h-2332q-3 0 -4 -1q-2 0 -7.5 -1t-8.5 -1q-27 -5 -46 -15q-24 -13 -34 -28q-15 -25 -15 -71v-58h-350v58q0 232 163 362q134 105 304 105h2330zM350 407v-57h2447v-350h-2797v407q0 233 163 362q133 105 304 105h2330v-350h-2336q-3 0 -8 -1t-8 -2
q-27 -5 -46 -15q-23 -11 -34 -28q-15 -26 -15 -71zM1842 2050l146 -218l-394 -263l-73 -48l-73 48l-393 263l146 218l320 -214z" />
    <glyph glyph-name="Gcircumflex" unicode="&#x11c;" 
d="M0 0v699q0 349 244 542q200 158 455 158h2098v-350h-2096q-13 0 -39 -2q-17 -2 -51 -8q-64 -13 -117 -46q-144 -89 -144 -294v-349h2098v349h349v-699h-2797zM1951 1739l-146 -218l-321 214l-320 -214l-146 218l393 263l73 48l73 -48z" />
    <glyph glyph-name="gcircumflex" unicode="&#x11d;" 
d="M0 0v699q0 349 244 542q200 158 455 158h2098v-350h-2096q-13 0 -39 -2q-17 -2 -51 -8q-64 -13 -117 -46q-144 -89 -144 -294v-349h2098v349h349v-699h-2797zM1951 1739l-146 -218l-321 214l-320 -214l-146 218l393 263l73 48l73 -48z" />
    <glyph glyph-name="Gbreve" unicode="&#x11e;" 
d="M0 0v699q0 349 244 542q200 158 455 158h2098v-350h-2096q-13 0 -39 -2q-17 -2 -51 -8q-64 -13 -117 -46q-144 -89 -144 -294v-349h2098v349h349v-699h-2797zM1686 1521h-349q-128 0 -228 79q-122 98 -122 271v43h262v-48v-5q0 -5 2 -13q1 -14 10 -28q19 -34 77 -36h349
h3q4 0 12 2q24 6 35 11q18 8 25 21q12 20 12 53v43h262v-43q0 -173 -122 -271q-100 -79 -228 -79z" />
    <glyph glyph-name="gbreve" unicode="&#x11f;" 
d="M0 0v699q0 349 244 542q200 158 455 158h2098v-350h-2096q-13 0 -39 -2q-17 -2 -51 -8q-64 -13 -117 -46q-144 -89 -144 -294v-349h2098v349h349v-699h-2797zM1686 1521h-349q-128 0 -228 79q-122 98 -122 271v43h262v-48v-5q0 -5 2 -13q1 -14 10 -28q19 -34 77 -36h349
h3q4 0 12 2q24 6 35 11q18 8 25 21q12 20 12 53v43h262v-43q0 -173 -122 -271q-100 -79 -228 -79z" />
    <glyph glyph-name="Gdotaccent" unicode="&#x120;" 
d="M0 0v699q0 349 244 542q200 158 455 158h2098v-350h-2096q-13 0 -39 -2q-17 -2 -51 -8q-64 -13 -117 -46q-144 -89 -144 -294v-349h2098v349h349v-699h-2797zM1371 1521v350h350v-350h-350z" />
    <glyph glyph-name="gdotaccent" unicode="&#x121;" 
d="M0 0v699q0 349 244 542q200 158 455 158h2098v-350h-2096q-13 0 -39 -2q-17 -2 -51 -8q-64 -13 -117 -46q-144 -89 -144 -294v-349h2098v349h349v-699h-2797zM1371 1521v350h350v-350h-350z" />
    <glyph glyph-name="uni0122" unicode="&#x122;" 
d="M0 0v699q0 349 244 542q200 158 455 158h2098v-350h-2096q-13 0 -39 -2q-17 -2 -51 -8q-64 -13 -117 -46q-144 -89 -144 -294v-349h2098v349h349v-699h-2797zM1574 -136v-1v-348v-1h-1l-110 -146h-198l110 147h-151v349h350z" />
    <glyph glyph-name="uni0123" unicode="&#x123;" 
d="M0 0v699q0 349 244 542q200 158 455 158h2098v-350h-2096q-13 0 -39 -2q-17 -2 -51 -8q-64 -13 -117 -46q-144 -89 -144 -294v-349h2098v349h349v-699h-2797zM1574 -136v-1v-348v-1h-1l-110 -146h-198l110 147h-151v349h350z" />
    <glyph glyph-name="Hcircumflex" unicode="&#x124;" 
d="M0 0v1399h350v-1399h-350zM2448 0v524h-1745l-200 350h1945v525h349v-1399h-349zM1865 1639l-146 -218l-321 214l-320 -214l-146 218l393 263l73 48l73 -48z" />
    <glyph glyph-name="hcircumflex" unicode="&#x125;" 
d="M0 0v1399h350v-1399h-350zM2448 0v524h-1745l-200 350h1945v525h349v-1399h-349zM1865 1639l-146 -218l-321 214l-320 -214l-146 218l393 263l73 48l73 -48z" />
    <glyph glyph-name="Hbar" unicode="&#x126;" 
d="M2906 1017h-109v-1017h-349v524h-2098v-524h-350v1017h-99v217h99v165h350v-165h2098v165h349v-165h109v-217zM2448 1017h-2098v-143h2098v143z" />
    <glyph glyph-name="hbar" unicode="&#x127;" 
d="M2906 1017h-109v-1017h-349v524h-2098v-524h-350v1017h-99v217h99v165h350v-165h2098v165h349v-165h109v-217zM2448 1017h-2098v-143h2098v143z" />
    <glyph glyph-name="Itilde" unicode="&#x128;" horiz-adv-x="600" 
d="M0 0v1399h350v-1399h-350zM481 1887l254 -56l-3 -19l-4 -19q-17 -88 -56 -147q-31 -46 -75 -76q-65 -44 -144 -48q-23 -1 -53 2q-3 0 -9 2t-9 2l-6 1q-1 1 -3 1t-3 1l-227 61l-226 62h-1h-2q-4 0 -7 -1q-11 0 -15 -3q-3 -3 -8 -13q-5 -13 -8 -27l-7 -39l-254 56l7 39
q17 86 56 146q31 46 75 76q63 43 143 48q26 2 53 -3q7 -1 19 -3l6 -2h6l450 -122q21 -4 29 4q9 7 15 38z" />
    <glyph glyph-name="itilde" unicode="&#x129;" horiz-adv-x="600" 
d="M0 0v1399h350v-1399h-350zM481 1887l254 -56l-3 -19l-4 -19q-17 -88 -56 -147q-31 -46 -75 -76q-65 -44 -144 -48q-23 -1 -53 2q-3 0 -9 2t-9 2l-6 1q-1 1 -3 1t-3 1l-227 61l-226 62h-1h-2q-4 0 -7 -1q-11 0 -15 -3q-3 -3 -8 -13q-5 -13 -8 -27l-7 -39l-254 56l7 39
q17 86 56 146q31 46 75 76q63 43 143 48q26 2 53 -3q7 -1 19 -3l6 -2h6l450 -122q21 -4 29 4q9 7 15 38z" />
    <glyph glyph-name="Imacron" unicode="&#x12a;" horiz-adv-x="600" 
d="M0 0v1399h350v-1399h-350zM-350 1524v263h1050v-263h-1050z" />
    <glyph glyph-name="imacron" unicode="&#x12b;" horiz-adv-x="600" 
d="M0 0v1399h350v-1399h-350zM-350 1524v263h1050v-263h-1050z" />
    <glyph glyph-name="Ibreve" unicode="&#x12c;" horiz-adv-x="600" 
d="M0 0v1399h350v-1399h-350zM349 1524h-348q-130 0 -228 79q-123 97 -123 271v43h263v-48v-5q0 -9 1 -13q3 -17 10 -28q19 -34 77 -36h350h3q4 0 12 2q22 5 34 11q17 7 25 21q12 20 12 53v43h263v-43q0 -174 -123 -271q-98 -79 -228 -79z" />
    <glyph glyph-name="ibreve" unicode="&#x12d;" horiz-adv-x="600" 
d="M0 0v1399h350v-1399h-350zM349 1524h-348q-130 0 -228 79q-123 97 -123 271v43h263v-48v-5q0 -9 1 -13q3 -17 10 -28q19 -34 77 -36h350h3q4 0 12 2q22 5 34 11q17 7 25 21q12 20 12 53v43h263v-43q0 -174 -123 -271q-98 -79 -228 -79z" />
    <glyph glyph-name="Iogonek" unicode="&#x12e;" horiz-adv-x="600" 
d="M-276 -357q-9 222 276 428v1328h350v-1399q-355 -193 -355 -347q5 -81 74 -115q54 -26 118 11l145 -231q-194 -119 -385 -23q-97 49 -159 144q-59 94 -64 204z" />
    <glyph glyph-name="iogonek" unicode="&#x12f;" horiz-adv-x="600" 
d="M-276 -357q-9 222 276 428v1328h350v-1399q-355 -193 -355 -347q5 -81 74 -115q54 -26 118 11l145 -231q-194 -119 -385 -23q-97 49 -159 144q-59 94 -64 204z" />
    <glyph glyph-name="Idotaccent" unicode="&#x130;" horiz-adv-x="600" 
d="M0 0v1399h350v-1399h-350zM0 1524v350h350v-350h-350z" />
    <glyph glyph-name="dotlessi" unicode="&#x131;" horiz-adv-x="600" 
d="M0 0v1399h350v-1399h-350z" />
    <glyph glyph-name="IJ" unicode="&#x132;" horiz-adv-x="3673" 
d="M-1 0v1399h350v-1399h-350zM626 1399h2797v-700q0 -349 -244 -542q-197 -157 -455 -157h-2098v350h2097q12 0 38 2q17 2 51 8q66 14 117 45q145 88 145 294v350h-2448v350z" />
    <glyph glyph-name="ij" unicode="&#x133;" horiz-adv-x="3647" 
d="M0 0v1399h350v-1399h-350zM600 1399h2797v-700q0 -349 -244 -542q-197 -157 -455 -157h-2098v350h2097q12 0 38 2q17 2 51 8q66 14 117 45q145 88 145 294v350h-2448v350z" />
    <glyph glyph-name="Jcircumflex" unicode="&#x134;" 
d="M0 1399h2797v-700q0 -349 -244 -542q-197 -157 -455 -157h-2098v350h2097q12 0 38 2q17 2 51 8q66 14 117 45q145 88 145 294v350h-2448v350zM1865 1739l-146 -218l-321 214l-320 -214l-146 218l393 263l73 48l73 -48z" />
    <glyph glyph-name="jcircumflex" unicode="&#x135;" 
d="M0 1399h2797v-700q0 -349 -244 -542q-197 -157 -455 -157h-2098v350h2097q12 0 38 2q17 2 51 8q66 14 117 45q145 88 145 294v350h-2448v350zM1865 1739l-146 -218l-321 214l-320 -214l-146 218l393 263l73 48l73 -48z" />
    <glyph glyph-name="uni0136" unicode="&#x136;" horiz-adv-x="3300" 
d="M2270 764l780 -359v-400l-1313 575l-1737 -573v1389h350v-904l2700 900v-368zM1700 -136v-1v-348v-1h-1l-110 -146h-198l110 147h-151v349h350z" />
    <glyph glyph-name="uni0137" unicode="&#x137;" horiz-adv-x="3300" 
d="M2270 764l780 -359v-400l-1313 575l-1737 -573v1389h350v-904l2700 900v-368zM1700 -136v-1v-348v-1h-1l-110 -146h-198l110 147h-151v349h350z" />
    <glyph glyph-name="Lacute" unicode="&#x139;" 
d="M2797 350v-350h-2098q-256 0 -455 157q-244 193 -244 542v700h350v-700q0 -205 144 -294q51 -31 116 -45q34 -6 51 -8q26 -2 38 -2h2098zM1814 2144l131 -223l-689 -402l-131 223z" />
    <glyph glyph-name="lacute" unicode="&#x13a;" 
d="M2797 350v-350h-2098q-256 0 -455 157q-244 193 -244 542v700h350v-700q0 -205 144 -294q51 -31 116 -45q34 -6 51 -8q26 -2 38 -2h2098zM1814 2144l131 -223l-689 -402l-131 223z" />
    <glyph glyph-name="uni013B" unicode="&#x13b;" 
d="M2797 350v-350h-2098q-256 0 -455 157q-244 193 -244 542v700h350v-700q0 -205 144 -294q51 -31 116 -45q34 -6 51 -8q26 -2 38 -2h2098zM1574 -136v-1v-348v-1h-1l-110 -146h-198l110 147h-151v349h350z" />
    <glyph glyph-name="uni013C" unicode="&#x13c;" 
d="M2797 350v-350h-2098q-256 0 -455 157q-244 193 -244 542v700h350v-700q0 -205 144 -294q51 -31 116 -45q34 -6 51 -8q26 -2 38 -2h2098zM1574 -136v-1v-348v-1h-1l-110 -146h-198l110 147h-151v349h350z" />
    <glyph glyph-name="Lcaron" unicode="&#x13d;" 
d="M2797 350v-350h-2098q-256 0 -455 157q-244 193 -244 542v700h350v-700q0 -205 144 -294q51 -31 116 -45q34 -6 51 -8q26 -2 38 -2h2098zM1700 1398v-1v-348v-1h-1l-110 -146h-198l110 147h-151v349h350z" />
    <glyph glyph-name="lcaron" unicode="&#x13e;" 
d="M2797 350v-350h-2098q-256 0 -455 157q-244 193 -244 542v700h350v-700q0 -205 144 -294q51 -31 116 -45q34 -6 51 -8q26 -2 38 -2h2098zM1798 1397v-1v-348v-1h-1l-110 -146h-198l110 147h-151v349h350z" />
    <glyph glyph-name="Ldot" unicode="&#x13f;" 
d="M1404 665v350h350v-350h-350zM2797 350v-350h-2098q-256 0 -455 157q-244 193 -244 542v700h350v-700q0 -205 144 -294q51 -31 116 -45q34 -6 51 -8q26 -2 38 -2h2098z" />
    <glyph glyph-name="ldot" unicode="&#x140;" 
d="M1224 665v350h350v-350h-350zM2797 350v-350h-2098q-256 0 -455 157q-244 193 -244 542v700h350v-700q0 -205 144 -294q51 -31 116 -45q34 -6 51 -8q26 -2 38 -2h2098z" />
    <glyph glyph-name="Lslash" unicode="&#x141;" horiz-adv-x="3050" 
d="M715 1072l-362 -317v-56q0 -205 144 -294q51 -31 116 -45q34 -6 51 -8q26 -2 38 -2h2098v-350h-2098q-256 0 -455 157q-158 125 -214 318l-108 -94l-143 164l221 193v661h350v-355l219 191z" />
    <glyph glyph-name="lslash" unicode="&#x142;" horiz-adv-x="3268" 
d="M933 1072l-362 -317v-56q0 -205 144 -294q51 -31 116 -45q34 -6 51 -8q26 -2 38 -2h2098v-350h-2098q-256 0 -455 157q-158 125 -214 318l-108 -94l-143 164l221 193v661h350v-355l219 191z" />
    <glyph glyph-name="Nacute" unicode="&#x143;" 
d="M0 1399h2098q256 0 455 -158q244 -193 244 -542v-699h-349v699q0 206 -145 294q-53 33 -116 46q-34 6 -51 8q-26 2 -38 2h-1748v-1049h-350v1399zM1814 2144l131 -223l-689 -402l-131 223z" />
    <glyph glyph-name="nacute" unicode="&#x144;" 
d="M0 1399h2098q256 0 455 -158q244 -193 244 -542v-699h-349v699q0 206 -145 294q-53 33 -116 46q-34 6 -51 8q-26 2 -38 2h-1748v-1049h-350v1399zM1814 2144l131 -223l-689 -402l-131 223z" />
    <glyph glyph-name="uni0145" unicode="&#x145;" 
d="M0 1399h2098q256 0 455 -158q244 -193 244 -542v-699h-349v699q0 206 -145 294q-53 33 -116 46q-34 6 -51 8q-26 2 -38 2h-1748v-1049h-350v1399zM1574 -136v-1v-348v-1h-1l-110 -146h-198l110 147h-151v349h350z" />
    <glyph glyph-name="uni0146" unicode="&#x146;" 
d="M0 1399h2098q256 0 455 -158q244 -193 244 -542v-699h-349v699q0 206 -145 294q-53 33 -116 46q-34 6 -51 8q-26 2 -38 2h-1748v-1049h-350v1399zM1574 -136v-1v-348v-1h-1l-110 -146h-198l110 147h-151v349h350z" />
    <glyph glyph-name="Ncaron" unicode="&#x147;" 
d="M0 1399h2098q256 0 455 -158q244 -193 244 -542v-699h-349v699q0 206 -145 294q-53 33 -116 46q-34 6 -51 8q-26 2 -38 2h-1748v-1049h-350v1399zM1719 2050l146 -218l-394 -263l-73 -48l-73 48l-393 263l146 218l320 -214z" />
    <glyph glyph-name="ncaron" unicode="&#x148;" 
d="M0 1399h2098q256 0 455 -158q244 -193 244 -542v-699h-349v699q0 206 -145 294q-53 33 -116 46q-34 6 -51 8q-26 2 -38 2h-1748v-1049h-350v1399zM1719 2050l146 -218l-394 -263l-73 -48l-73 48l-393 263l146 218l320 -214z" />
    <glyph glyph-name="napostrophe" unicode="&#x149;" 
d="M0 1399h2098q256 0 455 -158q244 -193 244 -542v-699h-349v699q0 206 -145 294q-53 33 -116 46q-34 6 -51 8q-26 2 -38 2h-1748v-1049h-350v1399z" />
    <glyph glyph-name="Eng" unicode="&#x14a;" 
d="M2303 405q145 88 145 294t-145 294q-53 33 -116 46q-34 6 -51 8q-26 2 -38 2h-1748v-1049h-350v1399h2098q256 0 455 -158q244 -193 244 -542t-244 -542q-197 -157 -455 -157h-394v350h393q10 0 38 2q2 0 51 8q64 14 117 45z" />
    <glyph glyph-name="eng" unicode="&#x14b;" 
d="M2303 405q145 88 145 294t-145 294q-53 33 -116 46q-34 6 -51 8q-26 2 -38 2h-1748v-1049h-350v1399h2098q256 0 455 -158q244 -193 244 -542t-244 -542q-197 -157 -455 -157h-394v350h393q10 0 38 2q2 0 51 8q64 14 117 45z" />
    <glyph glyph-name="Omacron" unicode="&#x14c;" horiz-adv-x="3222" 
d="M2273 0h-1574q-256 0 -455 157q-237 189 -244 523v39q8 335 244 522q200 158 455 158h1574q255 0 455 -158q236 -187 244 -522v-39q-7 -334 -244 -523q-199 -157 -455 -157zM494 993q-144 -89 -144 -294t144 -294q51 -31 116 -45q34 -6 51 -8q26 -2 38 -2h1572q13 0 39 2
q17 2 51 8q66 14 117 45q144 89 144 294t-144 294q-53 33 -116 46q-34 6 -51 8q-26 2 -38 2h-1572q-13 0 -39 -2q-17 -2 -51 -8q-64 -13 -117 -46zM961 1521v263h1050v-263h-1050z" />
    <glyph glyph-name="omacron" unicode="&#x14d;" horiz-adv-x="3222" 
d="M2273 0h-1574q-256 0 -455 157q-237 189 -244 523v39q8 335 244 522q200 158 455 158h1574q255 0 455 -158q236 -187 244 -522v-39q-7 -334 -244 -523q-199 -157 -455 -157zM494 993q-144 -89 -144 -294t144 -294q51 -31 116 -45q34 -6 51 -8q26 -2 38 -2h1572q13 0 39 2
q17 2 51 8q66 14 117 45q144 89 144 294t-144 294q-53 33 -116 46q-34 6 -51 8q-26 2 -38 2h-1572q-13 0 -39 -2q-17 -2 -51 -8q-64 -13 -117 -46zM961 1521v263h1050v-263h-1050z" />
    <glyph glyph-name="Obreve" unicode="&#x14e;" horiz-adv-x="3222" 
d="M2273 0h-1574q-256 0 -455 157q-237 189 -244 523v39q8 335 244 522q200 158 455 158h1574q255 0 455 -158q236 -187 244 -522v-39q-7 -334 -244 -523q-199 -157 -455 -157zM494 993q-144 -89 -144 -294t144 -294q51 -31 116 -45q34 -6 51 -8q26 -2 38 -2h1572q13 0 39 2
q17 2 51 8q66 14 117 45q144 89 144 294t-144 294q-53 33 -116 46q-34 6 -51 8q-26 2 -38 2h-1572q-13 0 -39 -2q-17 -2 -51 -8q-64 -13 -117 -46zM1660 1521h-348q-130 0 -228 79q-123 97 -123 271v43h263v-48v-5q0 -9 1 -13q3 -17 10 -28q19 -34 77 -36h350h3q4 0 12 2
q22 5 34 11q17 7 25 21q12 20 12 53v43h263v-43q0 -174 -123 -271q-98 -79 -228 -79z" />
    <glyph glyph-name="obreve" unicode="&#x14f;" horiz-adv-x="3222" 
d="M2273 0h-1574q-256 0 -455 157q-237 189 -244 523v39q8 335 244 522q200 158 455 158h1574q255 0 455 -158q236 -187 244 -522v-39q-7 -334 -244 -523q-199 -157 -455 -157zM494 993q-144 -89 -144 -294t144 -294q51 -31 116 -45q34 -6 51 -8q26 -2 38 -2h1572q13 0 39 2
q17 2 51 8q66 14 117 45q144 89 144 294t-144 294q-53 33 -116 46q-34 6 -51 8q-26 2 -38 2h-1572q-13 0 -39 -2q-17 -2 -51 -8q-64 -13 -117 -46zM1660 1521h-348q-130 0 -228 79q-123 97 -123 271v43h263v-48v-5q0 -9 1 -13q3 -17 10 -28q19 -34 77 -36h350h3q4 0 12 2
q22 5 34 11q17 7 25 21q12 20 12 53v43h263v-43q0 -174 -123 -271q-98 -79 -228 -79z" />
    <glyph glyph-name="Ohungarumlaut" unicode="&#x150;" horiz-adv-x="3222" 
d="M2273 0h-1574q-256 0 -455 157q-237 189 -244 523v39q8 335 244 522q200 158 455 158h1574q255 0 455 -158q236 -187 244 -522v-39q-7 -334 -244 -523q-199 -157 -455 -157zM494 993q-144 -89 -144 -294t144 -294q51 -31 116 -45q34 -6 51 -8q26 -2 38 -2h1572q13 0 39 2
q17 2 51 8q66 14 117 45q144 89 144 294t-144 294q-53 33 -116 46q-34 6 -51 8q-26 2 -38 2h-1572q-13 0 -39 -2q-17 -2 -51 -8q-64 -13 -117 -46zM1491 2078h306l-354 -559h-306zM1921 2078h306l-354 -559h-306z" />
    <glyph glyph-name="ohungarumlaut" unicode="&#x151;" horiz-adv-x="3222" 
d="M2273 0h-1574q-256 0 -455 157q-237 189 -244 523v39q8 335 244 522q200 158 455 158h1574q255 0 455 -158q236 -187 244 -522v-39q-7 -334 -244 -523q-199 -157 -455 -157zM494 993q-144 -89 -144 -294t144 -294q51 -31 116 -45q34 -6 51 -8q26 -2 38 -2h1572q13 0 39 2
q17 2 51 8q66 14 117 45q144 89 144 294t-144 294q-53 33 -116 46q-34 6 -51 8q-26 2 -38 2h-1572q-13 0 -39 -2q-17 -2 -51 -8q-64 -13 -117 -46zM1491 2078h306l-354 -559h-306zM1921 2078h306l-354 -559h-306z" />
    <glyph glyph-name="OE" unicode="&#x152;" horiz-adv-x="4504" 
d="M4254 0h-3555q-256 0 -455 157q-237 189 -244 523v39q8 335 244 522q200 158 455 158h3555v-350h-1923v-175h1923v-350h-1923v-174h1923v-350zM494 993q-144 -89 -144 -294t144 -294q51 -31 117 -45q30 -6 50 -8q26 -2 38 -2h1282v699h-1280q-13 0 -39 -2q-17 -2 -51 -8
q-64 -13 -117 -46z" />
    <glyph glyph-name="oe" unicode="&#x153;" horiz-adv-x="4504" 
d="M4254 0h-3555q-256 0 -455 157q-237 189 -244 523v39q8 335 244 522q200 158 455 158h3555v-350h-1923v-175h1923v-350h-1923v-174h1923v-350zM494 993q-144 -89 -144 -294t144 -294q51 -31 117 -45q30 -6 50 -8q26 -2 38 -2h1282v699h-1280q-13 0 -39 -2q-17 -2 -51 -8
q-64 -13 -117 -46z" />
    <glyph glyph-name="Racute" unicode="&#x154;" 
d="M2098 350h-1399l-200 349h1599q258 0 455 -157q244 -193 244 -542h-349q0 206 -145 294q-51 31 -116 45q-28 7 -51 8q-6 1 -18.5 2t-19.5 1zM0 0v1399h2098q256 0 455 -158q244 -193 244 -542h-349q0 206 -145 294q-53 33 -116 46q-34 6 -51 8q-26 2 -38 2h-1748v-1049
h-350zM1814 2144l131 -223l-689 -402l-131 223z" />
    <glyph glyph-name="racute" unicode="&#x155;" 
d="M2098 350h-1399l-200 349h1599q258 0 455 -157q244 -193 244 -542h-349q0 206 -145 294q-51 31 -116 45q-28 7 -51 8q-6 1 -18.5 2t-19.5 1zM0 0v1399h2098q256 0 455 -158q244 -193 244 -542h-349q0 206 -145 294q-53 33 -116 46q-34 6 -51 8q-26 2 -38 2h-1748v-1049
h-350zM1814 2144l131 -223l-689 -402l-131 223z" />
    <glyph glyph-name="uni0156" unicode="&#x156;" 
d="M2098 350h-1399l-200 349h1599q258 0 455 -157q244 -193 244 -542h-349q0 206 -145 294q-51 31 -116 45q-28 7 -51 8q-6 1 -18.5 2t-19.5 1zM0 0v1399h2098q256 0 455 -158q244 -193 244 -542h-349q0 206 -145 294q-53 33 -116 46q-34 6 -51 8q-26 2 -38 2h-1748v-1049
h-350zM1480 -136v-1v-348v-1h-1l-110 -146h-198l110 147h-151v349h350z" />
    <glyph glyph-name="uni0157" unicode="&#x157;" 
d="M0 0v1399h2098q256 0 455 -158q244 -193 244 -542h-349q0 206 -145 294q-53 33 -116 46q-34 6 -51 8q-26 2 -38 2h-1748v-350h1748q258 0 455 -157q244 -193 244 -542h-349q0 206 -145 294q-51 31 -116 45q-28 7 -51 8q-6 1 -18.5 2t-19.5 1h-1748v-350h-350zM1574 -136
v-1v-348v-1h-1l-110 -146h-198l110 147h-151v349h350z" />
    <glyph glyph-name="Rcaron" unicode="&#x158;" 
d="M2098 350h-1399l-200 349h1599q258 0 455 -157q244 -193 244 -542h-349q0 206 -145 294q-51 31 -116 45q-28 7 -51 8q-6 1 -18.5 2t-19.5 1zM0 0v1399h2098q256 0 455 -158q244 -193 244 -542h-349q0 206 -145 294q-53 33 -116 46q-34 6 -51 8q-26 2 -38 2h-1748v-1049
h-350zM1719 2050l145 -218l-393 -263l-73 -48l-73 48l-393 263l146 218l320 -214z" />
    <glyph glyph-name="rcaron" unicode="&#x159;" 
d="M0 0v1399h2098q256 0 455 -158q244 -193 244 -542h-349q0 206 -145 294q-53 33 -116 46q-34 6 -51 8q-26 2 -38 2h-1748v-350h1748q258 0 455 -157q244 -193 244 -542h-349q0 206 -145 294q-51 31 -116 45q-28 7 -51 8q-6 1 -18.5 2t-19.5 1h-1748v-350h-350zM1719 2053
l146 -218l-394 -263l-73 -48l-73 48l-393 263l146 218l320 -214z" />
    <glyph glyph-name="Sacute" unicode="&#x15a;" 
d="M0 524v408q0 232 163 362q134 105 304 105h2330v-350h-2328q-77 -2 -104 -48q-10 -15 -13 -38q-2 -10 -2 -17v-72h2447v-407q0 -233 -163 -362q-132 -105 -304 -105h-2330v350h2328q76 2 105 48q9 16 13 38q1 5 1 17l1 7v64h-2448zM1814 2144l131 -223l-689 -402
l-131 223z" />
    <glyph glyph-name="sacute" unicode="&#x15b;" 
d="M0 524v408q0 232 163 362q134 105 304 105h2330v-350h-2328q-77 -2 -104 -48q-10 -15 -13 -38q-2 -10 -2 -17v-72h2447v-407q0 -233 -163 -362q-132 -105 -304 -105h-2330v350h2328q76 2 105 48q9 16 13 38q1 5 1 17l1 7v64h-2448zM1814 2144l131 -223l-689 -402
l-131 223z" />
    <glyph glyph-name="Scircumflex" unicode="&#x15c;" 
d="M0 524v408q0 232 163 362q134 105 304 105h2330v-350h-2328q-77 -2 -104 -48q-10 -15 -13 -38q-2 -10 -2 -17v-72h2447v-407q0 -233 -163 -362q-132 -105 -304 -105h-2330v350h2328q76 2 105 48q9 16 13 38q1 5 1 17l1 7v64h-2448zM1864 1739l-145 -218l-321 214
l-320 -214l-146 218l393 263l73 48l73 -48z" />
    <glyph glyph-name="scircumflex" unicode="&#x15d;" 
d="M0 524v408q0 232 163 362q134 105 304 105h2330v-350h-2328q-77 -2 -104 -48q-10 -15 -13 -38q-2 -10 -2 -17v-72h2447v-407q0 -233 -163 -362q-132 -105 -304 -105h-2330v350h2328q76 2 105 48q9 16 13 38q1 5 1 17l1 7v64h-2448zM1865 1739l-146 -218l-321 214
l-320 -214l-146 218l393 263l73 48l73 -48z" />
    <glyph glyph-name="Scedilla" unicode="&#x15e;" 
d="M1323 -299v299h-1323v350h2328q76 2 105 48q9 16 13 38q1 5 1 17l1 7v64h-2448v408q0 232 163 362q134 105 304 105h2330v-350h-2328q-77 -2 -104 -48q-10 -15 -13 -38q-2 -10 -2 -17v-72h2447v-407q0 -233 -163 -362q-132 -105 -304 -105h-786v-42q152 0 253 -122
q93 -111 93 -255q0 -163 -115 -278t-278 -115q-159 0 -274 112l170 221q34 -61 104 -61q51 0 85 36q36 34 36 85q0 126 -148 135q-74 4 -147 -15z" />
    <glyph glyph-name="scedilla" unicode="&#x15f;" 
d="M1323 -299v299h-1323v350h2328q76 2 105 48q9 16 13 38q1 5 1 17l1 7v64h-2448v408q0 232 163 362q134 105 304 105h2330v-350h-2328q-77 -2 -104 -48q-10 -15 -13 -38q-2 -10 -2 -17v-72h2447v-407q0 -233 -163 -362q-132 -105 -304 -105h-786v-42q152 0 253 -122
q93 -111 93 -255q0 -163 -115 -278t-278 -115q-159 0 -274 112l170 221q34 -61 104 -61q51 0 85 36q36 34 36 85q0 126 -148 135q-74 4 -147 -15z" />
    <glyph glyph-name="Scaron" unicode="&#x160;" 
d="M0 524v408q0 232 163 362q134 105 304 105h2330v-350h-2328q-77 -2 -104 -48q-10 -15 -13 -38q-2 -10 -2 -17v-72h2447v-407q0 -233 -163 -362q-132 -105 -304 -105h-2330v350h2328q76 2 105 48q9 16 13 38q1 5 1 17l1 7v64h-2448zM1719 2050l146 -218l-394 -263l-73 -48
l-73 48l-393 263l146 218l320 -214z" />
    <glyph glyph-name="scaron" unicode="&#x161;" 
d="M0 524v408q0 232 163 362q134 105 304 105h2330v-350h-2328q-77 -2 -104 -48q-10 -15 -13 -38q-2 -10 -2 -17v-72h2447v-407q0 -233 -163 -362q-132 -105 -304 -105h-2330v350h2328q76 2 105 48q9 16 13 38q1 5 1 17l1 7v64h-2448zM1719 2050l146 -218l-394 -263l-73 -48
l-73 48l-393 263l146 218l320 -214z" />
    <glyph glyph-name="uni0162" unicode="&#x162;" 
d="M1225 -229v229h-1v1049h-1224v350h2797v-350h-1224v-1046q71 -30 126 -97q93 -111 93 -255q0 -163 -115 -278t-278 -115q-159 0 -274 112l170 221q34 -61 104 -61q51 0 85 36q36 35 36 85q0 126 -148 135q-74 4 -147 -15z" />
    <glyph glyph-name="uni0163" unicode="&#x163;" 
d="M1225 -229v229h-1v1049h-1224v350h2797v-350h-1224v-1046q71 -30 126 -97q93 -111 93 -255q0 -163 -115 -278t-278 -115q-159 0 -274 112l170 221q34 -61 104 -61q51 0 85 36q36 35 36 85q0 126 -148 135q-74 4 -147 -15z" />
    <glyph glyph-name="Tcaron" unicode="&#x164;" 
d="M1224 0v1049h-1224v350h2797v-350h-1224v-1049h-349zM1719 2050l146 -218l-394 -263l-73 -48l-73 48l-393 263l146 218l320 -214z" />
    <glyph glyph-name="tcaron" unicode="&#x165;" 
d="M1224 0v1049h-1224v350h2797v-350h-1224v-1049h-349zM1719 2050l146 -218l-394 -263l-73 -48l-73 48l-393 263l146 218l320 -214z" />
    <glyph glyph-name="Tbar" unicode="&#x166;" 
d="M1923 521h-350v-521h-349v521h-350v217h350v311h-1224v350h2797v-350h-1224v-311h350v-217z" />
    <glyph glyph-name="tbar" unicode="&#x167;" 
d="M1923 521h-350v-521h-349v521h-350v217h350v311h-1224v350h2797v-350h-1224v-311h350v-217z" />
    <glyph glyph-name="Utilde" unicode="&#x168;" 
d="M2797 0h-2098q-256 0 -455 157q-244 193 -244 542v700h350v-700q0 -205 144 -294q51 -31 117 -45q30 -6 50 -8q26 -2 38 -2h1749v1049h349v-1399zM1704 1884l255 -56l-4 -19l-4 -19q-15 -84 -56 -147q-31 -46 -75 -76q-65 -44 -143 -48q-24 -1 -53 2q-3 1 -9 2t-9 2l-7 1
q-1 0 -2.5 0.5t-2.5 1.5l-227 61l-227 62h-1h-2q-4 0 -7 -1q-10 0 -14 -3q-5 -5 -9 -13q-5 -13 -8 -27l-6 -39l-255 56l8 39q15 83 56 146q31 46 75 76q63 44 142 48q27 1 54 -3l18 -3l7 -2h5l451 -122q19 -4 29 4q9 8 14 38z" />
    <glyph glyph-name="utilde" unicode="&#x169;" 
d="M2797 0h-2098q-256 0 -455 157q-244 193 -244 542v700h350v-700q0 -205 144 -294q51 -31 117 -45q30 -6 50 -8q26 -2 38 -2h1749v1049h349v-1399zM1704 1884l255 -56l-4 -19l-4 -19q-15 -84 -56 -147q-31 -46 -75 -76q-65 -44 -143 -48q-24 -1 -53 2q-3 1 -9 2t-9 2l-7 1
q-1 0 -2.5 0.5t-2.5 1.5l-227 61l-227 62h-1h-2q-4 0 -7 -1q-10 0 -14 -3q-5 -5 -9 -13q-5 -13 -8 -27l-6 -39l-255 56l8 39q15 83 56 146q31 46 75 76q63 44 142 48q27 1 54 -3l18 -3l7 -2h5l451 -122q19 -4 29 4q9 8 14 38z" />
    <glyph glyph-name="Umacron" unicode="&#x16a;" 
d="M2797 0h-2098q-256 0 -455 157q-244 193 -244 542v700h350v-700q0 -205 144 -294q51 -31 117 -45q30 -6 50 -8q26 -2 38 -2h1749v1049h349v-1399zM904 1521v263h1049v-263h-1049z" />
    <glyph glyph-name="umacron" unicode="&#x16b;" 
d="M2797 0h-2098q-256 0 -455 157q-244 193 -244 542v700h350v-700q0 -205 144 -294q51 -31 117 -45q30 -6 50 -8q26 -2 38 -2h1749v1049h349v-1399zM904 1521v263h1049v-263h-1049z" />
    <glyph glyph-name="Ubreve" unicode="&#x16c;" 
d="M2797 0h-2098q-256 0 -455 157q-244 193 -244 542v700h350v-700q0 -205 144 -294q51 -31 117 -45q30 -6 50 -8q26 -2 38 -2h1749v1049h349v-1399zM1603 1521h-349q-128 0 -228 79q-122 98 -122 271v43h262v-48v-5q0 -5 2 -13q1 -14 10 -28q19 -34 77 -36h349h3q4 0 12 2
q24 6 35 11q18 8 25 21q12 20 12 53v43h262v-43q0 -173 -122 -271q-100 -79 -228 -79z" />
    <glyph glyph-name="ubreve" unicode="&#x16d;" 
d="M2797 0h-2098q-256 0 -455 157q-244 193 -244 542v700h350v-700q0 -205 144 -294q51 -31 117 -45q30 -6 50 -8q26 -2 38 -2h1749v1049h349v-1399zM1603 1521h-349q-128 0 -228 79q-122 98 -122 271v43h262v-48v-5q0 -5 2 -13q1 -14 10 -28q19 -34 77 -36h349h3q4 0 12 2
q24 6 35 11q18 8 25 21q12 20 12 53v43h262v-43q0 -173 -122 -271q-100 -79 -228 -79z" />
    <glyph glyph-name="Uring" unicode="&#x16e;" 
d="M2797 0h-2098q-256 0 -455 157q-244 193 -244 542v700h350v-700q0 -205 144 -294q51 -31 117 -45q30 -6 50 -8q26 -2 38 -2h1749v1049h349v-1399zM1521 1521h-185q-95 0 -171 59q-91 71 -92 198v14q1 126 92 197q75 60 171 60h185q96 0 171 -60q91 -71 92 -197v-14
q-1 -127 -92 -198q-76 -59 -171 -59zM1328 1860q-37 -22 -37 -75q0 -54 37 -76q15 -8 30 -11q8 -2 13 -3h10h95h10q8 2 13 3q15 3 30 11q37 22 37 76q0 53 -37 75q-13 9 -30 12q-8 2 -13 2q-3 1 -10 1h-95q-6 0 -10 -1q-3 0 -13 -2q-16 -3 -30 -12z" />
    <glyph glyph-name="uring" unicode="&#x16f;" 
d="M2797 0h-2098q-256 0 -455 157q-244 193 -244 542v700h350v-700q0 -205 144 -294q51 -31 117 -45q30 -6 50 -8q26 -2 38 -2h1749v1049h349v-1399zM1561 1521h-185q-95 0 -171 59q-91 71 -92 198v14q1 126 92 197q75 60 171 60h185q96 0 171 -60q91 -71 92 -197v-14
q-1 -127 -92 -198q-76 -59 -171 -59zM1368 1860q-37 -22 -37 -75q0 -54 37 -76q15 -8 30 -11q8 -2 13 -3h10h95h10q8 2 13 3q15 3 30 11q37 22 37 76q0 53 -37 75q-13 9 -30 12q-8 2 -13 2q-3 1 -10 1h-95q-6 0 -10 -1q-3 0 -13 -2q-16 -3 -30 -12z" />
    <glyph glyph-name="Uhungarumlaut" unicode="&#x170;" 
d="M2797 0h-2098q-256 0 -455 157q-244 193 -244 542v700h350v-700q0 -205 144 -294q51 -31 117 -45q30 -6 50 -8q26 -2 38 -2h1749v1049h349v-1399zM1338 2078h306l-354 -559h-306zM1768 2078h306l-354 -559h-306z" />
    <glyph glyph-name="uhungarumlaut" unicode="&#x171;" 
d="M2797 0h-2098q-256 0 -455 157q-244 193 -244 542v700h350v-700q0 -205 144 -294q51 -31 117 -45q30 -6 50 -8q26 -2 38 -2h1749v1049h349v-1399zM1338 2078h306l-354 -559h-306zM1768 2078h306l-354 -559h-306z" />
    <glyph glyph-name="Uogonek" unicode="&#x172;" 
d="M1260 -109q-2 58 14 109h-575q-256 0 -455 157q-244 193 -244 542v700h350v-700q0 -205 144 -294q51 -31 117 -45q30 -6 50 -8q26 -2 38 -2h1749v1049h349v-1399h-1232q-34 -50 -34 -99q5 -81 74 -115q54 -26 118 11l145 -231q-194 -119 -385 -23q-97 49 -159 144
q-59 94 -64 204z" />
    <glyph glyph-name="uogonek" unicode="&#x173;" 
d="M1260 -109q-2 58 14 109h-575q-256 0 -455 157q-244 193 -244 542v700h350v-700q0 -205 144 -294q51 -31 117 -45q30 -6 50 -8q26 -2 38 -2h1749v1049h349v-1399h-1232q-34 -50 -34 -99q5 -81 74 -115q54 -26 118 11l145 -231q-194 -119 -385 -23q-97 49 -159 144
q-59 94 -64 204z" />
    <glyph glyph-name="Wcircumflex" unicode="&#x174;" horiz-adv-x="3397" 
d="M1748 1399v-1049h700q12 0 38 2q20 2 50 8q66 14 117 45q144 89 144 294v700h350v-700q0 -349 -244 -542q-199 -157 -455 -157h-2448v1399h350v-1049h1049v1049h349zM2039 1739l-145 -218l-321 214l-320 -214l-146 218l393 263l73 48l73 -48z" />
    <glyph glyph-name="wcircumflex" unicode="&#x175;" horiz-adv-x="3397" 
d="M1748 1399v-1049h700q12 0 38 2q20 2 50 8q66 14 117 45q144 89 144 294v700h350v-700q0 -349 -244 -542q-199 -157 -455 -157h-2448v1399h350v-1049h1049v1049h349zM2039 1739l-145 -218l-321 214l-320 -214l-146 218l393 263l73 48l73 -48z" />
    <glyph glyph-name="Ycircumflex" unicode="&#x176;" 
d="M0 350v1049h350v-700h1747q6 1 18.5 2t19.5 1q23 1 51 8q66 14 117 45q145 88 145 294v350h349v-350q0 -349 -244 -542q-197 -157 -455 -157h-525v-350h-349v350h-1224zM1864 1739l-145 -218l-321 214l-320 -214l-146 218l393 263l73 48l73 -48z" />
    <glyph glyph-name="ycircumflex" unicode="&#x177;" 
d="M0 350v1049h350v-700h1747q6 1 18.5 2t19.5 1q23 1 51 8q66 14 117 45q145 88 145 294v350h349v-350q0 -349 -244 -542q-197 -157 -455 -157h-525v-350h-349v350h-1224zM1865 1739l-146 -218l-321 214l-320 -214l-146 218l393 263l73 48l73 -48z" />
    <glyph glyph-name="Ydieresis" unicode="&#x178;" 
d="M0 350v1049h350v-700h1747q6 1 18.5 2t19.5 1q23 1 51 8q66 14 117 45q145 88 145 294v350h349v-350q0 -349 -244 -542q-197 -157 -455 -157h-525v-350h-349v350h-1224zM699 1521v350h350v-350h-350zM1748 1521v350h350v-350h-350z" />
    <glyph glyph-name="Zacute" unicode="&#x179;" horiz-adv-x="3261" 
d="M1263 350h1641v-350h-2904l541 325l1207 724h-1641v350h2904l-542 -325zM1921 2144l131 -223l-689 -402l-131 223z" />
    <glyph glyph-name="zacute" unicode="&#x17a;" horiz-adv-x="3261" 
d="M1263 350h1641v-350h-2904l541 325l1207 724h-1641v350h2904l-542 -325zM1921 2144l131 -223l-689 -402l-131 223z" />
    <glyph glyph-name="Zdotaccent" unicode="&#x17b;" horiz-adv-x="3261" 
d="M1263 350h1641v-350h-2904l541 325l1207 724h-1641v350h2904l-542 -325zM1331 1521v350h350v-350h-350z" />
    <glyph glyph-name="zdotaccent" unicode="&#x17c;" horiz-adv-x="3261" 
d="M1263 350h1641v-350h-2904l541 325l1207 724h-1641v350h2904l-542 -325zM1331 1521v350h350v-350h-350z" />
    <glyph glyph-name="Zcaron" unicode="&#x17d;" horiz-adv-x="3261" 
d="M1263 350h1641v-350h-2904l541 325l1207 724h-1641v350h2904l-542 -325zM1826 2050l145 -218l-393 -263l-73 -48l-73 48l-393 263l146 218l320 -214z" />
    <glyph glyph-name="zcaron" unicode="&#x17e;" horiz-adv-x="3261" 
d="M1263 350h1641v-350h-2904l541 325l1207 724h-1641v350h2904l-542 -325zM1826 2050l146 -218l-394 -263l-73 -48l-73 48l-393 263l146 218l320 -214z" />
    <glyph glyph-name="circumflex" unicode="&#x2c6;" horiz-adv-x="1182" 
d="M932 1742l-145 -218l-321 214l-320 -214l-146 218l393 263l73 48l73 -48z" />
    <glyph glyph-name="caron" unicode="&#x2c7;" horiz-adv-x="1182" 
d="M787 2053l145 -218l-393 -263l-73 -48l-73 48l-393 263l146 218l320 -214z" />
    <glyph glyph-name="uni02C9" unicode="&#x2c9;" horiz-adv-x="1299" 
d="M0 1524v263h1049v-263h-1049z" />
    <glyph glyph-name="breve" unicode="&#x2d8;" horiz-adv-x="1299" 
d="M699 1524h-349q-128 0 -228 79q-122 98 -122 271v43h263v-48v-5q0 -9 1 -13q1 -14 10 -28q19 -34 77 -36h350h3q4 0 12 2q22 5 34 11q18 8 25 21q12 20 12 53v43h262v-43q0 -173 -122 -271q-100 -79 -228 -79z" />
    <glyph glyph-name="dotaccent" unicode="&#x2d9;" horiz-adv-x="600" 
d="M0 1524v350h350v-350h-350z" />
    <glyph glyph-name="ring" unicode="&#x2da;" horiz-adv-x="962" 
d="M448 1524h-184q-96 0 -172 59q-89 71 -92 198v14q3 126 92 197q75 60 172 60h184q97 0 172 -60q89 -71 92 -197v-14q-1 -127 -92 -198q-76 -59 -172 -59zM256 1863q-37 -22 -37 -75q0 -54 37 -76q15 -8 30 -11q8 -2 13 -3h10h94h10q5 1 13 3q15 3 30 11q38 23 38 76
q0 52 -38 75q-14 9 -29 12q-10 2 -14 2q-3 1 -9 1h-95q-7 0 -10 -1q-5 0 -13 -2q-16 -3 -30 -12z" />
    <glyph glyph-name="ogonek" unicode="&#x2db;" horiz-adv-x="885" 
d="M354 -462q54 -26 118 11l145 -231q-194 -119 -385 -23q-98 49 -159 144q-59 94 -64 204q-9 229 295 442l331 -85q-355 -193 -355 -347q5 -81 74 -115z" />
    <glyph glyph-name="tilde" unicode="&#x2dc;" horiz-adv-x="1371" 
d="M866 1887l255 -56l-4 -19l-4 -19q-15 -84 -56 -147q-31 -46 -75 -76q-65 -44 -143 -48q-24 -1 -54 2q-3 1 -9 2.5t-8 1.5l-7 1q-1 0 -2.5 0.5t-2.5 1.5l-227 61l-227 62h-1h-2q-4 0 -7 -1q-10 0 -15 -3q-3 -3 -8 -13q-5 -13 -8 -27l-7 -39l-254 56l7 39q16 84 57 146
q31 46 75 76q63 44 142 48q27 2 53 -3q7 -1 19 -3l7 -2h5l451 -122q19 -4 29 4q9 8 14 38z" />
    <glyph glyph-name="hungarumlaut" unicode="&#x2dd;" horiz-adv-x="1340" 
d="M354 2081h306l-354 -559h-306zM784 2081h306l-354 -559h-306z" />
    <glyph glyph-name="uni0326" unicode="&#x326;" horiz-adv-x="600" 
d="M350 -136v-1v-348v-1h-1l-110 -146h-198l110 147h-151v349h350z" />
    <glyph glyph-name="endash" unicode="&#x2013;" horiz-adv-x="1451" 
d="M-1 875h1202v-350h-1202v350z" />
    <glyph glyph-name="emdash" unicode="&#x2014;" horiz-adv-x="1858" 
d="M-1 875h1609v-350h-1609v350z" />
    <glyph glyph-name="quoteleft" unicode="&#x2018;" horiz-adv-x="600" 
d="M0 900v1v347v2l110 146h199l-110 -148h151v-348h-350z" />
    <glyph glyph-name="quoteright" unicode="&#x2019;" horiz-adv-x="600" 
d="M350 1396v-1v-348v-1h-1l-110 -146h-198l110 147h-151v349h350z" />
    <glyph glyph-name="quotesinglbase" unicode="&#x201a;" horiz-adv-x="600" 
d="M350 350v-1v-348v-1h-1l-110 -146h-198l110 147h-151v349h350z" />
    <glyph glyph-name="quotedblleft" unicode="&#x201c;" horiz-adv-x="1037" 
d="M0 900v1v347v2l110 146h199l-110 -148h151v-348h-350zM437 900v1v347v2l110 146h199l-110 -148h151v-348h-350z" />
    <glyph glyph-name="quotedblright" unicode="&#x201d;" horiz-adv-x="1037" 
d="M787 1396v-1v-348v-1h-1l-110 -146h-198l110 147h-151v349h350zM350 1396v-1v-348v-1h-1l-110 -146h-198l110 147h-151v349h350z" />
    <glyph glyph-name="quotedblbase" unicode="&#x201e;" horiz-adv-x="1037" 
d="M787 350v-1v-348v-1h-1l-110 -146h-198l110 147h-151v349h350zM350 350v-1v-348v-1h-1l-110 -146h-198l110 147h-151v349h350z" />
    <glyph glyph-name="dagger" unicode="&#x2020;" horiz-adv-x="250" 
 />
    <glyph glyph-name="daggerdbl" unicode="&#x2021;" horiz-adv-x="250" 
 />
    <glyph glyph-name="bullet" unicode="&#x2022;" horiz-adv-x="250" 
 />
    <glyph glyph-name="ellipsis" unicode="&#x2026;" horiz-adv-x="250" 
 />
    <glyph glyph-name="perthousand" unicode="&#x2030;" horiz-adv-x="3270" 
d="M540 -138l591 1662h350l-591 -1661zM1657 -136h-190q-137 0 -243 84q-125 100 -130 279v20q5 179 130 279q106 84 243 84h190q137 0 243 -84q125 -100 130 -279v-20q-5 -179 -130 -279q-106 -84 -243 -84zM1409 237q0 -60 47 -86q14 -8 37 -13q3 0 8.5 -0.5t8.5 -1.5
q5 -1 12 -1h79q8 0 13 1q3 1 8 1.5t8 0.5q23 5 38 13q46 25 46 86t-46 86q-15 8 -37 13q-12 2 -17 2q-5 1 -12 1h-79q-8 0 -13 -1q-4 0 -16 -2q-23 -5 -38 -13q-47 -26 -47 -86zM563 776h-190q-137 0 -243 84q-125 100 -130 279v20q5 179 130 279q106 84 243 84h190
q137 0 243 -84q125 -100 130 -279v-20q-5 -179 -130 -279q-106 -84 -243 -84zM315 1149q0 -60 47 -86q14 -8 37 -13q3 0 8.5 -0.5t8.5 -1.5q5 -1 12 -1h79q8 0 13 1q3 1 8 1.5t8 0.5q23 5 38 13q46 25 46 86t-46 86q-15 8 -37 13q-12 2 -17 2q-5 1 -12 1h-79q-8 0 -13 -1
q-4 0 -16 -2q-23 -5 -38 -13q-47 -26 -47 -86zM2647 -136h-190q-137 0 -243 84q-125 100 -130 279v20q5 179 130 279q106 84 243 84h190q137 0 243 -84q125 -100 130 -279v-20q-5 -179 -130 -279q-106 -84 -243 -84zM2399 237q0 -60 47 -86q14 -8 37 -13q3 0 8.5 -0.5
t8.5 -1.5q5 -1 12 -1h79q8 0 13 1q3 1 8 1.5t8 0.5q23 5 38 13q46 25 46 86t-46 86q-15 8 -37 13q-12 2 -17 2q-5 1 -12 1h-79q-8 0 -13 -1q-4 0 -16 -2q-23 -5 -38 -13q-47 -26 -47 -86z" />
    <glyph glyph-name="guilsinglleft" unicode="&#x2039;" horiz-adv-x="250" 
 />
    <glyph glyph-name="guilsinglright" unicode="&#x203a;" horiz-adv-x="250" 
 />
    <glyph glyph-name="fraction" unicode="&#x2044;" horiz-adv-x="250" 
 />
    <glyph glyph-name="fraction" unicode="&#x2215;" horiz-adv-x="250" 
 />
    <glyph glyph-name="franc" unicode="&#x20a3;" horiz-adv-x="250" 
 />
    <glyph glyph-name="lira" unicode="&#x20a4;" horiz-adv-x="250" 
 />
    <glyph glyph-name="peseta" unicode="&#x20a7;" horiz-adv-x="250" 
 />
    <glyph glyph-name="Euro" unicode="&#x20ac;" horiz-adv-x="3122" 
d="M0 963h127q60 166 202 278q200 158 455 158h2088v-350h-2086q-13 0 -39 -2q-17 -2 -51 -8q-64 -13 -117 -46q-19 -11 -41 -30h909l200 -217h-1210q-2 -30 -2 -47q0 -24 1 -36h1011l200 -217h-1121q25 -23 53 -41q51 -31 116 -45q34 -6 51 -8q26 -2 38 -2h2088v-350h-2088
q-256 0 -455 157q-147 118 -205 289h-124v217h86q-1 5 -1 17v39q0 18 1 27h-86v217z" />
    <glyph glyph-name="uni2116" unicode="&#x2116;" horiz-adv-x="250" 
 />
    <glyph glyph-name="trademark" unicode="&#x2122;" horiz-adv-x="250" 
 />
    <glyph glyph-name="partialdiff" unicode="&#x2202;" horiz-adv-x="250" 
 />
    <glyph glyph-name="increment" unicode="&#x2206;" horiz-adv-x="250" 
 />
    <glyph glyph-name="product" unicode="&#x220f;" horiz-adv-x="250" 
 />
    <glyph glyph-name="summation" unicode="&#x2211;" horiz-adv-x="250" 
 />
    <glyph glyph-name="minus" unicode="&#x2212;" horiz-adv-x="250" 
 />
    <glyph glyph-name="radical" unicode="&#x221a;" horiz-adv-x="250" 
 />
    <glyph glyph-name="infinity" unicode="&#x221e;" horiz-adv-x="250" 
 />
    <glyph glyph-name="integral" unicode="&#x222b;" horiz-adv-x="250" 
 />
    <glyph glyph-name="approxequal" unicode="&#x2248;" horiz-adv-x="250" 
 />
    <glyph glyph-name="lessequal" unicode="&#x2264;" horiz-adv-x="250" 
 />
    <glyph glyph-name="greaterequal" unicode="&#x2265;" horiz-adv-x="250" 
 />
    <glyph glyph-name="uniF001" unicode="&#xf001;" horiz-adv-x="250" 
 />
    <glyph glyph-name="uniF001" unicode="&#xfb01;" horiz-adv-x="250" 
 />
    <glyph glyph-name="uniF002" unicode="&#xf002;" horiz-adv-x="250" 
 />
    <glyph glyph-name="uniF002" unicode="&#xfb02;" horiz-adv-x="250" 
 />
    <glyph glyph-name="CR" horiz-adv-x="250" 
 />
    <glyph glyph-name="bar2" horiz-adv-x="1299" 
d="M0 736v217h1049v-217h-1049z" />
    <glyph glyph-name="alt_C" 
d="M350 699v-349h2247l200 -350h-2797v699q0 349 244 542q200 158 455 158h1898l200 -350h-2096q-13 0 -39 -2q-17 -2 -51 -8q-64 -13 -117 -46q-144 -89 -144 -294z" />
    <glyph glyph-name="alt_E" 
d="M2597 1399l200 -350h-2332q-3 0 -4 -1q-2 0 -7.5 -1t-8.5 -1q-27 -5 -46 -15q-24 -13 -34 -28q-15 -25 -15 -71v-58h-350v58q0 232 163 362q134 105 304 105h2130zM350 407v-57h2247l200 -350h-2797v407q0 233 163 362q133 105 304 105h2130l200 -350h-2336q-3 0 -8 -1
t-8 -2q-27 -5 -46 -15q-23 -11 -34 -28q-15 -26 -15 -71z" />
    <glyph glyph-name="alt_F" 
d="M2597 1399l200 -350h-2331h-1q-3 0 -4 -1q-2 0 -7.5 -1t-8.5 -1q-27 -5 -46 -15q-24 -13 -34 -28q-15 -25 -15 -71v-58h-350v58q0 232 163 362q134 105 304 105h2130zM2597 874l200 -350h-2331h-1h-4q-3 0 -8 -1t-8 -2q-27 -5 -46 -15q-23 -11 -34 -28q-15 -26 -15 -71
v-407h-350v407q0 233 163 362q133 105 304 105h2130z" />
    <glyph glyph-name="alt_G" 
d="M0 0v699q0 349 244 542q200 158 455 158h1898l200 -350h-2096q-13 0 -39 -2q-17 -2 -51 -8q-64 -13 -117 -46q-144 -89 -144 -294v-349h2098v349h349v-699h-2797z" />
    <glyph glyph-name="alt_J" 
d="M0 1399h2797v-700q0 -349 -244 -542q-197 -157 -455 -157h-1898l-200 350h2097q12 0 38 2q17 2 51 8q66 14 117 45q145 88 145 294v350h-2248z" />
    <glyph glyph-name="alt_J2" 
d="M2448 1399h349v-700q0 -349 -244 -542q-197 -157 -455 -157h-2098v350h2097q12 0 38 2q17 2 51 8q66 14 117 45q145 88 145 294v700z" />
    <glyph glyph-name="alt_J3" 
d="M2448 1399h349v-700q0 -349 -244 -542q-197 -157 -455 -157h-1898l-200 350h2097q12 0 38 2q17 2 51 8q66 14 117 45q145 88 145 294v700z" />
    <glyph glyph-name="alt_L" 
d="M2597 350l200 -350h-2098q-256 0 -455 157q-244 193 -244 542v700h350v-700q0 -205 144 -294q51 -31 116 -45q34 -6 51 -8q26 -2 38 -2h1898z" />
    <glyph glyph-name="alt_T" 
d="M1224 0v1049h-1024l-200 350h2597l200 -350h-1224v-1049h-349z" />
    <glyph glyph-name="alt_Z" horiz-adv-x="3261" 
d="M1263 350h1441l200 -350h-2904l1748 1049h-1431l-210 350h2904z" />
    <glyph glyph-name="alt_dash" horiz-adv-x="1385" 
d="M-2 875h937l200 -350h-937z" />
    <glyph glyph-name="_243.011" horiz-adv-x="0" 
 />
    <glyph glyph-name="_243" horiz-adv-x="0" 
 />
    <glyph glyph-name="_243.010" horiz-adv-x="0" 
 />
    <glyph glyph-name="_243.013" horiz-adv-x="0" 
 />
    <glyph glyph-name="_243.014" horiz-adv-x="0" 
 />
    <glyph glyph-name="_243.015" horiz-adv-x="0" 
 />
    <glyph glyph-name="_243.001" 
 />
    <glyph glyph-name="_243.004" horiz-adv-x="0" 
 />
    <glyph glyph-name="_243.016" horiz-adv-x="0" 
 />
    <glyph glyph-name="_243.012" horiz-adv-x="0" 
 />
    <glyph glyph-name="_243.002" horiz-adv-x="0" 
 />
    <glyph glyph-name="_243.008" horiz-adv-x="0" 
 />
    <glyph glyph-name="_243.007" horiz-adv-x="0" 
 />
    <glyph glyph-name="_243.006" horiz-adv-x="0" 
 />
    <glyph glyph-name="_243.005" horiz-adv-x="0" 
 />
    <glyph glyph-name="_243.009" horiz-adv-x="0" 
 />
    <glyph glyph-name="_243.003" horiz-adv-x="0" 
 />
    <glyph glyph-name="_237" horiz-adv-x="0" 
 />
    <glyph glyph-name="S_T" horiz-adv-x="5866" 
d="M4043 1049h-3574q-77 -2 -104 -48q-10 -15 -13 -38q-2 -10 -2 -17v-72h2447v-407q0 -233 -163 -362q-132 -105 -304 -105h-2330v350h2328q76 2 105 48q9 16 13 38q1 5 1 17l1 7v64h-2448v408q0 232 163 362q134 105 304 105h5149v-350h-1224v-1049h-349v1049z" />
    <glyph glyph-name="W_A" horiz-adv-x="5847" 
d="M1399 699v700h349v-700h-349zM4898 1049h-1751v-350q0 -349 -244 -542q-199 -157 -455 -157h-2448v1399h350v-1049h2098q12 0 38 2q20 2 50 8q66 14 117 45q144 89 144 294v700h2101q256 0 455 -158q244 -193 244 -542v-699h-349v175h-1745l-200 349h1945v175
q0 206 -145 294q-53 33 -116 46q-34 6 -51 8q-26 2 -38 2z" />
    </font>
</defs>
</svg>
