<svg width="36" height="36" viewBox="0 0 36 36" fill="none" xmlns="http://www.w3.org/2000/svg">
<g clip-path="url(#clip0)">
<path d="M18.0004 11.1404C14.218 11.1404 11.1411 14.2174 11.1411 17.9994C11.1411 21.7817 14.218 24.8587 18.0004 24.8587C21.7824 24.8587 24.8594 21.7817 24.8594 17.9994C24.8594 14.2174 21.7824 11.1404 18.0004 11.1404ZM22.0727 16.7077L17.1588 21.6216C16.9525 21.8279 16.682 21.9312 16.4117 21.9312C16.1415 21.9312 15.8712 21.8282 15.6649 21.6216L13.7871 19.7438C13.3746 19.3315 13.3746 18.6627 13.7871 18.2502C14.1994 17.8376 14.8682 17.8376 15.2807 18.2502L16.4117 19.3812L20.5791 15.2141C20.9914 14.8016 21.6602 14.8016 22.0727 15.2141C22.4853 15.6264 22.4853 16.2952 22.0727 16.7077Z" fill="black"/>
<path d="M33.2928 9.76674L33.2917 9.73872C33.2761 9.39293 33.2656 9.02708 33.2593 8.62004C33.2299 6.63509 31.652 4.99319 29.6668 4.88223C25.5277 4.65124 22.3258 3.30157 19.5899 0.634924L19.5666 0.612677C18.6742 -0.205528 17.3281 -0.205528 16.4355 0.612677L16.4121 0.634924C13.6763 3.30157 10.4743 4.65124 6.33521 4.8825C4.35026 4.99319 2.77208 6.63509 2.74269 8.62031C2.73665 9.02461 2.72594 9.39045 2.71028 9.73872L2.70864 9.80381C2.62816 14.0245 2.52819 19.2773 4.28544 24.0451C5.25169 26.667 6.71506 28.9461 8.63464 30.8195C10.8209 32.953 13.6845 34.6469 17.1457 35.8537C17.2583 35.893 17.3753 35.9248 17.4945 35.9487C17.6626 35.9822 17.8318 35.999 18.001 35.999C18.1702 35.999 18.3397 35.9822 18.5075 35.9487C18.6267 35.9248 18.7445 35.8927 18.8577 35.8531C22.3148 34.6441 25.1753 32.9495 27.3597 30.8162C29.2784 28.9422 30.7418 26.6626 31.7089 24.0401C33.4727 19.2581 33.373 13.9954 33.2928 9.76674ZM18.0005 26.9713C13.0533 26.9713 9.02878 22.9467 9.02878 17.9996C9.02878 13.0525 13.0533 9.02791 18.0005 9.02791C22.9473 9.02791 26.9721 13.0525 26.9721 17.9996C26.9721 22.9467 22.9473 26.9713 18.0005 26.9713Z" fill="black"/>
</g>
<defs>
<clipPath id="clip0">
<rect width="36" height="36" fill="white"/>
</clipPath>
</defs>
</svg>
