<svg xmlns="http://www.w3.org/2000/svg" viewBox="0 0 31.55 31.55"><defs><style>.cls-1{fill:#ef4623;}</style></defs><title>Ресурс 2</title><g id="Шар_2" data-name="Шар 2"><g id="Шар_1-2" data-name="Шар 1"><path class="cls-1" d="M12.56,15.57l13-13a1.22,1.22,0,0,0,.36-.86A1.25,1.25,0,0,0,25,.54L25,.52A10.22,10.22,0,0,0,21.84,0H15.78A15.78,15.78,0,0,0,0,15.78v9.7a6.08,6.08,0,0,0,6.08,6.08h9.7A15.78,15.78,0,0,0,31.55,15.78V9.27a2.42,2.42,0,0,0-4.14-1.71l-8.53,8.53a1.19,1.19,0,0,0-.34.85,1.83,1.83,0,0,0,.06.38,3.64,3.64,0,1,1-6-1.75"/></g></g></svg>