<svg width="84" height="96" viewBox="0 0 84 96" fill="none" xmlns="http://www.w3.org/2000/svg">
<path d="M41.7887 40.7257L40.3365 37.8047L38.8844 40.7257L35.6558 41.1891L37.9961 43.4641L37.4463 46.6801L40.3365 45.1634L43.2268 46.6801L42.6769 43.4641L45.0173 41.1891L41.7887 40.7257Z" fill="#FED700"/>
<path d="M69.3939 18.2563C69.2271 17.9587 69.1292 17.6277 69.1072 17.2876C69.0853 16.9474 69.1399 16.6067 69.267 16.2902C69.7974 14.9712 69.892 13.5181 69.537 12.1418C69.1821 10.7656 68.3961 9.53778 67.2932 8.63663C66.9125 8.29959 66.4896 8.00468 66.0807 7.68168C66.0807 7.86425 66.0807 7.86425 66.0807 8.08894C66.6975 9.30422 66.9751 10.6623 66.8843 12.0211C66.869 12.2723 66.7863 12.5148 66.6446 12.7232C66.6446 12.2879 66.5319 11.9228 66.4896 11.5576C66.4598 11.4897 66.4362 11.4192 66.4191 11.347C66.0892 9.19223 64.9188 7.25427 63.1623 5.95436L62.9508 5.81393C61.7953 5.26436 60.5368 4.96286 59.2568 4.92899C57.9768 4.89512 56.7039 5.12963 55.5208 5.61732H55.2106C55.123 5.64048 55.0443 5.68942 54.985 5.75775C54.9145 5.75775 54.7877 5.75775 54.8018 5.89819C55.9048 5.92551 56.9905 6.17761 57.9919 6.63892C58.9933 7.10024 59.8893 7.761 60.6245 8.58046C61.2085 9.18996 61.5364 9.99888 61.5409 10.8414L61.118 9.98479C60.4884 9.11365 59.6932 8.3741 58.7776 7.80807H58.6789C56.0185 6.56893 52.9904 6.35992 50.1838 7.22168C47.3772 8.08345 44.9929 9.95438 43.4946 12.4705C43.0989 13.1626 42.7504 13.8804 42.4513 14.6191C42.3237 14.9245 42.2383 15.2457 42.1975 15.574L42.5782 15.237C43.8966 14.0473 45.414 13.0967 47.0616 12.4283C48.9359 11.6274 51.0077 11.4024 53.0112 11.7823C53.4368 11.8018 53.854 11.9069 54.2378 12.0913C53.3637 12.1755 52.4896 12.1615 51.6155 12.2598C48.5324 12.4358 45.633 13.7768 43.5087 16.0094C42.3162 17.3792 41.4231 18.9814 40.8863 20.7139C40.8547 20.8006 40.817 20.8851 40.7736 20.9666C40.7736 21.1773 40.6185 21.3599 40.6749 21.5846C41.4926 21.065 42.2962 20.5032 43.128 20.0117C44.7352 18.9868 46.5417 18.312 48.4291 18.0316H48.8098C49.5327 17.9171 50.2715 17.9505 50.981 18.1299L49.6557 18.3406C47.3589 18.8395 45.1867 19.7948 43.269 21.1492C41.2453 22.5629 39.0464 23.71 36.7272 24.5617C33.8481 25.5703 30.7889 25.9673 27.7464 25.7273C25.8357 25.6272 23.9758 25.0787 22.3184 24.1264L22.1069 23.9579C22.0465 23.9476 21.9889 23.9248 21.9379 23.8909C21.8869 23.8571 21.8436 23.8129 21.8108 23.7613C21.7495 23.7486 21.6915 23.7233 21.6405 23.687C21.5895 23.6507 21.5467 23.6043 21.5147 23.5506L21.4161 23.4664C20.3796 22.7202 19.5145 21.7627 18.8783 20.6577C17.7572 18.6301 17.1566 16.3579 17.1301 14.0433C16.9651 11.0644 17.5925 8.09483 18.9488 5.43476C19.009 5.30255 19.0988 5.18577 19.2112 5.0933C19.3235 5.00083 19.4556 4.9351 19.5973 4.90111C20.1781 4.6795 20.7063 4.33994 21.1482 3.90404C21.4282 3.69905 21.6576 3.43311 21.8188 3.12647C21.9801 2.81984 22.069 2.4806 22.0787 2.13458C22.1024 1.7112 22.1928 1.29417 22.3466 0.898771L22.6567 0C22.3748 0 22.262 0.154476 22.0787 0.224693C21.2059 1.02807 20.3909 1.89152 19.6396 2.80866C17.9844 4.9532 16.9157 7.4886 16.5379 10.1673C15.8752 13.7137 16.3282 17.3774 17.835 20.6577C18.117 21.2756 18.4694 21.8654 18.7796 22.4833C18.8783 22.4833 18.8642 22.5957 18.8783 22.6659C19.0898 22.9468 19.2731 23.2557 19.4986 23.5225C20.8634 25.2283 22.5431 26.6583 24.4473 27.7355L24.9548 27.9743C24.0948 28.6905 23.2489 29.3786 22.4453 30.0667C18.3401 33.5493 14.6332 37.4724 11.3919 41.7648C10.5356 42.9444 9.78099 44.194 9.1361 45.5003C9.1361 45.5846 9.1361 45.6829 8.99511 45.7109C8.95625 45.9372 8.88002 46.1555 8.76953 46.3569C8.93872 46.4693 8.99511 46.3569 9.0656 46.2165C13.0136 42.4961 17.4535 39.3305 22.262 36.8075C26.5646 34.3927 31.2529 32.7347 36.121 31.9064C39.0676 31.457 42.0283 31.0638 44.9327 30.4318C47.8583 29.89 50.7016 28.9743 53.3919 27.7074C54.4916 27.1597 54.4916 27.1597 53.5893 26.3031L53.406 26.2048C52.406 25.7994 51.3665 25.4982 50.3043 25.306C50.4123 25.2992 50.5206 25.2992 50.6285 25.306H51.0092C51.7605 25.2073 52.5232 25.2358 53.265 25.3903C54.1919 25.6761 55.0473 26.1548 55.7746 26.7946C56.1355 27.0627 56.5508 27.2494 56.9915 27.3415C57.4321 27.4337 57.8877 27.4291 58.3264 27.3283C59.286 27.0643 60.2925 27.0164 61.273 27.1878C61.7947 27.581 61.8511 27.876 61.4704 28.3675C61.2209 28.6695 60.9525 28.9557 60.6668 29.2241C60.19 29.6012 59.8752 30.1448 59.7861 30.7447C59.6971 31.3446 59.8406 31.9557 60.1874 32.4541C60.4117 32.8373 60.7455 33.1453 61.1462 33.3388C61.3717 33.4371 61.5691 33.4652 61.7383 33.2545C63.2703 31.6193 64.1653 29.4926 64.262 27.258C64.3352 25.7917 63.8291 24.355 62.8521 23.2557C62.5137 22.9046 62.2318 22.4974 61.8511 22.0199C62.2598 22.1794 62.6298 22.4235 62.9367 22.7361C63.3456 23.1434 63.6839 23.7191 64.1774 23.9017C64.7694 24.0083 65.3759 24.0083 65.9679 23.9017C66.1935 23.9017 66.2499 23.9017 66.3063 24.1404C66.4471 24.7192 66.6652 25.2766 66.9548 25.7975L67.0958 25.9941C67.3401 26.2579 67.6092 26.4977 67.8994 26.7104C67.9387 26.7533 67.9877 26.7862 68.0424 26.8065C68.097 26.8268 68.1557 26.8338 68.2136 26.8269C68.2715 26.82 68.327 26.7995 68.3753 26.767C68.4236 26.7345 68.4635 26.691 68.4916 26.6401C69.4926 25.5026 70.5077 24.3792 71.5087 23.2557C71.5948 23.1799 71.6507 23.0758 71.6663 22.9624C71.6818 22.849 71.6559 22.7338 71.5933 22.6378C70.8461 21.2194 70.1552 19.7449 69.3939 18.2563Z" fill="#FED700"/>
<path d="M21.1482 55.5547H20.3022V61.3686H21.1482V59.2762C21.1617 59.0751 21.1617 58.8734 21.1482 58.6723H21.98L24.4473 61.3686H25.547L23.1784 58.7987C23.0523 58.6399 22.9106 58.494 22.7554 58.3633L23.1361 57.9561L25.3778 55.5828H24.3063L21.8954 57.9982H21.0636C21.078 57.7784 21.078 57.558 21.0636 57.3382L21.1482 55.5547Z" fill="#FED700"/>
<path d="M34.0623 57.1696C34.0623 55.8635 33.3856 55.4844 31.6656 55.4844C30.4531 55.4844 29.9032 55.4844 29.0996 55.5546V61.3685H29.9455V58.9812H31.6938C31.9077 58.9585 32.1235 59.0032 32.3106 59.109C32.4978 59.2148 32.6469 59.3764 32.7371 59.571L33.4138 61.3826H34.3443L33.5971 59.5429C33.5314 59.3326 33.4106 59.1436 33.247 58.9955C33.0834 58.8473 32.883 58.7454 32.6666 58.7003C33.6676 58.5458 34.0623 58.0824 34.0623 57.1696ZM31.6515 58.2509H29.9455V56.1725H31.6515C32.7935 56.1725 33.2023 56.3832 33.2023 57.1836C33.2023 57.9841 32.7935 58.2369 31.6515 58.2509Z" fill="#FED700"/>
<path d="M41.1824 55.555H40.2378C40.1665 55.5517 40.096 55.5719 40.0374 55.6125C39.9787 55.6532 39.9352 55.7119 39.9136 55.7797L37.4463 61.3971H38.3345L39.0958 59.6416H42.2962L43.0435 61.3971H43.9317L41.4644 55.7797C41.4468 55.7177 41.4102 55.6626 41.3596 55.6223C41.3091 55.582 41.2471 55.5585 41.1824 55.555ZM39.4765 58.8833L40.4352 56.6785L40.6185 56.201H40.8864C40.8864 56.3555 41.0133 56.524 41.0838 56.6785L42.0284 58.8833H39.4765Z" fill="#FED700"/>
<path d="M49.0775 56.2592H51.8972V55.6132C50.9103 55.543 49.8106 55.543 48.7673 55.543C47.724 55.543 47.3574 55.9362 47.3574 56.6243V61.3709H48.2315V58.7448H51.4319V58.0567H48.3302V56.8069C48.3302 56.4137 48.5699 56.2592 49.0775 56.2592Z" fill="#FED700"/>
<path d="M58.6081 61.3686V56.299H61.0613V55.5547H55.2949V56.299H57.7481V61.3686H58.6081Z" fill="#FED700"/>
<path d="M9.99597 75.8341C10.1934 75.3927 10.2897 74.913 10.2779 74.4298C10.328 73.6677 10.0862 72.9149 9.60121 72.3233C9.3446 72.0202 9.02138 71.7799 8.6566 71.6211C8.87496 71.5185 9.07498 71.3809 9.24874 71.2139C9.47022 70.9584 9.639 70.6619 9.74544 70.3415C9.85188 70.021 9.8939 69.6828 9.86908 69.3461C9.88718 68.8639 9.7956 68.3838 9.60121 67.9418C9.44044 67.6312 9.21317 67.3595 8.93545 67.146C8.65773 66.9324 8.33634 66.7822 7.99396 66.706C7.02099 66.4701 6.01969 66.3708 5.01913 66.4111C2.91843 66.4111 1.76234 66.4111 0.32427 66.5234H0V77.1261H0.32427C1.93152 77.2385 3.2004 77.2385 5.63948 77.2385C6.82554 77.3342 8.01698 77.1364 9.10775 76.6627C9.47661 76.4758 9.78463 76.1885 9.99597 75.8341ZM6.69688 70.2168C6.69688 70.3572 6.56999 70.4275 6.30211 70.5117C5.90444 70.6007 5.49695 70.6384 5.08963 70.6241H3.14401V68.8125H4.89225C5.43118 68.7702 5.97312 68.8371 6.4854 69.0091L6.69688 69.2057C6.76495 69.3402 6.79423 69.4909 6.78147 69.641C6.80199 69.8096 6.77258 69.9804 6.69688 70.1325V70.2168ZM3.14401 72.7867H5.11782C5.67427 72.7361 6.23483 72.8179 6.75327 73.0255L6.97885 73.2923C7.04517 73.4718 7.07395 73.663 7.06344 73.854C7.09536 74.0451 7.09058 74.2405 7.04935 74.4298C7.00773 74.5145 6.94632 74.5881 6.87028 74.6443C6.79423 74.7005 6.70576 74.7377 6.61229 74.7528C6.15028 74.8585 5.67596 74.9011 5.20242 74.8792H3.14401V72.7867Z" fill="white"/>
<path d="M14.5501 66.5078V72.8133C14.4762 73.4596 14.5536 74.1141 14.7762 74.7257C14.9988 75.3372 15.3605 75.8891 15.8331 76.3381C17.0868 77.1445 18.5771 77.5057 20.0627 77.3633C21.4925 77.5055 22.9265 77.1372 24.109 76.3241C24.5643 75.8677 24.9108 75.3153 25.1231 74.7076C25.3354 74.1 25.408 73.4526 25.3356 72.8133V66.5078H22.1352V72.8133C22.1352 73.6699 21.966 74.1193 21.684 74.358C21.1696 74.6863 20.5563 74.8254 19.9499 74.7512C19.3381 74.847 18.7118 74.7331 18.1735 74.4282C17.8774 74.1895 17.7223 73.7401 17.7223 72.8835V66.5078H14.5501Z" fill="white"/>
<path d="M40.167 69.6973C40.2225 69.1863 40.1362 68.6699 39.9174 68.2044C39.6987 67.7389 39.3558 67.3421 38.9263 67.0572C37.782 66.5088 36.5126 66.2714 35.2465 66.3691C32.9908 66.3691 31.9193 66.3691 30.4107 66.5095H30.0864V77.2386H33.2304V73.3346H35.162C35.4313 73.3178 35.701 73.361 35.9515 73.461C36.1329 73.5549 36.2697 73.7164 36.3321 73.9103L37.4177 77.2386H40.8014L39.3916 73.6716C39.2578 73.1575 38.9488 72.7057 38.5174 72.3937H38.3906C38.8145 72.236 39.189 71.9696 39.4762 71.6213C39.9483 71.0935 40.196 70.4036 40.167 69.6973ZM33.2022 68.8969H35.162C35.6755 68.8528 36.1923 68.9298 36.6705 69.1216L36.882 69.3603C36.9411 69.5222 36.9698 69.6936 36.9666 69.8659C36.9698 70.0381 36.9411 70.2095 36.882 70.3714C36.8115 70.5259 36.7269 70.6102 36.4449 70.7085C36.0254 70.8108 35.5935 70.8533 35.162 70.8348H33.2022V68.8969Z" fill="white"/>
<path d="M50.4592 69.0946C51.5871 69.0946 52.7996 69.0946 54.0402 69.0946H54.3645L54.6606 66.6792H54.3504C53.0385 66.4066 51.7004 66.2795 50.3605 66.3C48.7225 66.1248 47.077 66.5546 45.7361 67.5077C45.2065 68.0849 44.8067 68.7681 44.5635 69.5117C44.3204 70.2552 44.2395 71.0419 44.3262 71.819C44.1896 73.3002 44.5571 74.7841 45.3695 76.032C45.7878 76.52 46.3167 76.9019 46.9124 77.1461C47.5081 77.3903 48.1536 77.4898 48.7955 77.4364C50.0525 77.4448 51.2856 77.0939 52.3484 76.4252L52.4753 76.9589V77.2397H54.9848V70.7377H51.8831V74.2485C51.1581 74.4766 50.4017 74.5904 49.6414 74.5856C49.3031 74.5974 48.9651 74.5547 48.6404 74.4592C48.4679 74.4116 48.3097 74.3227 48.1794 74.2003C48.0492 74.078 47.951 73.9258 47.8932 73.757C47.6911 73.1511 47.605 72.5128 47.6394 71.8752C47.6394 70.5551 47.8368 69.8811 48.2034 69.5581C48.873 69.1338 49.6756 68.9689 50.4592 69.0946Z" fill="white"/>
<path d="M62.7955 69.1922C62.9626 69.114 63.1471 69.0802 63.3312 69.0939H68.7028L68.8579 66.6644H68.5195C66.729 66.4959 64.5437 66.4959 62.584 66.4959C61.8055 66.4601 61.037 66.6824 60.3987 67.1279C60.1189 67.3334 59.8924 67.6024 59.7379 67.9125C59.5834 68.2227 59.5054 68.5652 59.5105 68.9114V74.8236C59.5061 75.1682 59.5829 75.5091 59.7347 75.8189C59.8865 76.1286 60.1091 76.3986 60.3846 76.6071C61.029 77.0508 61.8013 77.2727 62.584 77.239C64.5437 77.239 66.729 77.239 68.5195 77.0846H68.8579V76.7475L68.7451 75.0062V74.6691H63.3312C63.1472 74.681 62.9631 74.6473 62.7955 74.5708C62.7955 74.5708 62.7955 74.5708 62.7109 74.3321V72.9278H68.012V70.4561H62.7109V69.4169C62.725 69.2625 62.7391 69.2344 62.7955 69.1922Z" fill="white"/>
<path d="M82.6606 73.5995C82.5232 73.0833 82.209 72.6313 81.7724 72.3215H81.6455C82.0522 72.1936 82.4204 71.9668 82.717 71.6615C83.1619 71.1324 83.3887 70.4548 83.3514 69.7657C83.407 69.2546 83.3207 68.7382 83.1019 68.2727C82.8831 67.8072 82.5403 67.4104 82.1108 67.1255C80.9581 66.5722 79.6782 66.3347 78.4028 66.4374C76.1329 66.4374 75.0755 66.4374 73.5528 66.5778H73.2427V77.2367H76.3867V73.3327H78.3182C78.5875 73.3159 78.8572 73.3591 79.1077 73.459C79.2855 73.5575 79.4209 73.7173 79.4884 73.9084L80.6163 77.2367H84L82.6606 73.6697V73.5995ZM76.4008 68.895H78.3605C78.8741 68.8509 79.3909 68.9279 79.8691 69.1197L80.0805 69.3584C80.1348 69.5212 80.1587 69.6926 80.151 69.864C80.1569 70.0353 80.1331 70.2063 80.0805 70.3695C80.0805 70.524 79.9114 70.6083 79.6435 70.7066C79.2192 70.8087 78.7826 70.8513 78.3464 70.8329H76.4008V68.895Z" fill="white"/>
<path d="M5.63965 61.4404H7.04952C7.04952 61.1033 7.04952 60.7803 7.04952 60.4573C7.14062 57.1881 7.72034 53.9507 8.76956 50.8517L7.35969 50.4023C6.30473 53.6303 5.72535 56.9935 5.63965 60.3871C5.63965 60.7523 5.63965 61.1033 5.63965 61.4404Z" fill="white"/>
<path d="M66.8421 83.7402L65.7565 82.8555C62.6345 86.5413 58.7423 89.5037 54.3517 91.5359C49.9611 93.568 45.178 94.6208 40.3366 94.6208C35.4952 94.6208 30.7121 93.568 26.3215 91.5359C21.9309 89.5037 18.0387 86.5413 14.9167 82.8555L13.8311 83.7683C17.0881 87.6088 21.1471 90.6953 25.725 92.8124C30.3029 94.9296 35.2894 96.0264 40.3366 96.0264C45.3838 96.0264 50.3703 94.9296 54.9482 92.8124C59.526 90.6953 63.5851 87.6088 66.8421 83.7683V83.7402Z" fill="white"/>
<path d="M63.8672 38.001C69.8786 43.975 73.3648 52.0155 73.6094 60.4703C73.6094 60.8073 73.6094 61.1303 73.6094 61.4673H75.0193C75.0193 61.1163 75.0193 60.7792 75.0193 60.4422C74.7628 51.6225 71.1253 43.2354 64.8541 37.0039L63.8672 38.001Z" fill="white"/>
</svg>
