<svg width="24" height="24" viewBox="0 0 24 24" fill="none" xmlns="http://www.w3.org/2000/svg">
<path d="M23.0549 16.8756C23.0375 16.8387 23.0118 16.7683 23.0362 16.7114C23.6757 15.2161 24 13.631 24 12C24 8.89534 22.8233 5.96206 20.6824 3.71922C20.6825 3.71492 20.6825 3.71062 20.6825 3.70626C20.6825 2.80593 19.95 2.07343 19.0497 2.07343C18.9615 2.07343 18.8713 2.08209 18.7774 2.09977C16.7746 0.725546 14.4351 0 12 0C8.90664 0 5.96885 1.17507 3.72793 3.30873C3.68568 3.34901 3.63426 3.36627 3.59036 3.35508C3.49273 3.33011 3.39235 3.31749 3.29158 3.31749C2.61989 3.31749 2.07343 3.86395 2.07343 4.53564C2.07343 4.69882 2.10604 4.85769 2.17032 5.00771C2.19157 5.05737 2.1714 5.1149 2.14543 5.15222C0.741875 7.16822 0 9.53614 0 12C0 13.573 0.299404 15.1007 0.890177 16.5432C0.850098 16.684 0.829637 16.8298 0.829374 16.9762C0.829374 17.6546 1.23945 18.2513 1.87407 18.4964C1.91181 18.5109 1.93208 18.5267 1.93845 18.5364C4.16537 21.9576 7.92669 24 12 24C13.2939 24 14.5684 23.7943 15.7882 23.3886C15.8465 23.3691 15.909 23.3946 15.9512 23.4193C16.1363 23.5279 16.347 23.5852 16.5616 23.5853C17.1812 23.5853 17.6942 23.1202 17.7701 22.5209C19.4513 21.5966 20.9004 20.27 21.9715 18.6724C22.0035 18.6247 22.0706 18.6029 22.1212 18.593C22.4498 18.5289 22.7292 18.2795 23.0268 17.7843C23.1512 17.5774 23.1912 17.3299 23.1364 17.1054C23.117 17.0263 23.0897 16.9492 23.0549 16.8756V16.8756ZM22.352 17.2081C22.3645 17.2343 22.3742 17.2618 22.381 17.2896C22.3873 17.3155 22.3792 17.3525 22.3604 17.3838C22.1204 17.7832 21.995 17.8255 21.9724 17.8299C21.6924 17.8845 21.4687 18.0261 21.3257 18.2394C20.2829 19.7948 18.8571 21.0756 17.2024 21.9432C17.1339 21.9791 17.0777 22.0346 17.0409 22.1027C17.0042 22.1707 16.9885 22.2481 16.996 22.3251C16.9973 22.3392 16.9992 22.3531 17.0011 22.3671L17.0022 22.3753C16.9978 22.6145 16.8019 22.8078 16.5616 22.8078C16.4854 22.808 16.4104 22.7876 16.3448 22.7488C16.0891 22.5986 15.8043 22.5638 15.5428 22.6508C14.4023 23.0302 13.2104 23.2225 12 23.2225C8.19069 23.2225 4.67295 21.3121 2.59013 18.1123C2.4918 17.9612 2.34106 17.8432 2.15425 17.771C1.82177 17.6426 1.60691 17.3306 1.60691 16.9762C1.60691 16.8752 1.62723 16.7715 1.6673 16.6682C1.7039 16.5739 1.70228 16.469 1.66279 16.3759C1.07539 14.99 0.777538 13.5178 0.777538 12C0.777538 9.69579 1.47121 7.48152 2.78353 5.59651C2.97144 5.3266 3.00938 4.9921 2.88503 4.70162C2.8625 4.64918 2.85091 4.5927 2.85097 4.53564C2.85097 4.29268 3.04862 4.09503 3.29158 4.09503C3.32738 4.09501 3.36304 4.09947 3.39774 4.1083C3.70279 4.18632 4.02661 4.09788 4.26407 3.87178C6.35979 1.87646 9.10714 0.777538 12 0.777538C14.3327 0.777538 16.5713 1.48935 18.4739 2.83599C18.5219 2.86996 18.5769 2.8926 18.6349 2.90221C18.6929 2.91182 18.7524 2.90814 18.8087 2.89146C18.9022 2.86383 18.9787 2.85097 19.0497 2.85097C19.5213 2.85097 19.905 3.23466 19.905 3.70626C19.905 3.72021 19.9013 3.74654 19.8978 3.77204C19.8959 3.78547 19.8941 3.79895 19.8924 3.81242C19.8851 3.87063 19.8911 3.92973 19.9099 3.9853C19.9287 4.04087 19.9598 4.09146 20.001 4.13329C22.0784 6.24591 23.2225 9.03971 23.2225 12C23.2225 13.5253 22.9193 15.0075 22.3213 16.4055C22.2145 16.6553 22.2253 16.9403 22.352 17.2081V17.2081Z" fill="white"/>
<path d="M9.37203 2.60276C9.29912 2.52986 9.20025 2.48891 9.09715 2.48891C8.99405 2.48891 8.89517 2.52986 8.82226 2.60276C8.74936 2.67566 8.70841 2.77454 8.70841 2.87764C8.70841 2.98074 8.74936 3.07962 8.82226 3.15253L20.7951 15.1254C20.871 15.2013 20.9705 15.2392 21.07 15.2392C21.1695 15.2392 21.269 15.2013 21.3449 15.1254C21.4178 15.0525 21.4587 14.9536 21.4587 14.8505C21.4587 14.7474 21.4178 14.6485 21.3449 14.5756L9.37203 2.60276ZM7.13941 3.68763C7.0665 3.61473 6.96763 3.57378 6.86452 3.57378C6.76142 3.57378 6.66255 3.61473 6.58964 3.68763C6.51674 3.76054 6.47579 3.85942 6.47579 3.96252C6.47579 4.06562 6.51674 4.16449 6.58964 4.2374L19.7634 17.4111C19.8392 17.487 19.9388 17.525 20.0382 17.525C20.1377 17.525 20.2372 17.4871 20.3131 17.4111C20.386 17.3382 20.427 17.2393 20.427 17.1362C20.427 17.0331 20.386 16.9343 20.3131 16.8613L7.13941 3.68763ZM5.32661 5.19227C5.2537 5.11937 5.15482 5.07842 5.05172 5.07842C4.94862 5.07842 4.84974 5.11937 4.77684 5.19227C4.70394 5.26518 4.66298 5.36405 4.66298 5.46715C4.66298 5.57025 4.70394 5.66913 4.77684 5.74204L18.2588 19.224C18.3347 19.2999 18.4342 19.3379 18.5337 19.3379C18.6331 19.3379 18.7327 19.2999 18.8085 19.224C18.8814 19.1511 18.9224 19.0522 18.9224 18.9491C18.9224 18.846 18.8814 18.7471 18.8085 18.6742L5.32661 5.19227V5.19227ZM3.92694 7.11014C3.85403 7.03724 3.75515 6.99629 3.65205 6.99629C3.54895 6.99629 3.45007 7.03724 3.37716 7.11014C3.30427 7.18305 3.26331 7.28193 3.26331 7.38503C3.26331 7.48813 3.30427 7.58701 3.37716 7.65991L16.3408 20.6235C16.4167 20.6994 16.5162 20.7374 16.6157 20.7374C16.7152 20.7374 16.8147 20.6995 16.8906 20.6235C16.9635 20.5506 17.0044 20.4518 17.0044 20.3487C17.0044 20.2456 16.9635 20.1467 16.8906 20.0738L3.92694 7.11014V7.11014ZM2.99928 9.49993C2.92637 9.42703 2.8275 9.38608 2.72439 9.38608C2.62129 9.38608 2.52242 9.42703 2.44951 9.49993C2.37661 9.57284 2.33566 9.67172 2.33566 9.77482C2.33566 9.87792 2.37661 9.97679 2.44951 10.0497L13.951 21.5512C14.0269 21.6271 14.1264 21.6651 14.2259 21.6651C14.3254 21.6651 14.4249 21.6271 14.5008 21.5512C14.5737 21.4783 14.6146 21.3794 14.6146 21.2763C14.6146 21.1732 14.5737 21.0743 14.5008 21.0014L2.99928 9.49993V9.49993ZM2.7769 12.5951C2.704 12.5222 2.60512 12.4813 2.50202 12.4813C2.39892 12.4813 2.30004 12.5222 2.22713 12.5951C2.15423 12.668 2.11328 12.7669 2.11328 12.87C2.11328 12.9731 2.15423 13.072 2.22713 13.1449L10.805 21.7227C10.8809 21.7986 10.9804 21.8366 11.0799 21.8366C11.1793 21.8366 11.2789 21.7986 11.3548 21.7227C11.4277 21.6498 11.4686 21.5509 11.4686 21.4478C11.4686 21.3447 11.4277 21.2458 11.3548 21.1729L2.7769 12.5951V12.5951ZM20.1987 7.89401C20.2746 7.96989 20.3741 8.00789 20.4736 8.00789C20.573 8.00789 20.6726 7.96994 20.7484 7.89401C20.8213 7.8211 20.8623 7.72222 20.8623 7.61912C20.8623 7.51602 20.8213 7.41714 20.7484 7.34423L16.6305 3.22629C16.5576 3.15339 16.4587 3.11244 16.3556 3.11244C16.2525 3.11244 16.1536 3.15339 16.0807 3.22629C16.0078 3.2992 15.9669 3.39808 15.9669 3.50118C15.9669 3.60428 16.0078 3.70316 16.0807 3.77606L20.1987 7.89401ZM12.2748 2.18807C12.2019 2.11517 12.1031 2.07422 12 2.07422C11.8969 2.07422 11.798 2.11517 11.7251 2.18807C11.6522 2.26098 11.6112 2.35986 11.6112 2.46296C11.6112 2.56606 11.6522 2.66493 11.7251 2.73784L21.2629 12.2756C21.3388 12.3515 21.4383 12.3895 21.5378 12.3895C21.6372 12.3895 21.7368 12.3516 21.8126 12.2756C21.8855 12.2027 21.9265 12.1039 21.9265 12.0008C21.9265 11.8977 21.8855 11.7988 21.8126 11.7259L12.2748 2.18807Z" fill="white"/>
</svg>
