<svg width="36" height="36" viewBox="0 0 36 36" fill="none" xmlns="http://www.w3.org/2000/svg">
<path d="M20.9022 35.7656C20.7523 35.7901 20.6017 35.8126 20.4507 35.8332C20.6017 35.8126 20.7523 35.7901 20.9022 35.7656Z" fill="#F5CA2D"/>
<path d="M21.2624 35.7031C21.1907 35.7163 21.119 35.7284 21.0474 35.7408C21.119 35.7284 21.1907 35.7163 21.2624 35.7031Z" fill="#F5CA2D"/>
<path d="M20.0488 35.8828C19.8733 35.9026 19.6967 35.9202 19.5195 35.935C19.6967 35.9202 19.8733 35.9026 20.0488 35.8828Z" fill="#F5CA2D"/>
<path d="M20.3944 35.8398C20.3101 35.8511 20.2252 35.8615 20.1406 35.8714C20.2252 35.8615 20.3101 35.8511 20.3944 35.8398Z" fill="#F5CA2D"/>
<path d="M21.7523 35.6055C21.6891 35.6189 21.6257 35.6324 21.5623 35.6453C21.6257 35.6324 21.6891 35.6189 21.7523 35.6055Z" fill="#F5CA2D"/>
<path d="M22.9687 35.3047C22.9176 35.3192 22.8665 35.333 22.8154 35.3473C22.8665 35.333 22.9176 35.3192 22.9687 35.3047Z" fill="#F5CA2D"/>
<path d="M22.6008 35.4062C22.5453 35.4208 22.4896 35.4356 22.4338 35.4496C22.4896 35.4356 22.5453 35.4211 22.6008 35.4062Z" fill="#F5CA2D"/>
<path d="M22.1196 35.5273C22.0608 35.5411 22.0015 35.554 21.9421 35.5672C22.0015 35.554 22.0608 35.5411 22.1196 35.5273Z" fill="#F5CA2D"/>
<path d="M19.5135 35.9375C19.4188 35.9455 19.324 35.9526 19.229 35.9589C19.324 35.9526 19.4188 35.9455 19.5135 35.9375Z" fill="#F5CA2D"/>
<path d="M36 18C36 8.06039 27.9396 0 18 0C8.06039 0 0 8.06039 0 18C0 27.9396 8.06039 36 18 36C18.1057 36 18.2109 35.9978 18.3164 35.9959V21.9836H14.4492V17.4768H18.3164V14.1603C18.3164 10.314 20.6645 8.22052 24.0955 8.22052C25.7385 8.22052 27.1508 8.34302 27.5625 8.39767V12.4176H25.1966C23.33 12.4176 22.9686 13.3047 22.9686 14.6063V17.4768H27.4318L26.85 21.9836H22.9686V35.3046C30.4923 33.1477 36 26.2161 36 18Z" fill="white"/>
<path d="M19.1891 35.9609C19.0018 35.973 18.8137 35.9826 18.625 35.989C18.8137 35.9826 19.0018 35.973 19.1891 35.9609Z" fill="#F5CA2D"/>
<path d="M18.6155 35.9883C18.5161 35.9916 18.4164 35.994 18.3167 35.9957C18.4164 35.994 18.5161 35.9916 18.6155 35.9883Z" fill="#F5CA2D"/>
</svg>
