<svg width="24" height="24" viewBox="0 0 24 24" fill="none" xmlns="http://www.w3.org/2000/svg">
<g clip-path="url(#clip0)">
<path d="M7.44718 24C5.84766 20.6717 6.69946 18.7646 7.92882 16.9678C9.27509 15 9.62204 13.0522 9.62204 13.0522C9.62204 13.0522 10.6803 14.428 10.257 16.5797C12.1266 14.4985 12.4795 11.1825 12.1972 9.91256C16.4233 12.8659 18.2295 19.2607 15.7954 24C28.7416 16.6751 19.0157 5.71473 17.3224 4.48011C17.8868 5.71469 17.9939 7.80471 16.8537 8.81902C14.9235 1.49999 10.1512 0 10.1512 0C10.7156 3.77447 8.10522 7.90183 5.58801 10.9859C5.49958 9.48079 5.40562 8.44223 4.61416 7.00196C4.4365 9.73607 2.34702 11.9648 1.78119 14.7042C1.01475 18.414 2.3553 21.1303 7.44718 24Z" fill="white"/>
</g>
<defs>
<clipPath id="clip0">
<rect width="24" height="24" fill="white"/>
</clipPath>
</defs>
</svg>
