<svg width="197" height="122" viewBox="0 0 197 122" fill="none" xmlns="http://www.w3.org/2000/svg">
<path d="M38.696 0L24.1214 15.6479L41.0121 40.2213H25.5902L15.7609 24.5734L12.1455 28.3583V40.2213H0V0H12.202L12.1455 8.13467C12.1455 8.73754 12.089 10.79 11.976 14.2921L23.4435 0H38.696Z" fill="white"/>
<path d="M43.6672 7.22437e-05H65.3031C66.9578 -0.00424958 68.6073 0.185351 70.2178 0.564993C71.8241 0.951576 73.3655 1.57005 74.7935 2.40094C76.2623 3.2483 77.4392 4.48167 78.3242 6.10106C79.2087 7.72075 79.6511 9.64144 79.6516 11.8631C79.6516 14.0477 79.115 16.0249 78.0417 17.7946C76.9684 19.5652 75.5279 20.8645 73.7202 21.6925C75.5279 22.1444 76.9025 23.3495 77.844 25.3079C78.794 27.2979 79.3868 29.4395 79.5952 31.6348L79.9906 35.8716C80.1787 38.0183 80.5177 39.4682 81.0075 40.2214H68.8055C68.4666 39.5064 68.2218 38.2448 68.0711 36.4365L67.9017 34.1769C67.7887 32.8211 67.6475 31.729 67.478 30.9004C67.2928 30.0301 66.9786 29.1923 66.5459 28.4148C66.1007 27.5927 65.3809 26.9529 64.5122 26.6072C63.6084 26.2311 62.4597 26.0428 61.0663 26.0422H55.8692V40.2214H43.6672V7.22437e-05ZM55.8692 9.32103V17.5686H62.648C65.9995 17.5686 67.6754 16.1752 67.6757 13.3884C67.6757 10.6768 65.7739 9.32104 61.9701 9.32103H55.8692Z" fill="white"/>
<path d="M108.801 0L123.601 40.2213H111.117L109.14 34.5158H96.2033L94.2261 40.2213H81.7417L96.5987 0H108.801ZM106.428 25.8727L104.281 18.9808C103.792 17.362 103.283 15.3284 102.756 12.8799C102.153 15.2904 101.588 17.3429 101.061 19.0373C100.497 20.883 99.7621 23.1614 98.8583 25.8727H106.428Z" fill="white"/>
<path d="M157.495 0V10.1118H138.683V16.2693H154.896V25.7597H138.683V40.2213H126.368V0H157.495Z" fill="white"/>
<path d="M194.947 0V10.3378H183.649V40.2213H171.334V10.3378H160.093V0H194.947Z" fill="white"/>
<path d="M41.8516 62.75V71.2437H10.3846V86.5323H39.5866V94.7024H10.3846V111.69H42.337V120.345H0.354004V62.75H41.8516Z" fill="#F5CA2D"/>
<path d="M77.6861 62.668L99.9314 120.344H89.0919L83.5912 105.055H60.7797L55.1172 120.344H44.6821L66.9275 62.668H77.6861ZM80.9218 97.4516L72.3472 73.184L63.3682 97.4516H80.9218Z" fill="#F5CA2D"/>
<path d="M146.686 62.75V71.4864H128.324V120.345H118.212V71.4864H99.8499V62.75H146.686Z" fill="#F5CA2D"/>
<path d="M194.735 79.737H185.109C184.515 72.9964 180.336 69.6259 172.571 69.6255C169.119 69.6255 166.423 70.3401 164.482 71.7692C162.54 73.1987 161.569 75.1536 161.569 77.6338C161.569 79.9531 162.284 81.544 163.713 82.4065C165.141 83.2697 168.31 84.3213 173.218 85.5613C174.512 85.9392 175.51 86.2088 176.211 86.3702C182.628 87.988 186.996 89.4441 189.315 90.7383C194.438 93.4887 197 97.7759 197 103.6C197 106.136 196.569 108.428 195.706 110.476C194.843 112.526 193.683 114.238 192.228 115.613C190.772 116.988 189.046 118.134 187.05 119.051C185.064 119.965 182.972 120.631 180.822 121.032C178.607 121.442 176.36 121.645 174.108 121.639C166.881 121.639 161.029 119.913 156.554 116.462C152.077 113.012 149.839 107.942 149.84 101.254H159.79C159.79 105.461 161.165 108.575 163.915 110.597C166.666 112.62 170.252 113.631 174.674 113.631C178.557 113.631 181.59 112.835 183.774 111.244C185.958 109.654 187.05 107.43 187.05 104.571C187.05 102.738 186.471 101.242 185.311 100.081C184.151 98.9223 182.897 98.0999 181.55 97.6142C180.201 97.1288 177.855 96.4547 174.512 95.5918C174.134 95.4844 173.838 95.4035 173.622 95.3492C166.45 93.5165 161.731 92.0065 159.466 90.8193C154.775 88.3924 152.267 84.6444 151.943 79.5752V78.4427C151.943 73.32 153.871 69.235 157.727 66.1876C161.582 63.1415 166.746 61.6181 173.218 61.6172C179.473 61.6172 184.569 63.1002 188.506 66.0663C192.442 69.0327 194.519 73.5896 194.735 79.737Z" fill="#F5CA2D"/>
</svg>
