<svg width="36" height="36" viewBox="0 0 36 36" fill="none" xmlns="http://www.w3.org/2000/svg">
<circle cx="18" cy="18" r="18" fill="white"/>
<path d="M14.25 8H21.75C25.2012 8 28 10.7988 28 14.25V21.75C28 25.2012 25.2012 28 21.75 28H14.25C10.7988 28 8 25.2012 8 21.75V14.25C8 10.7988 10.7988 8 14.25 8ZM9.875 21.75C9.875 24.1625 11.8375 26.125 14.25 26.125H21.75C24.1625 26.125 26.125 24.1625 26.125 21.75V14.25C26.125 11.8375 24.1625 9.875 21.75 9.875H14.25C11.8375 9.875 9.875 11.8375 9.875 14.25V21.75Z" fill="black"/>
<path d="M18 13C20.7613 13 23 15.2387 23 18C23 20.7613 20.7613 23 18 23C15.2387 23 13 20.7613 13 18C13 15.2387 15.2387 13 18 13ZM18 21.125C19.7225 21.125 21.125 19.7225 21.125 18C21.125 16.2763 19.7225 14.875 18 14.875C16.2775 14.875 14.875 16.2763 14.875 18C14.875 19.7225 16.2775 21.125 18 21.125Z" fill="black"/>
<path d="M12.625 13.2895C12.2571 13.2895 11.9588 12.9912 11.9588 12.6233C11.9588 12.2553 12.2571 11.957 12.625 11.957C12.993 11.957 13.2913 12.2553 13.2913 12.6233C13.2913 12.9912 12.993 13.2895 12.625 13.2895Z" fill="black"/>
</svg>
