<svg width="110" height="68" viewBox="0 0 110 68" fill="none" xmlns="http://www.w3.org/2000/svg">
<path d="M21.6069 0.000854492L13.4688 8.73825L22.9002 22.4594H14.289L8.80048 13.722L6.78174 15.8354V22.4594H0V0.000854492H6.81328L6.78174 4.54306C6.78174 4.87968 6.75019 6.02574 6.68711 7.98124L13.0903 0.000854492H21.6069Z" fill="white"/>
<path d="M24.3827 4.03391e-05H36.4636C37.3876 -0.00237286 38.3086 0.103495 39.2079 0.315478C40.1048 0.531337 40.9655 0.876677 41.7629 1.34062C42.583 1.81377 43.2401 2.50245 43.7343 3.40668C44.2282 4.31108 44.4752 5.38354 44.4755 6.62407C44.4755 7.84391 44.1759 8.94791 43.5766 9.93609C42.9772 10.9248 42.1729 11.6502 41.1635 12.1125C42.1729 12.3649 42.9405 13.0378 43.4662 14.1313C43.9966 15.2425 44.3276 16.4383 44.444 17.6641L44.6648 20.0298C44.7698 21.2285 44.9591 22.0381 45.2326 22.4586H38.4193C38.23 22.0594 38.0934 21.3549 38.0092 20.3453L37.9146 19.0835C37.8515 18.3265 37.7727 17.7167 37.6781 17.254C37.5746 16.7681 37.3992 16.3003 37.1576 15.8662C36.909 15.4071 36.5071 15.0498 36.022 14.8568C35.5173 14.6468 34.876 14.5417 34.0979 14.5413H31.196V22.4586H24.3827V4.03391e-05ZM31.196 5.20464V9.8099H34.9811C36.8525 9.8099 37.7883 9.03184 37.7884 7.47574C37.7884 5.96168 36.7265 5.20464 34.6026 5.20464H31.196Z" fill="white"/>
<path d="M60.7516 3.8147e-05L69.0158 22.4586H62.0449L60.9409 19.2728H53.7175L52.6135 22.4586H45.6426L53.9383 3.8147e-05H60.7516ZM59.4268 14.4467L58.2281 10.5985C57.9547 9.69456 57.6708 8.55902 57.3765 7.19184C57.0399 8.53784 56.7245 9.6839 56.4302 10.63C56.1148 11.6606 55.7047 12.9328 55.2 14.4467H59.4268Z" fill="white"/>
<path d="M87.9411 3.8147e-05V5.64624H77.4374V9.08442H86.4902V14.3836H77.4374V22.4586H70.561V3.8147e-05H87.9411Z" fill="white"/>
<path d="M108.854 3.8147e-05V5.7724H102.545V22.4586H95.6688V5.7724H89.3918V3.8147e-05H108.854Z" fill="white"/>
<path d="M23.3689 35.0372V39.7798H5.79849V48.3166H22.1042V52.8786H5.79849V62.3639H23.6399V67.1969H0.197639V35.0372H23.3689Z" fill="#F5CA2D"/>
<path d="M43.3779 34.992L55.7992 67.1969H49.7466L46.6752 58.6601H33.9378L30.776 67.1969H24.9493L37.3706 34.992H43.3779ZM45.1846 54.4143L40.3968 40.8639L35.3832 54.4143H45.1846Z" fill="#F5CA2D"/>
<path d="M81.906 35.0372V39.9153H71.6528V67.1969H66.0068V39.9153H55.7537V35.0372H81.906Z" fill="#F5CA2D"/>
<path d="M108.735 44.5225H103.36C103.029 40.7587 100.695 38.8767 96.3592 38.8765C94.4318 38.8765 92.9262 39.2755 91.8424 40.0734C90.7584 40.8716 90.2163 41.9632 90.2164 43.3481C90.2164 44.6432 90.6153 45.5315 91.4133 46.013C92.2108 46.4951 93.9799 47.0823 96.7206 47.7746C97.4433 47.9856 98.0003 48.1362 98.3918 48.2263C101.975 49.1297 104.414 49.9427 105.709 50.6654C108.569 52.2011 110 54.595 110 57.8471C110 59.2629 109.759 60.5426 109.277 61.6864C108.795 62.8311 108.148 63.7872 107.335 64.5546C106.522 65.3224 105.558 65.9623 104.444 66.4742C103.335 66.9847 102.167 67.3564 100.966 67.5809C99.7299 67.8096 98.4749 67.923 97.2175 67.9196C93.1819 67.9196 89.9148 66.956 87.4159 65.0289C84.9162 63.1021 83.6665 60.2716 83.667 56.5372H89.2227C89.2227 58.886 89.9905 60.6249 91.5263 61.7541C93.062 62.8833 95.0644 63.448 97.5336 63.448C99.7017 63.448 101.395 63.0038 102.615 62.1155C103.835 61.2276 104.444 59.9855 104.444 58.3891C104.444 57.3658 104.121 56.5302 103.473 55.8823C102.825 55.2351 102.125 54.7759 101.373 54.5047C100.62 54.2337 99.31 53.8572 97.4433 53.3754C97.2323 53.3154 97.0667 53.2703 96.9464 53.24C92.9413 52.2166 90.3065 51.3735 89.042 50.7106C86.4223 49.3555 85.022 47.2627 84.8414 44.4321V43.7998C84.8414 40.9394 85.9179 38.6584 88.0709 36.9568C90.2234 35.256 93.1066 34.4053 96.7206 34.4048C100.213 34.4048 103.059 35.2329 105.257 36.8891C107.455 38.5455 108.614 41.0899 108.735 44.5225Z" fill="#F5CA2D"/>
</svg>
