<svg width="56" height="35" viewBox="0 0 56 35" fill="none" xmlns="http://www.w3.org/2000/svg">
<path d="M10.9999 0L6.85685 4.44812L11.6582 11.4334H7.27436L4.48024 6.98532L3.45252 8.06123V11.4334H0V0H3.46857L3.45252 2.31239C3.45252 2.48376 3.43646 3.06721 3.40434 4.06273L6.66415 0H10.9999Z" fill="white"/>
<path d="M12.4126 2.05362e-05H18.5629C19.0332 -0.001208 19.5021 0.0526884 19.96 0.160607C20.4166 0.270498 20.8547 0.446308 21.2607 0.682499C21.6782 0.923372 22.0127 1.27398 22.2643 1.73431C22.5157 2.19473 22.6415 2.74071 22.6417 3.37225C22.6417 3.99326 22.4891 4.55529 22.184 5.05836C21.8789 5.56168 21.4694 5.93102 20.9556 6.16637C21.4694 6.29485 21.8602 6.63742 22.1278 7.1941C22.3979 7.7598 22.5664 8.36857 22.6256 8.99262L22.738 10.197C22.7915 10.8072 22.8878 11.2194 23.0271 11.4335H19.5585C19.4621 11.2302 19.3926 10.8716 19.3497 10.3576L19.3016 9.71523C19.2694 9.32984 19.2293 9.01939 19.1811 8.78386C19.1285 8.53646 19.0392 8.29832 18.9162 8.0773C18.7896 7.84359 18.585 7.66173 18.3381 7.56344C18.0811 7.45655 17.7546 7.40302 17.3585 7.40286H15.8812V11.4335H12.4126V2.05362e-05ZM15.8812 2.64963V4.99412H17.8081C18.7609 4.99412 19.2372 4.59802 19.2373 3.80582C19.2373 3.03503 18.6967 2.64963 17.6154 2.64963H15.8812Z" fill="white"/>
<path d="M30.9282 0L35.1354 11.4334H31.5866L31.0245 9.81157H27.3472L26.7852 11.4334H23.2363L27.4596 0H30.9282ZM30.2538 7.35466L29.6435 5.39556C29.5043 4.93539 29.3598 4.35729 29.21 3.66128C29.0386 4.34651 28.878 4.92996 28.7282 5.41162C28.5676 5.93627 28.3589 6.58395 28.1019 7.35466H30.2538Z" fill="white"/>
<path d="M44.7704 0V2.87442H39.423V4.62477H44.0317V7.32255H39.423V11.4334H35.9224V0H44.7704Z" fill="white"/>
<path d="M55.4162 0V2.93865H52.2046V11.4334H48.7039V2.93865H45.5083V0H55.4162Z" fill="white"/>
<path d="M11.8968 17.8359V20.2504H2.95192V24.5964H11.253V26.9188H2.95192V31.7477H12.0348V34.2082H0.100586V17.8359H11.8968Z" fill="#F5CA2D"/>
<path d="M22.083 17.8164L28.4065 34.2116H25.3252L23.7616 29.8656H17.2771L15.6675 34.2116H12.7012L19.0247 17.8164H22.083ZM23.0028 27.7041L20.5653 20.8057L18.0129 27.7041H23.0028Z" fill="#F5CA2D"/>
<path d="M41.6972 17.8359V20.3194H36.4774V34.2082H33.6031V20.3194H28.3833V17.8359H41.6972Z" fill="#F5CA2D"/>
<path d="M55.3563 22.6664H52.6199C52.451 20.7503 51.263 19.7922 49.0557 19.7921C48.0745 19.7921 47.308 19.9952 46.7563 20.4015C46.2044 20.8078 45.9285 21.3635 45.9285 22.0686C45.9285 22.7279 46.1316 23.1801 46.5378 23.4253C46.9438 23.6707 47.8445 23.9696 49.2397 24.3221C49.6076 24.4295 49.8912 24.5061 50.0905 24.552C51.9146 25.0119 53.1563 25.4258 53.8156 25.7937C55.2719 26.5755 56 27.7942 56.0001 29.4499C56.0001 30.1706 55.8775 30.8221 55.6322 31.4044C55.3868 31.9872 55.0572 32.4739 54.6435 32.8646C54.2296 33.2555 53.739 33.5812 53.1718 33.8418C52.607 34.1017 52.0123 34.291 51.4012 34.4052C50.7717 34.5217 50.1328 34.5794 49.4927 34.5777C47.4382 34.5777 45.7749 34.0871 44.5028 33.106C43.2302 32.1252 42.594 30.6842 42.5942 28.783H45.4226C45.4226 29.9787 45.8135 30.864 46.5953 31.4389C47.3771 32.0138 48.3966 32.3012 49.6536 32.3012C50.7573 32.3012 51.6196 32.0751 52.2405 31.6228C52.8614 31.1709 53.1718 30.5385 53.1718 29.7258C53.1718 29.2048 53.007 28.7794 52.6774 28.4496C52.3476 28.1201 51.9911 27.8863 51.6081 27.7483C51.2248 27.6103 50.5579 27.4187 49.6076 27.1734C49.5002 27.1428 49.4159 27.1198 49.3547 27.1044C47.3157 26.5834 45.9743 26.1542 45.3306 25.8167C43.9969 25.1269 43.2841 24.0614 43.1921 22.6204V22.2985C43.1921 20.8423 43.7401 19.6811 44.8362 18.8148C45.9321 17.9489 47.3999 17.5159 49.2397 17.5156C51.0178 17.5156 52.4665 17.9372 53.5857 18.7803C54.7045 19.6236 55.2947 20.919 55.3563 22.6664Z" fill="#F5CA2D"/>
</svg>
