<svg width="92" height="57" viewBox="0 0 92 57" fill="none" xmlns="http://www.w3.org/2000/svg">
<path d="M18.0712 0L11.2648 7.30764L19.1528 18.7835H11.9507L7.3604 11.4759L5.67199 13.2435V18.7835H0V0H5.69837L5.67199 3.79893C5.67199 4.08047 5.64561 5.03899 5.59285 6.6745L10.9482 0H18.0712Z" fill="white"/>
<path d="M20.3926 3.37381e-05H30.4966C31.2694 -0.00198457 32.0397 0.0865596 32.7918 0.263854C33.542 0.44439 34.2618 0.733221 34.9287 1.12125C35.6146 1.51697 36.1642 2.09296 36.5775 2.84922C36.9906 3.60563 37.1972 4.5026 37.1975 5.54013C37.1975 6.56035 36.9469 7.4837 36.4456 8.31017C35.9444 9.13706 35.2716 9.74383 34.4275 10.1305C35.2717 10.3415 35.9136 10.9043 36.3533 11.8189C36.797 12.7482 37.0738 13.7484 37.1711 14.7736L37.3557 16.7522C37.4436 17.7547 37.6019 18.4318 37.8307 18.7836H32.1323C31.974 18.4497 31.8597 17.8605 31.7893 17.016L31.7102 15.9608C31.6574 15.3276 31.5915 14.8176 31.5123 14.4306C31.4258 14.0242 31.2791 13.633 31.077 13.2699C30.8691 12.8859 30.533 12.5871 30.1273 12.4257C29.7052 12.25 29.1688 12.1621 28.518 12.1618H26.0909V18.7836H20.3926V3.37381e-05ZM26.0909 4.35296V8.20463H29.2567C30.8219 8.20463 31.6045 7.5539 31.6046 6.25243C31.6046 4.98613 30.7165 4.35297 28.9401 4.35296H26.0909Z" fill="white"/>
<path d="M50.8105 0L57.7224 18.7835H51.8921L50.9688 16.119H44.9274L44.0041 18.7835H38.1738L45.1121 0H50.8105ZM49.7025 12.0827L48.7 8.86414C48.4712 8.10814 48.2338 7.15842 47.9877 6.01496C47.7062 7.1407 47.4423 8.09922 47.1963 8.89052C46.9324 9.75245 46.5894 10.8165 46.1673 12.0827H49.7025Z" fill="white"/>
<path d="M73.5507 0V4.72227H64.7658V7.59784H72.3372V12.0299H64.7658V18.7835H59.0146V0H73.5507Z" fill="white"/>
<path d="M91.041 0V4.82779H85.7647V18.7835H80.0135V4.82779H74.7637V0H91.041Z" fill="white"/>
<path d="M19.5451 29.3086V33.2752H4.84987V40.415H18.4873V44.2305H4.84987V52.1637H19.7718V56.2058H0.165527V29.3086H19.5451Z" fill="#F5CA2D"/>
<path d="M36.2797 29.2695L46.6684 56.2045H41.6063L39.0374 49.0647H28.3843L25.7399 56.2045H20.8667L31.2554 29.2695H36.2797ZM37.7908 45.5136L33.7864 34.1806L29.5932 45.5136H37.7908Z" fill="#F5CA2D"/>
<path d="M68.5032 29.3086V33.3885H59.9278V56.2058H55.2057V33.3885H46.6304V29.3086H68.5032Z" fill="#F5CA2D"/>
<path d="M90.9423 37.2394H86.4468C86.1694 34.0915 84.2176 32.5175 80.5914 32.5173C78.9794 32.5173 77.7202 32.851 76.8137 33.5184C75.907 34.186 75.4537 35.0989 75.4537 36.2572C75.4537 37.3403 75.7874 38.0833 76.4548 38.486C77.1218 38.8892 78.6014 39.3803 80.8936 39.9593C81.498 40.1358 81.964 40.2618 82.2914 40.3371C85.2881 41.0927 87.3281 41.7726 88.4112 42.3771C90.8036 43.6615 91.9999 45.6636 92 48.3836C92 49.5677 91.7986 50.638 91.3956 51.5946C90.9925 52.552 90.451 53.3516 89.7712 53.9935C89.0912 54.6357 88.2853 55.1708 87.3535 55.599C86.4256 56.026 85.4486 56.3368 84.4446 56.5246C83.4105 56.7158 82.3609 56.8107 81.3092 56.8079C77.934 56.8079 75.2015 56.002 73.1116 54.3902C71.0209 52.7787 69.9757 50.4114 69.9761 47.2881H74.6226C74.6226 49.2525 75.2648 50.7069 76.5493 51.6513C77.8337 52.5957 79.5085 53.0679 81.5736 53.0679C83.3869 53.0679 84.8035 52.6965 85.8235 51.9535C86.8435 51.211 87.3535 50.1721 87.3535 48.8369C87.3535 47.981 87.0827 47.2822 86.5413 46.7403C85.9994 46.199 85.4139 45.8149 84.7846 45.5881C84.1548 45.3614 83.0593 45.0466 81.4981 44.6437C81.3216 44.5935 81.1831 44.5557 81.0825 44.5304C77.7328 43.6745 75.5291 42.9693 74.4715 42.4149C72.2805 41.2815 71.1094 39.5312 70.9583 37.1638V36.635C70.9583 34.2426 71.8586 32.3349 73.6593 30.9117C75.4596 29.4892 77.8711 28.7778 80.8936 28.7773C83.8148 28.7773 86.1948 29.4699 88.0335 30.8551C89.8715 32.2404 90.8411 34.3685 90.9423 37.2394Z" fill="#F5CA2D"/>
</svg>
