<svg width="24" height="24" viewBox="0 0 24 24" fill="none" xmlns="http://www.w3.org/2000/svg">
<g clip-path="url(#clip0)">
<path d="M7.44816 24C5.84864 20.6717 6.70044 18.7646 7.9298 16.9678C9.27606 15 9.62301 13.0522 9.62301 13.0522C9.62301 13.0522 10.6813 14.428 10.258 16.5797C12.1276 14.4985 12.4805 11.1825 12.1981 9.91256C16.4243 12.8659 18.2304 19.2607 15.7963 24C28.7426 16.6751 19.0166 5.71473 17.3234 4.48011C17.8878 5.71469 17.9949 7.80471 16.8547 8.81902C14.9245 1.49999 10.1522 0 10.1522 0C10.7166 3.77447 8.1062 7.90183 5.58898 10.9859C5.50056 9.48079 5.4066 8.44223 4.61514 7.00196C4.43748 9.73607 2.34799 11.9648 1.78216 14.7042C1.01572 18.414 2.35627 21.1303 7.44816 24Z" fill="black"/>
</g>
<defs>
<clipPath id="clip0">
<rect width="24" height="24" fill="white"/>
</clipPath>
</defs>
</svg>
