<svg width="20" height="20" viewBox="0 0 20 20" fill="none" xmlns="http://www.w3.org/2000/svg">
<g clip-path="url(#clip0)">
<path d="M8.3859 15.7383C7.41602 15.7383 6.62695 16.5273 6.62695 17.4972C6.62695 18.4671 7.41602 19.2562 8.3859 19.2562C9.35578 19.2562 10.1448 18.4671 10.1448 17.4972C10.1448 16.5273 9.35574 15.7383 8.3859 15.7383ZM8.3859 18.274C7.95754 18.274 7.60906 17.9255 7.60906 17.4971C7.60906 17.0688 7.95758 16.7203 8.3859 16.7203C8.81422 16.7203 9.16273 17.0688 9.16273 17.4971C9.16273 17.9255 8.81422 18.274 8.3859 18.274Z" fill="black"/>
<path d="M14.5558 15.7383C13.5859 15.7383 12.7969 16.5273 12.7969 17.4972C12.7969 18.4671 13.5859 19.2562 14.5558 19.2562C15.5257 19.2562 16.3148 18.4671 16.3148 17.4972C16.3147 16.5273 15.5257 15.7383 14.5558 15.7383ZM14.5558 18.274C14.1275 18.274 13.779 17.9255 13.779 17.4971C13.779 17.0688 14.1275 16.7203 14.5558 16.7203C14.9842 16.7203 15.3327 17.0688 15.3327 17.4971C15.3327 17.9255 14.9841 18.274 14.5558 18.274Z" fill="black"/>
<path d="M14.9891 6.47656H7.95199C7.68078 6.47656 7.46094 6.69641 7.46094 6.96762C7.46094 7.23883 7.68082 7.45867 7.95199 7.45867H14.9891C15.2603 7.45867 15.4801 7.23883 15.4801 6.96762C15.4801 6.69637 15.2603 6.47656 14.9891 6.47656Z" fill="black"/>
<path d="M14.6039 9.02344H8.33285C8.06164 9.02344 7.8418 9.24328 7.8418 9.51449C7.8418 9.7857 8.06164 10.0055 8.33285 10.0055H14.6038C14.875 10.0055 15.0949 9.7857 15.0949 9.51449C15.0949 9.24332 14.875 9.02344 14.6039 9.02344Z" fill="black"/>
<path d="M19.779 4.28633C19.5917 4.05649 19.3142 3.92469 19.0177 3.92469H3.72181L3.41291 2.42512C3.34842 2.11231 3.13506 1.84965 2.84205 1.72242L0.686697 0.786876C0.437869 0.67879 0.148689 0.79297 0.0407598 1.04172C-0.0672871 1.29055 0.0468926 1.57977 0.295603 1.6877L2.45099 2.62328L4.82701 14.1569C4.9206 14.6111 5.32513 14.9408 5.78892 14.9408H17.5532C17.8244 14.9408 18.0443 14.721 18.0443 14.4498C18.0443 14.1786 17.8244 13.9587 17.5532 13.9587H5.78896L5.49994 12.5557H17.6442C18.1079 12.5557 18.5125 12.2261 18.606 11.7718L19.9796 5.10484C20.0394 4.81453 19.9663 4.51613 19.779 4.28633ZM17.6442 11.5737H5.29763L3.92416 4.90676L19.0176 4.9068L17.6442 11.5737Z" fill="black"/>
</g>
<defs>
<clipPath id="clip0">
<rect width="20" height="20" fill="white"/>
</clipPath>
</defs>
</svg>
