<svg width="99" height="65" viewBox="0 0 99 65" fill="none" xmlns="http://www.w3.org/2000/svg">
<path d="M96.4514 0H2.54862C1.13934 0 0 1.14109 0 2.54862V61.6103C0 63.0179 1.13934 64.159 2.54862 64.159H96.4514C97.8607 64.159 99 63.0179 99 61.6103V2.54862C99 1.14109 97.8607 0 96.4514 0ZM7.66514 19.3881H18.2312C19.6563 19.4424 20.8044 19.8964 21.2005 21.4196L23.4985 32.4712C21.2408 26.6904 15.8 21.8806 7.5775 19.8894L7.66514 19.3881ZM20.4503 44.5938L14.3469 23.7421C18.7343 26.5502 22.4713 31.0059 23.7877 34.1066L24.4993 36.6815L31.1741 19.6282H38.3958L27.6632 44.5886L20.4503 44.5938ZM43.7034 44.6114H36.8884L41.1495 19.6019H47.968L43.7034 44.6114ZM55.563 44.9865C52.5079 44.9549 49.5649 44.3502 47.9698 43.6508L48.9286 38.054L49.8067 38.4519C52.0451 39.3862 53.4947 39.7648 56.2239 39.7648C58.1818 39.7648 60.2799 38.9988 60.2992 37.3231C60.3115 36.2276 59.421 35.4458 56.7672 34.2188C54.1801 33.0234 50.755 31.0181 50.7971 27.4266C50.8339 22.566 55.5806 19.1742 62.3167 19.1742C64.9565 19.1742 67.0722 19.7176 68.4218 20.2242L67.5016 25.6457L66.8864 25.3565C65.6313 24.8517 64.017 24.3644 61.7856 24.3994C59.1178 24.3994 57.8803 25.5107 57.8803 26.5502C57.8663 27.7211 59.3246 28.4923 61.7085 29.6527C65.6401 31.4371 67.4578 33.6018 67.4332 36.4467C67.3807 41.635 62.7304 44.9865 55.563 44.9865ZM85.0983 44.6219C85.0983 44.6219 84.476 41.7472 84.2692 40.8743C83.2771 40.8743 76.3219 40.8638 75.5401 40.8638C75.2754 41.5386 74.108 44.6219 74.108 44.6219H66.9512L77.0703 21.7036C77.789 20.0752 79.0072 19.6282 80.6408 19.6282H85.9063L91.4225 44.6201L85.0983 44.6219Z" fill="white"/>
<path d="M81.5803 28.531L81.1211 26.375C80.774 27.3163 80.1763 28.829 80.2149 28.7624C80.2149 28.7624 78.0607 34.3136 77.4998 35.7527H83.1597C82.8862 34.4994 81.5803 28.531 81.5803 28.531Z" fill="white"/>
</svg>
