<svg width="18" height="37" viewBox="0 0 18 37" fill="none" xmlns="http://www.w3.org/2000/svg">
<path d="M3.72093 4.28448C4.04894 3.39358 4.64232 2.62474 5.421 2.08165C6.19969 1.53857 7.1262 1.24738 8.07556 1.24738C9.02492 1.24738 9.95146 1.53857 10.7301 2.08165C11.5088 2.62474 12.1022 3.39358 12.4302 4.28448H12.5255C13.5733 1.63087 9.49082 -0.859439 8.07556 0.324478C6.71474 -0.859439 2.63228 1.68531 3.62568 4.28448H3.72093Z" fill="#00FFFF"/>
<path d="M3.81926 6.17615C4.03722 7.05837 4.53334 7.84698 5.23426 8.42536C5.93517 9.00374 6.80366 9.34115 7.71121 9.38767C7.49665 10.0791 7.05565 10.6783 6.45924 11.0887L8.07862 13.1163L9.698 11.0887C9.10159 10.6752 8.65708 10.0777 8.43245 9.38767C9.34238 9.344 10.2139 9.00787 10.9176 8.42927C11.6212 7.85067 12.1194 7.0605 12.338 6.17615C12.527 6.15884 12.7017 6.0677 12.8239 5.92249C12.9462 5.77728 13.0063 5.58971 12.9912 5.40047C13.0063 5.20763 12.9448 5.01662 12.8199 4.86886C12.6951 4.7211 12.5171 4.62849 12.3244 4.61117C12.0565 3.69251 11.4978 2.88554 10.7322 2.31138C9.96667 1.73721 9.03555 1.42685 8.07862 1.42685C7.12169 1.42685 6.19057 1.73721 5.42502 2.31138C4.65947 2.88554 4.1008 3.69251 3.83286 4.61117C3.64021 4.62849 3.46215 4.7211 3.33731 4.86886C3.21248 5.01662 3.15094 5.20763 3.16605 5.40047C3.15093 5.58971 3.21105 5.77728 3.33333 5.92249C3.45561 6.0677 3.63021 6.15884 3.81926 6.17615Z" fill="#00FFFF"/>
<path d="M2.52336 17.1316L1.16253 16.111C1.10463 16.1971 1.05454 16.2882 1.01284 16.3832C-0.606536 19.5947 0.659029 24.5481 1.01284 24.5481C1.36666 24.5481 1.17616 21.01 1.92461 18.6149C2.0763 18.1025 2.27679 17.6058 2.52336 17.1316Z" fill="#00FFFF"/>
<path d="M4.00796 15.5161V23.5994H12.1729V15.5161L13.3432 17.1491L15.1259 15.7883C14.6623 14.8474 14.0252 14.0024 13.2479 13.298C12.2581 12.3954 11.1153 11.6765 9.8731 11.1751L8.10402 13.4069L6.33495 11.1751C5.09276 11.6765 3.94993 12.3954 2.96012 13.298C2.18133 14.0043 1.54002 14.8486 1.06857 15.7883L2.86485 17.1491L4.00796 15.5161Z" fill="#00FFFF"/>
<path d="M17.1406 25.6912C17.1268 25.5672 17.065 25.4535 16.9683 25.3746C16.8715 25.2957 16.7477 25.2579 16.6235 25.2694H16.12C16.0901 25.0457 15.9796 24.8407 15.8092 24.6929C15.6388 24.545 15.4202 24.4645 15.1946 24.4665C16.1896 21.8594 16.1653 18.9731 15.1266 16.3832C15.0849 16.2882 15.0348 16.1971 14.9769 16.111L13.6161 17.1316C13.8759 17.5933 14.0858 18.0815 14.242 18.5877C14.936 20.8195 14.8272 24.031 15.0993 24.4665C14.8722 24.4641 14.6519 24.5441 14.4792 24.6918C14.3066 24.8394 14.1933 25.0446 14.1604 25.2694H13.6569C13.5326 25.2579 13.4088 25.2957 13.3121 25.3746C13.2154 25.4535 13.1535 25.5672 13.1398 25.6912V26.0178C13.1321 26.0674 13.1321 26.1179 13.1398 26.1675V28.4945H17.2222V26.1675C17.2299 26.1179 17.2299 26.0674 17.2222 26.0178L17.1406 25.6912ZM14.4189 25.2694C14.4631 25.1084 14.559 24.9664 14.6918 24.8652C14.8245 24.764 14.9868 24.7092 15.1538 24.7092C15.3207 24.7092 15.483 24.764 15.6158 24.8652C15.7486 24.9664 15.8444 25.1084 15.8886 25.2694H14.4189Z" fill="#00FFFF"/>
<path d="M14.8827 35.0253C14.6513 34.862 12.2691 35.4473 11.5885 34.3175H9.41061V36.0735H10.7718V35.6107C11.3568 35.9748 12.0468 36.1329 12.7319 36.0599C13.1503 36.0961 13.5706 36.0192 13.949 35.8372C14.3274 35.6552 14.6499 35.3748 14.8827 35.0253Z" fill="#00FFFF"/>
<path d="M1.27274 35.0253C1.50671 35.3802 1.83338 35.6642 2.21731 35.8466C2.60125 36.029 3.0278 36.1027 3.45068 36.0599C4.13612 36.1372 4.82746 35.9788 5.41083 35.6107V36.0735H6.77204V34.3175H4.59409C3.88626 35.4473 1.50414 34.862 1.27274 35.0253Z" fill="#00FFFF"/>
<path d="M6.74504 34.1283H7.0036L7.43906 25.0925C7.86236 25.1651 8.29493 25.1651 8.71823 25.0925L9.15371 34.1283H11.7665L12.1475 23.8133H3.98257L4.3636 34.1283H6.71782H6.74504Z" fill="#00FFFF"/>
</svg>
