<svg width="16" height="29" viewBox="0 0 16 29" fill="none" xmlns="http://www.w3.org/2000/svg">
<path d="M8.44069 12.1612C7.4837 12.1784 6.53351 11.9968 5.64978 11.6277C4.76606 11.2586 3.96789 10.71 3.30541 10.0164C2.84323 11.4497 1.36427 16.4819 1.93942 20.9881C2.62755 26.2987 5.90386 28.4126 8.5742 28.392C11.2445 28.3714 14.4798 26.1956 15.0755 20.8644C15.5787 16.3478 13.9971 11.326 13.5143 9.91327L13.2884 10.1607C11.9992 11.4445 10.2564 12.1637 8.44069 12.1612Z" fill="#FFCCFF"/>
<path d="M14.5018 4.39867C14.227 3.54183 13.7642 2.75788 13.1473 2.10466C12.5305 1.45144 11.7754 0.945618 10.9379 0.624544C11.0196 0.967096 11.0054 1.3257 10.8966 1.6606C10.7878 1.9955 10.5888 2.2936 10.3216 2.52191C10.0324 2.77269 9.67042 2.92319 9.28929 2.95106C8.90816 2.97892 8.52823 2.88269 8.2059 2.67661C7.94902 2.45624 7.77504 2.15417 7.71292 1.82072C7.90828 2.12837 8.21315 2.34964 8.56538 2.43943C8.85263 2.5119 9.15673 2.46821 9.41222 2.31777C9.6677 2.16734 9.85412 1.92219 9.93136 1.63511C10.0023 1.39869 10.0151 1.1485 9.96861 0.906035C9.9221 0.663566 9.81768 0.436052 9.66433 0.243012L9.45891 0.191466H9.37675C9.03617 0.14776 8.69304 0.127092 8.34969 0.129598H8.19563C6.86006 0.124298 5.55775 0.547637 4.47873 1.33789C3.39972 2.12813 2.60047 3.24391 2.19761 4.5224H2.11545C1.78012 4.59722 1.48021 4.7846 1.26526 5.05363C1.05032 5.32266 0.933167 5.65725 0.933167 6.00214C0.933167 6.34704 1.05032 6.68162 1.26526 6.95065C1.48021 7.21968 1.78012 7.40707 2.11545 7.48188H2.18735C2.62679 8.77926 3.46238 9.90457 4.57533 10.6978C5.68829 11.491 7.02197 11.9118 8.38679 11.9004C9.75161 11.889 11.0781 11.4459 12.1778 10.6342C13.2774 9.82243 14.0942 8.68334 14.512 7.37879H14.5839C14.9168 7.29947 15.2133 7.10972 15.4254 6.84026C15.6376 6.5708 15.753 6.23737 15.753 5.89389C15.753 5.55041 15.6376 5.21695 15.4254 4.94749C15.2133 4.67802 14.9168 4.4883 14.5839 4.40899L14.5018 4.39867ZM10.6092 7.91499C10.6153 8.35431 10.4913 8.78553 10.2528 9.15393C10.0144 9.52234 9.6723 9.8113 9.26999 9.98415C8.86768 10.157 8.42328 10.2059 7.99322 10.1248C7.56315 10.0436 7.16681 9.83592 6.8545 9.52816C6.54219 9.22041 6.328 8.82642 6.23911 8.39622C6.15023 7.96602 6.19065 7.51902 6.35526 7.11193C6.51987 6.70485 6.80124 6.35604 7.16365 6.1098C7.52607 5.86356 7.95317 5.73098 8.39077 5.7289C8.67941 5.72618 8.96575 5.78056 9.23345 5.88895C9.50115 5.99734 9.74497 6.15761 9.95097 6.36061C10.157 6.56361 10.3211 6.80536 10.4341 7.07206C10.547 7.33876 10.6065 7.6252 10.6092 7.91499Z" fill="#FFCCFF"/>
<path d="M9.29563 7.9252C9.29971 8.10346 9.2508 8.27889 9.15513 8.42911C9.05946 8.57933 8.92138 8.69749 8.75851 8.76857C8.59564 8.83964 8.41537 8.86039 8.2407 8.82814C8.06604 8.79588 7.90492 8.7121 7.77789 8.58749C7.65086 8.46289 7.5637 8.30312 7.52753 8.12855C7.49135 7.95399 7.5078 7.77256 7.57479 7.60743C7.64177 7.4423 7.75625 7.30097 7.9036 7.20145C8.05095 7.10194 8.2245 7.04875 8.40209 7.0487C8.51845 7.04595 8.63419 7.06659 8.74249 7.10941C8.85079 7.15222 8.94946 7.21633 9.03272 7.298C9.11597 7.37967 9.18212 7.47722 9.22727 7.58493C9.27242 7.69264 9.29566 7.80834 9.29563 7.9252Z" fill="#FFCCFF"/>
</svg>
