<svg width="14" height="31" viewBox="0 0 14 31" fill="none" xmlns="http://www.w3.org/2000/svg">
<path d="M13.0664 9.11147C13.1731 9.21786 13.2706 9.33284 13.3578 9.45519V9.52393C13.4795 9.68538 13.5776 9.86277 13.6493 10.0509C13.688 9.9683 13.708 9.87841 13.708 9.78743C13.708 9.69646 13.688 9.60657 13.6493 9.52393C13.5615 9.31114 13.4142 9.12715 13.2244 8.99331C13.0346 8.85948 12.81 8.78127 12.5768 8.76776C12.6866 8.84987 12.7917 8.93783 12.8916 9.03127C12.8916 9.03127 13.0548 9.11147 13.0664 9.11147Z" fill="#00FF00"/>
<path d="M9.16118 12.9711C8.85053 12.6734 8.60462 12.3168 8.43831 11.923C8.27201 11.5291 8.18878 11.1061 8.19368 10.6797C6.66301 11.4266 5.29968 12.4666 4.18381 13.7388C2.69176 15.6521 3.01815 17.3821 3.93902 18.2299C4.85989 19.0777 6.58507 19.3756 8.50841 17.9091C9.7837 16.789 10.8181 15.4295 11.5508 13.9106H11.3992C10.556 13.9013 9.75109 13.5634 9.16118 12.9711Z" fill="#00FF00"/>
<path d="M13.6606 12.4351C13.8486 12.0729 13.9514 11.6738 13.9615 11.2673C13.9716 10.8608 13.8887 10.4572 13.7188 10.0865C13.6371 10.2246 13.5169 10.3369 13.3723 10.41C13.2277 10.4831 13.0648 10.514 12.9029 10.4989C12.7284 10.4838 12.5632 10.4146 12.4313 10.3014C12.2993 10.1881 12.2073 10.0367 12.1685 9.86877C12.1574 9.71498 12.1984 9.56191 12.2851 9.4334C12.2468 9.5981 12.2761 9.77101 12.3667 9.91459C12.437 10.0276 12.5488 10.1097 12.679 10.1438C12.8093 10.1779 12.9478 10.1615 13.0661 10.0979C13.1659 10.0433 13.2508 9.96582 13.3137 9.87209C13.3766 9.77836 13.4156 9.67111 13.4274 9.55942C13.4313 9.53282 13.4313 9.50582 13.4274 9.47922C13.3367 9.35956 13.2394 9.24484 13.136 9.13552C12.7045 8.70659 12.1444 8.42501 11.538 8.33221C10.9317 8.2394 10.311 8.34026 9.76725 8.61994C9.63377 8.53255 9.47341 8.49376 9.3139 8.51028C9.1544 8.5268 9.00578 8.59759 8.89377 8.71041C8.78175 8.82323 8.71336 8.97098 8.70045 9.12811C8.68754 9.28524 8.73091 9.44185 8.82305 9.57088C8.58563 10.108 8.51728 10.7028 8.62678 11.2785C8.73628 11.8542 9.01863 12.3845 9.43746 12.8011C9.85629 13.2176 10.3924 13.5015 10.9768 13.6159C11.5612 13.7304 12.1671 13.6703 12.7164 13.4433C12.8518 13.5276 13.0126 13.5636 13.1718 13.5453C13.331 13.5269 13.4789 13.4554 13.5909 13.3427C13.7029 13.23 13.7721 13.0829 13.7869 12.926C13.8017 12.7691 13.7612 12.612 13.6722 12.481L13.6606 12.4351ZM11.2476 12.2976C11.1058 12.4371 10.9251 12.5321 10.7284 12.5706C10.5317 12.6091 10.3277 12.5894 10.1424 12.514C9.95703 12.4385 9.79861 12.3108 9.68715 12.1469C9.57569 11.9829 9.5162 11.7902 9.5162 11.593C9.5162 11.3959 9.57569 11.2031 9.68715 11.0392C9.79861 10.8753 9.95703 10.7475 10.1424 10.6721C10.3277 10.5967 10.5317 10.577 10.7284 10.6155C10.9251 10.654 11.1058 10.749 11.2476 10.8884C11.4377 11.0754 11.5445 11.3288 11.5445 11.593C11.5445 11.8573 11.4377 12.1107 11.2476 12.2976Z" fill="#00FF00"/>
<path d="M10.8176 11.8938C10.7807 11.9315 10.7363 11.9616 10.6872 11.9821C10.6382 12.0026 10.5854 12.0132 10.5321 12.0132C10.4787 12.0132 10.4259 12.0026 10.3769 11.9821C10.3278 11.9616 10.2834 11.9315 10.2465 11.8938C10.171 11.8169 10.1288 11.7142 10.1288 11.6073C10.1288 11.5005 10.171 11.3978 10.2465 11.3209C10.326 11.2493 10.43 11.2095 10.5379 11.2095C10.6458 11.2095 10.7498 11.2493 10.8293 11.3209C10.8673 11.359 10.8972 11.4042 10.9173 11.4538C10.9373 11.5034 10.947 11.5564 10.946 11.6098C10.9449 11.6631 10.933 11.7157 10.9109 11.7645C10.8889 11.8133 10.8572 11.8572 10.8176 11.8938Z" fill="#00FF00"/>
<path d="M2.28423 29.9736C1.96916 30.1233 1.64157 30.2459 1.30508 30.3403C1.30508 30.3976 1.30509 30.8444 2.27258 30.8444C2.75999 30.8793 3.24395 30.7411 3.6364 30.4549V30.8444H4.09101V27.5104H2.8321C2.8321 29.0571 2.8321 29.6643 2.28423 29.9736Z" fill="#00FF00"/>
<path d="M8.57833 5.75095C9.21945 5.75095 9.21945 4.4334 8.57833 4.4334C8.46193 3.75867 8.13054 3.1377 7.63194 2.66C7.13335 2.18229 6.4933 1.87254 5.80406 1.77539C5.60793 2.29258 5.28336 2.75337 4.85988 3.11586C4.2234 3.72744 3.40824 4.12804 2.52856 4.26155C2.52328 4.31872 2.52328 4.37624 2.52856 4.4334C1.94573 4.4334 1.87578 5.57911 2.42364 5.72805H2.52856C2.62116 6.46612 2.98515 7.14544 3.55196 7.63806C4.11877 8.13068 4.84928 8.4026 5.6059 8.4026C6.36252 8.4026 7.09303 8.13068 7.65984 7.63806C8.22665 7.14544 8.59064 6.46612 8.68325 5.72805L8.57833 5.75095Z" fill="#00FF00"/>
<path d="M8.75271 0.838692C8.36639 0.424112 7.84961 0.149061 7.28524 0.0576497C6.72088 -0.0337618 6.14163 0.0637605 5.64039 0.334582C5.14146 0.0626014 4.56363 -0.0355952 4.00075 0.055919C3.43786 0.147433 2.92298 0.423286 2.53973 0.838692C-0.0130675 3.24466 2.93606 6.70467 0.593079 7.71289C0.896192 7.93522 1.24781 8.08513 1.62008 8.15076C1.99236 8.21638 2.37506 8.19591 2.73789 8.09097C2.97976 8.02794 3.21132 7.9315 3.42564 7.80454C2.8297 7.299 2.42 6.61443 2.25997 5.85686C2.0967 5.79715 1.95798 5.68624 1.86527 5.54127C1.77256 5.39631 1.73102 5.22535 1.74708 5.05486C1.73298 4.88467 1.77533 4.71458 1.86778 4.57001C1.96023 4.42544 2.09783 4.31417 2.25997 4.25287C2.25997 4.25287 2.25997 4.13831 2.25997 4.08102C3.17363 3.98058 4.02495 3.57636 4.67289 2.93532C5.1113 2.56733 5.438 2.08765 5.61708 1.54902C6.37413 1.59515 7.09382 1.8885 7.66189 2.38251C8.22997 2.87651 8.61389 3.54286 8.75271 4.27579C8.90518 4.34945 9.03361 4.46364 9.12342 4.60539C9.21323 4.74715 9.26083 4.91079 9.26083 5.07777C9.26083 5.24476 9.21323 5.40842 9.12342 5.55017C9.03361 5.69192 8.90518 5.80609 8.75271 5.87976C8.6073 6.58202 8.24981 7.22486 7.72693 7.72434C7.99147 7.89859 8.28268 8.03011 8.58952 8.11389C8.95045 8.21875 9.33133 8.23917 9.70172 8.17352C10.0721 8.10787 10.4218 7.95797 10.7227 7.7358C8.35639 6.70468 11.2939 3.24466 8.75271 0.838692Z" fill="#00FF00"/>
<path d="M1.45659 15.1025C1.72038 14.4229 2.11631 13.8002 2.62225 13.2693C2.82355 13.0999 3.05201 12.9644 3.29834 12.8683C3.22694 12.2661 3.04945 11.6807 2.77379 11.1383C1.66474 12.0065 0.804997 13.1437 0.27928 14.438C-0.23361 15.7211 1.25843 17.1533 2.40078 17.7491C2.40078 17.3824 2.47072 17.0044 2.50569 16.6034C1.89954 16.0878 1.39831 15.4577 1.45659 15.1025Z" fill="#00FF00"/>
<path d="M7.58851 10.5426C6.72361 10.0866 6.07803 9.31195 5.79339 8.3887H5.25719C4.95272 9.30432 4.31294 10.0761 3.46207 10.5541C3.82742 11.214 4.05714 11.938 4.13815 12.6851L4.98908 12.6049C5.70428 11.9651 6.48565 11.4006 7.32041 10.9207C7.39345 10.7842 7.48351 10.6572 7.58851 10.5426Z" fill="#00FF00"/>
<path d="M10.9463 15.2952C10.3321 16.2841 9.56972 17.1763 8.68488 17.9418C8.83641 18.2282 11.4242 17.071 10.9463 15.2952Z" fill="#00FF00"/>
<path d="M4.09061 13.6156C4.32447 13.321 4.57757 13.0417 4.84829 12.7793C4.5707 12.7988 4.29441 12.8332 4.02067 12.8824C3.95708 12.1009 3.73094 11.3405 3.35624 10.6483L2.87832 11.0149C3.19304 11.6355 3.39052 12.307 3.46115 12.997C3.12315 13.0694 2.81951 13.2509 2.59856 13.5125C2.59856 14.6582 2.59856 15.6665 2.48199 16.6059L3.22802 17.3392C3.03216 16.6982 3.00867 16.0182 3.15985 15.3656C3.31103 14.713 3.63171 14.1101 4.09061 13.6156Z" fill="#00FF00"/>
<path d="M8.75554 29.9736C8.20768 29.6643 8.20767 29.0571 8.20767 27.5104H6.86716V30.8444H7.36839V30.4549C7.76085 30.7411 8.24482 30.8793 8.73223 30.8444C9.67642 30.8444 9.74635 30.3976 9.69972 30.3403C9.37517 30.2441 9.05935 30.1214 8.75554 29.9736Z" fill="#00FF00"/>
<path d="M5.85106 19.0775C5.09912 19.0907 4.37155 18.8153 3.8228 18.3098L3.69458 18.1724C3.69458 18.264 3.05346 18.1036 2.34241 17.737C2.18052 20.0311 1.62481 22.2817 0.698822 24.3935C1.3651 24.5804 2.04828 24.7032 2.73873 24.7601L2.83199 27.0515V27.3609H4.0909V27.0515L4.33569 24.8747H6.57376L6.81855 27.0515V27.3609H8.17072V27.0515L8.26398 24.7601C8.95443 24.7032 9.63761 24.5804 10.3039 24.3935C9.39733 22.3447 8.84953 20.16 8.68361 17.9318L8.61367 17.9891C7.84557 18.6502 6.87108 19.0341 5.85106 19.0775Z" fill="#00FF00"/>
</svg>
