<svg width="105" height="59" viewBox="0 0 105 59" fill="none" xmlns="http://www.w3.org/2000/svg">
<g opacity="0.1">
<path d="M53.4573 14.0474C51.3946 14.0474 49.6909 13.3721 48.3463 12.0214C47.0016 10.6706 46.3293 9.00476 46.3293 7.02372C46.3293 5.0298 47.0016 3.36392 48.3463 2.02607C49.6909 0.675357 51.3946 0 53.4573 0C54.6975 0 55.8398 0.289439 56.8842 0.868317C57.9416 1.43433 58.7641 2.20617 59.3516 3.18383L57.0213 4.51525C56.6818 3.91064 56.1988 3.44111 55.5722 3.10664C54.9455 2.75932 54.2406 2.58565 53.4573 2.58565C52.1257 2.58565 51.0486 2.9973 50.2262 3.82059C49.4168 4.64389 49.0121 5.71159 49.0121 7.02372C49.0121 8.32298 49.4168 9.38425 50.2262 10.2075C51.0486 11.0308 52.1257 11.4425 53.4573 11.4425C54.2406 11.4425 54.9455 11.2753 55.5722 10.9408C56.2119 10.5935 56.6949 10.1239 57.0213 9.53219L59.3516 10.8636C58.7641 11.8413 57.9482 12.6195 56.9038 13.1984C55.8594 13.7644 54.7105 14.0474 53.4573 14.0474Z" fill="white"/>
<path d="M74.9103 10.6386H79.816V13.1109H72.3747V0H74.9103V10.6386Z" fill="white"/>
<path d="M96.5609 0H99.3514V13.1109H96.5609V0Z" fill="white"/>
<path d="M55.8226 23.4131H58.423V36.524H56.4444L50.7915 28.5076V36.524H48.1912V23.4131H50.1697L55.8226 31.4108V23.4131Z" fill="white"/>
<path d="M74.2338 23.4131H77.0243V36.524H74.2338V23.4131Z" fill="white"/>
<path d="M98.5288 36.5233C96.6134 36.5233 95.0314 35.8479 93.7828 34.4972C92.5342 33.1465 91.9099 31.4806 91.9099 29.4995C91.9099 27.5056 92.5342 25.8398 93.7828 24.5019C95.0314 23.1512 96.6134 22.4758 98.5288 22.4758C99.6804 22.4758 100.741 22.7653 101.711 23.3441C102.693 23.9102 103.457 24.682 104.002 25.6597L101.838 26.9911C101.523 26.3865 101.074 25.9169 100.493 25.5825C99.9107 25.2351 99.2561 25.0615 98.5288 25.0615C97.2923 25.0615 96.2922 25.4731 95.5285 26.2964C94.7769 27.1197 94.4011 28.1874 94.4011 29.4995C94.4011 30.7988 94.7769 31.8601 95.5285 32.6834C96.2922 33.5067 97.2923 33.9183 98.5288 33.9183C99.2561 33.9183 99.9107 33.7511 100.493 33.4166C101.087 33.0693 101.535 32.5998 101.838 32.008L104.002 33.3394C103.457 34.3171 102.699 35.0954 101.729 35.6742C100.759 36.2403 99.6925 36.5233 98.5288 36.5233Z" fill="white"/>
<path d="M71.5331 58.9986V57.1073L75.7631 52.5901C76.707 51.5618 77.179 50.7048 77.179 50.0193C77.179 49.5174 77.0256 49.1134 76.7188 48.8074C76.4239 48.5013 76.0404 48.3483 75.5684 48.3483C74.6363 48.3483 73.9461 48.8502 73.4977 49.854L71.4446 48.6054C71.834 47.724 72.3945 47.0507 73.126 46.5855C73.8576 46.1203 74.6599 45.8877 75.533 45.8877C76.6539 45.8877 77.6156 46.2549 78.4179 46.9895C79.2203 47.7117 79.6214 48.6911 79.6214 49.9275C79.6214 51.2618 78.943 52.6329 77.5861 54.0407L75.1614 56.5564H79.8161V58.9986H71.5331Z" fill="white"/>
<path d="M97.9453 58.9986C96.4536 58.9986 95.2296 58.5947 94.2734 57.7867C93.3171 56.9787 92.839 55.8953 92.839 54.5365V45.8877H95.4591V54.3345C95.4591 55.0078 95.6567 55.5403 96.052 55.9321C96.46 56.3238 97.0911 56.5197 97.9453 56.5197C98.7996 56.5197 99.4243 56.3238 99.8196 55.9321C100.228 55.5403 100.432 55.0078 100.432 54.3345V45.8877H103.071V54.5365C103.071 55.8953 102.593 56.9787 101.636 57.7867C100.68 58.5947 99.4498 58.9986 97.9453 58.9986Z" fill="white"/>
<path d="M26.796 45.8877C26.796 49.3649 25.424 52.6998 22.9818 55.1585C20.5397 57.6173 17.2274 58.9986 13.7737 58.9986C10.32 58.9986 7.00769 57.6173 4.56554 55.1585C2.12339 52.6998 0.751404 49.3649 0.751404 45.8877H7.20041C7.20041 47.6429 7.89295 49.3262 9.12568 50.5673C10.3584 51.8085 12.0303 52.5057 13.7737 52.5057C15.517 52.5057 17.189 51.8085 18.4217 50.5673C19.6544 49.3262 20.347 47.6429 20.347 45.8877H26.796Z" fill="white"/>
<path d="M0.750732 0H7.26187V36.5233H0.750732V0Z" fill="white"/>
<path d="M20.2866 0H26.7978V36.5233H20.2866V0Z" fill="white"/>
</g>
</svg>
