<svg width="33" height="25" viewBox="0 0 33 25" fill="none" xmlns="http://www.w3.org/2000/svg">
<circle cx="24.5" cy="21.5" r="3" fill="#1F1F1F"/>
<path d="M11.5 21.5C11.5 23.1569 10.1569 24.5 8.5 24.5C6.84315 24.5 5.5 23.1569 5.5 21.5C5.5 19.8431 6.84315 18.5 8.5 18.5C10.1569 18.5 11.5 19.8431 11.5 21.5Z" fill="#1F1F1F"/>
<rect x="8.5" y="18.5" width="16" height="2" fill="#1F1F1F"/>
<path d="M1 3.5C1.33333 2.66667 2 1 4 1C5.2 1 6 1.5 6.5 2.5L11.5 19" stroke="#1F1F1F" stroke-width="2" stroke-linejoin="round"/>
<path d="M7.5 4.5H32.5V5.5L32.376 6.5H7.5V4.5Z" fill="#1F1F1F"/>
<line x1="30.5077" y1="13.376" x2="31.5077" y2="5.37597" stroke="#1F1F1F" stroke-width="2"/>
<line x1="11.3517" y1="15.5111" x2="31.3517" y2="12.5111" stroke="#1F1F1F" stroke-width="2"/>
</svg>
