<svg xmlns="http://www.w3.org/2000/svg" xmlns:xlink="http://www.w3.org/1999/xlink" viewBox="0 0 608.46 60"><defs><style>.cls-1{fill:url(#Градієнт_без_назви_16);}</style><linearGradient id="Градієнт_без_назви_16" x1="311.79" y1="51.22" x2="354.22" y2="8.79" gradientUnits="userSpaceOnUse"><stop offset="0" stop-color="#d43e27"/><stop offset="1" stop-color="#c22026"/></linearGradient></defs><title>logo</title><g id="Шар_2" data-name="Шар 2"><g id="Шар_1-2" data-name="Шар 1"><path d="M47.45,55.65l-.07-37.29L28.88,49.43H25.52L7,18.58V55.65H0V4.46H6l21.34,36,21.06-36h6l.07,51.19Z"/><path d="M124.37,42.85H97.17l-5.63,12.8H84L107.19,4.46h7.23l23.25,51.19H130ZM121.81,37l-11-25.08L99.73,37Z"/><path d="M197,55.65,181.62,34.52,166.48,55.65h-8.41L177.3,29.4,159.24,4.46h8.34l14.33,19.67L196.09,4.46h8L186,29.18l19.38,26.47Z"/><path d="M269.87,9.22q5.7,4.76,5.7,13.09t-5.7,13.08q-5.72,4.76-15.65,4.76H241.57v15.5h-7.31V4.46h20Q264.17,4.46,269.87,9.22Zm-5.27,21.6q3.66-3,3.66-8.51t-3.66-8.52q-3.66-3-10.6-3H241.57v23H254Q260.95,33.78,264.6,30.82Z"/><path d="M464.49,4.46l-17.1,51.19h-7.68l-14-40.88-14,40.88H404L386.85,4.46h7.53L408.2,46.07,422.6,4.46h6.73l14.11,41.83L457.55,4.46Z"/><path d="M532.49,49.28v6.37H495.35V4.46h36.12v6.37H502.66V26.55h25.66v6.21H502.66V49.28Z"/><path d="M600.49,55.65l-11-15.72c-1.37.09-2.44.14-3.22.14H573.58V55.65h-7.31V4.46h20q9.94,0,15.65,4.76t5.7,13.09a17.14,17.14,0,0,1-2.93,10.09,16.49,16.49,0,0,1-8.33,6.06l12.14,17.19Zm-3.88-24.79q3.66-3,3.66-8.55t-3.66-8.52q-3.66-3-10.6-3H573.58v23H586Q593,33.86,596.61,30.86Z"/><path class="cls-1" d="M333,0a30,30,0,1,0,30,30A30,30,0,0,0,333,0Zm0,51.22A21.22,21.22,0,1,1,354.22,30,21.22,21.22,0,0,1,333,51.22Z"/></g></g></svg>