<svg width="210" height="68" viewBox="0 0 210 68" fill="none" xmlns="http://www.w3.org/2000/svg">
<path d="M0 21.5839L20.7013 12V36.5349L0 46.1188V21.5839Z" fill="#BABABA"/>
<path d="M41.9775 21.5839L21.2762 12V36.5349L41.9775 46.1188V21.5839Z" fill="#BABABA"/>
<path d="M20.9712 37.0971L41.9327 46.5579L20.9712 56.0187L0.00965694 46.5579L20.9712 37.0971Z" fill="#AFD252"/>
<path d="M122.216 50.8763C121.267 50.8763 120.478 50.5615 119.848 49.9317C119.218 49.2935 118.903 48.5084 118.903 47.5763C118.903 46.6442 119.218 45.8633 119.848 45.2335C120.478 44.5953 121.267 44.2762 122.216 44.2762C122.837 44.2762 123.396 44.4274 123.891 44.7297C124.387 45.0236 124.748 45.4224 124.974 45.9262L124.294 46.3167C124.126 45.9388 123.853 45.6407 123.476 45.4224C123.106 45.1957 122.686 45.0823 122.216 45.0823C121.519 45.0823 120.931 45.3258 120.453 45.8129C119.974 46.2915 119.735 46.8793 119.735 47.5763C119.735 48.2732 119.974 48.8652 120.453 49.3523C120.931 49.8309 121.519 50.0702 122.216 50.0702C122.686 50.0702 123.106 49.9611 123.476 49.7427C123.845 49.516 124.135 49.2137 124.345 48.8358L125.037 49.2389C124.777 49.7427 124.395 50.1416 123.891 50.4355C123.387 50.7294 122.829 50.8763 122.216 50.8763Z" fill="#BABABA"/>
<path d="M133.147 49.9317C132.509 50.5615 131.728 50.8763 130.805 50.8763C129.881 50.8763 129.096 50.5615 128.449 49.9317C127.811 49.2935 127.492 48.5084 127.492 47.5763C127.492 46.6442 127.811 45.8633 128.449 45.2335C129.096 44.5953 129.881 44.2762 130.805 44.2762C131.728 44.2762 132.509 44.5953 133.147 45.2335C133.794 45.8633 134.117 46.6442 134.117 47.5763C134.117 48.5084 133.794 49.2935 133.147 49.9317ZM129.041 49.3523C129.52 49.8309 130.108 50.0702 130.805 50.0702C131.502 50.0702 132.089 49.8309 132.568 49.3523C133.047 48.8652 133.286 48.2732 133.286 47.5763C133.286 46.8793 133.047 46.2915 132.568 45.8129C132.089 45.3258 131.502 45.0823 130.805 45.0823C130.108 45.0823 129.52 45.3258 129.041 45.8129C128.563 46.2915 128.323 46.8793 128.323 47.5763C128.323 48.2732 128.563 48.8652 129.041 49.3523Z" fill="#BABABA"/>
<path d="M140.156 44.2762C140.92 44.2762 141.521 44.5113 141.957 44.9816C142.403 45.4434 142.625 46.069 142.625 46.8583V50.7252H141.794V46.8583C141.794 46.2957 141.643 45.8591 141.34 45.5484C141.046 45.2377 140.627 45.0823 140.081 45.0823C139.476 45.0823 138.985 45.2755 138.607 45.6617C138.229 46.0396 138.04 46.6274 138.04 47.4251V50.7252H137.209V44.4274H138.04V45.4098C138.51 44.6541 139.216 44.2762 140.156 44.2762Z" fill="#BABABA"/>
<path d="M146.588 46.0774C146.588 46.3629 146.714 46.5896 146.966 46.7576C147.218 46.9255 147.524 47.0557 147.885 47.148C148.246 47.2404 148.607 47.3454 148.968 47.4629C149.33 47.5721 149.636 47.761 149.888 48.0297C150.14 48.29 150.266 48.6343 150.266 49.0626C150.266 49.6 150.052 50.0366 149.623 50.3725C149.204 50.7084 148.658 50.8763 147.986 50.8763C147.381 50.8763 146.865 50.742 146.437 50.4733C146.017 50.2046 145.723 49.8561 145.555 49.4278L146.26 49.0122C146.378 49.3397 146.588 49.6 146.89 49.7931C147.201 49.9779 147.566 50.0702 147.986 50.0702C148.397 50.0702 148.742 49.9905 149.019 49.8309C149.296 49.663 149.434 49.4069 149.434 49.0626C149.434 48.7771 149.309 48.5503 149.057 48.3824C148.805 48.2145 148.498 48.0843 148.137 47.9919C147.776 47.8996 147.415 47.7988 147.054 47.6896C146.693 47.5721 146.386 47.3831 146.134 47.1228C145.882 46.8541 145.757 46.5056 145.757 46.0774C145.757 45.5652 145.958 45.1369 146.361 44.7926C146.773 44.4483 147.289 44.2762 147.91 44.2762C148.423 44.2762 148.872 44.3938 149.258 44.6289C149.644 44.8556 149.93 45.1663 150.115 45.561L149.422 45.964C149.178 45.3762 148.675 45.0823 147.91 45.0823C147.549 45.0823 147.239 45.1705 146.978 45.3468C146.718 45.5148 146.588 45.7583 146.588 46.0774Z" fill="#BABABA"/>
<path d="M156.445 45.2335H154.631V49.05C154.631 49.3943 154.698 49.642 154.833 49.7931C154.967 49.9359 155.169 50.0114 155.437 50.0198C155.706 50.0198 156.042 50.0114 156.445 49.9946V50.7252C155.563 50.8596 154.9 50.7966 154.455 50.5363C154.018 50.276 153.8 49.7805 153.8 49.05V45.2335H152.477V44.4274H153.8V42.9159L154.631 42.664V44.4274H156.445V45.2335Z" fill="#BABABA"/>
<path d="M160.362 45.4728C160.748 44.7087 161.412 44.3266 162.352 44.3266V45.1327C161.781 45.1327 161.307 45.3007 160.929 45.6365C160.551 45.9724 160.362 46.5014 160.362 47.2236V50.7252H159.531V44.4274H160.362V45.4728Z" fill="#BABABA"/>
<path d="M169.626 44.4274H170.457V50.7252H169.626V49.7427C169.155 50.4985 168.45 50.8763 167.51 50.8763C166.745 50.8763 166.141 50.6454 165.696 50.1836C165.259 49.7133 165.041 49.0836 165.041 48.2942V44.4274H165.872V48.2942C165.872 48.8568 166.019 49.2935 166.313 49.6042C166.615 49.9149 167.039 50.0702 167.585 50.0702C168.19 50.0702 168.681 49.8813 169.059 49.5034C169.437 49.1171 169.626 48.5252 169.626 47.7274V44.4274Z" fill="#BABABA"/>
<path d="M176.851 50.8763C175.902 50.8763 175.113 50.5615 174.483 49.9317C173.853 49.2935 173.538 48.5084 173.538 47.5763C173.538 46.6442 173.853 45.8633 174.483 45.2335C175.113 44.5953 175.902 44.2762 176.851 44.2762C177.472 44.2762 178.031 44.4274 178.526 44.7297C179.021 45.0236 179.383 45.4224 179.609 45.9262L178.929 46.3167C178.761 45.9388 178.488 45.6407 178.11 45.4224C177.741 45.1957 177.321 45.0823 176.851 45.0823C176.154 45.0823 175.566 45.3258 175.087 45.8129C174.609 46.2915 174.369 46.8793 174.369 47.5763C174.369 48.2732 174.609 48.8652 175.087 49.3523C175.566 49.8309 176.154 50.0702 176.851 50.0702C177.321 50.0702 177.741 49.9611 178.11 49.7427C178.48 49.516 178.77 49.2137 178.979 48.8358L179.672 49.2389C179.412 49.7427 179.03 50.1416 178.526 50.4355C178.022 50.7294 177.464 50.8763 176.851 50.8763Z" fill="#BABABA"/>
<path d="M185.904 45.2335H184.09V49.05C184.09 49.3943 184.157 49.642 184.292 49.7931C184.426 49.9359 184.628 50.0114 184.896 50.0198C185.165 50.0198 185.501 50.0114 185.904 49.9946V50.7252C185.022 50.8596 184.359 50.7966 183.914 50.5363C183.477 50.276 183.259 49.7805 183.259 49.05V45.2335H181.936V44.4274H183.259V42.9159L184.09 42.664V44.4274H185.904V45.2335Z" fill="#BABABA"/>
<path d="M189.834 42.9159C189.716 43.0334 189.574 43.0922 189.406 43.0922C189.238 43.0922 189.095 43.0334 188.977 42.9159C188.86 42.7983 188.801 42.6556 188.801 42.4876C188.801 42.3197 188.86 42.1769 188.977 42.0594C189.095 41.9418 189.238 41.883 189.406 41.883C189.574 41.883 189.716 41.9418 189.834 42.0594C189.951 42.1769 190.01 42.3197 190.01 42.4876C190.01 42.6556 189.951 42.7983 189.834 42.9159ZM188.99 50.7252V44.4274H189.821V50.7252H188.99Z" fill="#BABABA"/>
<path d="M198.563 49.9317C197.925 50.5615 197.144 50.8763 196.221 50.8763C195.297 50.8763 194.512 50.5615 193.865 49.9317C193.227 49.2935 192.908 48.5084 192.908 47.5763C192.908 46.6442 193.227 45.8633 193.865 45.2335C194.512 44.5953 195.297 44.2762 196.221 44.2762C197.144 44.2762 197.925 44.5953 198.563 45.2335C199.21 45.8633 199.533 46.6442 199.533 47.5763C199.533 48.5084 199.21 49.2935 198.563 49.9317ZM194.457 49.3523C194.936 49.8309 195.524 50.0702 196.221 50.0702C196.918 50.0702 197.505 49.8309 197.984 49.3523C198.463 48.8652 198.702 48.2732 198.702 47.5763C198.702 46.8793 198.463 46.2915 197.984 45.8129C197.505 45.3258 196.918 45.0823 196.221 45.0823C195.524 45.0823 194.936 45.3258 194.457 45.8129C193.979 46.2915 193.739 46.8793 193.739 47.5763C193.739 48.2732 193.979 48.8652 194.457 49.3523Z" fill="#BABABA"/>
<path d="M205.572 44.2762C206.336 44.2762 206.937 44.5113 207.373 44.9816C207.818 45.4434 208.041 46.069 208.041 46.8583V50.7252H207.21V46.8583C207.21 46.2957 207.058 45.8591 206.756 45.5484C206.462 45.2377 206.042 45.0823 205.497 45.0823C204.892 45.0823 204.401 45.2755 204.023 45.6617C203.645 46.0396 203.456 46.6274 203.456 47.4251V50.7252H202.625V44.4274H203.456V45.4098C203.926 44.6541 204.632 44.2762 205.572 44.2762Z" fill="#BABABA"/>
<path d="M132.688 21.9623C134.193 21.9623 135.402 22.4459 136.315 23.4133C137.247 24.3806 137.713 25.6883 137.713 27.3364V35.7201H135.939V27.3364C135.939 26.172 135.635 25.2763 135.026 24.6493C134.434 24.0044 133.646 23.682 132.661 23.682C131.55 23.682 130.646 24.0582 129.947 24.8106C129.266 25.545 128.926 26.7005 128.926 28.2769V35.7201H127.152V27.3364C127.152 26.1541 126.866 25.2495 126.293 24.6225C125.737 23.9955 124.976 23.682 124.009 23.682C122.934 23.682 122.02 24.0582 121.268 24.8106C120.515 25.563 120.139 26.7184 120.139 28.2769V35.7201H118.366V22.2847H120.139V24.2463C121.107 22.7236 122.477 21.9623 124.25 21.9623C126.185 21.9623 127.547 22.7773 128.335 24.4075C129.302 22.7773 130.753 21.9623 132.688 21.9623Z" fill="#AFD252"/>
<path d="M150.172 21.9623C152.16 21.9623 153.763 22.6699 154.981 24.0851C156.217 25.4823 156.835 27.1394 156.835 29.0562C156.835 29.2532 156.818 29.5309 156.782 29.8892H144.985C145.165 31.2506 145.738 32.3344 146.705 33.1405C147.69 33.9287 148.9 34.3228 150.333 34.3228C151.354 34.3228 152.232 34.1168 152.966 33.7048C153.718 33.2749 154.283 32.7195 154.659 32.0388L156.217 32.9524C155.626 33.9019 154.82 34.6542 153.799 35.2096C152.778 35.7649 151.614 36.0426 150.306 36.0426C148.192 36.0426 146.472 35.3798 145.147 34.0541C143.821 32.7285 143.158 31.0446 143.158 29.0024C143.158 26.9961 143.812 25.3211 145.12 23.9776C146.428 22.634 148.111 21.9623 150.172 21.9623ZM150.172 23.682C148.774 23.682 147.601 24.103 146.651 24.9449C145.72 25.769 145.165 26.8438 144.985 28.1694H155.008C154.829 26.7542 154.283 25.6525 153.369 24.8643C152.456 24.0761 151.39 23.682 150.172 23.682Z" fill="#AFD252"/>
<path d="M169.205 24.0044H165.336V32.1463C165.336 32.8808 165.479 33.4092 165.766 33.7317C166.052 34.0362 166.482 34.1974 167.055 34.2154C167.629 34.2154 168.345 34.1974 169.205 34.1616V35.7201C167.324 36.0067 165.909 35.8724 164.959 35.3171C164.028 34.7617 163.562 33.7048 163.562 32.1463V24.0044H160.741V22.2847H163.562V17.9069L165.336 18.5228V22.2847H169.205V24.0044Z" fill="#AFD252"/>
<path d="M176.756 24.515C177.58 22.8848 178.995 22.0697 181.001 22.0697V23.7895C179.783 23.7895 178.771 24.1478 177.965 24.8643C177.159 25.5809 176.756 26.7094 176.756 28.25V35.7201H174.982V22.2847H176.756V24.515Z" fill="#AFD252"/>
<path d="M188.054 19.0602C187.803 19.311 187.498 19.4364 187.14 19.4364C186.782 19.4364 186.477 19.311 186.226 19.0602C185.976 18.8094 185.85 18.5049 185.85 18.1466C185.85 17.7883 185.976 17.4838 186.226 17.233C186.477 16.9822 186.782 16.8568 187.14 16.8568C187.498 16.8568 187.803 16.9822 188.054 17.233C188.304 17.4838 188.43 17.7883 188.43 18.1466C188.43 18.5049 188.304 18.8094 188.054 19.0602ZM186.253 35.7201V22.2847H188.027V35.7201H186.253Z" fill="#AFD252"/>
<path d="M206.166 22.2847H207.94V35.7201H206.166V33.0868C204.93 35.0573 203.121 36.0426 200.738 36.0426C198.821 36.0426 197.182 35.3618 195.821 34.0004C194.477 32.6389 193.805 30.9729 193.805 29.0024C193.805 27.0319 194.477 25.3659 195.821 24.0044C197.182 22.643 198.821 21.9623 200.738 21.9623C203.121 21.9623 204.93 22.9475 206.166 24.9181V22.2847ZM197.111 32.7912C198.132 33.8123 199.386 34.3228 200.873 34.3228C202.359 34.3228 203.613 33.8123 204.634 32.7912C205.656 31.7522 206.166 30.4893 206.166 29.0024C206.166 27.5156 205.656 26.2616 204.634 25.2405C203.613 24.2015 202.359 23.682 200.873 23.682C199.386 23.682 198.132 24.2015 197.111 25.2405C196.09 26.2616 195.579 27.5156 195.579 29.0024C195.579 30.4893 196.09 31.7522 197.111 32.7912Z" fill="#AFD252"/>
<path d="M72.26 22.2847H74.0335V35.1827C74.0335 37.1174 73.3706 38.6401 72.045 39.7507C70.7194 40.8614 69.134 41.4167 67.2889 41.4167C64.136 41.4167 62.0133 40.324 60.9205 38.1385L62.479 37.2517C63.2851 38.8819 64.8884 39.697 67.2889 39.697C68.8295 39.697 70.0387 39.285 70.9164 38.4609C71.8121 37.6548 72.26 36.5621 72.26 35.1827V33.0868C71.0239 35.0573 69.2146 36.0426 66.8321 36.0426C64.9153 36.0426 63.2762 35.3618 61.9147 34.0004C60.5712 32.6389 59.8994 30.9729 59.8994 29.0024C59.8994 27.0319 60.5712 25.3659 61.9147 24.0044C63.2762 22.643 64.9153 21.9622 66.8321 21.9622C69.2146 21.9622 71.0239 22.9475 72.26 24.918V22.2847ZM63.2045 32.7912C64.2256 33.8123 65.4796 34.3228 66.9664 34.3228C68.4533 34.3228 69.7073 33.8123 70.7283 32.7912C71.7494 31.7522 72.26 30.4893 72.26 29.0024C72.26 27.5155 71.7494 26.2616 70.7283 25.2405C69.7073 24.2015 68.4533 23.682 66.9664 23.682C65.4796 23.682 64.2256 24.2015 63.2045 25.2405C62.1834 26.2616 61.6729 27.5155 61.6729 29.0024C61.6729 30.4893 62.1834 31.7522 63.2045 32.7912Z" fill="#BABABA"/>
<path d="M86.817 21.9622C88.8055 21.9622 90.4088 22.6698 91.6269 24.085C92.863 25.4823 93.481 27.1394 93.481 29.0561C93.481 29.2532 93.4631 29.5309 93.4273 29.8891H81.631C81.8101 31.2506 82.3833 32.3344 83.3507 33.1405C84.336 33.9287 85.5451 34.3228 86.9783 34.3228C87.9993 34.3228 88.8771 34.1168 89.6116 33.7048C90.364 33.2749 90.9283 32.7195 91.3045 32.0388L92.863 32.9524C92.2718 33.9018 91.4657 34.6542 90.4446 35.2096C89.4235 35.7649 88.2591 36.0426 86.9514 36.0426C84.8375 36.0426 83.1178 35.3797 81.7922 34.0541C80.4666 32.7285 79.8038 31.0446 79.8038 29.0024C79.8038 26.996 80.4576 25.3211 81.7653 23.9776C83.073 22.634 84.7569 21.9622 86.817 21.9622ZM86.817 23.682C85.4197 23.682 84.2464 24.103 83.297 24.9449C82.3654 25.7689 81.8101 26.8438 81.631 28.1694H91.6538C91.4746 26.7542 90.9283 25.6525 90.0147 24.8643C89.101 24.0761 88.0352 23.682 86.817 23.682Z" fill="#BABABA"/>
<path d="M110.382 34.0272C109.021 35.3708 107.355 36.0426 105.384 36.0426C103.414 36.0426 101.739 35.3708 100.359 34.0272C98.998 32.6658 98.3173 30.9908 98.3173 29.0024C98.3173 27.014 98.998 25.348 100.359 24.0044C101.739 22.643 103.414 21.9622 105.384 21.9622C107.355 21.9622 109.021 22.643 110.382 24.0044C111.762 25.348 112.451 27.014 112.451 29.0024C112.451 30.9908 111.762 32.6658 110.382 34.0272ZM101.622 32.7912C102.644 33.8123 103.897 34.3228 105.384 34.3228C106.871 34.3228 108.125 33.8123 109.146 32.7912C110.167 31.7522 110.678 30.4893 110.678 29.0024C110.678 27.5155 110.167 26.2616 109.146 25.2405C108.125 24.2015 106.871 23.682 105.384 23.682C103.897 23.682 102.644 24.2015 101.622 25.2405C100.601 26.2616 100.091 27.5155 100.091 29.0024C100.091 30.4893 100.601 31.7522 101.622 32.7912Z" fill="#BABABA"/>
</svg>
