<svg width="1171" height="313" viewBox="0 0 1171 313" fill="none" xmlns="http://www.w3.org/2000/svg">
<path d="M0 53.9451L116.521 0V138.099L0 192.045V53.9451Z" fill="#BABABA"/>
<path d="M236.276 53.9451L119.754 0V138.099L236.276 192.045V53.9451Z" fill="#BABABA"/>
<path d="M118.04 141.264L236.026 194.516L118.04 247.768L0.0533955 194.516L118.04 141.264Z" fill="#AFD252"/>
<path d="M687.917 218.823C682.576 218.823 678.133 217.051 674.588 213.506C671.043 209.914 669.271 205.495 669.271 200.248C669.271 195.002 671.043 190.606 674.588 187.061C678.133 183.469 682.576 181.673 687.917 181.673C691.415 181.673 694.558 182.524 697.346 184.225C700.135 185.88 702.167 188.125 703.444 190.961L699.615 193.158C698.67 191.032 697.134 189.354 695.007 188.125C692.927 186.849 690.564 186.21 687.917 186.21C683.994 186.21 680.685 187.581 677.991 190.323C675.297 193.017 673.95 196.325 673.95 200.248C673.95 204.171 675.297 207.503 677.991 210.245C680.685 212.939 683.994 214.286 687.917 214.286C690.564 214.286 692.927 213.671 695.007 212.442C697.086 211.166 698.717 209.465 699.899 207.338L703.798 209.607C702.333 212.442 700.182 214.688 697.346 216.342C694.51 217.996 691.367 218.823 687.917 218.823Z" fill="#BABABA"/>
<path d="M749.447 213.506C745.855 217.051 741.459 218.823 736.26 218.823C731.061 218.823 726.642 217.051 723.002 213.506C719.41 209.914 717.614 205.495 717.614 200.248C717.614 195.002 719.41 190.606 723.002 187.061C726.642 183.469 731.061 181.673 736.26 181.673C741.459 181.673 745.855 183.469 749.447 187.061C753.086 190.606 754.906 195.002 754.906 200.248C754.906 205.495 753.086 209.914 749.447 213.506ZM726.334 210.245C729.029 212.939 732.337 214.286 736.26 214.286C740.183 214.286 743.492 212.939 746.186 210.245C748.88 207.503 750.227 204.171 750.227 200.248C750.227 196.325 748.88 193.017 746.186 190.323C743.492 187.581 740.183 186.21 736.26 186.21C732.337 186.21 729.029 187.581 726.334 190.323C723.64 193.017 722.293 196.325 722.293 200.248C722.293 204.171 723.64 207.503 726.334 210.245Z" fill="#BABABA"/>
<path d="M788.898 181.673C793.199 181.673 796.578 182.996 799.036 185.643C801.541 188.243 802.793 191.764 802.793 196.207V217.972H798.114V196.207C798.114 193.04 797.263 190.582 795.562 188.834C793.908 187.085 791.544 186.21 788.472 186.21C785.069 186.21 782.304 187.298 780.177 189.472C778.05 191.599 776.987 194.907 776.987 199.397V217.972H772.308V182.524H776.987V188.054C779.634 183.8 783.604 181.673 788.898 181.673Z" fill="#BABABA"/>
<path d="M825.099 191.811C825.099 193.418 825.808 194.695 827.226 195.64C828.644 196.585 830.369 197.318 832.401 197.838C834.434 198.358 836.466 198.948 838.499 199.61C840.531 200.225 842.256 201.288 843.674 202.8C845.092 204.266 845.801 206.204 845.801 208.614C845.801 211.639 844.596 214.097 842.185 215.987C839.822 217.878 836.75 218.823 832.969 218.823C829.565 218.823 826.659 218.067 824.248 216.555C821.885 215.042 820.231 213.081 819.285 210.67L823.256 208.33C823.917 210.174 825.099 211.639 826.8 212.726C828.549 213.766 830.605 214.286 832.969 214.286C835.284 214.286 837.222 213.837 838.782 212.939C840.342 211.993 841.122 210.552 841.122 208.614C841.122 207.007 840.413 205.731 838.995 204.786C837.577 203.84 835.852 203.108 833.819 202.588C831.787 202.068 829.755 201.501 827.722 200.886C825.69 200.225 823.965 199.161 822.547 197.696C821.129 196.183 820.42 194.222 820.42 191.811C820.42 188.928 821.554 186.518 823.823 184.58C826.139 182.642 829.046 181.673 832.543 181.673C835.426 181.673 837.955 182.335 840.129 183.658C842.303 184.934 843.91 186.683 844.95 188.905L841.051 191.173C839.68 187.865 836.844 186.21 832.543 186.21C830.511 186.21 828.762 186.707 827.297 187.699C825.832 188.645 825.099 190.015 825.099 191.811Z" fill="#BABABA"/>
<path d="M880.581 187.061H870.372V208.543C870.372 210.481 870.75 211.875 871.506 212.726C872.262 213.53 873.397 213.955 874.909 214.002C876.422 214.002 878.312 213.955 880.581 213.86V217.972C875.618 218.729 871.884 218.374 869.379 216.909C866.922 215.444 865.693 212.655 865.693 208.543V187.061H858.248V182.524H865.693V174.016L870.372 172.598V182.524H880.581V187.061Z" fill="#BABABA"/>
<path d="M902.63 188.408C904.804 184.107 908.538 181.957 913.832 181.957V186.494C910.618 186.494 907.947 187.439 905.821 189.33C903.694 191.221 902.63 194.198 902.63 198.263V217.972H897.951V182.524H902.63V188.408Z" fill="#BABABA"/>
<path d="M954.772 182.524H959.451V217.972H954.772V212.442C952.125 216.696 948.155 218.823 942.861 218.823C938.56 218.823 935.157 217.523 932.652 214.924C930.194 212.277 928.965 208.732 928.965 204.289V182.524H933.644V204.289C933.644 207.456 934.472 209.914 936.126 211.663C937.827 213.411 940.214 214.286 943.286 214.286C946.69 214.286 949.454 213.222 951.581 211.095C953.708 208.921 954.772 205.589 954.772 201.099V182.524Z" fill="#BABABA"/>
<path d="M995.44 218.823C990.099 218.823 985.656 217.051 982.111 213.506C978.566 209.914 976.794 205.495 976.794 200.248C976.794 195.002 978.566 190.606 982.111 187.061C985.656 183.469 990.099 181.673 995.44 181.673C998.937 181.673 1002.08 182.524 1004.87 184.225C1007.66 185.88 1009.69 188.125 1010.97 190.961L1007.14 193.158C1006.19 191.032 1004.66 189.354 1002.53 188.125C1000.45 186.849 998.087 186.21 995.44 186.21C991.517 186.21 988.208 187.581 985.514 190.323C982.82 193.017 981.473 196.325 981.473 200.248C981.473 204.171 982.82 207.503 985.514 210.245C988.208 212.939 991.517 214.286 995.44 214.286C998.087 214.286 1000.45 213.671 1002.53 212.442C1004.61 211.166 1006.24 209.465 1007.42 207.338L1011.32 209.607C1009.86 212.442 1007.7 214.688 1004.87 216.342C1002.03 217.996 998.89 218.823 995.44 218.823Z" fill="#BABABA"/>
<path d="M1046.4 187.061H1036.19V208.543C1036.19 210.481 1036.57 211.875 1037.32 212.726C1038.08 213.53 1039.21 213.955 1040.73 214.002C1042.24 214.002 1044.13 213.955 1046.4 213.86V217.972C1041.43 218.729 1037.7 218.374 1035.2 216.909C1032.74 215.444 1031.51 212.655 1031.51 208.543V187.061H1024.07V182.524H1031.51V174.016L1036.19 172.598V182.524H1046.4V187.061Z" fill="#BABABA"/>
<path d="M1068.52 174.016C1067.86 174.678 1067.05 175.009 1066.11 175.009C1065.16 175.009 1064.36 174.678 1063.7 174.016C1063.03 173.354 1062.7 172.551 1062.7 171.606C1062.7 170.66 1063.03 169.857 1063.7 169.195C1064.36 168.533 1065.16 168.203 1066.11 168.203C1067.05 168.203 1067.86 168.533 1068.52 169.195C1069.18 169.857 1069.51 170.66 1069.51 171.606C1069.51 172.551 1069.18 173.354 1068.52 174.016ZM1063.77 217.972V182.524H1068.45V217.972H1063.77Z" fill="#BABABA"/>
<path d="M1117.65 213.506C1114.06 217.051 1109.67 218.823 1104.47 218.823C1099.27 218.823 1094.85 217.051 1091.21 213.506C1087.62 209.914 1085.82 205.495 1085.82 200.248C1085.82 195.002 1087.62 190.606 1091.21 187.061C1094.85 183.469 1099.27 181.673 1104.47 181.673C1109.67 181.673 1114.06 183.469 1117.65 187.061C1121.29 190.606 1123.11 195.002 1123.11 200.248C1123.11 205.495 1121.29 209.914 1117.65 213.506ZM1094.54 210.245C1097.24 212.939 1100.54 214.286 1104.47 214.286C1108.39 214.286 1111.7 212.939 1114.39 210.245C1117.09 207.503 1118.43 204.171 1118.43 200.248C1118.43 196.325 1117.09 193.017 1114.39 190.323C1111.7 187.581 1108.39 186.21 1104.47 186.21C1100.54 186.21 1097.24 187.581 1094.54 190.323C1091.85 193.017 1090.5 196.325 1090.5 200.248C1090.5 204.171 1091.85 207.503 1094.54 210.245Z" fill="#BABABA"/>
<path d="M1157.1 181.673C1161.41 181.673 1164.78 182.996 1167.24 185.643C1169.75 188.243 1171 191.764 1171 196.207V217.972H1166.32V196.207C1166.32 193.04 1165.47 190.582 1163.77 188.834C1162.11 187.085 1159.75 186.21 1156.68 186.21C1153.28 186.21 1150.51 187.298 1148.38 189.472C1146.26 191.599 1145.19 194.907 1145.19 199.397V217.972H1140.51V182.524H1145.19V188.054C1147.84 183.8 1151.81 181.673 1157.1 181.673Z" fill="#BABABA"/>
<path d="M746.86 56.0746C755.329 56.0746 762.136 58.797 767.278 64.2419C772.521 69.6869 775.143 77.0476 775.143 86.3241V133.513H765.161V86.3241C765.161 79.77 763.446 74.7284 760.018 71.1993C756.691 67.5694 752.254 65.7544 746.708 65.7544C740.457 65.7544 735.365 67.8719 731.432 72.1068C727.601 76.2409 725.685 82.7446 725.685 91.6178V133.513H715.703V86.3241C715.703 79.6692 714.089 74.5772 710.863 71.0481C707.737 67.519 703.452 65.7544 698.007 65.7544C691.957 65.7544 686.814 67.8719 682.579 72.1068C678.344 76.3417 676.227 82.8454 676.227 91.6178V133.513H666.245V57.8895H676.227V68.9306C681.672 60.3599 689.386 56.0746 699.368 56.0746C710.258 56.0746 717.921 60.6624 722.358 69.8381C727.802 60.6624 735.97 56.0746 746.86 56.0746Z" fill="#AFD252"/>
<path d="M845.27 56.0746C856.462 56.0746 865.487 60.0574 872.343 68.0231C879.301 75.888 882.779 85.2149 882.779 96.0039C882.779 97.1131 882.678 98.676 882.477 100.693H816.079C817.087 108.356 820.314 114.456 825.759 118.994C831.305 123.43 838.111 125.648 846.177 125.648C851.925 125.648 856.866 124.489 861 122.17C865.235 119.75 868.411 116.624 870.528 112.792L879.301 117.935C875.973 123.279 871.436 127.514 865.688 130.64C859.941 133.765 853.387 135.328 846.026 135.328C834.128 135.328 824.448 131.598 816.987 124.136C809.525 116.674 805.794 107.196 805.794 95.7015C805.794 84.4083 809.475 74.9805 816.835 67.4181C824.196 59.8558 833.674 56.0746 845.27 56.0746ZM845.27 65.7544C837.405 65.7544 830.8 68.124 825.456 72.863C820.213 77.5013 817.087 83.5512 816.079 91.0128H872.494C871.486 83.0471 868.411 76.8459 863.268 72.4093C858.126 67.9727 852.126 65.7544 845.27 65.7544Z" fill="#AFD252"/>
<path d="M952.404 67.5694H930.624V113.397C930.624 117.532 931.431 120.506 933.044 122.321C934.658 124.035 937.078 124.943 940.304 125.043C943.531 125.043 947.564 124.943 952.404 124.741V133.513C941.817 135.127 933.851 134.37 928.507 131.245C923.264 128.119 920.642 122.17 920.642 113.397V67.5694H904.761V57.8895H920.642V33.2479L930.624 36.7149V57.8895H952.404V67.5694Z" fill="#AFD252"/>
<path d="M994.905 70.4431C999.543 61.2674 1007.51 56.6796 1018.8 56.6796V66.3594C1011.95 66.3594 1006.25 68.376 1001.71 72.4093C997.173 76.4426 994.905 82.795 994.905 91.4665V133.513H984.922V57.8895H994.905V70.4431Z" fill="#AFD252"/>
<path d="M1058.5 39.7398C1057.09 41.1515 1055.37 41.8573 1053.35 41.8573C1051.34 41.8573 1049.62 41.1515 1048.21 39.7398C1046.8 38.3282 1046.09 36.614 1046.09 34.5974C1046.09 32.5808 1046.8 30.8666 1048.21 29.455C1049.62 28.0433 1051.34 27.3375 1053.35 27.3375C1055.37 27.3375 1057.09 28.0433 1058.5 29.455C1059.91 30.8666 1060.61 32.5808 1060.61 34.5974C1060.61 36.614 1059.91 38.3282 1058.5 39.7398ZM1048.36 133.513V57.8895H1058.35V133.513H1048.36Z" fill="#AFD252"/>
<path d="M1160.45 57.8895H1170.43V133.513H1160.45V118.691C1153.49 129.783 1143.3 135.328 1129.89 135.328C1119.11 135.328 1109.88 131.497 1102.22 123.834C1094.65 116.17 1090.87 106.793 1090.87 95.7015C1090.87 84.61 1094.65 75.2326 1102.22 67.5694C1109.88 59.9062 1119.11 56.0746 1129.89 56.0746C1143.3 56.0746 1153.49 61.6203 1160.45 72.7118V57.8895ZM1109.48 117.027C1115.22 122.775 1122.28 125.648 1130.65 125.648C1139.02 125.648 1146.08 122.775 1151.83 117.027C1157.57 111.179 1160.45 104.07 1160.45 95.7015C1160.45 87.3324 1157.57 80.2742 1151.83 74.5268C1146.08 68.6785 1139.02 65.7544 1130.65 65.7544C1122.28 65.7544 1115.22 68.6785 1109.48 74.5268C1103.73 80.2742 1100.85 87.3324 1100.85 95.7015C1100.85 104.07 1103.73 111.179 1109.48 117.027Z" fill="#AFD252"/>
<path d="M406.729 57.8896H416.711V130.488C416.711 141.378 412.98 149.949 405.519 156.201C398.057 162.452 389.134 165.578 378.748 165.578C361.002 165.578 349.053 159.427 342.902 147.126L351.675 142.134C356.212 151.31 365.236 155.898 378.748 155.898C387.419 155.898 394.226 153.579 399.166 148.941C404.208 144.403 406.729 138.252 406.729 130.488V118.691C399.771 129.783 389.587 135.328 376.177 135.328C365.388 135.328 356.162 131.497 348.498 123.834C340.936 116.17 337.155 106.793 337.155 95.7015C337.155 84.61 340.936 75.2326 348.498 67.5694C356.162 59.9062 365.388 56.0746 376.177 56.0746C389.587 56.0746 399.771 61.6203 406.729 72.7118V57.8896ZM355.758 117.027C361.506 122.775 368.564 125.649 376.933 125.649C385.302 125.649 392.36 122.775 398.108 117.027C403.855 111.179 406.729 104.071 406.729 95.7015C406.729 87.3324 403.855 80.2742 398.108 74.5268C392.36 68.6786 385.302 65.7544 376.933 65.7544C368.564 65.7544 361.506 68.6786 355.758 74.5268C350.011 80.2742 347.137 87.3324 347.137 95.7015C347.137 104.071 350.011 111.179 355.758 117.027Z" fill="#BABABA"/>
<path d="M488.666 56.0746C499.858 56.0746 508.883 60.0574 515.739 68.0231C522.697 75.888 526.175 85.215 526.175 96.004C526.175 97.1131 526.075 98.676 525.873 100.693H459.475C460.483 108.356 463.71 114.456 469.155 118.994C474.701 123.43 481.507 125.649 489.573 125.649C495.321 125.649 500.262 124.489 504.396 122.17C508.631 119.75 511.807 116.624 513.924 112.792L522.697 117.935C519.369 123.279 514.832 127.514 509.084 130.64C503.337 133.765 496.783 135.328 489.422 135.328C477.524 135.328 467.844 131.598 460.383 124.136C452.921 116.674 449.19 107.196 449.19 95.7015C449.19 84.4083 452.871 74.9805 460.231 67.4182C467.592 59.8558 477.07 56.0746 488.666 56.0746ZM488.666 65.7544C480.801 65.7544 474.197 68.124 468.852 72.8631C463.609 77.5013 460.483 83.5512 459.475 91.0128H515.891C514.882 83.0471 511.807 76.8459 506.664 72.4093C501.522 67.9727 495.523 65.7544 488.666 65.7544Z" fill="#BABABA"/>
<path d="M621.308 123.985C613.645 131.547 604.267 135.328 593.176 135.328C582.084 135.328 572.656 131.547 564.892 123.985C557.229 116.322 553.398 106.894 553.398 95.7015C553.398 84.5091 557.229 75.1318 564.892 67.5694C572.656 59.9062 582.084 56.0746 593.176 56.0746C604.267 56.0746 613.645 59.9062 621.308 67.5694C629.072 75.1318 632.954 84.5091 632.954 95.7015C632.954 106.894 629.072 116.322 621.308 123.985ZM572.001 117.027C577.748 122.775 584.807 125.649 593.176 125.649C601.545 125.649 608.603 122.775 614.35 117.027C620.098 111.179 622.972 104.071 622.972 95.7015C622.972 87.3324 620.098 80.2742 614.35 74.5268C608.603 68.6786 601.545 65.7544 593.176 65.7544C584.807 65.7544 577.748 68.6786 572.001 74.5268C566.254 80.2742 563.38 87.3324 563.38 95.7015C563.38 104.071 566.254 111.179 572.001 117.027Z" fill="#BABABA"/>
</svg>
