<svg xmlns="http://www.w3.org/2000/svg" xmlns:xlink="http://www.w3.org/1999/xlink" viewBox="0 0 31.55 31.55"><defs><style>.cls-1{fill:url(#Градієнт_без_назви_32);}</style><radialGradient id="Градієнт_без_назви_32" cx="15.78" cy="15.78" r="15.78" gradientUnits="userSpaceOnUse"><stop offset="0" stop-color="#ef4623"/><stop offset="0.36" stop-color="#ef4323"/><stop offset="0.62" stop-color="#ee3923"/><stop offset="0.86" stop-color="#ee2924"/><stop offset="1" stop-color="#ed1c24"/></radialGradient></defs><title>Ресурс 10</title><g id="Шар_2" data-name="Шар 2"><g id="Шар_1-2" data-name="Шар 1"><path class="cls-1" d="M12.56,15.57l13-13a1.21,1.21,0,0,0,.36-.86A1.25,1.25,0,0,0,25,.54L25,.52A10.23,10.23,0,0,0,21.84,0H15.78A15.77,15.77,0,0,0,0,15.78v9.69a6.08,6.08,0,0,0,6.08,6.08h9.7A15.77,15.77,0,0,0,31.55,15.78V9.27a2.43,2.43,0,0,0-4.14-1.71l-8.52,8.53a1.15,1.15,0,0,0-.34.84,1.67,1.67,0,0,0,.06.39,3.57,3.57,0,0,1,.1.87,3.64,3.64,0,1,1-6.15-2.62"/></g></g></svg>