<svg xmlns="http://www.w3.org/2000/svg" viewBox="0 0 135.5 32.38"><defs><style>.cls-1{fill:#fff;}</style></defs><title>logo_white</title><g id="Шар_2" data-name="Шар 2"><g id="Шар_1-2" data-name="Шар 1"><path class="cls-1" d="M45.11,9.32v1.12a8.63,8.63,0,1,0,0,15v1.13h4.36V9.32ZM40.83,22.21a4.27,4.27,0,1,1,4.28-4.27A4.27,4.27,0,0,1,40.83,22.21Z"/><path class="cls-1" d="M12.13,20.39a4.27,4.27,0,1,1,0-4.89L15.71,13a8.63,8.63,0,1,0,0,9.88Z"/><path class="cls-1" d="M118.23,0h4.36V10.44h0a8.64,8.64,0,0,1,12.91,7.5v8.63h-4.36V17.94a4.28,4.28,0,0,0-8.55,0v8.63h-4.36V0"/><rect class="cls-1" x="89.55" y="0.67" width="4.36" height="4.36"/><polyline class="cls-1" points="89.55 9.32 93.91 9.32 93.91 9.31 93.91 26.57 93.91 26.57 89.55 26.57 89.55 26.57 89.55 9.31"/><path class="cls-1" d="M19.38,9.32h4.36v1.12A8.59,8.59,0,0,1,28,9.31h1.35v4.36H28a4.27,4.27,0,0,0-4.27,4.27v8.63H19.38Z"/><path class="cls-1" d="M78.91,9.31A4.28,4.28,0,0,1,83.18,5h1.36V.67H83.18a8.63,8.63,0,0,0-8.63,8.64h0V26.57h4.36v-13h5.63V9.31H78.91"/><path class="cls-1" d="M99.4,22.21h7.92a1,1,0,1,0,0-2.08h-2.51a5.41,5.41,0,1,1,0-10.82h7.92v4.36h-7.92a1,1,0,0,0,0,2.08h2.51a5.41,5.41,0,1,1,0,10.82H99.4Z"/><polygon class="cls-1" points="61.98 18.78 57.89 9.31 57.89 9.32 53.15 9.32 59.66 24.44 56.42 32.38 61.16 32.38 70.59 9.32 65.85 9.32 61.98 18.78"/></g></g></svg>